<svg xmlns="http://www.w3.org/2000/svg" xmlns:xlink="http://www.w3.org/1999/xlink" width="80" zoomAndPan="magnify" viewBox="0 0 60 30.000001" height="40" preserveAspectRatio="xMidYMid meet" version="1.0"><defs><g/><clipPath id="a725dec990"><path d="M 1 1 L 59.03125 1 L 59.03125 26 L 1 26 Z M 1 1 " clip-rule="nonzero"/></clipPath><clipPath id="bf55b73ff2"><rect x="0" width="59" y="0" height="25"/></clipPath></defs><g clip-path="url(#a725dec990)"><g transform="matrix(1, 0, 0, 1, 1, 1)"><g clip-path="url(#bf55b73ff2)"><g fill="#808080" fill-opacity="1"><g transform="translate(2.455479, 20.963417)"><g><path d="M 13.765625 -0.03125 L 13.84375 -13.28125 L 0.875 -13.703125 L 0.390625 -0.03125 L 4.5625 0 L 4.78125 -5.9375 L 10.078125 -5.828125 L 10.125 -0.015625 Z M 10.109375 -10.9375 L 10.1875 -8.4375 L 4.625 -8.640625 L 4.6875 -11.140625 Z M 10.109375 -10.9375 "/></g></g></g><g fill="#808080" fill-opacity="1"><g transform="translate(15.986346, 20.963417)"><g><path d="M 0.390625 -13.28125 L 0.765625 0.09375 L 4.140625 0 L 4.234375 -6.09375 L 5.953125 -6.046875 L 10.640625 0.171875 L 14.984375 0.09375 L 10.15625 -6.125 L 13.1875 -6.1875 L 13.40625 -13.515625 Z M 8.296875 -8.34375 L 4.0625 -8.328125 L 4.0625 -10.625 L 8.21875 -10.65625 Z M 8.296875 -8.34375 "/></g></g></g><g fill="#808080" fill-opacity="1"><g transform="translate(30.654452, 20.963417)"><g><path d="M 0.640625 -13.625 L 0.390625 -0.015625 L 4.46875 -0.015625 L 4.46875 -13.65625 Z M 0.640625 -13.625 "/></g></g></g><g fill="#808080" fill-opacity="1"><g transform="translate(34.817521, 20.963417)"><g><path d="M 4.359375 -7.515625 L 4.359375 -9.703125 L 13.765625 -9.609375 L 13.765625 -13 L 0.390625 -13.1875 L 0.515625 -0.03125 L 13.40625 0.03125 L 13.28125 -3.140625 L 4.453125 -3.375 L 4.5 -5.703125 L 11.75 -5.59375 L 11.859375 -7.390625 Z M 4.359375 -7.515625 "/></g></g></g><g fill="#808080" fill-opacity="1"><g transform="translate(48.271288, 20.963417)"><g><path d="M 0.4375 -13.578125 L 0.390625 -0.109375 L 9.296875 0 L 9.296875 -3.71875 L 3.9375 -3.734375 L 4.421875 -13.359375 Z M 0.4375 -13.578125 "/></g></g></g><g fill="#000000" fill-opacity="1"><g transform="translate(1.60312, 20.111059)"><g><path d="M 13.402344 -0.0390625 L 13.480469 -13.285156 L 13.84375 -13.285156 L 13.832031 -12.921875 L 0.855469 -13.347656 L 0.867188 -13.707031 L 1.230469 -13.695312 L 0.746094 -0.0273438 L 0.386719 -0.0390625 L 0.390625 -0.398438 L 4.574219 -0.363281 L 4.570312 0 L 4.207031 -0.0117188 L 4.433594 -6.308594 L 10.441406 -6.175781 L 10.484375 -0.0234375 L 10.121094 -0.0195312 L 10.121094 -0.382812 L 13.761719 -0.398438 L 13.765625 -0.0390625 Z M 14.125 0.320312 L 9.761719 0.34375 L 9.722656 -5.820312 L 10.082031 -5.824219 L 10.074219 -5.460938 L 4.773438 -5.578125 L 4.78125 -5.9375 L 5.144531 -5.925781 L 4.917969 0.363281 L 0.0117188 0.320312 L 0.519531 -14.082031 L 14.207031 -13.632812 L 14.128906 -0.0351562 Z M 10.464844 -10.941406 L 10.554688 -8.070312 L 4.257812 -8.289062 L 4.332031 -11.519531 L 10.453125 -11.28125 Z M 9.742188 -10.921875 L 10.101562 -10.929688 L 10.089844 -10.570312 L 4.671875 -10.78125 L 4.683594 -11.144531 L 5.046875 -11.136719 L 4.988281 -8.628906 L 4.628906 -8.636719 L 4.640625 -9 L 10.191406 -8.804688 L 10.179688 -8.445312 L 9.816406 -8.433594 Z M 9.742188 -10.921875 "/></g></g></g><g fill="#000000" fill-opacity="1"><g transform="translate(15.133987, 20.111059)"><g><path d="M 0.746094 -13.292969 L 1.132812 0.0859375 L 0.769531 0.0976562 L 0.761719 -0.265625 L 4.132812 -0.363281 L 4.144531 0 L 3.785156 -0.00390625 L 3.886719 -6.460938 L 6.140625 -6.410156 L 10.929688 -0.0429688 L 10.640625 0.171875 L 10.636719 -0.1875 L 14.972656 -0.265625 L 14.980469 0.0976562 L 14.695312 0.316406 L 9.433594 -6.480469 L 13.179688 -6.550781 L 13.1875 -6.1875 L 12.824219 -6.199219 L 13.039062 -13.523438 L 13.398438 -13.515625 L 13.40625 -13.152344 L 0.390625 -12.921875 L 0.386719 -13.285156 Z M 0.0117188 -13.636719 L 13.773438 -13.882812 L 13.539062 -5.832031 L 10.167969 -5.769531 L 10.160156 -6.132812 L 10.445312 -6.351562 L 15.707031 0.445312 L 10.464844 0.539062 L 5.667969 -5.835938 L 5.957031 -6.054688 L 5.949219 -5.691406 L 4.234375 -5.730469 L 4.242188 -6.09375 L 4.601562 -6.085938 L 4.5 0.351562 L 0.421875 0.46875 L 0.0234375 -13.273438 Z M 8.292969 -7.988281 L 3.707031 -7.964844 L 3.707031 -10.980469 L 8.5625 -11.027344 L 8.664062 -7.988281 Z M 8.289062 -8.710938 L 8.289062 -8.347656 L 7.929688 -8.335938 L 7.851562 -10.648438 L 8.214844 -10.660156 L 8.214844 -10.300781 L 4.070312 -10.261719 L 4.066406 -10.621094 L 4.429688 -10.621094 L 4.429688 -8.328125 L 4.066406 -8.328125 L 4.066406 -8.691406 Z M 8.289062 -8.710938 "/></g></g></g><g fill="#000000" fill-opacity="1"><g transform="translate(29.802093, 20.111059)"><g><path d="M 0.996094 -13.625 L 0.746094 -0.0117188 L 0.386719 -0.0195312 L 0.386719 -0.382812 L 4.472656 -0.382812 L 4.472656 -0.0195312 L 4.109375 -0.0195312 L 4.109375 -13.648438 L 4.472656 -13.648438 L 4.476562 -13.289062 L 0.636719 -13.269531 L 0.636719 -13.628906 Z M 0.28125 -13.992188 L 4.835938 -14.011719 L 4.835938 0.34375 L 0.015625 0.34375 L 0.273438 -13.636719 Z M 0.28125 -13.992188 "/></g></g></g><g fill="#000000" fill-opacity="1"><g transform="translate(33.965163, 20.111059)"><g><path d="M 3.996094 -7.519531 L 3.996094 -10.0625 L 13.769531 -9.960938 L 13.765625 -9.601562 L 13.402344 -9.601562 L 13.402344 -12.996094 L 13.765625 -12.996094 L 13.761719 -12.632812 L 0.378906 -12.824219 L 0.386719 -13.1875 L 0.746094 -13.191406 L 0.882812 -0.0429688 L 0.519531 -0.0390625 L 0.523438 -0.398438 L 13.402344 -0.324219 L 13.398438 0.0390625 L 13.039062 0.0507812 L 12.921875 -3.128906 L 13.285156 -3.140625 L 13.273438 -2.78125 L 4.085938 -3.023438 L 4.136719 -6.074219 L 11.746094 -5.953125 L 11.742188 -5.589844 L 11.378906 -5.613281 L 11.496094 -7.40625 L 11.855469 -7.382812 L 11.851562 -7.023438 L 3.996094 -7.164062 Z M 4.71875 -7.519531 L 4.355469 -7.519531 L 4.363281 -7.878906 L 12.242188 -7.738281 L 12.078125 -5.222656 L 4.488281 -5.34375 L 4.492188 -5.707031 L 4.855469 -5.699219 L 4.816406 -3.367188 L 4.453125 -3.375 L 4.464844 -3.734375 L 13.632812 -3.496094 L 13.773438 0.402344 L 0.164062 0.320312 L 0.0195312 -13.554688 L 14.128906 -13.351562 L 14.128906 -9.234375 L 4.351562 -9.335938 L 4.355469 -9.699219 L 4.71875 -9.699219 Z M 4.71875 -7.519531 "/></g></g></g><g fill="#000000" fill-opacity="1"><g transform="translate(47.41893, 20.111059)"><g><path d="M 0.804688 -13.570312 L 0.746094 -0.113281 L 0.386719 -0.117188 L 0.390625 -0.476562 L 9.296875 -0.363281 L 9.292969 0 L 8.929688 0 L 8.929688 -3.722656 L 9.292969 -3.722656 L 9.292969 -3.359375 L 3.554688 -3.378906 L 4.054688 -13.378906 L 4.414062 -13.359375 L 4.394531 -13 L 0.425781 -13.210938 L 0.445312 -13.574219 Z M 0.0820312 -13.953125 L 4.792969 -13.703125 L 4.292969 -3.722656 L 3.933594 -3.738281 L 3.933594 -4.101562 L 9.65625 -4.082031 L 9.65625 0.367188 L 0.0234375 0.242188 L 0.0820312 -13.574219 Z M 0.0820312 -13.953125 "/></g></g></g></g></g></g></svg>