<svg xmlns="http://www.w3.org/2000/svg" xmlns:xlink="http://www.w3.org/1999/xlink" width="500" zoomAndPan="magnify" viewBox="0 0 375 374.999991" height="500" preserveAspectRatio="xMidYMid meet" version="1.0"><defs><clipPath id="47fd53479e"><path d="M 7.085938 19.210938 L 367.71875 19.210938 L 367.71875 355.945312 L 7.085938 355.945312 Z M 7.085938 19.210938 " clip-rule="nonzero"/></clipPath></defs><path fill="#86aadf" d="M 320.761719 253.441406 C 309.578125 260.15625 297.058594 263.691406 284.164062 265.289062 C 280.070312 243.679688 271.460938 221.167969 264.207031 204.449219 C 269.792969 197.113281 275.164062 189.613281 280.253906 181.921875 C 283.449219 177.097656 286.777344 171.988281 290.054688 166.65625 C 302.226562 172.859375 313.605469 180.078125 323.777344 188.425781 C 348.953125 209.082031 350.421875 235.628906 320.761719 253.441406 Z M 267.117188 317.464844 C 244.605469 335.957031 208.6875 321.855469 188.21875 307.507812 C 184.464844 304.875 180.878906 302.050781 177.421875 299.082031 C 187.421875 289.628906 196.730469 279.816406 205.101562 271.042969 C 224.828125 273.957031 244.046875 275.441406 261.691406 275.441406 C 267.296875 275.441406 273.167969 275.1875 279.128906 274.613281 C 281.597656 291.324219 279.554688 307.246094 267.117188 317.464844 Z M 84.175781 318.554688 C 74.921875 299.042969 85.125 268.457031 98.09375 241.039062 C 107.582031 245.222656 117.472656 249.039062 127.609375 252.484375 C 137.519531 269.378906 149.015625 285.449219 162.269531 298.828125 C 129.40625 326.136719 96.234375 343.984375 84.175781 318.554688 Z M 63.097656 210.710938 C 41.980469 196.613281 20.46875 175.027344 48.066406 155.230469 C 57.535156 148.441406 68.773438 143.867188 80.699219 140.800781 C 85.699219 157.570312 91.28125 172.339844 94.628906 181.3125 C 97.921875 190.121094 101.644531 199.523438 105.835938 209.171875 C 103.65625 213.261719 101.542969 217.339844 99.5 221.402344 C 98.476562 223.441406 97.179688 226.027344 95.714844 229.03125 C 84.324219 223.652344 73.382812 217.582031 63.097656 210.710938 Z M 100.160156 48.683594 C 134.894531 48.683594 164.792969 69.136719 189.660156 97.355469 C 179.714844 106.285156 170.320312 116.023438 161.472656 126.316406 C 149.59375 125.949219 137.796875 126.148438 126.214844 126.90625 C 114.601562 127.667969 101.453125 128.398438 88.375 130.292969 C 77.992188 95.976562 68.914062 48.683594 100.160156 48.683594 Z M 259.375 193.679688 C 251.960938 177.605469 244.023438 161.621094 235.042969 146.28125 C 250.117188 150.175781 264.875 155.128906 278.800781 161.300781 C 272.382812 173.054688 265.550781 184.214844 259.375 193.679688 Z M 195.722656 104.5 C 202.851562 113.222656 209.53125 122.542969 215.761719 132.121094 C 201.84375 129.519531 187.769531 127.804688 173.742188 126.898438 C 174.074219 126.558594 174.398438 126.210938 174.726562 125.871094 C 181.160156 119.195312 188.183594 111.804688 195.722656 104.5 Z M 112.441406 197.152344 C 107.617188 185.148438 103.222656 173.171875 99.042969 161.621094 C 97.425781 157.148438 94.296875 148.777344 90.964844 138.546875 C 108.109375 135.367188 126.011719 134.746094 141.707031 134.746094 C 145.832031 134.746094 150.027344 134.824219 154.269531 134.960938 C 138.445312 154.558594 124.503906 175.820312 112.441406 197.152344 Z M 120.292969 239.355469 C 114.253906 237.113281 108.300781 234.699219 102.453125 232.113281 C 104.910156 227.242188 107.390625 222.527344 109.808594 218.0625 C 113.046875 225.132812 116.539062 232.273438 120.292969 239.355469 Z M 134.460938 244.269531 C 127.660156 232.046875 121.664062 219.257812 116.234375 206.375 C 118.824219 201.726562 121.183594 197.535156 123.136719 193.953125 C 134.75 172.632812 149.429688 153.410156 165.714844 135.503906 C 184.332031 136.660156 203.710938 139.203125 222.816406 143.375 C 234.984375 163.496094 245.214844 184.183594 253.464844 202.519531 C 247.679688 210.96875 242.957031 217.230469 240.476562 220.085938 C 235.609375 225.679688 221.441406 241.976562 203.410156 260.40625 C 180.296875 256.757812 156.9375 251.550781 134.460938 244.269531 Z M 142.058594 257.09375 C 159.304688 262.246094 177.027344 266.347656 194.503906 269.351562 C 186.703125 277.050781 178.40625 284.878906 169.972656 292.253906 C 159.359375 281.851562 150.160156 269.925781 142.058594 257.09375 Z M 261.078125 220.007812 C 266.058594 231.828125 273.578125 248.855469 277.484375 265.949219 C 265.972656 266.804688 254.296875 266.300781 243.132812 265.292969 C 233.511719 264.425781 223.71875 263.324219 213.851562 261.953125 C 229.246094 246.191406 244.152344 229.824219 257.898438 212.554688 C 259 215.101562 260.066406 217.59375 261.078125 220.007812 Z M 274.148438 62.21875 C 319.074219 62.21875 305.519531 109.644531 283.316406 152.789062 C 265.644531 144.929688 246.992188 138.921875 227.910156 134.617188 C 220.257812 122.632812 211.863281 111.15625 202.429688 100.488281 C 202.0625 100.070312 201.683594 99.644531 201.296875 99.210938 C 222.320312 79.726562 247.023438 62.21875 274.148438 62.21875 Z M 321.269531 173.699219 C 312.882812 168.03125 304.09375 162.925781 295.007812 158.332031 C 306.535156 138.222656 316.097656 115.632812 314.613281 93.570312 C 311.882812 53.015625 272.828125 46.445312 241.273438 61.890625 C 224.816406 69.949219 209.453125 80.398438 195.179688 92.535156 C 170.808594 66.613281 125.503906 26.121094 92.121094 38.535156 C 62.621094 49.5 67.859375 94.007812 78.199219 132.03125 C 62.230469 135.214844 47 140.644531 35.519531 150.574219 C 9.152344 173.378906 32.011719 201.148438 54.066406 216.652344 C 65.273438 224.535156 77.894531 231.660156 91.445312 238.015625 C 74.835938 273.914062 49.316406 341.488281 98.683594 341.492188 C 123.675781 341.492188 148.160156 325.324219 169.863281 306.015625 C 189.496094 323.390625 212.6875 334.71875 239.941406 334.71875 C 281.644531 334.71875 289.8125 306.402344 285.546875 273.859375 C 308.175781 270.75 331.136719 262.503906 344.851562 244.558594 C 366.019531 216.863281 345.5625 190.109375 321.269531 173.699219 " fill-opacity="1" fill-rule="nonzero"/><path fill="#f46a61" d="M 221.339844 194.683594 C 219.515625 210.675781 205.285156 222.71875 190.199219 226.375 C 173.507812 230.417969 157.875 217.339844 154.265625 201.4375 C 151.484375 189.183594 155.679688 177.214844 164.339844 169.046875 C 171.488281 156.496094 191 154.632812 203.144531 160.257812 C 215.957031 166.199219 222.910156 180.925781 221.339844 194.683594 " fill-opacity="1" fill-rule="nonzero"/><g clip-path="url(#47fd53479e)"><path fill="#2e2e30" d="M 321.460938 204.902344 C 315.980469 204.367188 311.636719 205.292969 306.550781 202.277344 C 301.800781 199.460938 299.320312 195.308594 297.074219 190.421875 C 296.648438 189.496094 295.175781 189.980469 295.199219 190.933594 C 295.339844 197.019531 299.785156 202.265625 304.777344 205.3125 C 309.324219 208.089844 317.273438 210.492188 322.035156 207.03125 C 322.972656 206.351562 322.617188 205.015625 321.460938 204.902344 Z M 219.101562 223.847656 C 212.292969 226.347656 206.449219 230.652344 199.332031 232.640625 C 191.773438 234.75 184.324219 234.695312 176.570312 234.695312 C 175.1875 234.695312 174.894531 236.742188 176.242188 237.113281 C 184.019531 239.253906 192.636719 238.402344 200.351562 236.347656 C 207.332031 234.488281 215.816406 231.355469 220.289062 225.398438 C 220.835938 224.671875 219.925781 223.546875 219.101562 223.847656 Z M 141.652344 20.519531 C 136.875 18.757812 128.917969 18.207031 125.304688 22.546875 C 124.886719 23.050781 125.121094 23.972656 125.878906 23.9375 C 128.433594 23.828125 130.832031 22.84375 133.410156 22.792969 C 136.566406 22.742188 139.820312 23.542969 142.578125 25.074219 C 147.023438 27.535156 148.867188 34.472656 153.890625 35.441406 C 154.878906 35.628906 155.488281 34.726562 155.113281 33.851562 C 152.691406 28.199219 147.472656 22.664062 141.652344 20.519531 Z M 100.148438 58.050781 C 92.542969 59.15625 87.304688 68.863281 85.578125 75.550781 C 84.011719 81.632812 83.414062 93.480469 89.78125 97.191406 C 90.632812 97.6875 91.742188 97.050781 91.742188 96.0625 C 91.738281 93.132812 90.179688 90.453125 89.640625 87.582031 C 88.96875 84.003906 89.144531 80.300781 89.996094 76.769531 C 90.804688 73.40625 92.199219 70.203125 94.222656 67.390625 C 96.257812 64.566406 99.128906 62.648438 101.277344 59.984375 C 102.03125 59.046875 101.316406 57.878906 100.148438 58.050781 Z M 363.84375 208.96875 C 363.207031 207.703125 361.304688 208.605469 361.621094 209.90625 C 363.894531 219.214844 364.882812 228.316406 362.53125 237.738281 C 361.449219 242.078125 359.773438 246.234375 357.566406 250.121094 C 355.292969 254.121094 352.070312 257.460938 349.789062 261.425781 C 349.230469 262.394531 350.328125 263.398438 351.269531 262.90625 C 359.679688 258.515625 364.429688 246.835938 366.402344 238.089844 C 368.5625 228.542969 368.300781 217.84375 363.84375 208.96875 Z M 322.355469 60.707031 C 314.738281 50.390625 302.699219 43.632812 289.945312 42.578125 C 288.855469 42.484375 288.648438 44.214844 289.691406 44.472656 C 301.792969 47.449219 313.648438 53.34375 320.652344 64.078125 C 324.53125 70.027344 326.351562 76.855469 327 83.878906 C 327.617188 90.597656 326 97.933594 327.394531 104.464844 C 327.636719 105.601562 329.171875 105.410156 329.507812 104.464844 C 331.96875 97.519531 331.101562 87.753906 330.105469 80.550781 C 329.117188 73.386719 326.671875 66.542969 322.355469 60.707031 Z M 273.476562 335.683594 C 265.820312 339.382812 258.636719 343.414062 250.179688 345.074219 C 241.585938 346.761719 232.582031 346.480469 224.058594 344.53125 C 222.511719 344.175781 221.90625 346.40625 223.40625 346.90625 C 239.59375 352.308594 262.417969 350.429688 274.753906 337.339844 C 275.601562 336.441406 274.539062 335.167969 273.476562 335.683594 Z M 202.023438 343.253906 C 196.988281 340.199219 191.421875 338.25 186.503906 334.925781 C 181.226562 331.359375 177.15625 326.746094 172.328125 322.691406 C 171.617188 322.097656 170.628906 322.828125 171.050781 323.679688 C 176.007812 333.792969 190.226562 344.148438 201.515625 345.132812 C 202.554688 345.222656 202.824219 343.738281 202.023438 343.253906 Z M 88.585938 351.875 C 74.589844 352.449219 64.394531 344.988281 60.460938 331.402344 C 56.335938 317.148438 60.167969 302.542969 59 288.078125 C 58.902344 286.859375 57.023438 286.410156 56.730469 287.769531 C 54.820312 296.65625 54.308594 306.320312 54.214844 315.394531 C 54.140625 323.125 54.984375 330.863281 58.082031 338.011719 C 62.828125 348.976562 76.636719 360.964844 89.097656 353.753906 C 89.9375 353.265625 89.601562 351.835938 88.585938 351.875 Z M 27.9375 209.789062 C 28.664062 210.4375 28.070312 211.660156 27.164062 211.664062 C 18.402344 211.679688 12.113281 201.792969 9.472656 194.511719 C 5.304688 183.011719 7.386719 170.761719 9.746094 159.128906 C 10.046875 157.640625 12.542969 157.980469 12.394531 159.488281 C 11.386719 169.660156 9.890625 180.695312 12.796875 190.675781 C 14.054688 195 16.203125 199.148438 19.1875 202.53125 C 21.734375 205.421875 25.085938 207.257812 27.9375 209.789062 " fill-opacity="1" fill-rule="nonzero"/></g><path fill="#f6b737" d="M 135.664062 165.4375 C 131.5625 163.109375 126.789062 161.4375 122.128906 163.003906 C 120.179688 163.65625 117.925781 165.097656 116.734375 166.964844 C 113.503906 171.15625 113.140625 177.898438 115.199219 183.175781 C 119.136719 193.261719 128.394531 194.027344 136.453125 187.957031 C 140.363281 185.015625 143.625 180.847656 143.480469 175.710938 C 143.34375 170.757812 139.65625 167.707031 135.664062 165.4375 Z M 333.457031 173.335938 C 319.6875 155.269531 293.199219 176.484375 304.933594 192.015625 C 315.769531 206.359375 346.199219 190.050781 333.457031 173.335938 Z M 143.949219 60.328125 C 135.84375 66.925781 122.542969 68.914062 117.542969 57.453125 C 114.902344 51.394531 116.507812 45.386719 120.351562 41.074219 C 124.882812 31.75 135.117188 27.375 144.652344 34.519531 C 153.851562 41.410156 152.417969 53.433594 143.949219 60.328125 " fill-opacity="1" fill-rule="nonzero"/><path fill="#ffffff" d="M 131.519531 167.039062 C 130.558594 166.992188 129.894531 168.390625 130.691406 169.035156 C 132.53125 170.535156 134.421875 171.5 135.546875 173.738281 C 136.523438 175.6875 136.292969 177.953125 137.1875 179.863281 C 137.402344 180.320312 138.050781 180.324219 138.371094 180.015625 C 140.421875 178.054688 139.375 174.339844 138.21875 172.175781 C 136.910156 169.742188 134.429688 167.167969 131.519531 167.039062 Z M 318.316406 173.136719 C 318.824219 172.707031 318.558594 171.75 317.917969 171.625 C 307.1875 169.46875 301.117188 191.25 314.628906 191.273438 C 315.4375 191.273438 315.71875 190.335938 315.246094 189.777344 C 314.3125 188.667969 313.128906 187.957031 312.121094 186.9375 C 310.171875 184.96875 310.347656 182.105469 311.535156 179.742188 C 313.113281 176.59375 315.761719 175.277344 318.316406 173.136719 Z M 128.859375 37.109375 C 124.511719 39.980469 120.671875 43.621094 120.878906 49.277344 C 121.007812 52.675781 123.289062 58.25 127.503906 57.347656 C 128.152344 57.210938 128.335938 56.457031 128.082031 55.933594 C 126.726562 53.148438 124.257812 51.882812 124.378906 48.320312 C 124.507812 44.59375 127.207031 40.816406 129.832031 38.367188 C 130.488281 37.753906 129.625 36.601562 128.859375 37.109375 Z M 202.308594 212.632812 C 199 212.992188 195.953125 214.554688 192.679688 215.222656 C 188.660156 216.046875 184.574219 216.265625 180.488281 215.988281 C 179.292969 215.910156 179.027344 217.835938 180.203125 218.085938 C 187.105469 219.5625 197.621094 219.878906 203.105469 214.554688 C 203.753906 213.925781 203.308594 212.523438 202.308594 212.632812 Z M 174.457031 168.378906 C 169.554688 174.609375 166.574219 182.105469 165.445312 189.925781 C 164.855469 194.015625 164.382812 198.503906 165.648438 202.511719 C 166.875 206.398438 169.9375 209.148438 172.09375 212.492188 C 172.597656 213.273438 171.765625 214.066406 170.988281 213.933594 C 161.203125 212.238281 159.777344 199.539062 160.816406 191.640625 C 162.074219 182.09375 165.289062 172.722656 173.273438 166.84375 C 174.253906 166.121094 175.074219 167.59375 174.457031 168.378906 " fill-opacity="1" fill-rule="nonzero"/></svg>