<svg xmlns="http://www.w3.org/2000/svg" xmlns:xlink="http://www.w3.org/1999/xlink" width="80" zoomAndPan="magnify" viewBox="0 0 60 30.000001" height="40" preserveAspectRatio="xMidYMid meet" version="1.0"><defs><g/></defs><g fill="#ffbd59" fill-opacity="1"><g transform="translate(3.821728, 20.153229)"><g><path d="M 10.6875 -0.0351562 L 10.753906 -10.890625 L 11.34375 -10.886719 L 11.324219 -10.292969 L 0.691406 -10.640625 L 0.710938 -11.234375 L 1.304688 -11.214844 L 0.910156 -0.0117188 L 0.316406 -0.03125 L 0.320312 -0.625 L 3.75 -0.59375 L 3.746094 0 L 3.152344 -0.0195312 L 3.347656 -5.472656 L 8.851562 -5.351562 L 8.886719 -0.0195312 L 8.296875 -0.015625 L 8.292969 -0.609375 L 11.277344 -0.625 L 11.28125 -0.03125 Z M 11.871094 0.558594 L 7.707031 0.578125 L 7.671875 -4.769531 L 8.265625 -4.773438 L 8.25 -4.179688 L 3.90625 -4.273438 L 3.917969 -4.867188 L 4.511719 -4.84375 L 4.316406 0.597656 L -0.296875 0.554688 L 0.140625 -11.847656 L 11.941406 -11.460938 L 11.875 -0.0273438 Z M 8.871094 -8.976562 L 8.953125 -6.304688 L 3.1875 -6.507812 L 3.261719 -9.75 L 8.855469 -9.53125 Z M 7.6875 -8.941406 L 8.28125 -8.960938 L 8.257812 -8.367188 L 3.816406 -8.539062 L 3.839844 -9.132812 L 4.433594 -9.121094 L 4.386719 -7.066406 L 3.792969 -7.078125 L 3.8125 -7.671875 L 8.363281 -7.511719 L 8.34375 -6.921875 L 7.75 -6.902344 Z M 7.6875 -8.941406 "/></g></g></g><g fill="#ffbd59" fill-opacity="1"><g transform="translate(16.808177, 20.153229)"><g><path d="M 0.910156 -10.902344 L 1.222656 0.0625 L 0.632812 0.078125 L 0.613281 -0.511719 L 3.378906 -0.59375 L 3.398438 0 L 2.804688 -0.0078125 L 2.894531 -5.597656 L 5.183594 -5.546875 L 9.195312 -0.214844 L 8.722656 0.140625 L 8.710938 -0.449219 L 12.265625 -0.511719 L 12.277344 0.078125 L 11.808594 0.441406 L 7.136719 -5.59375 L 10.796875 -5.664062 L 10.808594 -5.070312 L 10.214844 -5.089844 L 10.390625 -11.09375 L 10.980469 -11.078125 L 10.992188 -10.484375 L 0.328125 -10.292969 L 0.316406 -10.886719 Z M -0.292969 -11.46875 L 11.59375 -11.679688 L 11.382812 -4.488281 L 8.339844 -4.433594 L 8.328125 -5.023438 L 8.796875 -5.386719 L 13.46875 0.652344 L 8.429688 0.742188 L 4.410156 -4.605469 L 4.882812 -4.960938 L 4.867188 -4.367188 L 3.460938 -4.402344 L 3.476562 -4.992188 L 4.070312 -4.984375 L 3.980469 0.578125 L 0.0546875 0.6875 L -0.277344 -10.871094 Z M 6.796875 -6.25 L 2.742188 -6.230469 L 2.742188 -9.292969 L 7.304688 -9.335938 L 7.40625 -6.25 Z M 6.792969 -7.433594 L 6.792969 -6.839844 L 6.203125 -6.820312 L 6.140625 -8.71875 L 6.730469 -8.738281 L 6.738281 -8.144531 L 3.339844 -8.113281 L 3.332031 -8.707031 L 3.925781 -8.707031 L 3.925781 -6.824219 L 3.332031 -6.824219 L 3.332031 -7.417969 Z M 6.792969 -7.433594 "/></g></g></g><g fill="#ffbd59" fill-opacity="1"><g transform="translate(30.726692, 20.153229)"><g><path d="M 1.113281 -11.160156 L 0.910156 -0.00390625 L 0.316406 -0.015625 L 0.316406 -0.609375 L 3.664062 -0.609375 L 3.664062 -0.015625 L 3.074219 -0.015625 L 3.074219 -11.1875 L 3.664062 -11.1875 L 3.667969 -10.59375 L 0.523438 -10.578125 L 0.519531 -11.171875 Z M -0.0625 -11.761719 L 4.257812 -11.78125 L 4.257812 0.578125 L -0.289062 0.578125 L -0.0703125 -11.183594 Z M -0.0625 -11.761719 "/></g></g></g><g fill="#ffbd59" fill-opacity="1"><g transform="translate(36.035458, 20.153229)"><g><path d="M 2.976562 -6.164062 L 2.976562 -8.546875 L 11.289062 -8.460938 L 11.28125 -7.867188 L 10.6875 -7.867188 L 10.6875 -10.648438 L 11.28125 -10.648438 L 11.273438 -10.058594 L 0.308594 -10.214844 L 0.316406 -10.808594 L 0.910156 -10.8125 L 1.019531 -0.0390625 L 0.425781 -0.03125 L 0.429688 -0.625 L 10.984375 -0.5625 L 10.980469 0.03125 L 10.390625 0.0546875 L 10.292969 -2.554688 L 10.886719 -2.574219 L 10.871094 -1.984375 L 3.046875 -2.1875 L 3.097656 -5.277344 L 9.632812 -5.175781 L 9.621094 -4.582031 L 9.03125 -4.621094 L 9.125 -6.089844 L 9.71875 -6.050781 L 9.707031 -5.460938 L 2.976562 -5.582031 Z M 4.164062 -6.164062 L 3.570312 -6.164062 L 3.582031 -6.753906 L 10.347656 -6.632812 L 10.179688 -3.980469 L 3.671875 -4.085938 L 3.679688 -4.675781 L 4.273438 -4.667969 L 4.242188 -2.753906 L 3.648438 -2.765625 L 3.664062 -3.359375 L 11.457031 -3.152344 L 11.597656 0.628906 L -0.160156 0.558594 L -0.28125 -11.410156 L 11.875 -11.234375 L 11.875 -7.269531 L 3.566406 -7.355469 L 3.570312 -7.949219 L 4.164062 -7.949219 Z M 4.164062 -6.164062 "/></g></g></g><g fill="#ffbd59" fill-opacity="1"><g transform="translate(48.958713, 20.153229)"><g><path d="M 0.957031 -11.121094 L 0.910156 -0.09375 L 0.316406 -0.09375 L 0.324219 -0.6875 L 7.625 -0.59375 L 7.617188 0 L 7.023438 0 L 7.023438 -3.050781 L 7.617188 -3.050781 L 7.613281 -2.457031 L 2.601562 -2.476562 L 3.027344 -10.980469 L 3.617188 -10.949219 L 3.585938 -10.359375 L 0.332031 -10.53125 L 0.363281 -11.125 Z M -0.226562 -11.75 L 4.238281 -11.511719 L 3.816406 -3.035156 L 3.222656 -3.066406 L 3.226562 -3.65625 L 8.207031 -3.640625 L 8.207031 0.601562 L -0.277344 0.492188 L -0.230469 -11.125 Z M -0.226562 -11.75 "/></g></g></g><g fill="#ff751f" fill-opacity="1"><g transform="translate(3.821728, 20.153229)"><g><path d="M 11.28125 -0.03125 L 11.34375 -10.890625 L 0.703125 -11.234375 L 0.3125 -0.03125 L 3.75 0 L 3.921875 -4.859375 L 8.265625 -4.765625 L 8.296875 -0.015625 Z M 8.28125 -8.953125 L 8.34375 -6.921875 L 3.796875 -7.078125 L 3.84375 -9.125 Z M 8.28125 -8.953125 "/></g></g></g><g fill="#ff751f" fill-opacity="1"><g transform="translate(16.808177, 20.153229)"><g><path d="M 0.3125 -10.890625 L 0.625 0.078125 L 3.390625 0 L 3.46875 -4.984375 L 4.875 -4.953125 L 8.71875 0.140625 L 12.28125 0.078125 L 8.328125 -5.015625 L 10.8125 -5.078125 L 10.984375 -11.078125 Z M 6.796875 -6.84375 L 3.328125 -6.828125 L 3.328125 -8.703125 L 6.734375 -8.734375 Z M 6.796875 -6.84375 "/></g></g></g><g fill="#ff751f" fill-opacity="1"><g transform="translate(30.726692, 20.153229)"><g><path d="M 0.515625 -11.171875 L 0.3125 -0.015625 L 3.671875 -0.015625 L 3.671875 -11.1875 Z M 0.515625 -11.171875 "/></g></g></g><g fill="#ff751f" fill-opacity="1"><g transform="translate(36.035458, 20.153229)"><g><path d="M 3.5625 -6.15625 L 3.5625 -7.953125 L 11.28125 -7.859375 L 11.28125 -10.640625 L 0.3125 -10.8125 L 0.421875 -0.03125 L 10.984375 0.03125 L 10.890625 -2.578125 L 3.65625 -2.765625 L 3.6875 -4.671875 L 9.625 -4.578125 L 9.71875 -6.046875 Z M 3.5625 -6.15625 "/></g></g></g><g fill="#ff751f" fill-opacity="1"><g transform="translate(48.958713, 20.153229)"><g><path d="M 0.359375 -11.125 L 0.3125 -0.09375 L 7.609375 0 L 7.609375 -3.046875 L 3.21875 -3.0625 L 3.625 -10.953125 Z M 0.359375 -11.125 "/></g></g></g></svg>