<svg xmlns="http://www.w3.org/2000/svg" xmlns:xlink="http://www.w3.org/1999/xlink" width="500" zoomAndPan="magnify" viewBox="0 0 375 374.999991" height="500" preserveAspectRatio="xMidYMid meet" version="1.0"><defs><clipPath id="5839063907"><path d="M 35.839844 14.925781 L 337.339844 14.925781 L 337.339844 290 L 35.839844 290 Z M 35.839844 14.925781 " clip-rule="nonzero"/></clipPath><clipPath id="a9453c5433"><path d="M 117 282 L 259 282 L 259 359.925781 L 117 359.925781 Z M 117 282 " clip-rule="nonzero"/></clipPath><clipPath id="01da9f571d"><path d="M 117 283 L 259 283 L 259 359.925781 L 117 359.925781 Z M 117 283 " clip-rule="nonzero"/></clipPath></defs><g clip-path="url(#5839063907)"><path fill="#ebc239" d="M 75.617188 289.386719 C 74.410156 289.386719 73.050781 288.652344 72.722656 287.011719 C 68.078125 263.671875 61.644531 257.238281 38.304688 252.59375 C 36.667969 252.265625 35.929688 250.90625 35.929688 249.699219 C 35.929688 248.496094 36.667969 247.132812 38.308594 246.804688 C 61.644531 242.160156 68.078125 235.726562 72.722656 212.386719 C 73.050781 210.746094 74.410156 210.011719 75.617188 210.011719 C 76.820312 210.011719 78.183594 210.746094 78.507812 212.386719 C 83.152344 235.726562 89.585938 242.160156 112.925781 246.804688 C 114.566406 247.132812 115.300781 248.496094 115.300781 249.699219 C 115.300781 250.90625 114.566406 252.265625 112.925781 252.59375 C 89.585938 257.238281 83.152344 263.671875 78.507812 287.011719 C 78.183594 288.652344 76.820312 289.386719 75.617188 289.386719 Z M 193.648438 261.671875 C 193.347656 261.671875 193.101562 261.425781 193.101562 261.121094 L 193.101562 206.527344 C 193.101562 206.378906 193.15625 206.242188 193.261719 206.136719 L 228.769531 170.625 L 221.28125 163.140625 L 188.195312 196.226562 C 188.089844 196.332031 187.949219 196.390625 187.804688 196.390625 C 187.660156 196.390625 187.519531 196.332031 187.417969 196.226562 L 154.332031 163.140625 L 146.84375 170.625 L 182.347656 206.136719 C 182.453125 206.242188 182.511719 206.378906 182.511719 206.527344 L 182.511719 261.121094 C 182.511719 261.425781 182.265625 261.671875 181.960938 261.671875 L 129.722656 261.671875 C 129.417969 261.671875 129.171875 261.425781 129.171875 261.121094 L 129.171875 259.566406 C 129.171875 239.535156 122.636719 220.089844 110.777344 204.816406 C 96.996094 187.074219 89.925781 165.78125 90.335938 143.242188 C 90.796875 117.929688 101.015625 94.066406 119.109375 76.054688 C 137.199219 58.042969 161.101562 47.929688 186.417969 47.574219 C 186.878906 47.566406 187.34375 47.566406 187.808594 47.566406 C 188.109375 47.566406 188.355469 47.8125 188.355469 48.117188 L 188.355469 82.542969 C 196.21875 82.835938 202.527344 89.324219 202.527344 97.257812 C 202.527344 105.191406 196.21875 111.679688 188.355469 111.96875 L 188.355469 145.84375 L 222.769531 145.84375 C 223.074219 145.84375 223.320312 146.089844 223.320312 146.394531 C 223.320312 153.90625 229.429688 160.015625 236.941406 160.015625 C 244.453125 160.015625 250.5625 153.90625 250.5625 146.394531 C 250.5625 146.089844 250.808594 145.84375 251.113281 145.84375 L 284.71875 145.84375 C 284.867188 145.84375 285.007812 145.902344 285.113281 146.007812 C 285.214844 146.113281 285.273438 146.253906 285.269531 146.402344 C 284.988281 167.429688 278.125 187.367188 265.417969 204.058594 C 253.003906 220.363281 246.441406 239.417969 246.441406 259.160156 L 246.441406 261.121094 C 246.441406 261.425781 246.195312 261.671875 245.894531 261.671875 Z M 306.371094 231.855469 C 305.382812 231.855469 304.265625 231.253906 304 229.910156 C 300.402344 211.828125 295.421875 206.847656 277.34375 203.25 C 276 202.980469 275.398438 201.867188 275.398438 200.878906 C 275.398438 199.890625 276 198.777344 277.34375 198.511719 C 295.421875 194.914062 300.402344 189.929688 304 171.851562 C 304.265625 170.507812 305.382812 169.90625 306.371094 169.90625 C 307.355469 169.90625 308.472656 170.507812 308.738281 171.851562 C 312.335938 189.929688 317.320312 194.914062 335.394531 198.511719 C 336.738281 198.777344 337.339844 199.890625 337.339844 200.878906 C 337.339844 201.867188 336.738281 202.980469 335.394531 203.25 C 317.320312 206.847656 312.335938 211.828125 308.738281 229.910156 C 308.472656 231.253906 307.355469 231.855469 306.371094 231.855469 Z M 258.726562 137.988281 C 250.792969 137.988281 244.304688 131.683594 244.015625 123.816406 L 209.59375 123.816406 C 209.289062 123.816406 209.042969 123.570312 209.042969 123.269531 L 209.042969 88.300781 C 209.042969 87.996094 209.289062 87.75 209.59375 87.75 C 217.101562 87.75 223.214844 81.640625 223.214844 74.128906 C 223.214844 66.617188 217.101562 60.507812 209.59375 60.507812 C 209.289062 60.507812 209.042969 60.261719 209.042969 59.957031 L 209.042969 24.992188 C 209.042969 24.6875 209.289062 24.441406 209.59375 24.441406 C 263.339844 24.441406 307.070312 68.175781 307.070312 121.933594 C 307.070312 122.386719 307.070312 122.832031 307.054688 123.285156 C 307.046875 123.582031 306.804688 123.816406 306.507812 123.816406 L 273.4375 123.816406 C 273.148438 131.683594 266.660156 137.988281 258.726562 137.988281 Z M 114.75 63.84375 C 113.761719 63.84375 112.964844 63.191406 112.773438 62.222656 C 109.960938 48.089844 106.066406 44.191406 91.933594 41.378906 C 90.964844 41.1875 90.3125 40.394531 90.3125 39.402344 C 90.3125 38.414062 90.964844 37.621094 91.933594 37.429688 C 106.066406 34.617188 109.960938 30.71875 112.773438 16.585938 C 112.964844 15.617188 113.761719 14.964844 114.75 14.964844 C 115.738281 14.964844 116.535156 15.617188 116.726562 16.585938 C 119.539062 30.71875 123.433594 34.617188 137.566406 37.429688 C 138.535156 37.621094 139.1875 38.414062 139.1875 39.402344 C 139.1875 40.394531 138.535156 41.1875 137.566406 41.378906 C 123.433594 44.191406 119.539062 48.089844 116.726562 62.222656 C 116.535156 63.191406 115.738281 63.84375 114.75 63.84375 Z M 114.75 63.84375 " fill-opacity="1" fill-rule="nonzero"/></g><path fill="#ebc239" d="M 112.816406 252.054688 C 89.304688 256.734375 82.648438 263.390625 77.96875 286.90625 C 77.457031 289.480469 73.773438 289.480469 73.261719 286.90625 C 68.582031 263.390625 61.925781 256.734375 38.414062 252.054688 C 35.835938 251.542969 35.835938 247.859375 38.414062 247.34375 C 61.925781 242.667969 68.582031 236.007812 73.261719 212.492188 C 73.773438 209.917969 77.457031 209.917969 77.96875 212.492188 C 82.648438 236.007812 89.304688 242.667969 112.816406 247.34375 C 115.394531 247.859375 115.394531 251.542969 112.816406 252.054688 Z M 335.289062 199.050781 C 317.011719 195.414062 311.835938 190.234375 308.199219 171.957031 C 307.800781 169.953125 304.9375 169.953125 304.539062 171.957031 C 300.902344 190.234375 295.726562 195.414062 277.449219 199.050781 C 275.449219 199.449219 275.449219 202.3125 277.449219 202.710938 C 295.726562 206.347656 300.902344 211.523438 304.539062 229.800781 C 304.9375 231.804688 307.800781 231.804688 308.199219 229.800781 C 311.835938 211.523438 317.011719 206.347656 335.289062 202.710938 C 337.292969 202.3125 337.292969 199.449219 335.289062 199.050781 Z M 92.042969 40.839844 C 106.394531 43.695312 110.457031 47.761719 113.3125 62.113281 C 113.625 63.6875 115.875 63.6875 116.1875 62.113281 C 119.042969 47.761719 123.105469 43.695312 137.457031 40.839844 C 139.03125 40.527344 139.03125 38.28125 137.457031 37.96875 C 123.105469 35.109375 119.042969 31.046875 116.1875 16.695312 C 115.875 15.121094 113.625 15.121094 113.3125 16.695312 C 110.457031 31.046875 106.394531 35.109375 92.042969 37.96875 C 90.46875 38.28125 90.46875 40.527344 92.042969 40.839844 Z M 264.980469 203.722656 C 277.128906 187.761719 284.433594 167.925781 284.71875 146.394531 L 251.113281 146.394531 C 251.113281 154.226562 244.765625 160.566406 236.941406 160.566406 C 229.117188 160.566406 222.769531 154.226562 222.769531 146.394531 L 187.808594 146.394531 L 187.808594 111.429688 C 195.632812 111.429688 201.976562 105.082031 201.976562 97.257812 C 201.976562 89.429688 195.632812 83.085938 187.808594 83.085938 L 187.808594 48.117188 C 187.347656 48.117188 186.886719 48.117188 186.425781 48.125 C 134.382812 48.855469 91.835938 91.203125 90.886719 143.253906 C 90.46875 166.335938 98.121094 187.625 111.210938 204.480469 C 123.410156 220.1875 129.722656 239.671875 129.722656 259.566406 L 129.722656 261.121094 L 181.960938 261.121094 L 181.960938 206.527344 L 146.066406 170.625 L 154.332031 162.359375 L 187.804688 195.839844 L 221.28125 162.359375 L 229.546875 170.625 L 193.648438 206.527344 L 193.648438 261.121094 L 245.894531 261.121094 L 245.894531 259.160156 C 245.894531 239.066406 252.808594 219.710938 264.980469 203.722656 Z M 258.726562 137.441406 C 266.550781 137.441406 272.898438 131.101562 272.898438 123.269531 L 306.507812 123.269531 C 306.519531 122.820312 306.519531 122.378906 306.519531 121.933594 C 306.519531 68.394531 263.128906 24.988281 209.59375 24.988281 L 209.59375 59.957031 C 217.417969 59.957031 223.761719 66.304688 223.761719 74.128906 C 223.761719 81.953125 217.417969 88.300781 209.59375 88.300781 L 209.59375 123.269531 L 244.554688 123.269531 C 244.554688 131.101562 250.902344 137.441406 258.726562 137.441406 Z M 258.726562 137.441406 " fill-opacity="1" fill-rule="nonzero"/><path fill="#a4b9fb" d="M 128.75 328.84375 C 122.273438 328.84375 117.007812 323.574219 117.007812 317.097656 C 117.007812 310.621094 122.273438 305.351562 128.75 305.351562 L 246.859375 305.351562 C 253.335938 305.351562 258.601562 310.621094 258.601562 317.097656 C 258.601562 323.574219 253.335938 328.84375 246.859375 328.84375 Z M 128.75 284.0625 C 122.277344 284.0625 117.007812 278.792969 117.007812 272.316406 C 117.007812 269.171875 118.230469 266.222656 120.449219 264.011719 C 122.660156 261.792969 125.609375 260.570312 128.75 260.570312 L 181.960938 260.570312 C 181.980469 260.570312 181.996094 260.570312 182.015625 260.574219 L 193.59375 260.574219 C 193.613281 260.570312 193.632812 260.570312 193.648438 260.570312 L 246.863281 260.570312 C 253.339844 260.570312 258.605469 265.839844 258.605469 272.316406 C 258.605469 275.460938 257.382812 278.410156 255.164062 280.621094 C 252.953125 282.839844 250.003906 284.0625 246.863281 284.0625 Z M 128.75 284.0625 " fill-opacity="1" fill-rule="nonzero"/><path fill="#a4b9fb" d="M 193.648438 261.121094 L 246.863281 261.121094 C 253.042969 261.121094 258.054688 266.132812 258.054688 272.316406 C 258.054688 275.402344 256.804688 278.207031 254.777344 280.230469 C 252.753906 282.257812 249.949219 283.511719 246.863281 283.511719 L 128.75 283.511719 C 122.570312 283.511719 117.558594 278.496094 117.558594 272.316406 C 117.558594 269.226562 118.808594 266.421875 120.835938 264.402344 C 122.859375 262.371094 125.664062 261.121094 128.75 261.121094 L 181.960938 261.121094 L 181.960938 261.125 L 193.648438 261.125 Z M 117.558594 317.097656 C 117.558594 323.28125 122.570312 328.292969 128.75 328.292969 L 246.859375 328.292969 C 253.042969 328.292969 258.054688 323.28125 258.054688 317.097656 C 258.054688 310.914062 253.042969 305.902344 246.859375 305.902344 L 128.75 305.902344 C 122.570312 305.902344 117.558594 310.914062 117.558594 317.097656 Z M 117.558594 317.097656 " fill-opacity="1" fill-rule="nonzero"/><g clip-path="url(#a9453c5433)"><path fill="#1986cf" d="M 179.335938 359.886719 C 159.621094 359.886719 142.421875 347.253906 136.535156 328.457031 C 136.484375 328.289062 136.515625 328.109375 136.617188 327.964844 C 136.722656 327.824219 136.886719 327.742188 137.0625 327.742188 L 238.546875 327.742188 C 238.722656 327.742188 238.886719 327.824219 238.992188 327.964844 C 239.09375 328.109375 239.125 328.289062 239.074219 328.457031 C 233.1875 347.253906 215.988281 359.886719 196.277344 359.886719 Z M 128.75 306.453125 C 122.273438 306.453125 117.007812 301.183594 117.007812 294.707031 C 117.007812 288.230469 122.273438 282.960938 128.75 282.960938 L 246.859375 282.960938 C 253.335938 282.960938 258.601562 288.230469 258.601562 294.707031 C 258.601562 301.183594 253.335938 306.453125 246.859375 306.453125 Z M 128.75 306.453125 " fill-opacity="1" fill-rule="nonzero"/></g><g clip-path="url(#01da9f571d)"><path fill="#1986cf" d="M 137.0625 328.292969 L 238.546875 328.292969 C 232.914062 346.28125 216.121094 359.335938 196.277344 359.335938 L 179.335938 359.335938 C 159.488281 359.335938 142.695312 346.28125 137.0625 328.292969 Z M 246.859375 283.511719 L 128.75 283.511719 C 122.570312 283.511719 117.558594 288.523438 117.558594 294.707031 C 117.558594 300.890625 122.570312 305.902344 128.75 305.902344 L 246.859375 305.902344 C 253.042969 305.902344 258.054688 300.890625 258.054688 294.707031 C 258.054688 288.523438 253.042969 283.511719 246.859375 283.511719 Z M 246.859375 283.511719 " fill-opacity="1" fill-rule="nonzero"/></g><path fill="#000000" d="M 181.960938 261.671875 C 181.65625 261.671875 181.410156 261.425781 181.410156 261.125 L 181.410156 206.753906 L 145.675781 171.015625 C 145.574219 170.914062 145.515625 170.773438 145.515625 170.625 C 145.515625 170.480469 145.574219 170.339844 145.675781 170.238281 L 153.941406 161.972656 C 154.042969 161.867188 154.183594 161.808594 154.332031 161.808594 C 154.476562 161.808594 154.617188 161.867188 154.71875 161.972656 L 187.804688 195.0625 L 220.890625 161.972656 C 220.996094 161.867188 221.132812 161.808594 221.28125 161.808594 C 221.425781 161.808594 221.566406 161.867188 221.667969 161.972656 L 229.933594 170.238281 C 230.039062 170.339844 230.09375 170.480469 230.09375 170.625 C 230.09375 170.773438 230.039062 170.914062 229.933594 171.015625 L 194.199219 206.753906 L 194.199219 261.121094 C 194.199219 261.425781 193.953125 261.671875 193.648438 261.671875 Z M 181.960938 261.671875 " fill-opacity="1" fill-rule="nonzero"/><path fill="#000000" d="M 181.960938 261.125 L 181.960938 206.527344 L 146.066406 170.625 L 154.332031 162.359375 L 187.804688 195.839844 L 221.28125 162.359375 L 229.546875 170.625 L 193.648438 206.527344 L 193.648438 261.125 Z M 181.960938 261.125 " fill-opacity="1" fill-rule="nonzero"/></svg>