<svg xmlns="http://www.w3.org/2000/svg" xmlns:xlink="http://www.w3.org/1999/xlink" width="500" zoomAndPan="magnify" viewBox="0 0 375 374.999991" height="500" preserveAspectRatio="xMidYMid meet" version="1.0"><defs><clipPath id="10bc465a72"><path d="M 15.578125 36.523438 L 359 36.523438 L 359 338.773438 L 15.578125 338.773438 Z M 15.578125 36.523438 " clip-rule="nonzero"/></clipPath></defs><g clip-path="url(#10bc465a72)"><path fill="#f9d100" d="M 187.878906 36.578125 L 188.503906 37.203125 L 191.625 37.203125 L 192.875 37.832031 L 193.5 37.832031 L 196 39.082031 L 197.25 39.710938 L 198.5 40.335938 L 199.125 41.585938 L 199.75 42.214844 L 201 42.839844 L 201.625 44.09375 L 202.25 44.71875 L 203.5 45.972656 L 279.902344 178.726562 L 355.523438 310.699219 L 356.148438 311.953125 L 357.398438 314.457031 L 358.023438 315.710938 L 358.023438 318.839844 L 358.648438 320.09375 L 358.023438 321.972656 L 358.023438 324.476562 L 357.398438 325.730469 L 356.773438 326.980469 L 356.773438 328.234375 L 356.148438 328.859375 L 355.523438 329.488281 L 354.898438 330.738281 L 354.273438 331.367188 L 353.023438 332.617188 L 352.398438 333.871094 L 351.773438 334.496094 L 350.523438 335.121094 L 349.273438 335.75 L 348.023438 336.375 L 347.398438 337 L 346.148438 337.628906 L 344.898438 337.628906 L 343.648438 338.253906 L 341.148438 338.253906 L 339.898438 338.878906 L 187.253906 338.878906 L 35.230469 338.253906 L 30.855469 338.253906 L 29.605469 337.628906 L 28.355469 337.628906 L 27.105469 337 L 26.480469 336.375 L 25.230469 335.75 L 23.980469 335.121094 L 22.730469 334.496094 L 21.480469 333.246094 L 20.855469 332.617188 L 20.230469 331.367188 L 19.605469 330.738281 L 18.980469 329.488281 L 18.355469 328.859375 L 17.730469 328.234375 L 17.730469 326.980469 L 17.105469 326.355469 L 17.105469 325.101562 L 16.480469 324.476562 L 16.480469 321.972656 L 15.855469 320.09375 L 16.480469 318.839844 L 16.480469 315.710938 L 17.730469 313.207031 L 17.730469 311.953125 L 18.980469 310.699219 L 94.601562 178.726562 L 171.003906 46.597656 L 171.628906 45.34375 L 172.878906 44.09375 L 173.503906 42.839844 L 174.128906 42.214844 L 175.378906 40.960938 L 176.003906 40.335938 L 177.253906 39.710938 L 177.878906 39.082031 L 179.753906 38.457031 L 181.003906 37.832031 L 182.253906 37.832031 L 183.503906 37.203125 L 186.628906 37.203125 L 187.878906 36.578125 " fill-opacity="1" fill-rule="evenodd"/></g><path fill="#1f1a17" d="M 189.128906 45.972656 L 189.753906 46.597656 L 191.003906 47.222656 L 192.25 47.851562 L 192.875 47.851562 L 193.5 49.101562 L 194.125 49.730469 L 195.375 50.980469 L 347.398438 315.085938 L 348.648438 316.335938 L 348.648438 317.589844 L 349.273438 318.214844 L 349.273438 320.71875 L 348.648438 322.597656 L 347.398438 325.105469 L 346.148438 326.355469 L 344.898438 327.609375 L 342.398438 328.859375 L 340.523438 329.488281 L 33.355469 329.488281 L 32.730469 328.859375 L 31.480469 328.859375 L 30.855469 328.234375 L 30.230469 328.234375 L 29.605469 327.609375 L 28.355469 326.980469 L 27.105469 325.730469 L 26.480469 323.851562 L 25.855469 322.597656 L 25.230469 320.71875 L 25.230469 319.46875 L 25.855469 317.589844 L 26.480469 316.335938 L 26.480469 315.085938 L 27.105469 315.085938 L 179.128906 50.980469 L 179.128906 50.355469 L 179.753906 49.730469 L 180.378906 49.101562 L 181.628906 47.851562 L 182.253906 47.222656 L 182.878906 47.222656 L 183.503906 46.597656 L 185.378906 46.597656 L 186.003906 45.972656 Z M 317.398438 306.945312 L 57.105469 306.945312 L 187.253906 81.039062 L 317.398438 306.945312 " fill-opacity="1" fill-rule="evenodd"/><path fill="#1f1a17" d="M 166.003906 144.285156 L 166.628906 143.035156 L 166.628906 141.15625 L 167.253906 139.902344 L 167.253906 138.023438 L 167.878906 137.398438 L 167.878906 136.773438 L 169.753906 133.640625 L 171.003906 131.136719 L 173.503906 129.257812 L 175.378906 127.378906 L 178.503906 126.125 L 181.003906 124.875 L 184.128906 124.246094 L 186.628906 124.246094 L 189.753906 124.875 L 192.25 125.5 L 195.375 126.125 L 197.25 128.003906 L 199.75 129.257812 L 201.625 131.136719 L 203.5 133.640625 L 204.75 135.519531 L 204.75 136.773438 L 205.375 137.398438 L 206 138.648438 L 206 139.902344 L 206.625 141.15625 L 206.625 144.285156 L 199.125 226.789062 L 198.5 229.292969 L 197.875 231.171875 L 196 233.050781 L 194.75 234.929688 L 192.875 236.183594 L 191.003906 236.808594 L 189.128906 237.433594 L 184.753906 237.433594 L 182.253906 236.808594 L 180.378906 236.183594 L 176.628906 233.675781 L 175.378906 231.796875 L 174.128906 229.292969 L 173.503906 226.789062 Z M 186.628906 249.957031 L 191.003906 250.585938 L 194.75 251.835938 L 197.875 253.714844 L 201 256.222656 L 203.5 259.351562 L 205.375 262.484375 L 206.625 266.238281 L 207.25 270.625 L 206.625 274.378906 L 205.375 278.136719 L 203.5 281.894531 L 201 285.027344 L 197.875 287.53125 L 194.75 289.410156 L 191.003906 290.664062 L 182.878906 290.664062 L 179.128906 289.410156 L 175.378906 287.53125 L 172.253906 285.027344 L 169.753906 281.894531 L 167.878906 278.136719 L 166.628906 274.378906 L 166.628906 266.238281 L 167.878906 262.484375 L 169.753906 259.351562 L 172.253906 256.222656 L 175.378906 253.714844 L 179.128906 251.835938 L 182.878906 250.585938 L 186.628906 249.957031 " fill-opacity="1" fill-rule="evenodd"/></svg>