<svg xmlns="http://www.w3.org/2000/svg" xmlns:xlink="http://www.w3.org/1999/xlink" width="500" zoomAndPan="magnify" viewBox="0 0 375 374.999991" height="500" preserveAspectRatio="xMidYMid meet" version="1.0"><defs><clipPath id="bb3d44772c"><path d="M 47.496094 11 L 327.246094 11 L 327.246094 364.316406 L 47.496094 364.316406 Z M 47.496094 11 " clip-rule="nonzero"/></clipPath></defs><g clip-path="url(#bb3d44772c)"><path fill="#38b6ff" d="M 179.644531 26.109375 C 180.179688 25.019531 180.585938 24.195312 180.984375 23.359375 C 185.769531 13.308594 193.839844 10.300781 203.730469 12.402344 C 212.496094 14.257812 219.3125 19.097656 223.378906 27.351562 C 223.667969 27.933594 224.039062 28.515625 224.480469 29.246094 C 228.546875 29.601562 232.65625 29.996094 236.761719 30.3125 C 248.59375 31.238281 260.453125 31.90625 272.25 33.117188 C 281.390625 34.058594 290.503906 35.441406 299.539062 37.074219 C 305.277344 38.117188 310.9375 39.703125 316.144531 42.625 C 322.203125 46.027344 325.574219 51.117188 326.550781 57.871094 C 327.121094 61.976562 327.277344 66.101562 327.023438 70.238281 C 326.191406 84.492188 324.433594 98.65625 322.730469 112.816406 C 321.257812 125.132812 319.878906 137.453125 318.363281 149.757812 C 315.820312 170.398438 312.882812 190.984375 309.121094 211.445312 C 304.828125 234.78125 300.691406 258.144531 296.507812 281.5 C 293.996094 295.539062 291.609375 309.601562 287.800781 323.375 C 285.246094 332.664062 282.480469 341.832031 278.125 350.4375 C 276.785156 353.046875 275.21875 355.515625 273.421875 357.835938 C 272.746094 358.753906 271.980469 359.589844 271.125 360.339844 C 270.269531 361.09375 269.34375 361.75 268.347656 362.300781 C 267.351562 362.855469 266.308594 363.296875 265.214844 363.628906 C 264.125 363.957031 263.011719 364.167969 261.875 364.257812 C 258.296875 364.570312 254.691406 364.691406 251.097656 364.667969 C 247.613281 364.667969 244.171875 364.382812 240.710938 364.140625 C 230.339844 363.421875 219.964844 362.652344 209.59375 361.910156 C 205.738281 361.636719 201.875 361.328125 198.015625 361.132812 C 182.042969 360.222656 166.082031 359.390625 150.089844 358.410156 C 139.839844 357.792969 129.605469 357.011719 119.363281 356.308594 C 114.171875 355.949219 108.980469 355.621094 103.796875 355.25 C 93.539062 354.609375 83.375 353.253906 73.304688 351.1875 C 67.835938 350.023438 62.519531 348.28125 57.773438 345.101562 C 56.566406 344.316406 55.453125 343.414062 54.433594 342.398438 C 53.414062 341.382812 52.507812 340.273438 51.714844 339.070312 C 50.925781 337.867188 50.265625 336.597656 49.734375 335.257812 C 49.207031 333.917969 48.820312 332.539062 48.578125 331.121094 C 47.851562 327.15625 47.683594 323.171875 48.078125 319.164062 C 48.738281 311.617188 50.023438 304.097656 51.351562 296.617188 C 54.921875 276.539062 58.664062 256.5 62.007812 236.382812 C 64.542969 221.136719 66.617188 205.804688 68.824219 190.511719 C 70.652344 177.84375 72.453125 165.171875 74.109375 152.480469 C 75.4375 142.300781 76.605469 132.105469 77.71875 121.898438 C 79.296875 107.453125 80.773438 92.992188 82.269531 78.535156 C 82.914062 72.304688 83.433594 66.058594 84.152344 59.832031 C 84.53125 56.523438 85.085938 53.238281 85.714844 49.964844 C 86.191406 47.457031 87.027344 45.074219 88.210938 42.8125 C 89.398438 40.554688 90.890625 38.515625 92.683594 36.703125 C 94.71875 34.59375 96.925781 32.636719 99.070312 30.675781 C 100.210938 29.625 101.488281 28.789062 102.910156 28.171875 C 104.328125 27.550781 105.8125 27.175781 107.355469 27.050781 C 111.734375 26.644531 116.117188 26.265625 120.507812 26.035156 C 136.765625 25.167969 153.023438 25.371094 169.308594 25.609375 C 172.664062 25.644531 175.980469 25.925781 179.644531 26.109375 Z M 142.796875 53.820312 C 139.941406 53.777344 136.992188 53.636719 134.085938 53.726562 C 128.863281 53.882812 123.675781 53.945312 118.5625 55.054688 C 113.742188 56.105469 110.398438 58.859375 108.859375 63.589844 C 108.195312 65.621094 107.652344 67.679688 107.234375 69.773438 C 105.265625 79.871094 104.429688 90.097656 103.296875 100.316406 C 101.648438 115.164062 100.335938 130.050781 98.367188 144.851562 C 96.042969 162.160156 93.234375 179.40625 90.570312 196.667969 C 88.636719 209.183594 86.589844 221.6875 84.605469 234.195312 C 82.574219 246.96875 80.546875 259.742188 78.53125 272.515625 C 76.59375 284.761719 74.640625 297.007812 72.765625 309.265625 C 72.484375 311.25 72.382812 313.246094 72.457031 315.25 C 72.527344 317.96875 73.660156 319.375 76.273438 320.203125 C 77.433594 320.535156 78.613281 320.769531 79.816406 320.898438 C 85.785156 321.691406 91.800781 321.667969 97.816406 321.601562 C 123.59375 321.339844 149.265625 323.34375 174.945312 325.214844 C 184.921875 325.953125 194.886719 326.789062 204.867188 327.535156 C 211.515625 328.023438 218.167969 328.496094 224.828125 328.8125 C 233.625 329.238281 242.421875 329.535156 251.226562 329.820312 C 252.96875 329.871094 254.679688 329.628906 256.40625 329.511719 C 258.917969 329.34375 260.25 327.863281 260.714844 325.511719 C 261.292969 322.636719 261.820312 319.75 262.316406 316.863281 C 264.363281 304.769531 266.164062 292.628906 268.480469 280.585938 C 271.460938 265.140625 274.867188 249.773438 278.050781 234.367188 C 280.984375 220.257812 283.433594 206.074219 285.019531 191.75 C 285.890625 183.929688 286.714844 176.105469 287.585938 168.285156 C 288.820312 157.148438 290.035156 146.019531 291.335938 134.886719 C 292.527344 124.691406 293.867188 114.511719 295.046875 104.3125 C 295.753906 98.21875 296.375 92.117188 296.847656 85.996094 C 297.0625 83.199219 297.03125 80.402344 296.742188 77.605469 C 295.957031 70.191406 294.078125 68.015625 286.789062 66.773438 C 278.910156 65.429688 270.96875 64.449219 263.042969 63.410156 C 261.402344 63.292969 259.757812 63.28125 258.117188 63.371094 C 257.207031 67.492188 254.347656 68.53125 250.570312 68.089844 C 250.175781 68.042969 249.769531 68.089844 249.375 68.054688 C 244.578125 67.765625 239.78125 67.554688 234.992188 67.171875 C 227.285156 66.550781 219.574219 65.902344 211.882812 65.117188 C 204.332031 64.339844 196.785156 63.21875 189.238281 62.539062 C 177.683594 61.496094 166.105469 60.703125 154.539062 59.789062 C 152.546875 59.625 150.558594 59.359375 148.570312 59.148438 C 147.75 59.113281 146.996094 58.878906 146.308594 58.441406 C 145.617188 58.003906 145.078125 57.425781 144.695312 56.703125 C 144.195312 55.757812 143.535156 54.914062 142.796875 53.820312 Z M 223.042969 46.128906 C 225.800781 46.710938 228.589844 47.097656 231.402344 47.292969 C 237.789062 47.785156 244.175781 48.3125 250.535156 48.941406 C 252.523438 49.148438 254.480469 49.535156 256.398438 50.101562 C 258.621094 50.742188 259.433594 51.929688 259.480469 54.203125 C 259.480469 55.265625 259.34375 56.332031 259.273438 57.394531 C 259.226562 58.148438 259.199219 58.910156 259.164062 59.554688 C 259.457031 59.746094 259.773438 59.902344 260.109375 60.015625 C 267.117188 60.902344 274.144531 61.699219 281.132812 62.683594 C 284.949219 63.226562 288.785156 63.710938 292.410156 65.238281 C 293.160156 65.53125 293.863281 65.902344 294.523438 66.359375 C 295.183594 66.816406 295.785156 67.34375 296.320312 67.941406 C 296.859375 68.535156 297.320312 69.1875 297.703125 69.894531 C 298.085938 70.597656 298.382812 71.339844 298.59375 72.113281 C 298.984375 73.246094 299.238281 74.40625 299.355469 75.597656 C 299.546875 78.917969 299.765625 82.253906 299.652344 85.574219 C 299.347656 94.25 298.070312 102.835938 297.027344 111.441406 C 295.511719 123.886719 294.042969 136.335938 292.617188 148.789062 C 291.277344 160.714844 290.179688 172.667969 288.734375 184.582031 C 287.433594 195.300781 286.152344 206.066406 284.246094 216.664062 C 281.65625 231.09375 278.554688 245.429688 275.535156 259.777344 C 272.300781 275.175781 269.304688 290.613281 266.886719 306.164062 C 265.921875 312.351562 264.980469 318.554688 263.8125 324.710938 C 262.691406 330.648438 260.703125 332.367188 254.679688 332.773438 C 251.613281 332.941406 248.546875 332.941406 245.484375 332.773438 C 237.355469 332.425781 229.226562 332.015625 221.097656 331.542969 C 216.171875 331.265625 211.253906 330.863281 206.332031 330.53125 C 200.738281 330.160156 195.148438 329.867188 189.5625 329.429688 C 177.863281 328.523438 166.179688 327.332031 154.460938 326.65625 C 140.085938 325.816406 125.6875 325.324219 111.285156 324.8125 C 104.753906 324.585938 98.210938 324.753906 91.675781 324.609375 C 87.550781 324.519531 83.421875 324.164062 79.292969 323.941406 C 77.273438 323.765625 75.367188 323.207031 73.574219 322.265625 C 72.660156 321.839844 71.882812 321.234375 71.246094 320.453125 C 70.609375 319.671875 70.175781 318.789062 69.945312 317.804688 C 69.257812 315.292969 69.410156 312.777344 69.789062 310.257812 C 71.082031 301.546875 72.382812 292.839844 73.757812 284.128906 C 76 269.910156 78.324219 255.675781 80.582031 241.476562 C 82.855469 227.144531 85.113281 212.800781 87.363281 198.445312 C 89.6875 183.824219 92.074219 169.21875 94.253906 154.582031 C 97.160156 134.921875 98.941406 115.097656 100.972656 95.355469 C 101.832031 87 102.972656 78.675781 104.226562 70.390625 C 104.757812 67.214844 105.601562 64.125 106.757812 61.121094 C 107.402344 59.34375 108.378906 57.773438 109.695312 56.414062 C 111.011719 55.054688 112.546875 54.023438 114.304688 53.320312 C 117.402344 51.996094 120.632812 51.265625 123.996094 51.125 C 129.320312 50.863281 134.65625 50.804688 139.988281 50.640625 C 140.886719 50.640625 141.78125 50.492188 142.460938 50.425781 C 142.734375 50.0625 142.84375 49.96875 142.878906 49.847656 C 143.003906 49.46875 143.101562 49.078125 143.167969 48.6875 C 143.640625 45.335938 145.601562 43.191406 148.585938 41.777344 C 151.164062 40.589844 153.875 39.976562 156.714844 39.941406 C 162.0625 39.867188 167.367188 40.304688 172.628906 41.246094 C 174.953125 41.625 177.316406 42.140625 179.773438 41.394531 C 179.394531 39.300781 178.894531 37.328125 178.722656 35.382812 C 178.546875 33.4375 178.6875 31.421875 178.6875 29.496094 C 176.722656 28.480469 174.820312 28.746094 172.988281 28.742188 C 158.710938 28.671875 144.441406 28.574219 130.164062 28.675781 C 123.773438 28.71875 117.386719 29.117188 111 29.523438 C 109.007812 29.691406 107.074219 30.121094 105.195312 30.8125 C 103.554688 31.394531 102.035156 32.207031 100.644531 33.253906 C 99.050781 34.414062 97.738281 35.988281 96.246094 37.316406 C 95.09375 38.339844 94.046875 39.457031 93.097656 40.675781 C 92.152344 41.890625 91.328125 43.183594 90.621094 44.550781 C 89.914062 45.921875 89.339844 47.34375 88.898438 48.820312 C 88.453125 50.296875 88.148438 51.800781 87.984375 53.332031 C 86.871094 62.597656 85.832031 71.871094 84.867188 81.15625 C 83.902344 90.304688 83.125 99.480469 82.113281 108.625 C 80.679688 121.613281 79.210938 134.601562 77.574219 147.566406 C 75.9375 160.535156 74.195312 173.480469 72.382812 186.425781 C 70.683594 198.570312 68.898438 210.710938 67.019531 222.832031 C 64.828125 236.796875 62.53125 250.742188 60.132812 264.664062 C 57.523438 279.761719 54.707031 294.859375 52.089844 309.957031 C 51.042969 315.484375 50.640625 321.0625 50.875 326.683594 C 51.375 335.394531 55.574219 341.507812 63.648438 344.863281 C 66.957031 346.304688 70.371094 347.414062 73.894531 348.195312 C 82.785156 350.019531 91.753906 351.277344 100.804688 351.96875 C 112.359375 352.859375 123.945312 353.6875 135.554688 354.449219 C 149.265625 355.332031 162.984375 356.082031 176.699219 356.90625 C 187.484375 357.554688 198.265625 358.199219 209.042969 358.902344 C 219.15625 359.558594 229.265625 360.308594 239.378906 360.976562 C 243.640625 361.253906 247.902344 361.554688 252.15625 361.613281 C 255.058594 361.671875 258.011719 361.441406 260.933594 361.261719 C 265.972656 360.953125 269.78125 358.425781 272.492188 354.320312 C 274.09375 351.859375 275.507812 349.300781 276.746094 346.640625 C 279.773438 340.253906 281.894531 333.488281 283.886719 326.707031 C 288.183594 312.09375 290.800781 297.125 293.476562 282.160156 C 297.632812 258.933594 301.808594 235.710938 306.015625 212.484375 C 309.335938 194.378906 312.144531 176.199219 314.445312 157.9375 C 315.988281 145.746094 317.347656 133.550781 318.824219 121.394531 C 320.761719 105.507812 322.761719 89.625 323.960938 73.664062 C 324.378906 68.207031 324.589844 62.738281 323.539062 57.308594 C 323.011719 54.199219 321.707031 51.464844 319.617188 49.105469 C 317.304688 46.609375 314.546875 44.792969 311.34375 43.652344 C 307.253906 42.019531 303.042969 40.804688 298.714844 40 C 294.652344 39.34375 290.585938 38.570312 286.480469 38.042969 C 278.8125 37.054688 271.136719 36.089844 263.441406 35.335938 C 254.945312 34.507812 246.457031 33.910156 237.921875 33.253906 C 234.4375 32.984375 230.996094 32.816406 227.535156 32.671875 C 226.792969 32.714844 226.0625 32.828125 225.339844 33.015625 C 225.179688 35.394531 225.199219 37.539062 224.839844 39.617188 C 224.480469 41.695312 223.730469 43.703125 223.042969 46.128906 Z M 204.398438 21.527344 C 204.265625 21.53125 204.132812 21.542969 204.003906 21.5625 C 203.300781 21.714844 202.679688 22.074219 202.800781 22.851562 C 202.933594 23.359375 203.234375 23.726562 203.699219 23.960938 C 204.445312 24.273438 205.21875 24.464844 206.023438 24.542969 C 208.984375 24.902344 210.910156 26.417969 211.683594 29.355469 C 211.859375 29.988281 212.144531 30.570312 212.539062 31.097656 C 212.839844 31.367188 213.191406 31.449219 213.582031 31.355469 C 213.964844 31.222656 214.230469 30.96875 214.371094 30.585938 C 214.480469 30.066406 214.46875 29.546875 214.335938 29.03125 C 213.152344 24.300781 209.425781 21.488281 204.398438 21.527344 Z M 250.3125 56.183594 C 250.488281 57.394531 250.574219 58.445312 250.8125 59.457031 C 250.875 59.710938 251.429688 60.003906 251.757812 60.035156 C 252.175781 60.007812 252.488281 59.8125 252.707031 59.457031 C 253.425781 57.789062 253.625 55.972656 252.300781 54.613281 C 250.464844 52.699219 248.03125 52.007812 245.40625 52.226562 C 244.890625 52.390625 244.554688 52.730469 244.410156 53.253906 C 244.425781 53.792969 244.664062 54.203125 245.121094 54.484375 C 245.992188 54.796875 246.875 55.054688 247.777344 55.257812 C 248.628906 55.527344 249.464844 55.898438 250.3125 56.183594 Z M 250.3125 56.183594 " fill-opacity="1" fill-rule="nonzero"/></g><path fill="#38b6ff" d="M 121.527344 155.226562 C 121.296875 156.117188 121.074219 156.730469 120.949219 157.363281 C 120.8125 158.285156 120.789062 159.226562 120.664062 160.152344 C 120.570312 160.847656 120.25 161.398438 119.425781 161.453125 C 118.601562 161.503906 118.074219 160.871094 118.039062 159.859375 C 118.039062 159.066406 118.101562 158.261719 118.121094 157.460938 C 118.136719 156.660156 118.121094 155.890625 118.121094 154.832031 C 116.074219 154.417969 114.140625 154.046875 112.21875 153.636719 C 110.480469 153.253906 109.640625 152.445312 110.003906 151.492188 C 110.320312 150.644531 111.164062 150.382812 112.773438 150.628906 L 118.054688 151.40625 C 118.28125 150.589844 118.460938 149.761719 118.601562 148.925781 C 119.316406 141.894531 119.851562 134.839844 120.738281 127.832031 C 122.125 116.851562 123.640625 105.894531 125.308594 94.957031 C 126.195312 89.027344 127.414062 83.148438 128.476562 77.246094 C 128.511719 76.738281 128.511719 76.230469 128.476562 75.71875 C 127.371094 76.835938 126.511719 77.808594 125.515625 78.625 C 125.035156 78.871094 124.5625 78.859375 124.09375 78.589844 C 123.757812 78.339844 123.660156 77.699219 123.570312 77.207031 C 123.53125 76.996094 123.746094 76.714844 123.898438 76.5 C 125.371094 74.441406 126.742188 72.292969 128.375 70.371094 C 130.21875 68.195312 132.027344 68.363281 133.464844 70.878906 C 134.667969 73.109375 135.75 75.398438 136.71875 77.742188 C 136.863281 78.128906 136.863281 78.515625 136.71875 78.902344 C 136.582031 79.277344 136.332031 79.546875 135.96875 79.714844 C 135.582031 79.839844 135.222656 79.78125 134.894531 79.539062 C 134.058594 78.378906 133.320312 77.121094 132.386719 75.632812 C 132.042969 76.132812 131.644531 76.476562 131.566406 76.882812 C 130.738281 81.203125 129.960938 85.527344 129.1875 89.859375 C 129.210938 90.1875 129.285156 90.503906 129.40625 90.8125 C 130.09375 90.921875 130.863281 91.03125 131.632812 91.160156 C 133.203125 91.421875 134.785156 91.652344 136.347656 91.960938 C 138.929688 92.476562 140.242188 94.183594 140.410156 96.714844 C 140.433594 98.046875 140.375 99.371094 140.238281 100.695312 C 140.144531 102.390625 139.59375 104.085938 140.203125 105.996094 C 143.1875 106.464844 146.105469 107.195312 149.257812 107.320312 C 149.660156 105.785156 149.945312 104.503906 150.332031 103.253906 C 150.695312 101.976562 151.144531 100.730469 151.679688 99.515625 C 152.671875 97.402344 154.484375 96.339844 156.738281 96.078125 C 158.902344 95.804688 161 96.074219 163.027344 96.878906 C 164.90625 97.628906 166.167969 98.941406 166.511719 100.941406 C 166.746094 102.390625 166.839844 103.84375 166.792969 105.308594 C 166.714844 107.574219 166.441406 109.828125 166.289062 112.089844 C 166.25 112.722656 166.335938 113.367188 166.371094 114.171875 C 168.082031 114.53125 169.609375 114.941406 171.171875 115.167969 C 175.660156 115.832031 176.980469 118.378906 176.722656 122.054688 C 176.457031 126.175781 175.941406 130.28125 175.5625 134.398438 C 174.953125 141.574219 174.375 148.753906 173.820312 155.929688 C 173.804688 156.707031 173.835938 157.480469 173.917969 158.253906 C 176.3125 159.296875 182.835938 160.117188 186.332031 159.761719 C 185.652344 158.941406 185.066406 158.292969 184.542969 157.597656 C 184.300781 157.347656 184.171875 157.046875 184.15625 156.699219 C 184.140625 156.351562 184.242188 156.042969 184.464844 155.773438 C 184.566406 155.636719 184.6875 155.523438 184.832031 155.433594 C 184.980469 155.34375 185.136719 155.285156 185.304688 155.261719 C 185.472656 155.234375 185.640625 155.238281 185.808594 155.28125 C 185.972656 155.320312 186.125 155.386719 186.261719 155.488281 C 188.851562 157.382812 191.363281 159.390625 193.15625 162.089844 C 194.515625 164.132812 194.097656 166.078125 191.996094 167.164062 C 190.078125 168.097656 188.113281 168.898438 186.089844 169.570312 C 185.90625 169.652344 185.710938 169.699219 185.507812 169.703125 C 185.304688 169.707031 185.109375 169.671875 184.921875 169.59375 C 184.734375 169.519531 184.570312 169.40625 184.425781 169.261719 C 184.285156 169.117188 184.175781 168.949219 184.105469 168.761719 C 184.039062 168.570312 184.011719 168.371094 184.027344 168.171875 C 184.039062 167.96875 184.089844 167.777344 184.179688 167.59375 C 184.269531 167.414062 184.390625 167.257812 184.542969 167.125 C 184.695312 166.992188 184.871094 166.890625 185.0625 166.828125 C 186.171875 166.382812 187.335938 166.074219 188.445312 165.625 C 189.027344 165.332031 189.578125 164.988281 190.101562 164.597656 C 189.710938 164.261719 189.554688 164.019531 189.347656 163.964844 C 188.308594 163.738281 187.261719 163.496094 186.207031 163.386719 C 164.691406 160.820312 143.105469 158.519531 121.527344 155.226562 Z M 158.816406 156.632812 C 158.996094 155.644531 159.230469 154.761719 159.316406 153.863281 C 159.671875 150.285156 159.953125 146.703125 160.308594 143.125 C 161.492188 130.949219 162.6875 118.773438 163.886719 106.605469 C 163.988281 105.410156 164.023438 104.214844 163.996094 103.015625 C 164.015625 102.609375 163.96875 102.214844 163.84375 101.828125 C 163.722656 101.441406 163.539062 101.089844 163.289062 100.769531 C 163.039062 100.449219 162.742188 100.183594 162.398438 99.96875 C 162.054688 99.757812 161.683594 99.609375 161.285156 99.53125 C 160.398438 99.242188 159.488281 99.050781 158.5625 98.953125 C 156.066406 98.792969 154.410156 99.765625 153.683594 102.175781 C 152.957031 104.582031 152.121094 107.109375 152.167969 109.566406 C 152.285156 115.335938 151.261719 120.96875 150.734375 126.660156 C 149.914062 135.402344 148.953125 144.136719 148.082031 152.875 C 148.054688 153.816406 148.097656 154.753906 148.203125 155.691406 C 151.847656 156 155.164062 156.992188 158.816406 156.632812 Z M 131.910156 153.730469 C 132.242188 152.226562 132.558594 151.214844 132.671875 150.175781 C 133.03125 146.730469 133.367188 143.289062 133.628906 139.835938 C 134.609375 126.828125 135.445312 113.804688 137.390625 100.886719 C 137.554688 99.695312 137.617188 98.5 137.589844 97.300781 C 137.601562 96.996094 137.558594 96.699219 137.460938 96.410156 C 137.363281 96.121094 137.21875 95.859375 137.023438 95.625 C 136.832031 95.386719 136.601562 95.191406 136.339844 95.039062 C 136.074219 94.886719 135.792969 94.785156 135.492188 94.734375 C 133.207031 94.125 130.90625 94.042969 128.582031 94.492188 C 125.894531 105.113281 121.121094 145.816406 121.871094 151.976562 Z M 144.957031 155.109375 C 146.445312 140.472656 147.902344 126.160156 149.328125 111.847656 C 149.363281 111.503906 149.042969 111.128906 148.828125 110.605469 C 145.792969 110.023438 142.734375 109.292969 139.378906 109.472656 C 139.09375 111.128906 138.753906 112.542969 138.609375 113.972656 C 138.226562 117.820312 137.917969 121.675781 137.582031 125.527344 C 136.808594 134.292969 136.054688 143.0625 135.320312 151.832031 C 135.320312 152.609375 135.386719 153.382812 135.511719 154.152344 C 138.632812 154.425781 141.449219 155.324219 144.957031 155.117188 Z M 170.667969 158.449219 C 170.824219 157.742188 170.9375 157.03125 171.011719 156.3125 C 171.136719 148.457031 171.972656 140.664062 172.851562 132.871094 C 173.195312 129.835938 173.566406 126.800781 173.738281 123.75 C 173.988281 119.371094 174.105469 118.378906 168.648438 117.671875 C 167.730469 117.617188 166.816406 117.632812 165.902344 117.71875 C 165.75 118.460938 165.597656 118.960938 165.550781 119.460938 C 164.390625 131.621094 163.230469 143.789062 162.066406 155.964844 C 162.09375 156.488281 162.191406 157.003906 162.351562 157.503906 Z M 170.667969 158.449219 " fill-opacity="1" fill-rule="nonzero"/><path fill="#38b6ff" d="M 101.296875 266.882812 C 103.515625 265.757812 105.664062 266.105469 107.765625 266.179688 C 124.410156 266.796875 141.058594 267.425781 157.703125 268.066406 C 165.5625 268.375 173.425781 268.648438 181.277344 269.125 C 196.96875 270.113281 212.660156 271.195312 228.347656 272.375 C 231.925781 272.644531 235.464844 273.347656 239.019531 273.886719 C 239.8125 274.027344 240.585938 274.234375 241.34375 274.511719 C 244.710938 275.675781 246.144531 277.460938 246.152344 281.023438 C 246.140625 283.289062 245.910156 285.535156 245.453125 287.757812 C 244.476562 292.589844 243.335938 297.378906 242.203125 302.175781 C 241.867188 303.464844 241.453125 304.730469 240.960938 305.964844 C 239.390625 310.199219 236.316406 312.40625 231.824219 312.351562 C 227.824219 312.320312 223.824219 312.195312 219.835938 311.953125 C 213.320312 311.558594 206.8125 311.007812 200.296875 310.578125 C 187.128906 309.710938 173.9375 309.140625 160.8125 307.964844 C 147.9375 306.800781 135.050781 305.796875 122.125 305.34375 C 117.332031 305.175781 112.535156 304.996094 107.742188 304.707031 C 105.613281 304.625 103.515625 304.332031 101.445312 303.828125 C 97.960938 302.882812 96.664062 301.089844 96.507812 297.441406 C 96.300781 292.484375 97.019531 287.570312 97.804688 282.722656 C 98.382812 279.054688 99.367188 275.4375 100.171875 271.800781 C 100.542969 270.152344 100.945312 268.46875 101.296875 266.882812 Z M 167.210938 305.234375 C 167.699219 305.421875 168.199219 305.558594 168.710938 305.640625 C 173.355469 305.976562 178 306.304688 182.644531 306.585938 C 191.425781 307.117188 200.203125 307.636719 208.976562 308.144531 C 215.761719 308.542969 222.542969 309.066406 229.328125 309.339844 C 235.746094 309.605469 237.367188 308.515625 239.078125 302.371094 C 240.652344 296.863281 241.753906 291.21875 242.972656 285.632812 C 243.167969 284.582031 243.257812 283.519531 243.253906 282.449219 C 243.371094 278.898438 242.824219 278.078125 239.3125 277.03125 C 237.773438 276.582031 236.207031 276.292969 234.613281 276.15625 C 227.449219 275.527344 220.285156 274.949219 213.128906 274.414062 C 208.210938 274.042969 203.292969 273.746094 198.375 273.4375 C 189.996094 272.917969 181.617188 272.410156 173.246094 271.917969 C 172.449219 271.933594 171.660156 272.011719 170.875 272.15625 C 170.675781 272.832031 170.515625 273.519531 170.394531 274.21875 C 170.023438 277.925781 169.714844 281.644531 169.328125 285.355469 C 168.683594 291.578125 168.59375 297.859375 167.085938 303.980469 C 167.066406 304.40625 167.113281 304.824219 167.230469 305.234375 Z M 163.507812 305.058594 C 164.574219 302.429688 165.210938 299.695312 165.414062 296.863281 C 166.1875 289.035156 166.925781 281.207031 167.632812 273.375 C 167.625 272.90625 167.5625 272.441406 167.4375 271.988281 C 167.160156 271.8125 166.863281 271.675781 166.546875 271.585938 C 146.703125 270.71875 126.859375 269.867188 107.019531 269.027344 C 106.222656 268.992188 105.421875 269.027344 104.621094 269.027344 C 104.488281 269.054688 104.367188 269.109375 104.261719 269.195312 C 104.144531 269.273438 104.039062 269.363281 103.933594 269.457031 C 100.984375 277.9375 99.910156 286.789062 99.289062 295.710938 C 99.269531 296.515625 99.328125 297.308594 99.476562 298.097656 C 99.496094 298.4375 99.574219 298.761719 99.707031 299.074219 C 99.835938 299.382812 100.015625 299.664062 100.242188 299.914062 C 100.472656 300.167969 100.734375 300.371094 101.03125 300.535156 C 101.328125 300.695312 101.644531 300.800781 101.976562 300.855469 C 103.941406 301.226562 105.921875 301.488281 107.914062 301.644531 C 112.167969 301.90625 116.429688 302.074219 120.6875 302.226562 C 133.078125 302.640625 145.457031 303.320312 157.777344 304.792969 C 159.628906 304.992188 161.492188 304.992188 163.527344 305.058594 Z M 163.507812 305.058594 " fill-opacity="1" fill-rule="nonzero"/><path fill="#38b6ff" d="M 184.625 215.921875 C 184.980469 203.617188 189.207031 194.210938 198.371094 187.65625 C 207.996094 180.769531 218.484375 179.824219 229.371094 184.9375 C 241.714844 190.746094 249.011719 205.160156 247.371094 218.707031 C 246.207031 228.335938 242.0625 236.324219 234.222656 242.039062 C 225.042969 248.726562 214.933594 250.292969 204.390625 245.625 C 191.117188 239.757812 185.347656 228.878906 184.625 215.921875 Z M 234.230469 237.730469 C 235.792969 237.148438 236.617188 236.074219 237.441406 235.070312 C 248.949219 221.066406 245.789062 202.292969 234.960938 192.300781 C 234.332031 191.71875 233.675781 191.167969 232.992188 190.648438 C 232.3125 190.128906 231.609375 189.640625 230.882812 189.1875 C 230.152344 188.730469 229.40625 188.3125 228.640625 187.925781 C 227.875 187.539062 227.09375 187.191406 226.296875 186.875 C 225.5 186.5625 224.6875 186.285156 223.863281 186.046875 C 223.039062 185.808594 222.207031 185.609375 221.367188 185.449219 C 220.523438 185.289062 219.675781 185.167969 218.824219 185.082031 C 217.96875 185 217.113281 184.957031 216.257812 184.953125 C 215.398438 184.949219 214.542969 184.988281 213.691406 185.0625 C 212.835938 185.140625 211.988281 185.253906 211.144531 185.410156 C 210.300781 185.5625 209.464844 185.753906 208.640625 185.988281 C 207.816406 186.21875 207 186.488281 206.203125 186.796875 C 205.402344 187.101562 204.617188 187.445312 203.847656 187.824219 C 203.078125 188.203125 202.328125 188.621094 201.597656 189.070312 C 200.867188 189.515625 200.160156 190 199.472656 190.515625 C 198.789062 191.027344 198.128906 191.574219 197.492188 192.148438 C 185.730469 202.839844 183.964844 222.300781 194.984375 235.203125 C 196.6875 237.195312 198.46875 239.226562 201.3125 240.332031 C 201.921875 238.902344 202.476562 237.574219 203.054688 236.265625 C 205.378906 230.738281 207.660156 225.1875 210.058594 219.6875 C 210.714844 218.230469 211.539062 216.875 212.53125 215.625 C 214.3125 213.367188 216.210938 213.300781 218.285156 215.371094 C 219.492188 216.613281 220.582031 217.957031 221.550781 219.398438 C 225.03125 224.460938 228.394531 229.578125 231.835938 234.652344 C 232.558594 235.691406 233.417969 236.679688 234.230469 237.730469 Z M 208.648438 243.75 C 210.929688 244.246094 211.058594 244.246094 211.433594 242.949219 C 212.996094 237.613281 214.503906 232.261719 216.027344 226.90625 C 216.640625 224.742188 217.28125 222.582031 217.855469 220.410156 C 218.042969 219.707031 217.828125 219.113281 216.722656 219.011719 C 214.070312 227.140625 211.40625 235.3125 208.648438 243.75 Z M 216.144531 244.914062 C 217.855469 239.28125 219.433594 234.078125 221.003906 228.871094 C 221.371094 227.871094 221.648438 226.847656 221.832031 225.796875 C 221.886719 225.566406 221.886719 225.332031 221.832031 225.101562 C 221.78125 224.867188 221.683594 224.660156 221.535156 224.472656 C 221.390625 224.285156 221.210938 224.136719 221 224.027344 C 220.785156 223.921875 220.5625 223.863281 220.324219 223.859375 C 220.15625 224.066406 219.921875 224.242188 219.863281 224.4375 C 218.007812 230.953125 216.171875 237.476562 214.355469 244.007812 C 214.300781 244.1875 214.539062 244.441406 214.714844 244.8125 Z M 224.125 229.007812 C 223.425781 231.082031 222.855469 232.703125 222.339844 234.332031 C 221.757812 236.105469 221.207031 237.878906 220.734375 239.679688 C 220.316406 241.277344 219.382812 242.820312 219.894531 244.824219 L 223.425781 243.953125 C 224.671875 239.855469 224.121094 235.558594 226.28125 231.726562 Z M 204.070312 241.863281 C 204.9375 242.746094 205.605469 242.855469 206.148438 241.90625 C 206.316406 241.542969 206.445312 241.167969 206.539062 240.777344 C 208.105469 235.972656 209.667969 231.175781 211.21875 226.378906 C 211.390625 225.738281 211.527344 225.089844 211.625 224.433594 C 208.457031 230.089844 206.183594 235.992188 204.070312 241.863281 Z M 231.808594 239.769531 C 230.578125 238.199219 230.066406 236.324219 228.179688 235.5625 C 226.925781 239.726562 226.902344 240.003906 227.664062 242.53125 C 229 241.703125 230.503906 241.285156 231.785156 239.769531 Z M 231.808594 239.769531 " fill-opacity="1" fill-rule="nonzero"/><path fill="#38b6ff" d="M 223.117188 92.210938 C 221.710938 92.789062 220.601562 93.25 219.523438 93.761719 C 219.042969 94.003906 218.539062 94.175781 218.011719 94.273438 C 217.480469 94.371094 216.949219 94.394531 216.414062 94.339844 C 215.878906 94.285156 215.363281 94.15625 214.867188 93.953125 C 214.367188 93.75 213.910156 93.480469 213.488281 93.144531 C 213.148438 92.9375 212.824219 92.703125 212.527344 92.4375 C 210.65625 90.5625 208.738281 90.863281 206.773438 92.246094 C 205.355469 93.242188 203.9375 94.238281 202.503906 95.207031 C 201.96875 95.601562 201.386719 95.914062 200.761719 96.148438 C 200.359375 96.234375 200.007812 96.132812 199.710938 95.84375 C 199.484375 95.390625 199.375 94.910156 199.378906 94.40625 C 199.40625 94.125 199.527344 93.898438 199.746094 93.726562 C 202.003906 91.863281 204.210938 89.933594 206.953125 88.742188 C 209.238281 87.75 211.347656 87.859375 213.375 89.324219 C 213.488281 89.390625 213.597656 89.46875 213.699219 89.558594 C 215.71875 91.558594 217.820312 91.554688 220.195312 90.085938 C 222.570312 88.617188 224.871094 89.121094 226.785156 90.972656 C 229.398438 93.511719 232.40625 93.738281 235.691406 92.859375 C 236.464844 92.652344 237.230469 92.414062 238.015625 92.222656 C 240.261719 91.671875 242.53125 91.570312 244.6875 92.523438 C 247.3125 93.683594 249.859375 93.5 252.445312 92.472656 C 253.308594 92.117188 254.1875 91.808594 255.085938 91.554688 C 256.527344 91.160156 258.054688 91.003906 259.378906 91.757812 C 260.886719 92.632812 262.496094 93.230469 264.210938 93.546875 C 265.925781 93.867188 267.644531 93.886719 269.363281 93.609375 C 271.773438 93.253906 273.183594 94.816406 273.195312 97.09375 C 273.195312 97.871094 271.917969 98.71875 271.511719 98.171875 C 270.121094 96.316406 268.285156 96.722656 266.4375 96.890625 C 265.433594 97.023438 264.4375 96.980469 263.449219 96.757812 C 262.464844 96.539062 261.542969 96.15625 260.691406 95.613281 C 258.332031 94.015625 255.941406 94.0625 253.476562 95.199219 C 250.132812 96.746094 246.828125 96.894531 243.480469 95.199219 C 242.75 94.863281 241.980469 94.679688 241.175781 94.648438 C 240.371094 94.617188 239.589844 94.742188 238.835938 95.019531 C 237.183594 95.535156 235.507812 95.953125 233.8125 96.28125 C 232.617188 96.519531 231.425781 96.503906 230.238281 96.238281 C 229.050781 95.972656 227.96875 95.476562 226.988281 94.753906 C 225.792969 93.917969 224.550781 93.152344 223.117188 92.210938 Z M 223.117188 92.210938 " fill-opacity="1" fill-rule="nonzero"/><path fill="#38b6ff" d="M 270.265625 117.359375 C 269.648438 117.832031 269.171875 118.519531 268.730469 118.519531 C 267.796875 118.457031 266.917969 118.207031 266.089844 117.769531 C 263.644531 116.503906 261.316406 116.671875 258.808594 117.734375 C 253.652344 119.917969 253.582031 119.90625 249.105469 116.5 C 247.257812 115.085938 245.535156 114.929688 243.578125 116.003906 C 242.179688 116.777344 240.785156 117.554688 239.367188 118.285156 C 238.429688 118.785156 237.460938 119.222656 236.464844 119.597656 C 236.027344 119.773438 235.574219 119.878906 235.105469 119.917969 C 234.636719 119.957031 234.171875 119.929688 233.714844 119.832031 C 233.253906 119.734375 232.816406 119.574219 232.402344 119.351562 C 231.988281 119.125 231.617188 118.847656 231.285156 118.511719 C 230.496094 117.800781 229.765625 117.019531 229.039062 116.242188 C 228.582031 115.738281 228.023438 115.390625 227.367188 115.207031 C 226.710938 115.019531 226.054688 115.019531 225.398438 115.210938 C 225.265625 115.222656 225.132812 115.25 225.003906 115.289062 C 221.300781 116.730469 217.769531 116.648438 214.335938 114.375 C 212.902344 113.421875 211.238281 113.671875 209.757812 114.464844 C 208.277344 115.261719 206.789062 116.25 205.285156 117.097656 C 204.714844 117.417969 204.105469 117.636719 203.457031 117.746094 C 203.046875 117.734375 202.722656 117.5625 202.488281 117.222656 C 202.359375 116.859375 202.324219 116.484375 202.386719 116.101562 C 202.402344 115.964844 202.460938 115.847656 202.5625 115.75 C 203.804688 114.429688 205.226562 113.347656 206.824219 112.503906 C 208.425781 111.65625 210.121094 111.089844 211.910156 110.808594 C 213.070312 110.609375 214.585938 111.140625 215.707031 111.753906 C 216.992188 112.492188 218.375 112.914062 219.851562 113.015625 C 221.332031 113.117188 222.757812 112.890625 224.132812 112.335938 C 227 111.308594 229.65625 111.941406 231.589844 114.554688 C 231.90625 114.980469 232.257812 115.378906 232.644531 115.742188 C 232.867188 115.996094 233.128906 116.203125 233.421875 116.371094 C 233.714844 116.535156 234.027344 116.648438 234.359375 116.707031 C 234.691406 116.765625 235.023438 116.769531 235.355469 116.71875 C 235.691406 116.667969 236.003906 116.5625 236.304688 116.40625 C 237.378906 115.882812 238.433594 115.335938 239.492188 114.78125 C 240.652344 114.160156 241.8125 113.46875 242.972656 112.894531 C 245.785156 111.539062 248.390625 111.871094 250.738281 113.964844 C 251.132812 114.320312 251.515625 114.691406 251.898438 115.039062 C 252.164062 115.296875 252.460938 115.507812 252.789062 115.671875 C 253.117188 115.839844 253.464844 115.953125 253.824219 116.011719 C 254.1875 116.070312 254.554688 116.078125 254.917969 116.027344 C 255.28125 115.976562 255.628906 115.871094 255.964844 115.714844 C 256.816406 115.335938 257.675781 114.976562 258.511719 114.554688 C 259.136719 114.230469 259.789062 113.992188 260.476562 113.832031 C 261.160156 113.671875 261.851562 113.601562 262.554688 113.617188 C 263.257812 113.632812 263.945312 113.730469 264.625 113.917969 C 265.300781 114.105469 265.945312 114.375 266.554688 114.722656 C 267.371094 115.15625 268.253906 115.492188 269.039062 115.988281 C 269.507812 116.390625 269.917969 116.847656 270.265625 117.359375 Z M 270.265625 117.359375 " fill-opacity="1" fill-rule="nonzero"/><path fill="#38b6ff" d="M 174.964844 191.492188 C 173.765625 191.390625 172.578125 191.210938 171.40625 190.953125 C 168.523438 190.183594 165.621094 190.082031 162.695312 190.652344 C 161.25 190.960938 159.792969 191.023438 158.328125 190.84375 C 156.863281 190.664062 155.464844 190.25 154.136719 189.601562 C 152.933594 188.984375 151.660156 188.632812 150.3125 188.535156 C 148.964844 188.441406 147.652344 188.613281 146.375 189.054688 C 143.359375 190.023438 140.632812 189.726562 138.121094 187.660156 C 136.335938 186.191406 134.261719 186.011719 132.078125 186.632812 C 131.3125 186.847656 130.527344 187.011719 129.757812 187.214844 C 128.792969 187.546875 127.804688 187.6875 126.789062 187.628906 C 125.773438 187.570312 124.808594 187.324219 123.890625 186.882812 C 120.304688 185.046875 116.976562 185.464844 113.644531 187.394531 C 113.316406 187.640625 112.949219 187.773438 112.539062 187.789062 C 112.027344 187.742188 111.609375 187.519531 111.285156 187.121094 C 111.070312 186.621094 111.113281 186.140625 111.414062 185.6875 C 114.433594 183.273438 117.839844 181.496094 121.707031 182.96875 C 125.332031 184.351562 128.675781 184.96875 132.4375 183.445312 C 134.558594 182.585938 136.925781 183.097656 138.855469 184.636719 C 141.117188 186.429688 143.5 186.824219 146.339844 185.894531 C 147.75 185.421875 149.199219 185.242188 150.683594 185.359375 C 152.167969 185.476562 153.570312 185.878906 154.890625 186.570312 C 156.09375 187.164062 157.359375 187.546875 158.6875 187.710938 C 160.019531 187.878906 161.339844 187.820312 162.648438 187.539062 C 165.851562 186.871094 169.015625 187.027344 172.136719 188.015625 C 173.8125 188.644531 175.511719 188.707031 177.230469 188.207031 C 177.394531 188.167969 177.558594 188.160156 177.726562 188.1875 C 177.894531 188.214844 178.050781 188.269531 178.195312 188.359375 C 178.34375 188.445312 178.464844 188.558594 178.566406 188.691406 C 178.667969 188.828125 178.742188 188.976562 178.785156 189.140625 C 178.839844 189.335938 178.855469 189.53125 178.828125 189.726562 C 178.800781 189.925781 178.738281 190.109375 178.636719 190.285156 C 178.535156 190.457031 178.40625 190.601562 178.242188 190.71875 C 178.082031 190.835938 177.90625 190.917969 177.710938 190.964844 C 176.816406 191.21875 175.886719 191.324219 174.964844 191.492188 Z M 174.964844 191.492188 " fill-opacity="1" fill-rule="nonzero"/><path fill="#38b6ff" d="M 114.652344 242.613281 C 115.4375 242.730469 116.355469 242.890625 117.277344 243.007812 C 120.730469 243.554688 124.179688 243.511719 127.617188 242.878906 C 131.277344 242.113281 134.753906 242.300781 137.972656 244.441406 C 139.492188 245.375 141.144531 245.777344 142.925781 245.648438 C 146.652344 245.585938 150.378906 245.648438 154.101562 245.585938 C 155.964844 245.550781 157.820312 245.414062 159.671875 245.179688 C 164.082031 244.628906 167.050781 246.753906 169.304688 250.238281 C 169.546875 250.574219 169.652344 250.949219 169.617188 251.363281 C 169.511719 251.859375 169.269531 252.277344 168.886719 252.613281 C 168.507812 252.78125 168.144531 252.753906 167.792969 252.535156 C 167.082031 251.933594 166.4375 251.269531 165.859375 250.539062 C 164.511719 248.796875 162.722656 247.914062 160.632812 248.261719 C 154.792969 249.25 148.910156 248.089844 143.105469 248.714844 C 141.96875 248.875 140.839844 248.820312 139.722656 248.550781 C 138.605469 248.28125 137.578125 247.820312 136.636719 247.160156 C 133.894531 245.160156 130.917969 245.109375 127.863281 245.804688 C 124.175781 246.671875 120.488281 246.6875 116.796875 245.847656 C 115.554688 245.554688 114.296875 245.476562 113.03125 245.613281 C 111.761719 245.75 110.550781 246.09375 109.398438 246.640625 C 108.328125 247.171875 107.222656 247.617188 106.082031 247.984375 C 105.546875 248.054688 105.085938 247.898438 104.703125 247.511719 C 104.171875 246.96875 104.429688 246.28125 104.851562 245.71875 C 105.011719 245.503906 105.207031 245.328125 105.433594 245.191406 C 108.261719 243.460938 111.335938 242.601562 114.652344 242.613281 Z M 114.652344 242.613281 " fill-opacity="1" fill-rule="nonzero"/><path fill="#38b6ff" d="M 109.609375 227.183594 C 110.644531 227.308594 111.671875 227.488281 112.691406 227.726562 C 113.523438 228.007812 114.378906 228.101562 115.253906 228.007812 C 116.128906 227.910156 116.941406 227.636719 117.695312 227.179688 C 121.289062 224.855469 124.972656 225.164062 128.804688 226.4375 C 131.324219 227.265625 133.90625 227.910156 136.472656 228.589844 C 138.589844 229.171875 140.6875 229.113281 142.769531 228.417969 C 144.027344 227.992188 145.335938 227.714844 146.578125 227.253906 C 147.167969 227.023438 147.78125 226.863281 148.410156 226.78125 C 149.042969 226.699219 149.671875 226.695312 150.304688 226.769531 C 150.9375 226.839844 151.550781 226.992188 152.144531 227.214844 C 152.742188 227.441406 153.300781 227.734375 153.824219 228.097656 C 158.890625 231.417969 159.925781 230.808594 165.082031 229.378906 C 165.980469 229.144531 166.894531 229.007812 167.824219 228.96875 C 167.992188 228.949219 168.15625 228.960938 168.320312 229.011719 C 168.480469 229.058594 168.625 229.140625 168.753906 229.25 C 168.882812 229.359375 168.984375 229.492188 169.058594 229.644531 C 169.128906 229.796875 169.171875 229.960938 169.175781 230.128906 C 169.023438 230.757812 168.703125 231.28125 168.210938 231.695312 C 167.96875 231.941406 167.472656 231.945312 167.085938 232.046875 C 165.921875 232.347656 164.761719 232.550781 163.601562 232.949219 C 162.757812 233.28125 161.886719 233.496094 160.988281 233.59375 C 160.085938 233.695312 159.191406 233.671875 158.296875 233.53125 C 157.402344 233.390625 156.542969 233.132812 155.714844 232.761719 C 154.890625 232.390625 154.128906 231.917969 153.429688 231.34375 C 151.046875 229.492188 148.609375 229.34375 145.949219 230.5 C 145.339844 230.769531 144.71875 231.007812 144.09375 231.226562 C 142.644531 231.757812 141.148438 232.035156 139.605469 232.066406 C 138.066406 232.097656 136.558594 231.878906 135.09375 231.40625 C 132.304688 230.535156 129.460938 229.84375 126.65625 229.019531 C 124.113281 228.269531 121.632812 228.316406 119.316406 229.671875 C 116.742188 231.175781 114.171875 231.59375 111.316406 230.472656 C 110.375 230.101562 109.21875 230.25 108.15625 230.226562 C 107.359375 230.226562 106.566406 230.320312 105.765625 230.34375 C 105.417969 230.375 105.101562 230.289062 104.816406 230.089844 C 104.53125 229.890625 104.339844 229.621094 104.25 229.289062 C 104.046875 228.542969 104.585938 228.03125 105.210938 227.75 C 105.703125 227.539062 106.214844 227.40625 106.746094 227.355469 C 107.550781 227.25 108.355469 227.242188 109.609375 227.183594 Z M 109.609375 227.183594 " fill-opacity="1" fill-rule="nonzero"/><path fill="#38b6ff" d="M 114.972656 203.292969 C 117.417969 203.667969 120.082031 203.914062 122.667969 204.515625 C 126.25 205.347656 129.746094 205.539062 133.308594 204.464844 C 137.339844 203.246094 140.996094 203.964844 143.964844 207.066406 C 145.707031 208.90625 147.789062 209.34375 150.164062 208.894531 C 151.078125 208.726562 151.984375 208.476562 152.894531 208.316406 C 154.664062 207.925781 156.453125 207.8125 158.257812 207.976562 C 160.0625 208.144531 161.796875 208.578125 163.46875 209.285156 C 165.65625 210.230469 167.984375 210.851562 170.25 211.605469 C 170.765625 211.742188 171.25 211.953125 171.699219 212.234375 C 172.019531 212.496094 172.164062 212.835938 172.136719 213.25 C 171.972656 213.679688 171.554688 214.253906 171.179688 214.320312 C 170.253906 214.46875 169.328125 214.453125 168.410156 214.273438 C 167.113281 213.96875 165.84375 213.582031 164.601562 213.109375 C 163.460938 212.726562 162.351562 212.273438 161.265625 211.753906 C 160.054688 211.15625 158.777344 210.816406 157.429688 210.730469 C 156.082031 210.644531 154.769531 210.820312 153.492188 211.257812 C 152.605469 211.542969 151.703125 211.769531 150.785156 211.945312 C 147.761719 212.464844 144.917969 212.238281 142.65625 209.847656 C 142.570312 209.75 142.441406 209.691406 142.351562 209.597656 C 139.625 206.777344 136.542969 206.316406 132.863281 207.683594 C 131.332031 208.21875 129.757812 208.496094 128.140625 208.507812 C 126.519531 208.523438 124.941406 208.273438 123.402344 207.761719 C 119.128906 206.523438 114.777344 206.136719 110.351562 206.601562 C 109.558594 206.699219 108.773438 206.65625 107.992188 206.472656 C 107.523438 206.230469 107.261719 205.84375 107.214844 205.3125 C 107.214844 204.90625 107.679688 204.210938 108.023438 204.152344 C 110.246094 203.796875 112.5 203.578125 114.972656 203.292969 Z M 114.972656 203.292969 " fill-opacity="1" fill-rule="nonzero"/><path fill="#38b6ff" d="M 256.910156 140.457031 C 255.5 140.421875 254.378906 141.152344 253.222656 141.789062 C 251.511719 142.746094 249.679688 143.308594 247.730469 143.476562 C 245.777344 143.648438 243.878906 143.410156 242.027344 142.765625 C 239.613281 141.992188 237.238281 141.316406 234.613281 141.667969 C 233.515625 141.820312 232.25 141.351562 231.171875 140.898438 C 230.121094 140.449219 229.027344 140.191406 227.886719 140.121094 C 226.75 140.050781 225.628906 140.171875 224.535156 140.484375 C 223.25 140.828125 221.933594 141.035156 220.644531 141.359375 C 219.410156 141.726562 218.15625 141.808594 216.886719 141.605469 C 215.613281 141.402344 214.449219 140.933594 213.390625 140.199219 C 213.066406 139.96875 212.730469 139.753906 212.398438 139.527344 C 212.152344 139.347656 211.886719 139.214844 211.59375 139.128906 C 211.300781 139.042969 211.003906 139.011719 210.703125 139.027344 C 210.398438 139.046875 210.109375 139.117188 209.832031 139.238281 C 209.550781 139.359375 209.304688 139.527344 209.082031 139.734375 C 208.246094 140.386719 207.492188 141.140625 206.703125 141.84375 C 206.046875 142.503906 205.34375 143.101562 204.589844 143.644531 C 204.089844 143.824219 203.625 143.761719 203.195312 143.453125 C 202.875 143.039062 202.738281 142.574219 202.78125 142.050781 C 202.855469 141.644531 203.050781 141.304688 203.363281 141.03125 C 204.652344 139.679688 206.007812 138.394531 207.429688 137.179688 C 209.621094 135.4375 211.824219 135.210938 214 136.976562 C 216.394531 138.917969 218.835938 138.859375 221.507812 138.140625 C 222.667969 137.832031 223.832031 137.484375 224.992188 137.226562 C 227.257812 136.738281 229.527344 136.734375 231.613281 137.855469 C 232.949219 138.550781 234.363281 138.796875 235.855469 138.597656 C 237.882812 138.390625 239.84375 138.671875 241.730469 139.433594 C 242.628906 139.800781 243.554688 140.0625 244.511719 140.214844 C 245.46875 140.371094 246.429688 140.414062 247.398438 140.347656 C 248.363281 140.277344 249.3125 140.101562 250.238281 139.8125 C 251.164062 139.527344 252.042969 139.140625 252.878906 138.648438 C 253.703125 138.21875 254.542969 137.832031 255.40625 137.488281 C 255.742188 137.328125 256.09375 137.226562 256.460938 137.1875 C 256.828125 137.148438 257.195312 137.167969 257.554688 137.253906 C 257.917969 137.335938 258.253906 137.476562 258.570312 137.675781 C 258.882812 137.875 259.152344 138.121094 259.382812 138.410156 C 260.703125 139.828125 261.433594 141.503906 261.574219 143.433594 C 261.53125 143.96875 261.292969 144.386719 260.851562 144.695312 C 260.203125 145.101562 259.617188 144.734375 259.175781 144.113281 C 258.320312 142.992188 258.417969 141.25 256.910156 140.457031 Z M 256.910156 140.457031 " fill-opacity="1" fill-rule="nonzero"/><path fill="#38b6ff" d="M 211.789062 159.1875 C 212.871094 159.375 213.941406 159.621094 215 159.929688 C 217.601562 160.804688 220.222656 160.847656 222.855469 160.070312 C 224.273438 159.699219 225.707031 159.40625 227.15625 159.199219 C 229.800781 158.816406 232.261719 159.316406 234.125 161.371094 C 235.867188 163.296875 237.941406 163.726562 240.292969 163.160156 C 241.601562 162.835938 242.921875 162.761719 244.261719 162.929688 C 245.597656 163.101562 246.859375 163.507812 248.042969 164.152344 C 250.273438 165.3125 252.375 165.144531 254.546875 164.082031 C 255.613281 163.527344 256.71875 163.078125 257.867188 162.730469 C 259.480469 162.28125 260.71875 163.007812 261.28125 164.667969 C 261.429688 165.183594 261.363281 165.667969 261.074219 166.121094 C 260.804688 166.449219 259.992188 166.757812 259.726562 166.589844 C 258.390625 165.742188 257.210938 166.109375 255.988281 166.757812 C 252.957031 168.355469 249.914062 168.527344 246.796875 166.9375 C 245.839844 166.441406 244.824219 166.132812 243.753906 166.007812 C 242.683594 165.886719 241.625 165.957031 240.582031 166.222656 C 237.523438 166.957031 234.777344 166.390625 232.570312 163.9375 C 231.101562 162.300781 229.15625 161.945312 227.070312 162.316406 C 225.363281 162.625 223.664062 162.949219 221.984375 163.375 C 219.730469 163.976562 217.496094 163.902344 215.285156 163.160156 C 214.21875 162.742188 213.113281 162.523438 211.972656 162.507812 C 210.828125 162.488281 209.71875 162.671875 208.640625 163.054688 C 208.515625 163.09375 208.382812 163.113281 208.253906 163.125 C 207.3125 163.25 206.453125 162.78125 206.398438 162.050781 C 206.367188 161.847656 206.375 161.648438 206.414062 161.453125 C 206.457031 161.253906 206.535156 161.070312 206.648438 160.898438 C 206.757812 160.730469 206.898438 160.585938 207.0625 160.46875 C 207.230469 160.351562 207.410156 160.269531 207.609375 160.21875 C 208.988281 159.832031 210.417969 159.519531 211.789062 159.1875 Z M 211.789062 159.1875 " fill-opacity="1" fill-rule="nonzero"/><path fill="#38b6ff" d="M 253.308594 353.222656 C 250.21875 353.140625 247.226562 352.558594 244.328125 351.484375 C 243.933594 351.375 243.609375 351.164062 243.351562 350.847656 C 243.175781 350.5 243.125 350.132812 243.195312 349.746094 C 243.273438 349.480469 243.449219 349.308594 243.71875 349.234375 C 244.375 349.171875 245.03125 349.199219 245.679688 349.324219 C 247.234375 349.683594 248.757812 350.214844 250.324219 350.554688 C 255.660156 351.714844 260.039062 350.222656 263.347656 345.75 C 265.433594 342.925781 266.734375 339.722656 267.992188 336.503906 C 268.402344 335.527344 268.863281 334.578125 269.382812 333.65625 C 269.566406 333.449219 269.796875 333.375 270.066406 333.429688 C 270.378906 333.582031 270.773438 333.867188 270.839844 334.160156 C 270.957031 334.6875 270.933594 335.207031 270.769531 335.71875 C 269.371094 339.464844 267.972656 343.214844 265.683594 346.546875 C 264.269531 348.699219 262.460938 350.441406 260.253906 351.773438 C 258.113281 352.996094 255.75 353.277344 253.308594 353.222656 Z M 253.308594 353.222656 " fill-opacity="1" fill-rule="nonzero"/><path fill="#38b6ff" d="M 111.167969 43.179688 C 109.730469 44.035156 108.632812 44.765625 107.453125 45.363281 C 99.929688 49.207031 96.652344 55.675781 96.113281 63.816406 C 95.992188 65.675781 96.113281 67.550781 96.0625 69.414062 C 96.027344 70.070312 95.921875 70.714844 95.734375 71.347656 C 95.683594 71.527344 95.347656 71.707031 95.15625 71.738281 C 94.964844 71.765625 94.574219 71.683594 94.457031 71.523438 C 94.15625 71.089844 93.960938 70.613281 93.878906 70.09375 C 93.652344 65.960938 93.644531 61.824219 94.726562 57.777344 C 96.816406 49.980469 101.773438 44.796875 109.242188 41.886719 C 109.890625 41.609375 110.054688 41.722656 111.167969 43.179688 Z M 111.167969 43.179688 " fill-opacity="1" fill-rule="nonzero"/><path fill="#38b6ff" d="M 273.074219 325.515625 C 272.820312 325.394531 272.585938 325.242188 272.371094 325.058594 C 272.171875 324.875 272.0625 324.648438 272.046875 324.378906 C 272.546875 321.667969 273.058594 318.957031 273.636719 316.25 C 273.691406 315.988281 274.363281 315.585938 274.507812 315.667969 C 274.914062 315.894531 275.511719 316.398438 275.46875 316.703125 C 275.042969 319.429688 274.515625 322.136719 273.945312 324.832031 C 273.886719 325.121094 273.363281 325.3125 273.074219 325.515625 Z M 273.074219 325.515625 " fill-opacity="1" fill-rule="nonzero"/><path fill="#38b6ff" d="M 276.316406 299.015625 C 277.265625 299.679688 277.976562 299.957031 277.964844 300.175781 C 277.890625 301.863281 277.730469 303.539062 277.480469 305.207031 C 277.445312 305.4375 276.789062 305.832031 276.640625 305.75 C 276.246094 305.546875 275.734375 305.128906 275.699219 304.765625 C 275.554688 303.085938 275.832031 301.410156 276.316406 299.015625 Z M 276.316406 299.015625 " fill-opacity="1" fill-rule="nonzero"/><path fill="#38b6ff" d="M 118.40625 42.445312 C 118.015625 42.050781 117.453125 41.734375 117.40625 41.359375 C 117.40625 40.832031 117.625 40.425781 118.0625 40.136719 C 119.039062 39.75 120.046875 39.492188 121.09375 39.371094 C 121.613281 39.417969 122.011719 39.660156 122.292969 40.097656 C 122.695312 40.816406 122.207031 41.375 121.539062 41.609375 C 120.558594 41.960938 119.535156 42.148438 118.40625 42.445312 Z M 118.40625 42.445312 " fill-opacity="1" fill-rule="nonzero"/><path fill="#38b6ff" d="M 207.4375 297.339844 C 206.457031 296.941406 205.355469 296.757812 204.535156 296.140625 C 201.476562 293.820312 199.796875 290.46875 198.398438 286.992188 C 198.277344 286.6875 198.683594 285.929688 199.039062 285.742188 C 199.535156 285.535156 200.007812 285.582031 200.453125 285.882812 C 201.070312 286.578125 201.605469 287.328125 202.070312 288.136719 C 203.015625 289.582031 203.84375 291.109375 204.894531 292.476562 C 206.238281 294.21875 207.800781 294.503906 209.808594 293.234375 C 211.839844 291.953125 213.777344 290.539062 215.613281 288.996094 C 218.976562 286.171875 222.214844 283.1875 225.539062 280.332031 C 226.242188 279.730469 227.003906 279.210938 227.820312 278.773438 C 228.214844 278.648438 228.570312 278.71875 228.886719 278.988281 C 229.230469 279.394531 229.371094 279.859375 229.316406 280.382812 C 229.085938 281.011719 228.714844 281.542969 228.203125 281.972656 C 223.789062 285.824219 219.382812 289.679688 214.894531 293.4375 C 213.527344 294.503906 212.070312 295.429688 210.523438 296.21875 C 209.523438 296.667969 208.496094 297.039062 207.4375 297.339844 Z M 207.4375 297.339844 " fill-opacity="1" fill-rule="nonzero"/><path fill="#38b6ff" d="M 121.941406 280.703125 C 122.25 280.324219 122.433594 279.902344 122.746094 279.761719 C 123.121094 279.601562 123.484375 279.625 123.839844 279.824219 C 124.410156 280.363281 124.933594 280.945312 125.414062 281.566406 C 126.523438 282.890625 127.527344 284.308594 128.738281 285.527344 C 130.121094 286.914062 131.78125 287.0625 133.472656 286.054688 C 134.375 285.496094 135.203125 284.839844 135.957031 284.085938 C 138.441406 281.695312 140.871094 279.238281 143.347656 276.847656 C 144.398438 275.832031 145.5 274.875 146.652344 273.980469 C 147.109375 273.710938 147.601562 273.589844 148.128906 273.613281 C 148.753906 273.578125 149.382812 274.558594 149.042969 275.058594 C 148.546875 275.835938 147.976562 276.558594 147.335938 277.226562 C 144.515625 280.027344 141.675781 282.816406 138.789062 285.558594 C 137.640625 286.664062 136.414062 287.675781 135.109375 288.59375 C 132.421875 290.441406 129.5 290.335938 127.144531 288.011719 C 125.421875 286.183594 123.832031 284.25 122.371094 282.207031 C 122.132812 281.734375 121.988281 281.230469 121.941406 280.703125 Z M 121.941406 280.703125 " fill-opacity="1" fill-rule="nonzero"/></svg>