<svg xmlns="http://www.w3.org/2000/svg" xmlns:xlink="http://www.w3.org/1999/xlink" width="500" zoomAndPan="magnify" viewBox="0 0 375 374.999991" height="500" preserveAspectRatio="xMidYMid meet" version="1.0"><defs><clipPath id="4046626a05"><path d="M 211 89 L 360.398438 89 L 360.398438 249 L 211 249 Z M 211 89 " clip-rule="nonzero"/></clipPath></defs><path fill="#5ce1e6" d="M 96.78125 126.203125 C 96.378906 126.203125 95.980469 126.164062 95.585938 126.085938 C 95.191406 126.007812 94.808594 125.890625 94.4375 125.738281 C 94.066406 125.582031 93.710938 125.394531 93.378906 125.171875 C 93.042969 124.949219 92.734375 124.695312 92.449219 124.410156 C 92.164062 124.125 91.910156 123.816406 91.6875 123.480469 C 91.460938 123.144531 91.273438 122.792969 91.121094 122.421875 C 90.964844 122.046875 90.851562 121.664062 90.769531 121.269531 C 90.691406 120.875 90.652344 120.476562 90.652344 120.074219 L 90.652344 95.558594 C 90.652344 94.960938 90.683594 94.371094 90.738281 93.777344 C 90.796875 93.183594 90.882812 92.597656 90.996094 92.015625 C 91.113281 91.429688 91.253906 90.855469 91.425781 90.285156 C 91.59375 89.714844 91.792969 89.15625 92.015625 88.605469 C 92.242188 88.054688 92.492188 87.515625 92.769531 86.988281 C 93.046875 86.460938 93.347656 85.949219 93.675781 85.453125 C 94 84.957031 94.351562 84.476562 94.726562 84.015625 C 95.097656 83.550781 95.492188 83.109375 95.910156 82.683594 C 96.324219 82.257812 96.761719 81.855469 97.214844 81.472656 C 97.671875 81.089844 98.144531 80.730469 98.632812 80.394531 C 99.125 80.058594 99.628906 79.746094 100.152344 79.457031 C 100.671875 79.171875 101.203125 78.910156 101.75 78.671875 C 102.296875 78.4375 102.851562 78.226562 103.417969 78.046875 C 103.984375 77.863281 104.558594 77.710938 105.140625 77.582031 C 105.71875 77.457031 106.304688 77.359375 106.898438 77.289062 C 107.488281 77.222656 108.078125 77.179688 108.675781 77.167969 C 108.257812 76.742188 107.863281 76.300781 107.488281 75.835938 C 107.117188 75.375 106.765625 74.894531 106.441406 74.398438 C 106.113281 73.902344 105.8125 73.390625 105.535156 72.863281 C 105.257812 72.335938 105.007812 71.800781 104.78125 71.25 C 104.558594 70.699219 104.359375 70.136719 104.191406 69.570312 C 104.019531 69 103.875 68.421875 103.761719 67.839844 C 103.648438 67.253906 103.5625 66.667969 103.503906 66.074219 C 103.445312 65.484375 103.417969 64.890625 103.417969 64.296875 C 103.417969 63.703125 103.445312 63.109375 103.503906 62.515625 C 103.5625 61.925781 103.648438 61.335938 103.761719 60.753906 C 103.875 60.171875 104.019531 59.59375 104.191406 59.023438 C 104.359375 58.457031 104.558594 57.894531 104.78125 57.34375 C 105.007812 56.792969 105.257812 56.257812 105.535156 55.730469 C 105.8125 55.203125 106.113281 54.691406 106.441406 54.195312 C 106.765625 53.699219 107.117188 53.21875 107.488281 52.757812 C 107.863281 52.292969 108.257812 51.847656 108.675781 51.425781 L 126.203125 34.261719 C 127.96875 32.5625 129.980469 31.253906 132.25 30.332031 C 134.515625 29.410156 136.875 28.941406 139.320312 28.929688 C 141.671875 28.894531 143.9375 29.304688 146.125 30.164062 C 148.3125 31.023438 150.253906 32.269531 151.949219 33.894531 C 151.960938 33.300781 152 32.707031 152.070312 32.117188 C 152.140625 31.527344 152.238281 30.941406 152.363281 30.359375 C 152.488281 29.777344 152.644531 29.203125 152.824219 28.636719 C 153.007812 28.070312 153.214844 27.515625 153.453125 26.96875 C 153.6875 26.425781 153.949219 25.890625 154.238281 25.371094 C 154.523438 24.851562 154.835938 24.34375 155.171875 23.855469 C 155.511719 23.363281 155.871094 22.890625 156.25 22.4375 C 156.632812 21.980469 157.039062 21.546875 157.460938 21.128906 C 157.886719 20.710938 158.332031 20.316406 158.792969 19.945312 C 159.257812 19.570312 159.738281 19.222656 160.234375 18.894531 C 160.730469 18.570312 161.242188 18.265625 161.769531 17.988281 C 162.292969 17.714844 162.832031 17.460938 163.382812 17.238281 C 163.933594 17.011719 164.496094 16.816406 165.0625 16.644531 C 165.632812 16.472656 166.210938 16.332031 166.792969 16.21875 C 167.378906 16.101562 167.964844 16.015625 168.558594 15.960938 C 169.148438 15.902344 169.742188 15.875 170.335938 15.875 L 194.855469 15.875 C 195.449219 15.875 196.042969 15.902344 196.632812 15.960938 C 197.226562 16.015625 197.8125 16.101562 198.398438 16.21875 C 198.980469 16.332031 199.558594 16.472656 200.128906 16.644531 C 200.695312 16.816406 201.257812 17.011719 201.808594 17.238281 C 202.359375 17.460938 202.898438 17.714844 203.421875 17.988281 C 203.949219 18.265625 204.460938 18.570312 204.957031 18.894531 C 205.453125 19.222656 205.933594 19.570312 206.398438 19.945312 C 206.859375 20.316406 207.304688 20.710938 207.730469 21.128906 C 208.152344 21.546875 208.558594 21.980469 208.941406 22.4375 C 209.320312 22.890625 209.683594 23.363281 210.019531 23.855469 C 210.355469 24.34375 210.667969 24.851562 210.953125 25.371094 C 211.242188 25.890625 211.503906 26.425781 211.738281 26.96875 C 211.976562 27.515625 212.183594 28.070312 212.367188 28.636719 C 212.546875 29.203125 212.703125 29.777344 212.828125 30.359375 C 212.953125 30.941406 213.050781 31.527344 213.121094 32.117188 C 213.191406 32.707031 213.230469 33.300781 213.242188 33.894531 C 214.945312 32.269531 216.886719 31.019531 219.070312 30.140625 C 221.25 29.261719 223.515625 28.816406 225.871094 28.808594 C 227.089844 28.804688 228.296875 28.921875 229.492188 29.160156 C 230.691406 29.394531 231.851562 29.75 232.976562 30.214844 C 234.101562 30.683594 235.171875 31.257812 236.183594 31.941406 C 237.195312 32.621094 238.128906 33.394531 238.988281 34.261719 L 256.148438 51.425781 C 256.578125 51.851562 256.984375 52.296875 257.367188 52.761719 C 257.75 53.230469 258.109375 53.710938 258.445312 54.214844 C 258.78125 54.714844 259.09375 55.230469 259.378906 55.765625 C 259.664062 56.296875 259.921875 56.839844 260.152344 57.398438 C 260.382812 57.957031 260.585938 58.523438 260.761719 59.101562 C 260.9375 59.679688 261.085938 60.261719 261.203125 60.855469 C 261.320312 61.445312 261.410156 62.042969 261.46875 62.644531 C 261.527344 63.246094 261.558594 63.847656 261.558594 64.449219 C 261.558594 65.054688 261.527344 65.65625 261.46875 66.257812 C 261.410156 66.855469 261.320312 67.453125 261.203125 68.046875 C 261.085938 68.636719 260.9375 69.222656 260.761719 69.800781 C 260.585938 70.375 260.382812 70.945312 260.152344 71.5 C 259.921875 72.058594 259.664062 72.605469 259.378906 73.136719 C 259.09375 73.667969 258.78125 74.183594 258.445312 74.6875 C 258.109375 75.1875 257.75 75.671875 257.367188 76.136719 C 256.984375 76.601562 256.578125 77.050781 256.148438 77.476562 L 246.097656 87.648438 C 245.5 88.042969 244.851562 88.320312 244.15625 88.484375 C 243.457031 88.652344 242.753906 88.691406 242.042969 88.613281 C 241.332031 88.53125 240.65625 88.332031 240.015625 88.011719 C 239.375 87.695312 238.808594 87.277344 238.3125 86.761719 C 237.816406 86.246094 237.425781 85.660156 237.136719 85.003906 C 236.84375 84.351562 236.675781 83.667969 236.625 82.953125 C 236.574219 82.238281 236.648438 81.539062 236.84375 80.851562 C 237.039062 80.160156 237.34375 79.527344 237.761719 78.945312 L 247.875 68.769531 C 248.15625 68.488281 248.410156 68.179688 248.632812 67.84375 C 248.855469 67.511719 249.042969 67.15625 249.195312 66.789062 C 249.347656 66.417969 249.460938 66.035156 249.539062 65.640625 C 249.617188 65.246094 249.65625 64.851562 249.65625 64.449219 C 249.65625 64.050781 249.617188 63.652344 249.539062 63.257812 C 249.460938 62.867188 249.347656 62.484375 249.195312 62.113281 C 249.042969 61.742188 248.855469 61.390625 248.632812 61.054688 C 248.410156 60.722656 248.15625 60.414062 247.875 60.128906 L 230.28125 42.84375 C 229.703125 42.269531 229.039062 41.828125 228.285156 41.519531 C 227.53125 41.210938 226.746094 41.0625 225.929688 41.066406 C 225.132812 41.0625 224.359375 41.207031 223.617188 41.503906 C 222.875 41.800781 222.214844 42.226562 221.640625 42.78125 L 211.464844 52.957031 C 211.035156 53.382812 210.550781 53.734375 210.015625 54.019531 C 209.480469 54.300781 208.914062 54.5 208.320312 54.613281 C 207.726562 54.726562 207.128906 54.753906 206.523438 54.691406 C 205.921875 54.628906 205.34375 54.480469 204.785156 54.246094 C 204.226562 54.015625 203.710938 53.707031 203.242188 53.324219 C 202.773438 52.945312 202.367188 52.5 202.03125 52 C 201.691406 51.5 201.433594 50.957031 201.257812 50.378906 C 201.078125 49.800781 200.988281 49.210938 200.984375 48.605469 L 200.984375 34.261719 C 200.984375 33.859375 200.945312 33.460938 200.867188 33.066406 C 200.789062 32.671875 200.671875 32.289062 200.519531 31.917969 C 200.363281 31.542969 200.175781 31.191406 199.953125 30.855469 C 199.726562 30.523438 199.472656 30.210938 199.1875 29.929688 C 198.90625 29.644531 198.59375 29.390625 198.261719 29.164062 C 197.925781 28.941406 197.570312 28.753906 197.199219 28.597656 C 196.828125 28.445312 196.445312 28.328125 196.050781 28.25 C 195.65625 28.171875 195.257812 28.132812 194.855469 28.132812 L 170.335938 28.132812 C 169.933594 28.132812 169.535156 28.171875 169.140625 28.25 C 168.746094 28.328125 168.363281 28.445312 167.992188 28.597656 C 167.621094 28.753906 167.265625 28.941406 166.929688 29.164062 C 166.597656 29.390625 166.289062 29.644531 166.003906 29.929688 C 165.71875 30.210938 165.464844 30.523438 165.242188 30.855469 C 165.015625 31.191406 164.828125 31.542969 164.675781 31.917969 C 164.519531 32.289062 164.402344 32.671875 164.324219 33.066406 C 164.246094 33.460938 164.207031 33.859375 164.207031 34.261719 L 164.207031 48.605469 C 164.203125 49.210938 164.113281 49.800781 163.933594 50.378906 C 163.757812 50.957031 163.5 51.5 163.160156 52 C 162.824219 52.5 162.417969 52.945312 161.949219 53.324219 C 161.480469 53.707031 160.964844 54.015625 160.40625 54.246094 C 159.847656 54.480469 159.269531 54.628906 158.667969 54.691406 C 158.0625 54.753906 157.464844 54.726562 156.871094 54.613281 C 156.277344 54.5 155.710938 54.300781 155.175781 54.019531 C 154.640625 53.734375 154.15625 53.382812 153.726562 52.957031 L 143.550781 42.84375 C 142.980469 42.277344 142.324219 41.839844 141.582031 41.53125 C 140.835938 41.226562 140.0625 41.070312 139.261719 41.066406 C 138.445312 41.0625 137.660156 41.210938 136.90625 41.519531 C 136.152344 41.828125 135.488281 42.269531 134.910156 42.84375 L 117.625 60.128906 C 117.050781 60.707031 116.609375 61.375 116.300781 62.128906 C 115.992188 62.882812 115.839844 63.664062 115.84375 64.480469 C 115.839844 65.28125 115.988281 66.050781 116.285156 66.792969 C 116.582031 67.535156 117.007812 68.195312 117.5625 68.769531 L 127.738281 78.945312 C 128.164062 79.378906 128.515625 79.859375 128.796875 80.394531 C 129.078125 80.933594 129.277344 81.496094 129.394531 82.089844 C 129.507812 82.6875 129.53125 83.285156 129.46875 83.886719 C 129.40625 84.488281 129.257812 85.070312 129.023438 85.628906 C 128.792969 86.1875 128.488281 86.703125 128.105469 87.171875 C 127.722656 87.640625 127.28125 88.042969 126.78125 88.382812 C 126.277344 88.71875 125.738281 88.976562 125.160156 89.15625 C 124.582031 89.332031 123.988281 89.425781 123.386719 89.425781 L 109.042969 89.425781 C 108.640625 89.425781 108.242188 89.46875 107.847656 89.546875 C 107.453125 89.625 107.066406 89.738281 106.695312 89.894531 C 106.324219 90.046875 105.972656 90.238281 105.636719 90.460938 C 105.300781 90.683594 104.992188 90.9375 104.707031 91.222656 C 104.421875 91.507812 104.167969 91.816406 103.945312 92.152344 C 103.722656 92.488281 103.53125 92.839844 103.378906 93.210938 C 103.226562 93.582031 103.109375 93.964844 103.03125 94.359375 C 102.953125 94.757812 102.914062 95.15625 102.914062 95.558594 L 102.914062 120.074219 C 102.914062 120.476562 102.875 120.875 102.792969 121.269531 C 102.714844 121.664062 102.601562 122.046875 102.445312 122.421875 C 102.292969 122.792969 102.101562 123.144531 101.878906 123.480469 C 101.65625 123.816406 101.402344 124.125 101.117188 124.410156 C 100.832031 124.695312 100.523438 124.949219 100.1875 125.171875 C 99.855469 125.394531 99.5 125.582031 99.128906 125.738281 C 98.757812 125.890625 98.375 126.007812 97.980469 126.085938 C 97.585938 126.164062 97.183594 126.203125 96.78125 126.203125 Z M 96.78125 126.203125 " fill-opacity="1" fill-rule="nonzero"/><path fill="#5ce1e6" d="M 161.386719 126.203125 C 160.855469 126.203125 160.332031 126.136719 159.820312 126 C 159.304688 125.863281 158.816406 125.664062 158.355469 125.402344 C 157.890625 125.136719 157.472656 124.820312 157.09375 124.445312 C 156.714844 124.074219 156.386719 123.660156 156.117188 123.199219 C 155.445312 122.042969 154.847656 120.84375 154.332031 119.605469 C 153.820312 118.371094 153.386719 117.105469 153.035156 115.8125 C 152.6875 114.515625 152.421875 113.207031 152.246094 111.878906 C 152.066406 110.550781 151.976562 109.214844 151.976562 107.875 C 151.972656 106.535156 152.058594 105.203125 152.230469 103.871094 C 152.402344 102.542969 152.660156 101.230469 153.003906 99.9375 C 153.351562 98.640625 153.777344 97.375 154.289062 96.136719 C 154.800781 94.894531 155.386719 93.695312 156.054688 92.535156 C 156.726562 91.371094 157.464844 90.261719 158.28125 89.195312 C 159.09375 88.132812 159.976562 87.125 160.921875 86.175781 C 161.867188 85.226562 162.871094 84.34375 163.933594 83.527344 C 164.996094 82.710938 166.105469 81.964844 167.265625 81.292969 C 168.425781 80.621094 169.625 80.027344 170.863281 79.515625 C 172.097656 79 173.363281 78.570312 174.660156 78.222656 C 175.953125 77.871094 177.265625 77.609375 178.59375 77.433594 C 179.921875 77.257812 181.253906 77.167969 182.597656 77.167969 C 184.292969 77.167969 185.976562 77.308594 187.648438 77.585938 C 189.320312 77.867188 190.957031 78.28125 192.558594 78.832031 C 194.164062 79.382812 195.710938 80.0625 197.199219 80.867188 C 198.691406 81.675781 200.105469 82.601562 201.441406 83.644531 C 202.78125 84.683594 204.023438 85.832031 205.167969 87.078125 C 206.316406 88.328125 207.351562 89.660156 208.277344 91.082031 C 209.203125 92.5 210.007812 93.988281 210.683594 95.542969 C 211.363281 97.09375 211.910156 98.695312 212.324219 100.339844 C 212.421875 100.726562 212.480469 101.125 212.5 101.527344 C 212.523438 101.929688 212.503906 102.328125 212.445312 102.726562 C 212.386719 103.125 212.289062 103.511719 212.152344 103.890625 C 212.019531 104.269531 211.847656 104.632812 211.640625 104.980469 C 211.433594 105.324219 211.195312 105.648438 210.925781 105.945312 C 210.65625 106.242188 210.359375 106.511719 210.039062 106.753906 C 209.714844 106.992188 209.371094 107.199219 209.007812 107.375 C 208.644531 107.546875 208.269531 107.679688 207.878906 107.78125 C 207.488281 107.878906 207.09375 107.9375 206.691406 107.957031 C 206.289062 107.980469 205.886719 107.960938 205.492188 107.902344 C 205.09375 107.84375 204.703125 107.746094 204.324219 107.613281 C 203.945312 107.476562 203.582031 107.308594 203.238281 107.101562 C 202.890625 106.894531 202.570312 106.65625 202.269531 106.386719 C 201.972656 106.117188 201.703125 105.824219 201.460938 105.5 C 201.21875 105.179688 201.011719 104.835938 200.839844 104.472656 C 200.667969 104.109375 200.53125 103.730469 200.433594 103.339844 C 200.273438 102.703125 200.082031 102.078125 199.855469 101.460938 C 199.628906 100.839844 199.371094 100.238281 199.082031 99.648438 C 198.789062 99.058594 198.46875 98.488281 198.117188 97.933594 C 197.765625 97.375 197.386719 96.84375 196.976562 96.328125 C 196.566406 95.8125 196.132812 95.324219 195.667969 94.855469 C 195.207031 94.386719 194.722656 93.945312 194.214844 93.53125 C 193.703125 93.113281 193.175781 92.726562 192.625 92.371094 C 192.074219 92.011719 191.503906 91.683594 190.917969 91.382812 C 190.332031 91.085938 189.730469 90.820312 189.117188 90.585938 C 188.503906 90.355469 187.878906 90.15625 187.242188 89.988281 C 186.605469 89.820312 185.964844 89.691406 185.3125 89.59375 C 184.664062 89.496094 184.011719 89.433594 183.355469 89.40625 C 182.699219 89.378906 182.042969 89.386719 181.386719 89.429688 C 180.730469 89.472656 180.078125 89.550781 179.429688 89.660156 C 178.78125 89.773438 178.144531 89.921875 177.511719 90.101562 C 176.878906 90.285156 176.261719 90.5 175.652344 90.746094 C 175.042969 90.996094 174.449219 91.273438 173.871094 91.585938 C 173.292969 91.898438 172.730469 92.238281 172.1875 92.609375 C 171.648438 92.984375 171.125 93.382812 170.628906 93.808594 C 170.128906 94.238281 169.652344 94.691406 169.203125 95.167969 C 168.75 95.648438 168.328125 96.148438 167.929688 96.671875 C 167.535156 97.195312 167.167969 97.738281 166.828125 98.300781 C 166.488281 98.867188 166.179688 99.445312 165.90625 100.042969 C 165.628906 100.636719 165.382812 101.246094 165.171875 101.871094 C 164.960938 102.492188 164.785156 103.125 164.640625 103.765625 C 164.5 104.40625 164.390625 105.054688 164.316406 105.707031 C 164.242188 106.359375 164.203125 107.015625 164.199219 107.671875 C 164.195312 108.328125 164.226562 108.984375 164.292969 109.640625 C 164.359375 110.292969 164.460938 110.941406 164.597656 111.585938 C 164.734375 112.226562 164.902344 112.859375 165.105469 113.484375 C 165.3125 114.109375 165.546875 114.722656 165.816406 115.320312 C 166.085938 115.921875 166.386719 116.503906 166.71875 117.070312 C 166.925781 117.417969 167.09375 117.785156 167.222656 118.164062 C 167.355469 118.546875 167.449219 118.9375 167.503906 119.335938 C 167.558594 119.734375 167.574219 120.136719 167.550781 120.539062 C 167.527344 120.941406 167.460938 121.339844 167.359375 121.726562 C 167.257812 122.117188 167.117188 122.496094 166.941406 122.855469 C 166.765625 123.21875 166.554688 123.5625 166.308594 123.882812 C 166.066406 124.203125 165.792969 124.496094 165.488281 124.765625 C 165.1875 125.03125 164.863281 125.265625 164.515625 125.46875 C 163.539062 125.996094 162.496094 126.242188 161.386719 126.203125 Z M 161.386719 126.203125 " fill-opacity="1" fill-rule="nonzero"/><g clip-path="url(#4046626a05)"><path fill="#5ce1e6" d="M 291.148438 248.792969 L 270.1875 248.792969 C 269.640625 248.792969 269.097656 248.769531 268.554688 248.714844 C 268.015625 248.660156 267.476562 248.582031 266.941406 248.476562 C 266.40625 248.371094 265.878906 248.238281 265.359375 248.078125 C 264.835938 247.921875 264.324219 247.738281 263.820312 247.53125 C 263.316406 247.324219 262.824219 247.089844 262.34375 246.835938 C 261.863281 246.578125 261.394531 246.300781 260.941406 245.996094 C 260.488281 245.695312 260.050781 245.371094 259.628906 245.027344 C 259.207031 244.683594 258.804688 244.316406 258.417969 243.933594 C 258.03125 243.546875 257.667969 243.144531 257.320312 242.726562 C 256.972656 242.304688 256.648438 241.867188 256.34375 241.417969 C 256.042969 240.964844 255.761719 240.5 255.503906 240.019531 C 255.246094 239.539062 255.011719 239.046875 254.800781 238.542969 C 254.589844 238.042969 254.40625 237.53125 254.246094 237.007812 C 254.085938 236.488281 253.953125 235.960938 253.84375 235.425781 C 253.738281 234.894531 253.65625 234.355469 253.601562 233.8125 C 253.542969 233.269531 253.515625 232.726562 253.515625 232.183594 L 253.515625 219.925781 C 253.515625 219.523438 253.554688 219.125 253.632812 218.730469 C 253.710938 218.332031 253.828125 217.949219 253.980469 217.578125 C 254.132812 217.207031 254.324219 216.855469 254.546875 216.519531 C 254.769531 216.183594 255.023438 215.875 255.308594 215.589844 C 255.59375 215.304688 255.902344 215.050781 256.238281 214.828125 C 256.574219 214.605469 256.925781 214.414062 257.296875 214.261719 C 257.667969 214.105469 258.054688 213.992188 258.449219 213.914062 C 258.84375 213.835938 259.242188 213.792969 259.644531 213.792969 C 260.046875 213.792969 260.445312 213.835938 260.839844 213.914062 C 261.234375 213.992188 261.617188 214.105469 261.988281 214.261719 C 262.359375 214.414062 262.714844 214.605469 263.046875 214.828125 C 263.382812 215.050781 263.691406 215.304688 263.976562 215.589844 C 264.261719 215.875 264.515625 216.183594 264.738281 216.519531 C 264.964844 216.855469 265.152344 217.207031 265.304688 217.578125 C 265.460938 217.949219 265.578125 218.332031 265.65625 218.730469 C 265.734375 219.125 265.773438 219.523438 265.773438 219.925781 L 265.773438 232.183594 C 265.773438 232.472656 265.800781 232.757812 265.859375 233.039062 C 265.914062 233.324219 266 233.597656 266.109375 233.863281 C 266.222656 234.128906 266.359375 234.382812 266.519531 234.621094 C 266.679688 234.859375 266.863281 235.078125 267.070312 235.28125 C 267.273438 235.484375 267.496094 235.664062 267.738281 235.824219 C 267.980469 235.980469 268.234375 236.113281 268.5 236.222656 C 268.769531 236.328125 269.046875 236.410156 269.328125 236.460938 C 269.613281 236.515625 269.898438 236.539062 270.1875 236.535156 L 291.148438 236.535156 C 291.4375 236.539062 291.722656 236.515625 292.007812 236.460938 C 292.289062 236.410156 292.566406 236.328125 292.832031 236.222656 C 293.101562 236.113281 293.355469 235.980469 293.597656 235.824219 C 293.835938 235.664062 294.0625 235.484375 294.265625 235.28125 C 294.472656 235.078125 294.65625 234.859375 294.816406 234.621094 C 294.976562 234.382812 295.113281 234.128906 295.226562 233.863281 C 295.335938 233.597656 295.421875 233.324219 295.476562 233.039062 C 295.535156 232.757812 295.5625 232.472656 295.5625 232.183594 L 295.5625 219.925781 C 295.566406 219.320312 295.65625 218.726562 295.835938 218.148438 C 296.011719 217.570312 296.269531 217.03125 296.609375 216.53125 C 296.945312 216.027344 297.351562 215.585938 297.820312 215.203125 C 298.289062 214.820312 298.804688 214.515625 299.363281 214.285156 C 299.921875 214.050781 300.5 213.902344 301.101562 213.839844 C 301.707031 213.777344 302.304688 213.800781 302.898438 213.917969 C 303.492188 214.03125 304.058594 214.230469 304.59375 214.511719 C 305.128906 214.792969 305.613281 215.148438 306.042969 215.574219 L 314.746094 224.277344 C 314.953125 224.472656 315.171875 224.648438 315.410156 224.800781 C 315.648438 224.957031 315.898438 225.085938 316.160156 225.191406 C 316.421875 225.300781 316.691406 225.378906 316.96875 225.433594 C 317.25 225.488281 317.527344 225.515625 317.8125 225.515625 C 318.09375 225.515625 318.375 225.488281 318.652344 225.433594 C 318.933594 225.378906 319.203125 225.300781 319.464844 225.191406 C 319.726562 225.085938 319.976562 224.957031 320.214844 224.800781 C 320.453125 224.648438 320.671875 224.472656 320.878906 224.277344 L 335.832031 209.320312 C 336.222656 208.90625 336.523438 208.433594 336.734375 207.902344 C 336.941406 207.375 337.046875 206.824219 337.046875 206.253906 C 337.046875 205.6875 336.941406 205.136719 336.734375 204.605469 C 336.523438 204.078125 336.222656 203.605469 335.832031 203.191406 L 327.128906 194.546875 C 326.703125 194.117188 326.351562 193.632812 326.066406 193.097656 C 325.785156 192.5625 325.589844 191.996094 325.472656 191.402344 C 325.359375 190.808594 325.332031 190.210938 325.394531 189.609375 C 325.457031 189.003906 325.605469 188.425781 325.84375 187.867188 C 326.070312 187.308594 326.378906 186.792969 326.761719 186.324219 C 327.140625 185.855469 327.585938 185.453125 328.085938 185.113281 C 328.589844 184.773438 329.128906 184.515625 329.707031 184.339844 C 330.285156 184.160156 330.875 184.070312 331.480469 184.066406 L 343.738281 184.066406 C 344.027344 184.066406 344.3125 184.039062 344.597656 183.980469 C 344.878906 183.925781 345.152344 183.839844 345.417969 183.730469 C 345.6875 183.617188 345.9375 183.480469 346.175781 183.320312 C 346.417969 183.160156 346.636719 182.976562 346.839844 182.769531 C 347.042969 182.566406 347.222656 182.34375 347.378906 182.101562 C 347.539062 181.859375 347.671875 181.605469 347.777344 181.335938 C 347.886719 181.070312 347.964844 180.792969 348.019531 180.511719 C 348.070312 180.226562 348.097656 179.941406 348.09375 179.652344 L 348.09375 158.628906 C 348.097656 158.339844 348.070312 158.054688 348.019531 157.773438 C 347.964844 157.488281 347.886719 157.210938 347.777344 156.945312 C 347.671875 156.675781 347.539062 156.421875 347.378906 156.183594 C 347.222656 155.941406 347.042969 155.71875 346.839844 155.511719 C 346.636719 155.308594 346.417969 155.125 346.175781 154.960938 C 345.9375 154.800781 345.6875 154.664062 345.417969 154.554688 C 345.152344 154.441406 344.878906 154.359375 344.597656 154.300781 C 344.3125 154.246094 344.027344 154.214844 343.738281 154.214844 L 331.480469 154.214844 C 330.875 154.214844 330.285156 154.121094 329.707031 153.945312 C 329.128906 153.765625 328.589844 153.507812 328.085938 153.167969 C 327.585938 152.832031 327.140625 152.429688 326.761719 151.960938 C 326.378906 151.488281 326.070312 150.976562 325.84375 150.414062 C 325.605469 149.859375 325.457031 149.277344 325.394531 148.675781 C 325.332031 148.074219 325.359375 147.476562 325.472656 146.878906 C 325.589844 146.285156 325.785156 145.722656 326.066406 145.183594 C 326.351562 144.648438 326.703125 144.164062 327.128906 143.734375 L 335.832031 135.03125 C 336.03125 134.828125 336.203125 134.605469 336.359375 134.367188 C 336.511719 134.132812 336.644531 133.882812 336.75 133.617188 C 336.855469 133.355469 336.9375 133.085938 336.988281 132.808594 C 337.042969 132.53125 337.070312 132.25 337.070312 131.964844 C 337.070312 131.683594 337.042969 131.402344 336.988281 131.125 C 336.9375 130.847656 336.855469 130.578125 336.75 130.3125 C 336.644531 130.050781 336.511719 129.800781 336.359375 129.5625 C 336.203125 129.324219 336.03125 129.105469 335.832031 128.902344 L 320.878906 113.945312 C 320.460938 113.554688 319.988281 113.253906 319.460938 113.046875 C 318.929688 112.835938 318.382812 112.730469 317.8125 112.730469 C 317.242188 112.730469 316.695312 112.835938 316.164062 113.046875 C 315.632812 113.253906 315.164062 113.554688 314.746094 113.945312 L 306.105469 122.648438 C 305.675781 123.074219 305.191406 123.429688 304.65625 123.710938 C 304.117188 123.992188 303.554688 124.191406 302.960938 124.304688 C 302.363281 124.417969 301.765625 124.445312 301.164062 124.382812 C 300.5625 124.320312 299.980469 124.171875 299.421875 123.9375 C 298.863281 123.707031 298.351562 123.402344 297.878906 123.019531 C 297.410156 122.636719 297.007812 122.195312 296.671875 121.691406 C 296.332031 121.191406 296.074219 120.652344 295.894531 120.074219 C 295.71875 119.496094 295.625 118.902344 295.625 118.296875 L 295.625 106.039062 C 295.625 105.75 295.59375 105.464844 295.539062 105.183594 C 295.480469 104.898438 295.398438 104.625 295.285156 104.359375 C 295.175781 104.09375 295.039062 103.839844 294.878906 103.601562 C 294.714844 103.363281 294.53125 103.140625 294.328125 102.9375 C 294.121094 102.738281 293.898438 102.554688 293.65625 102.398438 C 293.417969 102.242188 293.160156 102.109375 292.894531 102 C 292.628906 101.890625 292.351562 101.8125 292.066406 101.757812 C 291.785156 101.707031 291.5 101.683594 291.210938 101.6875 L 270.1875 101.6875 C 269.898438 101.683594 269.613281 101.707031 269.328125 101.757812 C 269.046875 101.8125 268.769531 101.890625 268.5 102 C 268.234375 102.109375 267.980469 102.242188 267.738281 102.398438 C 267.496094 102.554688 267.273438 102.738281 267.070312 102.9375 C 266.863281 103.140625 266.679688 103.363281 266.519531 103.601562 C 266.359375 103.839844 266.222656 104.09375 266.109375 104.359375 C 266 104.625 265.914062 104.898438 265.859375 105.183594 C 265.800781 105.464844 265.773438 105.75 265.773438 106.039062 L 265.773438 118.296875 C 265.769531 118.902344 265.679688 119.496094 265.5 120.074219 C 265.324219 120.652344 265.066406 121.191406 264.726562 121.691406 C 264.386719 122.195312 263.984375 122.636719 263.515625 123.019531 C 263.046875 123.402344 262.53125 123.707031 261.972656 123.9375 C 261.414062 124.171875 260.835938 124.320312 260.230469 124.382812 C 259.628906 124.445312 259.03125 124.417969 258.4375 124.304688 C 257.84375 124.191406 257.277344 123.992188 256.742188 123.710938 C 256.207031 123.429688 255.722656 123.074219 255.292969 122.648438 L 246.585938 113.945312 C 246.382812 113.75 246.164062 113.574219 245.925781 113.417969 C 245.6875 113.265625 245.4375 113.136719 245.175781 113.027344 C 244.914062 112.921875 244.644531 112.84375 244.363281 112.789062 C 244.085938 112.734375 243.804688 112.707031 243.523438 112.707031 C 243.238281 112.707031 242.960938 112.734375 242.679688 112.789062 C 242.402344 112.84375 242.132812 112.921875 241.871094 113.027344 C 241.609375 113.136719 241.359375 113.265625 241.121094 113.417969 C 240.882812 113.574219 240.660156 113.75 240.457031 113.945312 L 225.503906 128.902344 C 225.113281 129.316406 224.8125 129.789062 224.601562 130.316406 C 224.394531 130.847656 224.289062 131.398438 224.289062 131.964844 C 224.289062 132.535156 224.394531 133.085938 224.601562 133.613281 C 224.8125 134.144531 225.113281 134.617188 225.503906 135.03125 L 234.207031 143.671875 C 234.492188 143.960938 234.75 144.269531 234.976562 144.605469 C 235.203125 144.941406 235.394531 145.296875 235.550781 145.671875 C 235.707031 146.046875 235.824219 146.433594 235.90625 146.828125 C 235.984375 147.226562 236.027344 147.628906 236.027344 148.035156 C 236.027344 148.4375 235.992188 148.839844 235.914062 149.238281 C 235.835938 149.636719 235.71875 150.023438 235.566406 150.398438 C 235.410156 150.773438 235.222656 151.128906 235 151.46875 C 234.773438 151.804688 234.519531 152.117188 234.234375 152.40625 C 233.949219 152.691406 233.636719 152.949219 233.300781 153.175781 C 232.964844 153.402344 232.609375 153.59375 232.234375 153.75 C 231.863281 153.90625 231.476562 154.027344 231.078125 154.105469 C 230.683594 154.1875 230.28125 154.226562 229.875 154.230469 C 229.46875 154.230469 229.066406 154.191406 228.671875 154.117188 C 228.273438 154.039062 227.886719 153.921875 227.511719 153.769531 C 227.136719 153.617188 226.777344 153.425781 226.441406 153.203125 C 226.101562 152.980469 225.789062 152.722656 225.503906 152.4375 L 216.796875 143.734375 C 216.414062 143.347656 216.050781 142.941406 215.710938 142.519531 C 215.367188 142.097656 215.042969 141.660156 214.742188 141.207031 C 214.441406 140.753906 214.164062 140.285156 213.910156 139.804688 C 213.65625 139.324219 213.425781 138.832031 213.21875 138.328125 C 213.011719 137.824219 212.828125 137.3125 212.671875 136.792969 C 212.515625 136.269531 212.382812 135.742188 212.277344 135.207031 C 212.171875 134.675781 212.09375 134.136719 212.039062 133.59375 C 211.988281 133.054688 211.960938 132.511719 211.960938 131.964844 C 211.960938 131.421875 211.988281 130.878906 212.039062 130.335938 C 212.09375 129.796875 212.171875 129.257812 212.277344 128.722656 C 212.382812 128.191406 212.515625 127.664062 212.671875 127.140625 C 212.828125 126.621094 213.011719 126.109375 213.21875 125.605469 C 213.425781 125.101562 213.65625 124.609375 213.910156 124.128906 C 214.164062 123.648438 214.441406 123.179688 214.742188 122.726562 C 215.042969 122.273438 215.367188 121.832031 215.710938 121.410156 C 216.050781 120.988281 216.414062 120.585938 216.796875 120.199219 L 231.632812 105.304688 C 232.339844 104.597656 233.109375 103.960938 233.929688 103.394531 C 234.753906 102.828125 235.621094 102.339844 236.535156 101.929688 C 237.445312 101.519531 238.386719 101.195312 239.355469 100.953125 C 240.328125 100.710938 241.3125 100.558594 242.308594 100.496094 C 243.304688 100.429688 244.300781 100.457031 245.292969 100.570312 C 246.289062 100.683594 247.261719 100.886719 248.21875 101.175781 C 249.175781 101.46875 250.097656 101.839844 250.988281 102.296875 C 251.878906 102.753906 252.71875 103.285156 253.515625 103.894531 C 253.648438 102.894531 253.871094 101.914062 254.179688 100.957031 C 254.492188 99.996094 254.886719 99.074219 255.363281 98.1875 C 255.84375 97.300781 256.394531 96.464844 257.027344 95.675781 C 257.65625 94.890625 258.351562 94.167969 259.113281 93.507812 C 259.875 92.847656 260.6875 92.257812 261.558594 91.746094 C 262.425781 91.234375 263.332031 90.804688 264.277344 90.453125 C 265.222656 90.105469 266.191406 89.847656 267.183594 89.671875 C 268.179688 89.5 269.179688 89.417969 270.1875 89.425781 L 291.148438 89.425781 C 292.152344 89.425781 293.144531 89.515625 294.132812 89.691406 C 295.121094 89.871094 296.082031 90.136719 297.023438 90.488281 C 297.960938 90.839844 298.859375 91.273438 299.722656 91.785156 C 300.582031 92.300781 301.390625 92.886719 302.144531 93.546875 C 302.898438 94.207031 303.589844 94.929688 304.214844 95.714844 C 304.839844 96.496094 305.390625 97.332031 305.863281 98.214844 C 306.335938 99.097656 306.730469 100.015625 307.035156 100.972656 C 307.34375 101.925781 307.566406 102.898438 307.699219 103.894531 C 308.496094 103.292969 309.339844 102.765625 310.230469 102.3125 C 311.117188 101.863281 312.042969 101.492188 313 101.207031 C 313.953125 100.921875 314.929688 100.71875 315.921875 100.605469 C 316.910156 100.496094 317.90625 100.46875 318.902344 100.535156 C 319.898438 100.597656 320.878906 100.75 321.847656 100.988281 C 322.816406 101.230469 323.757812 101.550781 324.667969 101.957031 C 325.582031 102.367188 326.449219 102.851562 327.273438 103.410156 C 328.097656 103.972656 328.867188 104.605469 329.582031 105.304688 L 344.476562 120.074219 C 345.175781 120.785156 345.808594 121.554688 346.375 122.378906 C 346.9375 123.203125 347.425781 124.070312 347.832031 124.980469 C 348.242188 125.894531 348.566406 126.832031 348.808594 127.804688 C 349.046875 128.773438 349.199219 129.757812 349.265625 130.753906 C 349.328125 131.75 349.304688 132.746094 349.191406 133.738281 C 349.074219 134.730469 348.875 135.703125 348.585938 136.660156 C 348.296875 137.617188 347.925781 138.539062 347.472656 139.429688 C 347.019531 140.320312 346.488281 141.164062 345.886719 141.957031 C 346.882812 142.089844 347.863281 142.3125 348.820312 142.625 C 349.78125 142.933594 350.703125 143.328125 351.589844 143.808594 C 352.476562 144.285156 353.316406 144.839844 354.101562 145.46875 C 354.886719 146.101562 355.613281 146.796875 356.273438 147.558594 C 356.933594 148.316406 357.519531 149.132812 358.03125 150 C 358.546875 150.867188 358.976562 151.773438 359.324219 152.71875 C 359.671875 153.664062 359.933594 154.636719 360.105469 155.628906 C 360.277344 156.621094 360.359375 157.621094 360.351562 158.628906 L 360.351562 179.59375 C 360.351562 180.59375 360.265625 181.589844 360.085938 182.578125 C 359.90625 183.5625 359.644531 184.527344 359.292969 185.464844 C 358.941406 186.402344 358.507812 187.304688 357.992188 188.164062 C 357.476562 189.027344 356.890625 189.832031 356.230469 190.589844 C 355.570312 191.34375 354.851562 192.035156 354.066406 192.65625 C 353.28125 193.28125 352.445312 193.832031 351.5625 194.304688 C 350.679688 194.78125 349.761719 195.171875 348.808594 195.480469 C 347.851562 195.789062 346.878906 196.007812 345.886719 196.140625 C 346.496094 196.941406 347.027344 197.789062 347.488281 198.683594 C 347.945312 199.578125 348.320312 200.503906 348.609375 201.464844 C 348.902344 202.429688 349.105469 203.40625 349.222656 204.40625 C 349.335938 205.40625 349.363281 206.40625 349.296875 207.40625 C 349.234375 208.410156 349.082031 209.398438 348.839844 210.375 C 348.597656 211.351562 348.269531 212.296875 347.859375 213.214844 C 347.445312 214.128906 346.957031 215.003906 346.386719 215.832031 C 345.820312 216.660156 345.183594 217.433594 344.476562 218.148438 L 329.703125 232.917969 C 328.992188 233.621094 328.226562 234.253906 327.402344 234.816406 C 326.574219 235.382812 325.707031 235.867188 324.796875 236.277344 C 323.886719 236.6875 322.945312 237.011719 321.976562 237.25 C 321.003906 237.492188 320.023438 237.644531 319.027344 237.707031 C 318.027344 237.773438 317.035156 237.746094 316.042969 237.632812 C 315.050781 237.519531 314.074219 237.316406 313.117188 237.03125 C 312.160156 236.742188 311.238281 236.371094 310.347656 235.917969 C 309.457031 235.460938 308.617188 234.933594 307.820312 234.328125 C 307.6875 235.328125 307.464844 236.304688 307.15625 237.265625 C 306.84375 238.222656 306.449219 239.148438 305.972656 240.035156 C 305.492188 240.921875 304.9375 241.757812 304.308594 242.542969 C 303.679688 243.332031 302.984375 244.054688 302.222656 244.714844 C 301.460938 245.375 300.644531 245.960938 299.777344 246.476562 C 298.910156 246.988281 298.003906 247.417969 297.058594 247.765625 C 296.113281 248.117188 295.144531 248.375 294.148438 248.546875 C 293.15625 248.722656 292.15625 248.804688 291.148438 248.792969 Z M 291.148438 248.792969 " fill-opacity="1" fill-rule="nonzero"/></g><path fill="#5ce1e6" d="M 280.667969 196.265625 C 279.777344 196.265625 278.890625 196.222656 278.007812 196.132812 C 277.121094 196.046875 276.242188 195.917969 275.371094 195.742188 C 274.496094 195.570312 273.636719 195.351562 272.785156 195.09375 C 271.933594 194.835938 271.097656 194.539062 270.277344 194.199219 C 269.453125 193.855469 268.652344 193.476562 267.867188 193.058594 C 267.082031 192.640625 266.320312 192.183594 265.582031 191.6875 C 264.84375 191.195312 264.128906 190.664062 263.441406 190.101562 C 262.753906 189.535156 262.097656 188.941406 261.46875 188.3125 C 260.839844 187.683594 260.242188 187.023438 259.675781 186.335938 C 259.113281 185.648438 258.585938 184.9375 258.089844 184.195312 C 257.597656 183.457031 257.140625 182.695312 256.71875 181.910156 C 256.300781 181.125 255.921875 180.324219 255.582031 179.503906 C 255.242188 178.679688 254.941406 177.84375 254.683594 176.992188 C 254.425781 176.140625 254.210938 175.28125 254.035156 174.410156 C 253.863281 173.535156 253.730469 172.65625 253.644531 171.773438 C 253.558594 170.886719 253.515625 170 253.515625 169.109375 C 253.515625 168.222656 253.558594 167.335938 253.644531 166.449219 C 253.730469 165.5625 253.863281 164.6875 254.035156 163.8125 C 254.210938 162.941406 254.425781 162.078125 254.683594 161.230469 C 254.941406 160.378906 255.242188 159.542969 255.582031 158.71875 C 255.921875 157.898438 256.300781 157.09375 256.71875 156.3125 C 257.140625 155.527344 257.597656 154.765625 258.089844 154.023438 C 258.585938 153.285156 259.113281 152.570312 259.675781 151.886719 C 260.242188 151.199219 260.839844 150.539062 261.46875 149.910156 C 262.097656 149.28125 262.753906 148.683594 263.441406 148.121094 C 264.128906 147.558594 264.84375 147.027344 265.582031 146.535156 C 266.320312 146.039062 267.082031 145.582031 267.867188 145.164062 C 268.652344 144.746094 269.453125 144.363281 270.277344 144.023438 C 271.097656 143.683594 271.933594 143.382812 272.785156 143.125 C 273.636719 142.867188 274.496094 142.652344 275.371094 142.480469 C 276.242188 142.304688 277.121094 142.175781 278.007812 142.089844 C 278.890625 142 279.777344 141.957031 280.667969 141.957031 C 281.558594 141.957031 282.445312 142 283.328125 142.089844 C 284.214844 142.175781 285.09375 142.304688 285.964844 142.480469 C 286.835938 142.652344 287.699219 142.867188 288.550781 143.125 C 289.402344 143.382812 290.238281 143.683594 291.058594 144.023438 C 291.878906 144.363281 292.683594 144.746094 293.46875 145.164062 C 294.253906 145.582031 295.015625 146.039062 295.753906 146.535156 C 296.492188 147.027344 297.207031 147.558594 297.894531 148.121094 C 298.582031 148.683594 299.238281 149.28125 299.867188 149.910156 C 300.496094 150.539062 301.09375 151.199219 301.65625 151.886719 C 302.222656 152.570312 302.75 153.285156 303.246094 154.023438 C 303.738281 154.765625 304.195312 155.527344 304.613281 156.3125 C 305.035156 157.09375 305.414062 157.898438 305.753906 158.71875 C 306.09375 159.542969 306.394531 160.378906 306.652344 161.230469 C 306.910156 162.078125 307.125 162.941406 307.300781 163.8125 C 307.472656 164.6875 307.601562 165.5625 307.691406 166.449219 C 307.777344 167.335938 307.820312 168.222656 307.820312 169.109375 C 307.820312 170 307.773438 170.886719 307.683594 171.769531 C 307.597656 172.65625 307.464844 173.53125 307.289062 174.402344 C 307.113281 175.277344 306.898438 176.136719 306.636719 176.988281 C 306.378906 177.835938 306.078125 178.671875 305.738281 179.492188 C 305.398438 180.3125 305.015625 181.117188 304.597656 181.898438 C 304.175781 182.683594 303.71875 183.445312 303.226562 184.183594 C 302.730469 184.921875 302.203125 185.632812 301.640625 186.320312 C 301.074219 187.007812 300.480469 187.664062 299.851562 188.292969 C 299.222656 188.921875 298.5625 189.519531 297.878906 190.082031 C 297.191406 190.644531 296.476562 191.175781 295.738281 191.667969 C 295 192.164062 294.238281 192.621094 293.457031 193.039062 C 292.671875 193.460938 291.871094 193.839844 291.050781 194.179688 C 290.230469 194.523438 289.394531 194.824219 288.542969 195.082031 C 287.691406 195.339844 286.832031 195.558594 285.960938 195.734375 C 285.089844 195.90625 284.210938 196.039062 283.328125 196.128906 C 282.441406 196.21875 281.554688 196.261719 280.667969 196.265625 Z M 280.667969 154.214844 C 279.691406 154.214844 278.722656 154.3125 277.761719 154.503906 C 276.800781 154.691406 275.871094 154.976562 274.96875 155.351562 C 274.0625 155.722656 273.207031 156.183594 272.390625 156.726562 C 271.578125 157.269531 270.828125 157.886719 270.136719 158.578125 C 269.445312 159.269531 268.828125 160.023438 268.28125 160.835938 C 267.738281 161.648438 267.28125 162.507812 266.90625 163.410156 C 266.53125 164.316406 266.25 165.246094 266.058594 166.207031 C 265.867188 167.164062 265.773438 168.132812 265.773438 169.109375 C 265.773438 170.089844 265.867188 171.058594 266.058594 172.015625 C 266.25 172.976562 266.53125 173.90625 266.90625 174.8125 C 267.28125 175.714844 267.738281 176.574219 268.28125 177.386719 C 268.828125 178.199219 269.445312 178.953125 270.136719 179.644531 C 270.828125 180.335938 271.578125 180.953125 272.390625 181.496094 C 273.207031 182.039062 274.0625 182.496094 274.96875 182.871094 C 275.871094 183.246094 276.800781 183.527344 277.761719 183.71875 C 278.722656 183.910156 279.691406 184.003906 280.667969 184.003906 C 281.644531 184.003906 282.613281 183.910156 283.574219 183.71875 C 284.53125 183.527344 285.464844 183.246094 286.367188 182.871094 C 287.269531 182.496094 288.128906 182.039062 288.941406 181.496094 C 289.753906 180.953125 290.507812 180.335938 291.199219 179.644531 C 291.890625 178.953125 292.507812 178.199219 293.050781 177.386719 C 293.59375 176.574219 294.054688 175.714844 294.429688 174.8125 C 294.800781 173.90625 295.085938 172.976562 295.277344 172.015625 C 295.46875 171.058594 295.5625 170.089844 295.5625 169.109375 C 295.5625 168.132812 295.46875 167.164062 295.277344 166.207031 C 295.085938 165.246094 294.800781 164.316406 294.429688 163.410156 C 294.054688 162.507812 293.59375 161.648438 293.050781 160.835938 C 292.507812 160.023438 291.890625 159.269531 291.199219 158.578125 C 290.507812 157.886719 289.753906 157.269531 288.941406 156.726562 C 288.128906 156.183594 287.269531 155.722656 286.367188 155.351562 C 285.464844 154.976562 284.53125 154.691406 283.574219 154.503906 C 282.613281 154.3125 281.644531 154.214844 280.667969 154.214844 Z M 280.667969 154.214844 " fill-opacity="1" fill-rule="nonzero"/><path fill="#5ce1e6" d="M 96.78125 155.195312 C 96.378906 155.253906 95.976562 155.273438 95.570312 155.253906 C 95.164062 155.230469 94.765625 155.171875 94.371094 155.070312 C 93.976562 154.96875 93.59375 154.832031 93.226562 154.65625 C 92.859375 154.484375 92.515625 154.273438 92.1875 154.03125 C 91.863281 153.785156 91.5625 153.515625 91.292969 153.210938 C 91.019531 152.910156 90.78125 152.582031 90.570312 152.234375 C 90.363281 151.882812 90.191406 151.519531 90.054688 151.136719 C 89.921875 150.75 89.824219 150.359375 89.765625 149.957031 C 89.707031 149.554688 89.6875 149.148438 89.710938 148.742188 C 89.730469 148.335938 89.792969 147.9375 89.890625 147.542969 C 89.992188 147.148438 90.128906 146.769531 90.304688 146.402344 C 90.480469 146.035156 90.6875 145.6875 90.929688 145.363281 C 91.175781 145.035156 91.449219 144.738281 91.75 144.464844 C 92.050781 144.191406 92.378906 143.953125 92.726562 143.746094 C 93.078125 143.535156 93.441406 143.363281 93.828125 143.230469 C 94.210938 143.09375 94.601562 142.996094 95.003906 142.9375 C 102.304688 140.765625 109.746094 139.34375 117.332031 138.671875 C 124.914062 138.003906 132.492188 138.097656 140.058594 138.953125 C 140.460938 139 140.851562 139.085938 141.238281 139.210938 C 141.625 139.332031 141.992188 139.496094 142.347656 139.691406 C 142.703125 139.886719 143.03125 140.117188 143.339844 140.378906 C 143.648438 140.640625 143.929688 140.929688 144.183594 141.25 C 144.433594 141.566406 144.652344 141.90625 144.835938 142.265625 C 145.019531 142.625 145.167969 143 145.28125 143.390625 C 145.390625 143.777344 145.464844 144.175781 145.496094 144.578125 C 145.53125 144.984375 145.523438 145.386719 145.476562 145.789062 C 145.429688 146.191406 145.347656 146.582031 145.222656 146.96875 C 145.097656 147.355469 144.9375 147.726562 144.742188 148.078125 C 144.542969 148.433594 144.316406 148.765625 144.054688 149.074219 C 143.792969 149.382812 143.503906 149.660156 143.183594 149.914062 C 142.867188 150.164062 142.53125 150.382812 142.167969 150.570312 C 141.808594 150.753906 141.433594 150.902344 141.046875 151.015625 C 140.65625 151.125 140.257812 151.199219 139.855469 151.230469 C 139.453125 151.265625 139.050781 151.257812 138.648438 151.210938 C 131.914062 150.4375 125.171875 150.347656 118.421875 150.945312 C 111.671875 151.542969 105.050781 152.820312 98.558594 154.769531 C 97.992188 155.007812 97.398438 155.152344 96.78125 155.195312 Z M 96.78125 155.195312 " fill-opacity="1" fill-rule="nonzero"/><path fill="#5ce1e6" d="M 227.035156 285.570312 C 226.523438 285.636719 226.011719 285.636719 225.503906 285.570312 C 225.117188 285.453125 224.75 285.296875 224.394531 285.105469 C 224.042969 284.914062 223.710938 284.691406 223.402344 284.433594 C 223.089844 284.175781 222.808594 283.890625 222.554688 283.578125 C 222.300781 283.265625 222.082031 282.933594 221.894531 282.578125 C 221.707031 282.222656 221.554688 281.851562 221.441406 281.464844 C 221.324219 281.082031 221.25 280.6875 221.210938 280.285156 C 221.171875 279.886719 221.175781 279.484375 221.21875 279.085938 C 221.257812 278.6875 221.339844 278.292969 221.457031 277.910156 C 224.257812 268.40625 225.609375 258.703125 225.503906 248.792969 C 225.492188 244.980469 225.269531 241.179688 224.828125 237.394531 C 224.769531 236.984375 224.75 236.578125 224.769531 236.164062 C 224.792969 235.753906 224.855469 235.347656 224.960938 234.949219 C 225.066406 234.550781 225.207031 234.167969 225.390625 233.796875 C 225.570312 233.425781 225.789062 233.078125 226.039062 232.753906 C 226.292969 232.425781 226.574219 232.128906 226.886719 231.859375 C 227.195312 231.589844 227.53125 231.355469 227.890625 231.152344 C 228.25 230.953125 228.625 230.789062 229.019531 230.664062 C 229.410156 230.535156 229.8125 230.449219 230.222656 230.40625 C 230.621094 230.359375 231.023438 230.351562 231.425781 230.382812 C 231.828125 230.414062 232.222656 230.488281 232.609375 230.597656 C 233 230.707031 233.371094 230.855469 233.730469 231.039062 C 234.089844 231.222656 234.425781 231.441406 234.742188 231.691406 C 235.058594 231.941406 235.347656 232.21875 235.609375 232.527344 C 235.871094 232.835938 236.097656 233.164062 236.292969 233.519531 C 236.488281 233.871094 236.648438 234.238281 236.773438 234.621094 C 236.894531 235.007812 236.980469 235.398438 237.027344 235.800781 C 237.902344 243.410156 237.996094 251.03125 237.304688 258.660156 C 236.613281 266.289062 235.152344 273.769531 232.917969 281.097656 C 232.738281 281.738281 232.460938 282.335938 232.085938 282.886719 C 231.710938 283.4375 231.257812 283.917969 230.726562 284.320312 C 230.195312 284.722656 229.613281 285.035156 228.984375 285.246094 C 228.351562 285.460938 227.703125 285.570312 227.035156 285.570312 Z M 227.035156 285.570312 " fill-opacity="1" fill-rule="nonzero"/><path fill="#5ce1e6" d="M 127.429688 359.125 C 119.621094 359.148438 111.898438 358.339844 104.261719 356.707031 C 96.628906 355.074219 89.25 352.652344 82.132812 349.441406 C 81.765625 349.273438 81.417969 349.074219 81.089844 348.839844 C 80.761719 348.609375 80.457031 348.34375 80.179688 348.050781 C 79.90625 347.757812 79.660156 347.441406 79.445312 347.097656 C 79.230469 346.757812 79.054688 346.398438 78.910156 346.019531 C 78.765625 345.644531 78.660156 345.257812 78.59375 344.859375 C 78.527344 344.460938 78.5 344.0625 78.511719 343.65625 C 78.523438 343.253906 78.574219 342.855469 78.664062 342.464844 C 78.753906 342.070312 78.878906 341.691406 79.046875 341.320312 C 79.210938 340.953125 79.410156 340.605469 79.640625 340.277344 C 79.875 339.949219 80.140625 339.644531 80.433594 339.367188 C 80.726562 339.089844 81.042969 338.84375 81.382812 338.632812 C 81.726562 338.417969 82.085938 338.238281 82.460938 338.09375 C 82.839844 337.949219 83.226562 337.84375 83.621094 337.777344 C 84.019531 337.707031 84.421875 337.679688 84.824219 337.691406 C 85.226562 337.703125 85.625 337.753906 86.019531 337.84375 C 86.410156 337.933594 86.792969 338.058594 87.160156 338.222656 C 93.484375 341.09375 100.039062 343.257812 106.828125 344.714844 C 113.617188 346.171875 120.484375 346.890625 127.429688 346.867188 C 137.15625 346.875 146.675781 345.484375 155.992188 342.699219 C 156.378906 342.585938 156.773438 342.511719 157.175781 342.476562 C 157.574219 342.441406 157.976562 342.445312 158.375 342.488281 C 158.777344 342.53125 159.167969 342.613281 159.550781 342.734375 C 159.9375 342.855469 160.304688 343.015625 160.65625 343.207031 C 161.011719 343.402344 161.339844 343.628906 161.648438 343.886719 C 161.957031 344.144531 162.238281 344.429688 162.488281 344.746094 C 162.742188 345.058594 162.960938 345.394531 163.148438 345.75 C 163.332031 346.109375 163.480469 346.480469 163.59375 346.867188 C 163.714844 347.25 163.792969 347.644531 163.835938 348.042969 C 163.875 348.441406 163.878906 348.84375 163.839844 349.242188 C 163.800781 349.644531 163.726562 350.035156 163.613281 350.421875 C 163.496094 350.808594 163.34375 351.179688 163.15625 351.535156 C 162.96875 351.890625 162.75 352.222656 162.496094 352.535156 C 162.242188 352.847656 161.960938 353.132812 161.652344 353.390625 C 161.339844 353.648438 161.007812 353.871094 160.65625 354.0625 C 160.300781 354.253906 159.933594 354.410156 159.550781 354.527344 C 149.070312 357.640625 138.363281 359.175781 127.429688 359.125 Z M 127.429688 359.125 " fill-opacity="1" fill-rule="nonzero"/><path fill="#5ce1e6" d="M 30.03125 292.128906 C 29.414062 292.128906 28.8125 292.035156 28.222656 291.851562 C 27.632812 291.667969 27.085938 291.398438 26.574219 291.050781 C 26.066406 290.699219 25.621094 290.28125 25.238281 289.796875 C 24.855469 289.3125 24.554688 288.78125 24.332031 288.207031 C 22.160156 282.492188 20.476562 276.636719 19.273438 270.644531 C 18.070312 264.648438 17.363281 258.597656 17.160156 252.488281 C 16.957031 246.375 17.257812 240.292969 18.058594 234.230469 C 18.863281 228.171875 20.15625 222.214844 21.941406 216.371094 C 22.0625 216 22.214844 215.640625 22.402344 215.300781 C 22.589844 214.957031 22.804688 214.636719 23.054688 214.339844 C 23.304688 214.039062 23.578125 213.765625 23.878906 213.515625 C 24.179688 213.269531 24.5 213.050781 24.84375 212.863281 C 25.183594 212.679688 25.539062 212.527344 25.910156 212.40625 C 26.28125 212.289062 26.660156 212.207031 27.046875 212.160156 C 27.433594 212.113281 27.824219 212.105469 28.210938 212.132812 C 28.601562 212.160156 28.980469 212.222656 29.359375 212.324219 C 29.753906 212.429688 30.132812 212.574219 30.5 212.757812 C 30.867188 212.9375 31.210938 213.15625 31.535156 213.40625 C 31.859375 213.65625 32.152344 213.9375 32.421875 214.25 C 32.6875 214.558594 32.921875 214.890625 33.121094 215.25 C 33.320312 215.605469 33.484375 215.980469 33.609375 216.371094 C 33.734375 216.757812 33.820312 217.15625 33.863281 217.5625 C 33.910156 217.972656 33.914062 218.378906 33.878906 218.785156 C 33.839844 219.191406 33.765625 219.59375 33.648438 219.984375 C 30.789062 229.375 29.355469 238.976562 29.359375 248.792969 C 29.226562 260.84375 31.269531 272.507812 35.488281 283.792969 C 35.636719 284.160156 35.746094 284.539062 35.820312 284.925781 C 35.894531 285.316406 35.929688 285.707031 35.929688 286.101562 C 35.929688 286.496094 35.886719 286.890625 35.8125 287.277344 C 35.734375 287.664062 35.621094 288.042969 35.46875 288.40625 C 35.320312 288.773438 35.136719 289.121094 34.917969 289.449219 C 34.699219 289.78125 34.453125 290.085938 34.175781 290.371094 C 33.898438 290.652344 33.597656 290.90625 33.273438 291.128906 C 32.945312 291.351562 32.601562 291.542969 32.238281 291.699219 C 31.53125 291.992188 30.796875 292.136719 30.03125 292.128906 Z M 30.03125 292.128906 " fill-opacity="1" fill-rule="nonzero"/><path fill="#5ce1e6" d="M 53.875 205.886719 C 52.871094 205.886719 51.871094 205.839844 50.871094 205.742188 C 49.875 205.640625 48.882812 205.496094 47.898438 205.300781 C 46.914062 205.101562 45.941406 204.859375 44.980469 204.566406 C 44.019531 204.277344 43.074219 203.9375 42.148438 203.554688 C 41.222656 203.171875 40.316406 202.742188 39.429688 202.269531 C 38.542969 201.796875 37.683594 201.28125 36.851562 200.722656 C 36.015625 200.164062 35.210938 199.566406 34.433594 198.929688 C 33.65625 198.292969 32.914062 197.621094 32.207031 196.910156 C 31.496094 196.203125 30.824219 195.457031 30.1875 194.683594 C 29.550781 193.90625 28.953125 193.101562 28.394531 192.265625 C 27.835938 191.433594 27.320312 190.574219 26.847656 189.6875 C 26.375 188.800781 25.945312 187.894531 25.5625 186.96875 C 25.179688 186.042969 24.839844 185.097656 24.546875 184.136719 C 24.257812 183.175781 24.015625 182.203125 23.816406 181.21875 C 23.621094 180.234375 23.476562 179.242188 23.375 178.246094 C 23.277344 177.246094 23.230469 176.246094 23.230469 175.242188 C 23.230469 174.238281 23.277344 173.234375 23.375 172.238281 C 23.476562 171.238281 23.621094 170.246094 23.816406 169.261719 C 24.015625 168.277344 24.257812 167.304688 24.546875 166.34375 C 24.839844 165.382812 25.179688 164.4375 25.5625 163.511719 C 25.945312 162.585938 26.375 161.679688 26.847656 160.792969 C 27.320312 159.90625 27.835938 159.046875 28.394531 158.214844 C 28.953125 157.378906 29.550781 156.574219 30.1875 155.796875 C 30.824219 155.023438 31.496094 154.277344 32.207031 153.570312 C 32.914062 152.859375 33.65625 152.1875 34.433594 151.550781 C 35.210938 150.914062 36.015625 150.316406 36.851562 149.757812 C 37.683594 149.199219 38.542969 148.683594 39.429688 148.210938 C 40.316406 147.738281 41.222656 147.308594 42.148438 146.925781 C 43.074219 146.542969 44.019531 146.203125 44.980469 145.914062 C 45.941406 145.621094 46.914062 145.378906 47.898438 145.183594 C 48.882812 144.984375 49.875 144.839844 50.871094 144.742188 C 51.871094 144.640625 52.871094 144.59375 53.875 144.59375 C 54.878906 144.59375 55.882812 144.640625 56.878906 144.742188 C 57.878906 144.839844 58.871094 144.984375 59.855469 145.183594 C 60.839844 145.378906 61.8125 145.621094 62.773438 145.914062 C 63.734375 146.203125 64.675781 146.542969 65.605469 146.925781 C 66.53125 147.308594 67.4375 147.738281 68.324219 148.210938 C 69.207031 148.683594 70.070312 149.199219 70.902344 149.757812 C 71.738281 150.316406 72.542969 150.914062 73.320312 151.550781 C 74.09375 152.1875 74.835938 152.859375 75.546875 153.570312 C 76.257812 154.277344 76.929688 155.023438 77.566406 155.796875 C 78.203125 156.574219 78.800781 157.378906 79.359375 158.214844 C 79.917969 159.046875 80.433594 159.90625 80.90625 160.792969 C 81.378906 161.679688 81.808594 162.585938 82.191406 163.511719 C 82.574219 164.4375 82.914062 165.382812 83.203125 166.34375 C 83.496094 167.304688 83.738281 168.277344 83.933594 169.261719 C 84.132812 170.246094 84.277344 171.238281 84.375 172.238281 C 84.476562 173.234375 84.523438 174.238281 84.523438 175.242188 C 84.523438 176.246094 84.476562 177.246094 84.375 178.246094 C 84.277344 179.242188 84.132812 180.234375 83.933594 181.21875 C 83.738281 182.203125 83.496094 183.175781 83.203125 184.136719 C 82.914062 185.097656 82.574219 186.042969 82.191406 186.96875 C 81.808594 187.894531 81.378906 188.800781 80.90625 189.6875 C 80.433594 190.574219 79.917969 191.433594 79.359375 192.265625 C 78.800781 193.101562 78.203125 193.90625 77.566406 194.683594 C 76.929688 195.457031 76.257812 196.203125 75.546875 196.910156 C 74.835938 197.621094 74.09375 198.292969 73.320312 198.929688 C 72.542969 199.566406 71.738281 200.164062 70.902344 200.722656 C 70.070312 201.28125 69.207031 201.796875 68.324219 202.269531 C 67.4375 202.742188 66.53125 203.171875 65.605469 203.554688 C 64.675781 203.9375 63.734375 204.277344 62.773438 204.566406 C 61.8125 204.859375 60.839844 205.101562 59.855469 205.300781 C 58.871094 205.496094 57.878906 205.640625 56.878906 205.742188 C 55.882812 205.839844 54.878906 205.886719 53.875 205.886719 Z M 53.875 156.851562 C 53.273438 156.851562 52.671875 156.882812 52.074219 156.941406 C 51.476562 157 50.878906 157.085938 50.289062 157.207031 C 49.699219 157.324219 49.113281 157.46875 48.539062 157.644531 C 47.960938 157.820312 47.394531 158.019531 46.839844 158.25 C 46.28125 158.480469 45.738281 158.738281 45.207031 159.023438 C 44.675781 159.308594 44.160156 159.617188 43.660156 159.949219 C 43.160156 160.285156 42.675781 160.644531 42.210938 161.027344 C 41.746094 161.40625 41.300781 161.8125 40.875 162.238281 C 40.449219 162.664062 40.042969 163.109375 39.660156 163.574219 C 39.28125 164.039062 38.921875 164.523438 38.585938 165.023438 C 38.253906 165.523438 37.941406 166.039062 37.660156 166.570312 C 37.375 167.101562 37.117188 167.648438 36.886719 168.203125 C 36.65625 168.761719 36.453125 169.328125 36.28125 169.902344 C 36.105469 170.480469 35.957031 171.0625 35.839844 171.652344 C 35.722656 172.242188 35.636719 172.839844 35.578125 173.4375 C 35.519531 174.039062 35.488281 174.636719 35.488281 175.242188 C 35.488281 175.84375 35.519531 176.445312 35.578125 177.042969 C 35.636719 177.640625 35.722656 178.238281 35.839844 178.828125 C 35.957031 179.417969 36.105469 180.003906 36.28125 180.578125 C 36.453125 181.15625 36.65625 181.722656 36.886719 182.277344 C 37.117188 182.832031 37.375 183.378906 37.660156 183.910156 C 37.941406 184.441406 38.253906 184.957031 38.585938 185.457031 C 38.921875 185.957031 39.28125 186.441406 39.660156 186.90625 C 40.042969 187.371094 40.449219 187.816406 40.875 188.242188 C 41.300781 188.667969 41.746094 189.074219 42.210938 189.453125 C 42.675781 189.835938 43.160156 190.195312 43.660156 190.53125 C 44.160156 190.863281 44.675781 191.171875 45.207031 191.457031 C 45.738281 191.742188 46.28125 192 46.839844 192.230469 C 47.394531 192.460938 47.960938 192.664062 48.539062 192.835938 C 49.113281 193.011719 49.699219 193.15625 50.289062 193.277344 C 50.878906 193.394531 51.476562 193.480469 52.074219 193.539062 C 52.671875 193.597656 53.273438 193.628906 53.875 193.628906 C 54.480469 193.628906 55.078125 193.597656 55.679688 193.539062 C 56.277344 193.480469 56.875 193.394531 57.464844 193.277344 C 58.054688 193.15625 58.636719 193.011719 59.214844 192.835938 C 59.789062 192.664062 60.355469 192.460938 60.914062 192.230469 C 61.46875 192 62.015625 191.742188 62.542969 191.457031 C 63.074219 191.171875 63.59375 190.863281 64.09375 190.53125 C 64.59375 190.195312 65.078125 189.835938 65.542969 189.453125 C 66.007812 189.074219 66.453125 188.667969 66.878906 188.242188 C 67.304688 187.816406 67.707031 187.371094 68.089844 186.90625 C 68.472656 186.441406 68.832031 185.957031 69.164062 185.457031 C 69.5 184.957031 69.808594 184.441406 70.09375 183.910156 C 70.378906 183.378906 70.636719 182.832031 70.867188 182.277344 C 71.097656 181.722656 71.296875 181.15625 71.472656 180.578125 C 71.648438 180.003906 71.792969 179.417969 71.910156 178.828125 C 72.027344 178.238281 72.117188 177.640625 72.175781 177.042969 C 72.234375 176.445312 72.265625 175.84375 72.265625 175.242188 C 72.265625 174.636719 72.234375 174.039062 72.175781 173.4375 C 72.117188 172.839844 72.027344 172.242188 71.910156 171.652344 C 71.792969 171.0625 71.648438 170.480469 71.472656 169.902344 C 71.296875 169.328125 71.097656 168.761719 70.867188 168.203125 C 70.636719 167.648438 70.378906 167.101562 70.09375 166.570312 C 69.808594 166.039062 69.5 165.523438 69.164062 165.023438 C 68.832031 164.523438 68.472656 164.039062 68.089844 163.574219 C 67.707031 163.109375 67.304688 162.664062 66.878906 162.238281 C 66.453125 161.8125 66.007812 161.40625 65.542969 161.027344 C 65.078125 160.644531 64.59375 160.285156 64.09375 159.949219 C 63.59375 159.617188 63.074219 159.308594 62.542969 159.023438 C 62.015625 158.738281 61.46875 158.480469 60.914062 158.25 C 60.355469 158.019531 59.789062 157.820312 59.214844 157.644531 C 58.636719 157.46875 58.054688 157.324219 57.464844 157.207031 C 56.875 157.085938 56.277344 157 55.679688 156.941406 C 55.078125 156.882812 54.480469 156.851562 53.875 156.851562 Z M 53.875 156.851562 " fill-opacity="1" fill-rule="nonzero"/><path fill="#5ce1e6" d="M 200.984375 352.996094 C 199.980469 352.996094 198.980469 352.945312 197.980469 352.847656 C 196.980469 352.75 195.988281 352.601562 195.003906 352.40625 C 194.019531 352.210938 193.046875 351.96875 192.085938 351.675781 C 191.128906 351.382812 190.183594 351.046875 189.257812 350.664062 C 188.328125 350.277344 187.421875 349.851562 186.539062 349.375 C 185.652344 348.902344 184.792969 348.386719 183.957031 347.832031 C 183.121094 347.273438 182.316406 346.675781 181.542969 346.039062 C 180.765625 345.402344 180.023438 344.730469 179.3125 344.019531 C 178.601562 343.308594 177.929688 342.566406 177.292969 341.789062 C 176.65625 341.015625 176.058594 340.210938 175.5 339.375 C 174.945312 338.539062 174.429688 337.679688 173.957031 336.796875 C 173.484375 335.910156 173.054688 335.003906 172.667969 334.078125 C 172.285156 333.148438 171.949219 332.207031 171.65625 331.246094 C 171.363281 330.285156 171.121094 329.3125 170.925781 328.328125 C 170.730469 327.34375 170.582031 326.351562 170.484375 325.351562 C 170.386719 324.351562 170.335938 323.351562 170.335938 322.347656 C 170.335938 321.34375 170.386719 320.34375 170.484375 319.34375 C 170.582031 318.34375 170.730469 317.355469 170.925781 316.367188 C 171.121094 315.382812 171.363281 314.414062 171.65625 313.453125 C 171.949219 312.492188 172.285156 311.546875 172.667969 310.621094 C 173.054688 309.691406 173.484375 308.785156 173.957031 307.902344 C 174.429688 307.015625 174.945312 306.15625 175.5 305.320312 C 176.058594 304.488281 176.65625 303.679688 177.292969 302.90625 C 177.929688 302.128906 178.601562 301.386719 179.3125 300.675781 C 180.023438 299.96875 180.765625 299.292969 181.542969 298.65625 C 182.316406 298.019531 183.121094 297.421875 183.957031 296.867188 C 184.792969 296.308594 185.652344 295.792969 186.539062 295.320312 C 187.421875 294.847656 188.328125 294.417969 189.257812 294.035156 C 190.183594 293.648438 191.128906 293.3125 192.085938 293.019531 C 193.046875 292.730469 194.019531 292.484375 195.003906 292.289062 C 195.988281 292.09375 196.980469 291.945312 197.980469 291.847656 C 198.980469 291.75 199.980469 291.699219 200.984375 291.699219 C 201.988281 291.699219 202.988281 291.75 203.988281 291.847656 C 204.988281 291.945312 205.980469 292.09375 206.964844 292.289062 C 207.949219 292.484375 208.921875 292.730469 209.878906 293.019531 C 210.839844 293.3125 211.785156 293.648438 212.710938 294.035156 C 213.640625 294.417969 214.546875 294.847656 215.429688 295.320312 C 216.316406 295.792969 217.175781 296.308594 218.011719 296.867188 C 218.84375 297.421875 219.652344 298.019531 220.425781 298.65625 C 221.203125 299.292969 221.945312 299.96875 222.65625 300.675781 C 223.363281 301.386719 224.039062 302.128906 224.675781 302.90625 C 225.3125 303.679688 225.910156 304.488281 226.464844 305.320312 C 227.023438 306.15625 227.539062 307.015625 228.011719 307.902344 C 228.484375 308.785156 228.914062 309.691406 229.296875 310.621094 C 229.683594 311.546875 230.019531 312.492188 230.3125 313.453125 C 230.601562 314.410156 230.847656 315.382812 231.042969 316.367188 C 231.238281 317.351562 231.386719 318.34375 231.484375 319.34375 C 231.582031 320.34375 231.632812 321.34375 231.632812 322.347656 C 231.632812 323.351562 231.582031 324.351562 231.484375 325.351562 C 231.386719 326.351562 231.238281 327.34375 231.042969 328.328125 C 230.847656 329.3125 230.601562 330.285156 230.3125 331.246094 C 230.019531 332.207031 229.683594 333.148438 229.296875 334.078125 C 228.914062 335.003906 228.484375 335.910156 228.011719 336.796875 C 227.539062 337.679688 227.023438 338.539062 226.464844 339.375 C 225.910156 340.210938 225.3125 341.015625 224.675781 341.789062 C 224.039062 342.566406 223.363281 343.308594 222.65625 344.019531 C 221.945312 344.730469 221.203125 345.402344 220.425781 346.039062 C 219.652344 346.675781 218.84375 347.273438 218.011719 347.832031 C 217.175781 348.386719 216.316406 348.902344 215.429688 349.375 C 214.546875 349.851562 213.640625 350.277344 212.710938 350.664062 C 211.785156 351.046875 210.839844 351.382812 209.878906 351.675781 C 208.921875 351.96875 207.949219 352.210938 206.964844 352.40625 C 205.980469 352.601562 204.988281 352.75 203.988281 352.847656 C 202.988281 352.945312 201.988281 352.996094 200.984375 352.996094 Z M 200.984375 303.960938 C 200.382812 303.960938 199.78125 303.988281 199.183594 304.046875 C 198.582031 304.105469 197.988281 304.195312 197.398438 304.3125 C 196.804688 304.429688 196.222656 304.578125 195.644531 304.75 C 195.070312 304.925781 194.503906 305.128906 193.949219 305.359375 C 193.390625 305.589844 192.847656 305.847656 192.316406 306.132812 C 191.785156 306.414062 191.269531 306.722656 190.769531 307.058594 C 190.265625 307.394531 189.785156 307.75 189.320312 308.132812 C 188.851562 308.515625 188.40625 308.917969 187.980469 309.34375 C 187.554688 309.769531 187.152344 310.21875 186.769531 310.683594 C 186.386719 311.148438 186.03125 311.632812 185.695312 312.132812 C 185.359375 312.632812 185.050781 313.148438 184.765625 313.679688 C 184.484375 314.210938 184.226562 314.753906 183.996094 315.3125 C 183.765625 315.867188 183.5625 316.433594 183.386719 317.011719 C 183.210938 317.585938 183.066406 318.171875 182.949219 318.761719 C 182.832031 319.351562 182.742188 319.945312 182.683594 320.546875 C 182.625 321.144531 182.597656 321.746094 182.597656 322.347656 C 182.597656 322.949219 182.625 323.550781 182.683594 324.152344 C 182.742188 324.75 182.832031 325.34375 182.949219 325.933594 C 183.066406 326.527344 183.210938 327.109375 183.386719 327.6875 C 183.5625 328.261719 183.765625 328.828125 183.996094 329.386719 C 184.226562 329.941406 184.484375 330.484375 184.765625 331.015625 C 185.050781 331.546875 185.359375 332.0625 185.695312 332.5625 C 186.03125 333.066406 186.386719 333.546875 186.769531 334.011719 C 187.152344 334.480469 187.554688 334.925781 187.980469 335.351562 C 188.40625 335.777344 188.851562 336.179688 189.320312 336.5625 C 189.785156 336.945312 190.265625 337.304688 190.769531 337.636719 C 191.269531 337.972656 191.785156 338.28125 192.316406 338.566406 C 192.847656 338.847656 193.390625 339.105469 193.949219 339.335938 C 194.503906 339.566406 195.070312 339.769531 195.644531 339.945312 C 196.222656 340.121094 196.804688 340.265625 197.398438 340.382812 C 197.988281 340.5 198.582031 340.589844 199.183594 340.648438 C 199.78125 340.707031 200.382812 340.738281 200.984375 340.738281 C 201.585938 340.738281 202.1875 340.707031 202.785156 340.648438 C 203.386719 340.589844 203.980469 340.5 204.570312 340.382812 C 205.164062 340.265625 205.746094 340.121094 206.320312 339.945312 C 206.898438 339.769531 207.464844 339.566406 208.019531 339.335938 C 208.578125 339.105469 209.121094 338.847656 209.652344 338.566406 C 210.183594 338.28125 210.699219 337.972656 211.199219 337.636719 C 211.699219 337.304688 212.183594 336.945312 212.648438 336.5625 C 213.117188 336.179688 213.5625 335.777344 213.988281 335.351562 C 214.414062 334.925781 214.816406 334.480469 215.199219 334.011719 C 215.582031 333.546875 215.9375 333.066406 216.273438 332.5625 C 216.609375 332.0625 216.917969 331.546875 217.203125 331.015625 C 217.484375 330.484375 217.742188 329.941406 217.972656 329.386719 C 218.203125 328.828125 218.40625 328.261719 218.582031 327.6875 C 218.753906 327.109375 218.902344 326.527344 219.019531 325.933594 C 219.136719 325.34375 219.226562 324.75 219.285156 324.152344 C 219.34375 323.550781 219.371094 322.949219 219.371094 322.347656 C 219.371094 321.746094 219.34375 321.144531 219.285156 320.546875 C 219.226562 319.945312 219.136719 319.351562 219.019531 318.761719 C 218.902344 318.171875 218.753906 317.585938 218.582031 317.011719 C 218.40625 316.433594 218.203125 315.867188 217.972656 315.3125 C 217.742188 314.753906 217.484375 314.210938 217.203125 313.679688 C 216.917969 313.148438 216.609375 312.632812 216.273438 312.132812 C 215.9375 311.632812 215.582031 311.148438 215.199219 310.683594 C 214.816406 310.21875 214.414062 309.769531 213.988281 309.34375 C 213.5625 308.917969 213.117188 308.515625 212.648438 308.132812 C 212.183594 307.75 211.699219 307.394531 211.199219 307.058594 C 210.699219 306.722656 210.183594 306.414062 209.652344 306.132812 C 209.121094 305.847656 208.578125 305.589844 208.019531 305.359375 C 207.464844 305.128906 206.898438 304.925781 206.320312 304.75 C 205.746094 304.578125 205.164062 304.429688 204.570312 304.3125 C 203.980469 304.195312 203.386719 304.105469 202.785156 304.046875 C 202.1875 303.988281 201.585938 303.960938 200.984375 303.960938 Z M 200.984375 303.960938 " fill-opacity="1" fill-rule="nonzero"/><path fill="#5ce1e6" d="M 126.144531 312.234375 C 125.324219 312.230469 124.539062 312.070312 123.78125 311.75 C 123.027344 311.433594 122.363281 310.980469 121.792969 310.394531 L 61.171875 249.714844 C 60.886719 249.429688 60.636719 249.121094 60.414062 248.785156 C 60.191406 248.453125 60.003906 248.101562 59.851562 247.730469 C 59.699219 247.359375 59.582031 246.976562 59.503906 246.582031 C 59.425781 246.191406 59.386719 245.792969 59.386719 245.390625 C 59.386719 244.992188 59.425781 244.59375 59.503906 244.199219 C 59.582031 243.808594 59.699219 243.425781 59.851562 243.054688 C 60.003906 242.683594 60.191406 242.332031 60.414062 242 C 60.636719 241.664062 60.886719 241.355469 61.171875 241.070312 L 147.839844 154.398438 C 148.125 154.117188 148.433594 153.863281 148.769531 153.644531 C 149.101562 153.421875 149.453125 153.234375 149.824219 153.082031 C 150.195312 152.929688 150.578125 152.8125 150.972656 152.734375 C 151.363281 152.65625 151.761719 152.617188 152.164062 152.617188 C 152.5625 152.617188 152.960938 152.65625 153.355469 152.734375 C 153.746094 152.8125 154.128906 152.929688 154.5 153.082031 C 154.871094 153.234375 155.222656 153.421875 155.558594 153.644531 C 155.890625 153.863281 156.199219 154.117188 156.484375 154.398438 L 217.167969 215.082031 C 217.730469 215.652344 218.167969 216.308594 218.476562 217.050781 C 218.785156 217.796875 218.941406 218.570312 218.945312 219.371094 C 218.949219 220.1875 218.796875 220.972656 218.488281 221.726562 C 218.179688 222.480469 217.738281 223.144531 217.167969 223.726562 L 130.496094 310.394531 C 129.921875 310.980469 129.257812 311.433594 128.503906 311.75 C 127.75 312.070312 126.960938 312.230469 126.144531 312.234375 Z M 74.164062 245.421875 L 126.144531 297.402344 L 204.171875 219.371094 L 151.949219 167.394531 Z M 74.164062 245.421875 " fill-opacity="1" fill-rule="nonzero"/><path fill="#5ce1e6" d="M 34.078125 343.617188 C 33.589844 343.617188 33.109375 343.554688 32.632812 343.4375 C 32.160156 343.320312 31.707031 343.152344 31.273438 342.925781 C 30.839844 342.699219 30.441406 342.425781 30.070312 342.105469 C 29.703125 341.785156 29.378906 341.425781 29.097656 341.027344 C 28.816406 340.625 28.585938 340.199219 28.40625 339.746094 C 28.222656 339.292969 28.101562 338.824219 28.03125 338.339844 C 27.964844 337.855469 27.953125 337.371094 28.003906 336.886719 C 28.050781 336.398438 28.15625 335.925781 28.316406 335.464844 L 59.699219 243.523438 C 59.785156 243.277344 59.882812 243.042969 60 242.808594 C 60.113281 242.578125 60.242188 242.355469 60.386719 242.140625 C 60.527344 241.925781 60.683594 241.722656 60.855469 241.527344 C 61.023438 241.332031 61.203125 241.148438 61.394531 240.972656 C 61.589844 240.800781 61.789062 240.640625 62.003906 240.496094 C 62.214844 240.347656 62.4375 240.214844 62.664062 240.097656 C 62.894531 239.976562 63.128906 239.875 63.371094 239.785156 C 63.613281 239.695312 63.859375 239.621094 64.113281 239.5625 C 64.363281 239.507812 64.617188 239.464844 64.875 239.4375 C 65.132812 239.414062 65.390625 239.402344 65.648438 239.410156 C 65.90625 239.417969 66.164062 239.441406 66.417969 239.480469 C 66.671875 239.519531 66.925781 239.574219 67.171875 239.644531 C 67.421875 239.714844 67.664062 239.800781 67.902344 239.902344 C 68.140625 240.003906 68.367188 240.121094 68.589844 240.25 C 68.8125 240.382812 69.027344 240.527344 69.230469 240.683594 C 69.4375 240.839844 69.628906 241.011719 69.8125 241.195312 L 130.496094 301.875 C 131.242188 302.621094 131.765625 303.5 132.058594 304.511719 C 132.351562 305.527344 132.382812 306.546875 132.148438 307.574219 C 131.910156 308.605469 131.4375 309.511719 130.730469 310.296875 C 130.019531 311.082031 129.167969 311.648438 128.164062 311.988281 L 36.222656 343.371094 C 35.523438 343.582031 34.808594 343.664062 34.078125 343.617188 Z M 68.097656 256.703125 L 43.945312 327.621094 L 115.171875 303.46875 Z M 68.097656 256.703125 " fill-opacity="1" fill-rule="nonzero"/><path fill="#5ce1e6" d="M 34.078125 343.617188 C 33.589844 343.617188 33.109375 343.554688 32.632812 343.4375 C 32.160156 343.320312 31.707031 343.152344 31.273438 342.925781 C 30.839844 342.699219 30.441406 342.425781 30.070312 342.105469 C 29.703125 341.785156 29.378906 341.425781 29.097656 341.027344 C 28.816406 340.625 28.585938 340.199219 28.40625 339.746094 C 28.222656 339.292969 28.101562 338.824219 28.03125 338.339844 C 27.964844 337.855469 27.953125 337.371094 28.003906 336.886719 C 28.050781 336.398438 28.15625 335.925781 28.316406 335.464844 L 41.925781 295.378906 C 42.152344 294.707031 42.488281 294.089844 42.929688 293.535156 C 43.371094 292.976562 43.894531 292.511719 44.496094 292.136719 C 45.101562 291.761719 45.75 291.5 46.445312 291.351562 C 47.140625 291.203125 47.839844 291.175781 48.542969 291.273438 C 52.574219 291.78125 56.410156 292.9375 60.054688 294.730469 C 63.699219 296.527344 66.953125 298.867188 69.8125 301.753906 C 72.675781 304.628906 75.003906 307.890625 76.796875 311.527344 C 78.589844 315.167969 79.757812 319 80.292969 323.023438 C 80.382812 323.722656 80.347656 324.414062 80.195312 325.101562 C 80.042969 325.792969 79.78125 326.433594 79.40625 327.03125 C 79.03125 327.628906 78.570312 328.144531 78.015625 328.582031 C 77.464844 329.019531 76.855469 329.355469 76.1875 329.582031 L 36.101562 343.25 C 35.449219 343.488281 34.773438 343.609375 34.078125 343.617188 Z M 51.792969 304.574219 L 43.945312 327.621094 L 66.992188 319.773438 C 66.386719 318.011719 65.589844 316.34375 64.605469 314.761719 C 63.617188 313.183594 62.464844 311.734375 61.148438 310.417969 C 59.832031 309.101562 58.382812 307.949219 56.804688 306.960938 C 55.222656 305.976562 53.554688 305.179688 51.792969 304.574219 Z M 51.792969 304.574219 " fill-opacity="1" fill-rule="nonzero"/><path fill="#5ce1e6" d="M 212.8125 228.078125 L 143.488281 158.691406 L 165.1875 137.054688 C 165.621094 136.640625 166.074219 136.253906 166.542969 135.882812 C 167.015625 135.515625 167.5 135.171875 168.003906 134.847656 C 168.507812 134.527344 169.027344 134.226562 169.558594 133.957031 C 170.089844 133.683594 170.632812 133.433594 171.1875 133.214844 C 171.742188 132.992188 172.308594 132.796875 172.878906 132.628906 C 173.453125 132.460938 174.035156 132.320312 174.621094 132.207031 C 175.207031 132.097656 175.800781 132.011719 176.394531 131.953125 C 176.988281 131.898438 177.585938 131.871094 178.183594 131.871094 C 178.78125 131.871094 179.375 131.898438 179.972656 131.953125 C 180.566406 132.011719 181.15625 132.097656 181.742188 132.207031 C 182.332031 132.320312 182.910156 132.460938 183.484375 132.628906 C 184.058594 132.796875 184.621094 132.992188 185.175781 133.214844 C 185.734375 133.433594 186.277344 133.683594 186.808594 133.957031 C 187.339844 134.226562 187.855469 134.527344 188.359375 134.847656 C 188.863281 135.171875 189.351562 135.515625 189.820312 135.882812 C 190.292969 136.253906 190.742188 136.640625 191.175781 137.054688 L 234.511719 180.390625 C 234.9375 180.816406 235.339844 181.261719 235.722656 181.726562 C 236.105469 182.191406 236.460938 182.675781 236.796875 183.175781 C 237.128906 183.675781 237.4375 184.191406 237.722656 184.722656 C 238.007812 185.253906 238.261719 185.796875 238.492188 186.351562 C 238.722656 186.90625 238.925781 187.472656 239.101562 188.050781 C 239.273438 188.625 239.421875 189.207031 239.539062 189.800781 C 239.65625 190.390625 239.742188 190.984375 239.800781 191.582031 C 239.859375 192.179688 239.890625 192.78125 239.890625 193.382812 C 239.890625 193.984375 239.859375 194.585938 239.800781 195.183594 C 239.742188 195.785156 239.65625 196.378906 239.539062 196.96875 C 239.421875 197.558594 239.273438 198.140625 239.101562 198.71875 C 238.925781 199.292969 238.722656 199.859375 238.492188 200.414062 C 238.261719 200.972656 238.007812 201.515625 237.722656 202.046875 C 237.4375 202.578125 237.128906 203.09375 236.796875 203.59375 C 236.460938 204.09375 236.105469 204.574219 235.722656 205.042969 C 235.339844 205.507812 234.9375 205.953125 234.511719 206.378906 Z M 160.835938 158.691406 L 212.8125 210.730469 L 225.871094 197.734375 C 226.15625 197.449219 226.414062 197.140625 226.640625 196.804688 C 226.867188 196.46875 227.054688 196.113281 227.210938 195.742188 C 227.367188 195.367188 227.484375 194.980469 227.5625 194.585938 C 227.644531 194.1875 227.683594 193.789062 227.683594 193.382812 C 227.683594 192.980469 227.644531 192.578125 227.5625 192.183594 C 227.484375 191.785156 227.367188 191.398438 227.210938 191.027344 C 227.054688 190.652344 226.867188 190.296875 226.640625 189.960938 C 226.414062 189.628906 226.15625 189.316406 225.871094 189.03125 L 182.597656 145.695312 C 182.3125 145.414062 182.003906 145.160156 181.667969 144.9375 C 181.335938 144.71875 180.980469 144.53125 180.613281 144.375 C 180.242188 144.222656 179.859375 144.109375 179.464844 144.03125 C 179.074219 143.953125 178.675781 143.914062 178.273438 143.914062 C 177.875 143.914062 177.476562 143.953125 177.082031 144.03125 C 176.691406 144.109375 176.308594 144.222656 175.9375 144.375 C 175.566406 144.53125 175.214844 144.71875 174.878906 144.9375 C 174.546875 145.160156 174.238281 145.414062 173.953125 145.695312 Z M 160.835938 158.691406 " fill-opacity="1" fill-rule="nonzero"/><path fill="#5ce1e6" d="M 126.144531 312.234375 C 125.324219 312.230469 124.539062 312.070312 123.78125 311.75 C 123.027344 311.433594 122.363281 310.980469 121.792969 310.394531 L 104.507812 293.050781 C 104.222656 292.765625 103.972656 292.457031 103.75 292.121094 C 103.527344 291.789062 103.339844 291.4375 103.1875 291.066406 C 103.035156 290.695312 102.917969 290.3125 102.839844 289.917969 C 102.761719 289.527344 102.722656 289.128906 102.722656 288.726562 C 102.722656 288.328125 102.761719 287.929688 102.839844 287.535156 C 102.917969 287.144531 103.035156 286.761719 103.1875 286.390625 C 103.339844 286.019531 103.527344 285.667969 103.75 285.332031 C 103.972656 285 104.222656 284.691406 104.507812 284.40625 L 191.175781 197.734375 C 191.460938 197.453125 191.769531 197.199219 192.105469 196.980469 C 192.4375 196.757812 192.789062 196.570312 193.160156 196.417969 C 193.53125 196.261719 193.914062 196.148438 194.308594 196.070312 C 194.699219 195.992188 195.097656 195.953125 195.5 195.953125 C 195.898438 195.953125 196.296875 195.992188 196.691406 196.070312 C 197.082031 196.148438 197.464844 196.261719 197.835938 196.417969 C 198.207031 196.570312 198.558594 196.757812 198.890625 196.980469 C 199.226562 197.199219 199.535156 197.453125 199.820312 197.734375 L 217.167969 215.082031 C 217.730469 215.652344 218.167969 216.308594 218.476562 217.050781 C 218.785156 217.796875 218.941406 218.570312 218.945312 219.371094 C 218.949219 220.1875 218.796875 220.972656 218.488281 221.726562 C 218.179688 222.480469 217.738281 223.144531 217.167969 223.726562 L 130.496094 310.394531 C 129.921875 310.980469 129.257812 311.433594 128.503906 311.75 C 127.75 312.070312 126.960938 312.230469 126.144531 312.234375 Z M 117.5 288.757812 L 126.144531 297.402344 L 204.171875 219.371094 L 195.527344 210.730469 Z M 117.5 288.757812 " fill-opacity="1" fill-rule="nonzero"/><path fill="#5ce1e6" d="M 82.808594 268.898438 C 81.988281 268.921875 81.195312 268.78125 80.429688 268.484375 C 79.664062 268.1875 78.984375 267.753906 78.394531 267.183594 L 61.109375 249.835938 C 60.828125 249.550781 60.574219 249.242188 60.351562 248.910156 C 60.128906 248.574219 59.941406 248.222656 59.789062 247.851562 C 59.636719 247.480469 59.523438 247.097656 59.445312 246.707031 C 59.367188 246.3125 59.328125 245.914062 59.328125 245.515625 C 59.328125 245.113281 59.367188 244.71875 59.445312 244.324219 C 59.523438 243.929688 59.636719 243.546875 59.789062 243.179688 C 59.941406 242.808594 60.128906 242.453125 60.351562 242.121094 C 60.574219 241.789062 60.828125 241.476562 61.109375 241.195312 L 147.839844 154.398438 C 148.125 154.117188 148.433594 153.863281 148.769531 153.644531 C 149.101562 153.421875 149.453125 153.234375 149.824219 153.082031 C 150.195312 152.929688 150.578125 152.8125 150.972656 152.734375 C 151.363281 152.65625 151.761719 152.617188 152.164062 152.617188 C 152.5625 152.617188 152.960938 152.65625 153.355469 152.734375 C 153.746094 152.8125 154.128906 152.929688 154.5 153.082031 C 154.871094 153.234375 155.222656 153.421875 155.558594 153.644531 C 155.890625 153.863281 156.199219 154.117188 156.484375 154.398438 L 173.832031 171.746094 C 174.398438 172.316406 174.832031 172.972656 175.140625 173.71875 C 175.449219 174.460938 175.605469 175.234375 175.609375 176.039062 C 175.613281 176.851562 175.460938 177.636719 175.152344 178.390625 C 174.84375 179.144531 174.402344 179.8125 173.832031 180.390625 L 87.160156 267.183594 C 86.578125 267.746094 85.90625 268.175781 85.152344 268.472656 C 84.398438 268.769531 83.617188 268.910156 82.808594 268.898438 Z M 74.164062 245.421875 L 82.808594 254.066406 L 160.835938 176.039062 L 151.949219 167.394531 Z M 74.164062 245.421875 " fill-opacity="1" fill-rule="nonzero"/></svg>