<svg xmlns="http://www.w3.org/2000/svg" xmlns:xlink="http://www.w3.org/1999/xlink" width="500" zoomAndPan="magnify" viewBox="0 0 375 374.999991" height="500" preserveAspectRatio="xMidYMid meet" version="1.0"><defs><clipPath id="baea5c0b56"><path d="M 25.085938 25.085938 L 349.835938 25.085938 L 349.835938 230 L 25.085938 230 Z M 25.085938 25.085938 " clip-rule="nonzero"/></clipPath><clipPath id="931ec516a1"><path d="M 25.085938 25.085938 L 277 25.085938 L 277 277 L 25.085938 277 Z M 25.085938 25.085938 " clip-rule="nonzero"/></clipPath><clipPath id="03179c71b7"><path d="M 25.085938 25.085938 L 230 25.085938 L 230 349.835938 L 25.085938 349.835938 Z M 25.085938 25.085938 " clip-rule="nonzero"/></clipPath><clipPath id="38e3bc7bd8"><path d="M 25.085938 98 L 277 98 L 277 349.835938 L 25.085938 349.835938 Z M 25.085938 98 " clip-rule="nonzero"/></clipPath><clipPath id="c565b979b9"><path d="M 25.085938 145 L 349.835938 145 L 349.835938 349.835938 L 25.085938 349.835938 Z M 25.085938 145 " clip-rule="nonzero"/></clipPath><clipPath id="cc22c355fc"><path d="M 98 98 L 349.835938 98 L 349.835938 349.835938 L 98 349.835938 Z M 98 98 " clip-rule="nonzero"/></clipPath><clipPath id="d12b0637eb"><path d="M 145 25.085938 L 349.835938 25.085938 L 349.835938 349.835938 L 145 349.835938 Z M 145 25.085938 " clip-rule="nonzero"/></clipPath><clipPath id="ab20e1be59"><path d="M 98 25.085938 L 349.835938 25.085938 L 349.835938 277 L 98 277 Z M 98 25.085938 " clip-rule="nonzero"/></clipPath></defs><path fill="#fbe639" d="M 233.851562 182.53125 C 233.753906 181.578125 233.621094 180.628906 233.464844 179.6875 C 233.304688 178.742188 233.117188 177.804688 232.898438 176.871094 C 232.679688 175.9375 232.433594 175.015625 232.160156 174.097656 C 231.886719 173.179688 231.582031 172.273438 231.25 171.375 C 230.921875 170.476562 230.5625 169.585938 230.175781 168.710938 C 229.789062 167.835938 229.378906 166.972656 228.9375 166.121094 C 228.5 165.269531 228.035156 164.433594 227.542969 163.613281 C 227.050781 162.789062 226.535156 161.984375 225.996094 161.195312 C 225.453125 160.402344 224.890625 159.632812 224.300781 158.875 C 223.710938 158.121094 223.101562 157.386719 222.464844 156.667969 C 221.832031 155.949219 221.175781 155.253906 220.496094 154.578125 C 219.820312 153.902344 219.121094 153.246094 218.402344 152.613281 C 217.6875 151.980469 216.949219 151.367188 216.191406 150.78125 C 215.4375 150.195312 214.664062 149.628906 213.871094 149.089844 C 213.082031 148.550781 212.273438 148.035156 211.453125 147.546875 C 210.628906 147.054688 209.792969 146.589844 208.941406 146.152344 C 208.089844 145.714844 207.226562 145.304688 206.347656 144.917969 C 205.472656 144.535156 204.585938 144.179688 203.683594 143.847656 C 202.785156 143.519531 201.878906 143.21875 200.960938 142.945312 C 200.042969 142.671875 199.117188 142.425781 198.183594 142.210938 C 197.25 141.992188 196.3125 141.808594 195.367188 141.648438 C 194.425781 141.492188 193.476562 141.363281 192.523438 141.261719 C 191.570312 141.164062 190.617188 141.09375 189.660156 141.054688 C 188.703125 141.015625 187.746094 141.003906 186.789062 141.023438 C 185.832031 141.042969 184.875 141.089844 183.921875 141.167969 C 182.96875 141.246094 182.015625 141.355469 181.070312 141.492188 C 180.121094 141.628906 179.179688 141.796875 178.242188 141.992188 C 177.304688 142.1875 176.375 142.410156 175.449219 142.664062 C 174.527344 142.917969 173.613281 143.199219 172.707031 143.507812 C 171.800781 143.820312 170.90625 144.15625 170.019531 144.523438 C 169.136719 144.886719 168.261719 145.28125 167.402344 145.699219 C 166.539062 146.117188 165.695312 146.5625 164.859375 147.035156 C 164.027344 147.507812 163.210938 148.003906 162.40625 148.527344 C 161.605469 149.050781 160.820312 149.59375 160.050781 150.167969 C 159.28125 150.738281 158.53125 151.332031 157.800781 151.949219 C 157.066406 152.566406 156.355469 153.207031 155.664062 153.867188 C 154.972656 154.53125 154.300781 155.210938 153.648438 155.914062 C 153 156.617188 152.371094 157.339844 151.769531 158.082031 C 151.164062 158.824219 150.582031 159.585938 150.023438 160.363281 C 149.464844 161.140625 148.929688 161.933594 148.421875 162.746094 C 147.914062 163.558594 147.429688 164.382812 146.972656 165.222656 C 146.515625 166.066406 146.082031 166.917969 145.675781 167.785156 C 145.273438 168.652344 144.894531 169.535156 144.542969 170.425781 C 144.195312 171.316406 143.871094 172.214844 143.578125 173.128906 C 143.28125 174.039062 143.015625 174.957031 142.777344 175.886719 C 142.539062 176.8125 142.332031 177.746094 142.152344 178.6875 C 141.972656 179.628906 141.820312 180.574219 141.699219 181.523438 C 141.578125 182.472656 141.484375 183.425781 141.421875 184.378906 C 141.359375 185.335938 141.328125 186.292969 141.324219 187.25 C 141.320312 188.207031 141.347656 189.164062 141.402344 190.121094 C 141.460938 191.074219 141.546875 192.027344 141.660156 192.980469 C 141.773438 193.929688 141.917969 194.875 142.09375 195.816406 C 142.265625 196.757812 142.46875 197.695312 142.699219 198.625 C 142.933594 199.550781 143.191406 200.472656 143.480469 201.386719 C 143.769531 202.300781 144.085938 203.203125 144.429688 204.097656 C 144.773438 204.988281 145.148438 205.871094 145.546875 206.742188 C 145.945312 207.613281 146.371094 208.46875 146.824219 209.3125 C 147.273438 210.15625 147.753906 210.988281 148.253906 211.800781 C 148.757812 212.617188 149.289062 213.414062 149.839844 214.195312 C 150.394531 214.976562 150.96875 215.742188 151.570312 216.488281 C 152.171875 217.234375 152.792969 217.960938 153.4375 218.667969 C 154.082031 219.375 154.75 220.0625 155.4375 220.726562 C 156.125 221.394531 156.832031 222.039062 157.558594 222.660156 C 158.289062 223.28125 159.035156 223.882812 159.796875 224.457031 C 160.511719 225.015625 161.148438 225.644531 161.714844 226.347656 C 162.28125 227.050781 162.757812 227.8125 163.144531 228.628906 C 163.53125 229.441406 163.820312 230.292969 164.007812 231.175781 C 164.199219 232.058594 164.28125 232.949219 164.265625 233.851562 L 164.265625 245.453125 L 210.65625 245.453125 L 210.65625 233.851562 C 210.660156 232.957031 210.769531 232.074219 210.976562 231.203125 C 211.1875 230.332031 211.492188 229.5 211.894531 228.699219 C 212.296875 227.898438 212.785156 227.15625 213.359375 226.46875 C 213.933594 225.78125 214.578125 225.167969 215.296875 224.632812 C 216.910156 223.4375 218.441406 222.144531 219.890625 220.75 C 221.335938 219.359375 222.6875 217.875 223.941406 216.308594 C 225.195312 214.738281 226.34375 213.097656 227.382812 211.378906 C 228.425781 209.660156 229.351562 207.882812 230.160156 206.042969 C 230.972656 204.207031 231.660156 202.324219 232.226562 200.394531 C 232.789062 198.46875 233.230469 196.511719 233.539062 194.527344 C 233.851562 192.542969 234.035156 190.546875 234.085938 188.539062 C 234.140625 186.53125 234.0625 184.527344 233.851562 182.53125 Z M 233.851562 182.53125 " fill-opacity="1" fill-rule="nonzero"/><path fill="#98d6fc" d="M 164.265625 245.453125 L 210.65625 245.453125 L 210.65625 257.050781 C 210.65625 257.8125 210.582031 258.566406 210.433594 259.3125 C 210.285156 260.058594 210.066406 260.785156 209.773438 261.488281 C 209.484375 262.191406 209.125 262.859375 208.703125 263.492188 C 208.277344 264.125 207.796875 264.710938 207.257812 265.25 C 206.722656 265.789062 206.136719 266.269531 205.503906 266.691406 C 204.867188 267.117188 204.199219 267.472656 203.496094 267.765625 C 202.792969 268.054688 202.066406 268.277344 201.320312 268.425781 C 200.574219 268.574219 199.820312 268.648438 199.058594 268.648438 L 175.863281 268.648438 C 175.101562 268.648438 174.347656 268.574219 173.597656 268.425781 C 172.851562 268.277344 172.128906 268.054688 171.421875 267.765625 C 170.71875 267.472656 170.050781 267.117188 169.417969 266.691406 C 168.785156 266.269531 168.199219 265.789062 167.660156 265.25 C 167.121094 264.710938 166.640625 264.125 166.21875 263.492188 C 165.796875 262.859375 165.4375 262.191406 165.148438 261.488281 C 164.855469 260.785156 164.636719 260.058594 164.488281 259.3125 C 164.339844 258.566406 164.265625 257.8125 164.265625 257.050781 Z M 164.265625 245.453125 " fill-opacity="1" fill-rule="nonzero"/><path fill="#acee94" d="M 204.859375 48.28125 C 204.859375 48.851562 204.828125 49.421875 204.773438 49.988281 C 204.71875 50.554688 204.632812 51.117188 204.523438 51.675781 C 204.414062 52.234375 204.273438 52.785156 204.109375 53.332031 C 203.941406 53.878906 203.75 54.414062 203.535156 54.941406 C 203.316406 55.464844 203.070312 55.980469 202.804688 56.484375 C 202.535156 56.984375 202.242188 57.472656 201.925781 57.945312 C 201.609375 58.421875 201.269531 58.878906 200.910156 59.320312 C 200.546875 59.757812 200.164062 60.179688 199.761719 60.582031 C 199.359375 60.988281 198.9375 61.367188 198.496094 61.730469 C 198.058594 62.089844 197.597656 62.429688 197.125 62.746094 C 196.652344 63.0625 196.164062 63.355469 195.660156 63.625 C 195.160156 63.894531 194.644531 64.136719 194.117188 64.355469 C 193.589844 64.574219 193.054688 64.765625 192.511719 64.929688 C 191.964844 65.09375 191.414062 65.234375 190.855469 65.34375 C 190.296875 65.457031 189.734375 65.539062 189.164062 65.59375 C 188.597656 65.652344 188.03125 65.679688 187.460938 65.679688 C 186.890625 65.679688 186.320312 65.652344 185.753906 65.59375 C 185.1875 65.539062 184.625 65.457031 184.066406 65.34375 C 183.507812 65.234375 182.957031 65.09375 182.410156 64.929688 C 181.863281 64.765625 181.328125 64.574219 180.800781 64.355469 C 180.277344 64.136719 179.761719 63.894531 179.257812 63.625 C 178.757812 63.355469 178.269531 63.0625 177.796875 62.746094 C 177.320312 62.429688 176.863281 62.089844 176.421875 61.730469 C 175.984375 61.367188 175.5625 60.988281 175.160156 60.582031 C 174.753906 60.179688 174.375 59.757812 174.011719 59.320312 C 173.652344 58.878906 173.3125 58.421875 172.996094 57.945312 C 172.679688 57.472656 172.386719 56.984375 172.117188 56.484375 C 171.847656 55.980469 171.605469 55.464844 171.386719 54.941406 C 171.167969 54.414062 170.976562 53.878906 170.8125 53.332031 C 170.648438 52.785156 170.507812 52.234375 170.398438 51.675781 C 170.285156 51.117188 170.203125 50.554688 170.148438 49.988281 C 170.089844 49.421875 170.0625 48.851562 170.0625 48.28125 C 170.0625 47.710938 170.089844 47.144531 170.148438 46.578125 C 170.203125 46.007812 170.285156 45.445312 170.398438 44.886719 C 170.507812 44.328125 170.648438 43.777344 170.8125 43.230469 C 170.976562 42.6875 171.167969 42.152344 171.386719 41.625 C 171.605469 41.097656 171.847656 40.582031 172.117188 40.082031 C 172.386719 39.578125 172.679688 39.089844 172.996094 38.617188 C 173.3125 38.144531 173.652344 37.683594 174.011719 37.246094 C 174.375 36.804688 174.753906 36.382812 175.160156 35.980469 C 175.5625 35.578125 175.984375 35.195312 176.421875 34.832031 C 176.863281 34.472656 177.320312 34.132812 177.796875 33.816406 C 178.269531 33.5 178.757812 33.207031 179.257812 32.9375 C 179.761719 32.671875 180.277344 32.425781 180.800781 32.207031 C 181.328125 31.992188 181.863281 31.800781 182.410156 31.632812 C 182.957031 31.46875 183.507812 31.328125 184.066406 31.21875 C 184.625 31.109375 185.1875 31.023438 185.753906 30.96875 C 186.320312 30.914062 186.890625 30.882812 187.460938 30.882812 C 188.03125 30.882812 188.597656 30.914062 189.164062 30.96875 C 189.734375 31.023438 190.296875 31.109375 190.855469 31.21875 C 191.414062 31.328125 191.964844 31.46875 192.511719 31.632812 C 193.054688 31.800781 193.589844 31.992188 194.117188 32.207031 C 194.644531 32.425781 195.160156 32.671875 195.660156 32.9375 C 196.164062 33.207031 196.652344 33.5 197.125 33.816406 C 197.597656 34.132812 198.058594 34.472656 198.496094 34.832031 C 198.9375 35.195312 199.359375 35.578125 199.761719 35.980469 C 200.164062 36.382812 200.546875 36.804688 200.910156 37.246094 C 201.269531 37.683594 201.609375 38.144531 201.925781 38.617188 C 202.242188 39.089844 202.535156 39.578125 202.804688 40.082031 C 203.070312 40.582031 203.316406 41.097656 203.535156 41.625 C 203.75 42.152344 203.941406 42.6875 204.109375 43.230469 C 204.273438 43.777344 204.414062 44.328125 204.523438 44.886719 C 204.632812 45.445312 204.71875 46.007812 204.773438 46.578125 C 204.828125 47.144531 204.859375 47.710938 204.859375 48.28125 Z M 204.859375 48.28125 " fill-opacity="1" fill-rule="nonzero"/><path fill="#98d6fc" d="M 112.070312 89.050781 C 112.070312 89.804688 112.035156 90.554688 111.960938 91.304688 C 111.886719 92.054688 111.777344 92.800781 111.628906 93.539062 C 111.484375 94.28125 111.300781 95.011719 111.082031 95.734375 C 110.863281 96.453125 110.609375 97.164062 110.320312 97.859375 C 110.03125 98.554688 109.707031 99.238281 109.351562 99.902344 C 109 100.566406 108.609375 101.214844 108.191406 101.839844 C 107.773438 102.46875 107.324219 103.070312 106.847656 103.65625 C 106.367188 104.238281 105.863281 104.796875 105.328125 105.328125 C 104.796875 105.863281 104.238281 106.367188 103.65625 106.847656 C 103.070312 107.324219 102.46875 107.773438 101.839844 108.191406 C 101.214844 108.609375 100.566406 109 99.902344 109.355469 C 99.238281 109.707031 98.554688 110.03125 97.859375 110.320312 C 97.164062 110.609375 96.453125 110.863281 95.734375 111.082031 C 95.011719 111.300781 94.28125 111.484375 93.539062 111.628906 C 92.800781 111.777344 92.054688 111.886719 91.304688 111.960938 C 90.554688 112.035156 89.804688 112.070312 89.050781 112.070312 C 88.296875 112.070312 87.542969 112.035156 86.792969 111.960938 C 86.042969 111.886719 85.296875 111.777344 84.558594 111.628906 C 83.820312 111.484375 83.089844 111.300781 82.367188 111.082031 C 81.644531 110.863281 80.9375 110.609375 80.238281 110.320312 C 79.542969 110.03125 78.863281 109.707031 78.195312 109.351562 C 77.53125 109 76.886719 108.609375 76.257812 108.191406 C 75.632812 107.773438 75.027344 107.324219 74.445312 106.847656 C 73.863281 106.367188 73.304688 105.863281 72.769531 105.328125 C 72.238281 104.796875 71.730469 104.238281 71.253906 103.65625 C 70.773438 103.070312 70.324219 102.46875 69.90625 101.839844 C 69.488281 101.214844 69.101562 100.566406 68.746094 99.902344 C 68.390625 99.238281 68.066406 98.554688 67.78125 97.859375 C 67.492188 97.164062 67.238281 96.453125 67.019531 95.734375 C 66.800781 95.011719 66.617188 94.28125 66.46875 93.539062 C 66.324219 92.800781 66.210938 92.054688 66.136719 91.304688 C 66.0625 90.554688 66.027344 89.804688 66.027344 89.050781 C 66.027344 88.296875 66.0625 87.542969 66.136719 86.792969 C 66.210938 86.042969 66.324219 85.296875 66.46875 84.558594 C 66.617188 83.820312 66.800781 83.089844 67.019531 82.367188 C 67.238281 81.644531 67.492188 80.9375 67.78125 80.238281 C 68.066406 79.542969 68.390625 78.863281 68.746094 78.195312 C 69.101562 77.53125 69.488281 76.886719 69.90625 76.257812 C 70.324219 75.632812 70.773438 75.027344 71.253906 74.445312 C 71.730469 73.863281 72.238281 73.304688 72.769531 72.769531 C 73.304688 72.238281 73.863281 71.730469 74.445312 71.253906 C 75.027344 70.773438 75.632812 70.324219 76.257812 69.90625 C 76.886719 69.488281 77.53125 69.101562 78.195312 68.746094 C 78.863281 68.390625 79.542969 68.066406 80.238281 67.78125 C 80.9375 67.492188 81.644531 67.238281 82.367188 67.019531 C 83.089844 66.800781 83.820312 66.617188 84.558594 66.46875 C 85.296875 66.324219 86.042969 66.210938 86.792969 66.136719 C 87.542969 66.0625 88.296875 66.027344 89.050781 66.027344 C 89.804688 66.027344 90.554688 66.0625 91.304688 66.136719 C 92.054688 66.210938 92.800781 66.324219 93.539062 66.46875 C 94.28125 66.617188 95.011719 66.800781 95.734375 67.019531 C 96.453125 67.238281 97.164062 67.492188 97.859375 67.78125 C 98.554688 68.066406 99.238281 68.390625 99.902344 68.746094 C 100.566406 69.101562 101.214844 69.488281 101.839844 69.90625 C 102.46875 70.324219 103.070312 70.773438 103.65625 71.253906 C 104.238281 71.730469 104.796875 72.238281 105.328125 72.769531 C 105.863281 73.304688 106.367188 73.863281 106.847656 74.445312 C 107.324219 75.027344 107.773438 75.632812 108.191406 76.257812 C 108.609375 76.886719 109 77.53125 109.355469 78.195312 C 109.707031 78.863281 110.03125 79.542969 110.320312 80.238281 C 110.609375 80.9375 110.863281 81.644531 111.082031 82.367188 C 111.300781 83.089844 111.484375 83.820312 111.628906 84.558594 C 111.777344 85.296875 111.886719 86.042969 111.960938 86.792969 C 112.035156 87.542969 112.070312 88.296875 112.070312 89.050781 Z M 112.070312 89.050781 " fill-opacity="1" fill-rule="nonzero"/><path fill="#acee94" d="M 65.679688 187.460938 C 65.679688 188.03125 65.652344 188.597656 65.59375 189.164062 C 65.539062 189.734375 65.457031 190.296875 65.34375 190.855469 C 65.234375 191.414062 65.09375 191.964844 64.929688 192.511719 C 64.765625 193.054688 64.574219 193.589844 64.355469 194.117188 C 64.136719 194.644531 63.894531 195.160156 63.625 195.660156 C 63.355469 196.164062 63.0625 196.652344 62.746094 197.125 C 62.429688 197.597656 62.089844 198.058594 61.730469 198.496094 C 61.367188 198.9375 60.988281 199.359375 60.582031 199.761719 C 60.179688 200.164062 59.757812 200.546875 59.320312 200.910156 C 58.878906 201.269531 58.421875 201.609375 57.945312 201.925781 C 57.472656 202.242188 56.984375 202.535156 56.484375 202.804688 C 55.980469 203.070312 55.464844 203.316406 54.941406 203.535156 C 54.414062 203.75 53.878906 203.941406 53.332031 204.109375 C 52.785156 204.273438 52.234375 204.414062 51.675781 204.523438 C 51.117188 204.632812 50.554688 204.71875 49.988281 204.773438 C 49.421875 204.828125 48.851562 204.859375 48.28125 204.859375 C 47.710938 204.859375 47.144531 204.828125 46.578125 204.773438 C 46.007812 204.71875 45.445312 204.632812 44.886719 204.523438 C 44.328125 204.414062 43.777344 204.273438 43.230469 204.109375 C 42.6875 203.941406 42.152344 203.75 41.625 203.535156 C 41.097656 203.316406 40.582031 203.070312 40.082031 202.804688 C 39.578125 202.535156 39.089844 202.242188 38.617188 201.925781 C 38.144531 201.609375 37.683594 201.269531 37.246094 200.910156 C 36.804688 200.546875 36.382812 200.164062 35.980469 199.761719 C 35.578125 199.359375 35.195312 198.9375 34.832031 198.496094 C 34.472656 198.058594 34.132812 197.597656 33.816406 197.125 C 33.5 196.652344 33.207031 196.164062 32.9375 195.660156 C 32.671875 195.160156 32.425781 194.644531 32.207031 194.117188 C 31.992188 193.589844 31.800781 193.054688 31.632812 192.511719 C 31.46875 191.964844 31.328125 191.414062 31.21875 190.855469 C 31.109375 190.296875 31.023438 189.734375 30.96875 189.164062 C 30.914062 188.597656 30.882812 188.03125 30.882812 187.460938 C 30.882812 186.890625 30.914062 186.320312 30.96875 185.753906 C 31.023438 185.1875 31.109375 184.625 31.21875 184.066406 C 31.328125 183.507812 31.46875 182.957031 31.632812 182.410156 C 31.800781 181.863281 31.992188 181.328125 32.207031 180.800781 C 32.425781 180.277344 32.671875 179.761719 32.9375 179.257812 C 33.207031 178.757812 33.5 178.269531 33.816406 177.792969 C 34.132812 177.320312 34.472656 176.863281 34.832031 176.421875 C 35.195312 175.984375 35.578125 175.5625 35.980469 175.160156 C 36.382812 174.753906 36.804688 174.375 37.246094 174.011719 C 37.683594 173.652344 38.144531 173.3125 38.617188 172.996094 C 39.089844 172.679688 39.578125 172.386719 40.082031 172.117188 C 40.582031 171.847656 41.097656 171.605469 41.625 171.386719 C 42.152344 171.167969 42.6875 170.976562 43.230469 170.8125 C 43.777344 170.648438 44.328125 170.507812 44.886719 170.398438 C 45.445312 170.285156 46.007812 170.203125 46.578125 170.148438 C 47.144531 170.089844 47.710938 170.0625 48.28125 170.0625 C 48.851562 170.0625 49.421875 170.089844 49.988281 170.148438 C 50.554688 170.203125 51.117188 170.285156 51.675781 170.398438 C 52.234375 170.507812 52.785156 170.648438 53.332031 170.8125 C 53.878906 170.976562 54.414062 171.167969 54.941406 171.386719 C 55.464844 171.605469 55.980469 171.847656 56.484375 172.117188 C 56.984375 172.386719 57.472656 172.679688 57.945312 172.996094 C 58.421875 173.3125 58.878906 173.652344 59.320312 174.011719 C 59.757812 174.375 60.179688 174.753906 60.582031 175.160156 C 60.988281 175.5625 61.367188 175.984375 61.730469 176.421875 C 62.089844 176.863281 62.429688 177.320312 62.746094 177.792969 C 63.0625 178.269531 63.355469 178.757812 63.625 179.257812 C 63.894531 179.761719 64.136719 180.277344 64.355469 180.800781 C 64.574219 181.328125 64.765625 181.863281 64.929688 182.410156 C 65.09375 182.957031 65.234375 183.507812 65.34375 184.066406 C 65.457031 184.625 65.539062 185.1875 65.59375 185.753906 C 65.652344 186.320312 65.679688 186.890625 65.679688 187.460938 Z M 65.679688 187.460938 " fill-opacity="1" fill-rule="nonzero"/><path fill="#98d6fc" d="M 112.070312 285.871094 C 112.070312 286.625 112.035156 287.378906 111.960938 288.128906 C 111.886719 288.878906 111.777344 289.625 111.628906 290.363281 C 111.484375 291.101562 111.300781 291.832031 111.082031 292.554688 C 110.863281 293.277344 110.609375 293.984375 110.320312 294.679688 C 110.03125 295.378906 109.707031 296.058594 109.351562 296.722656 C 109 297.390625 108.609375 298.035156 108.191406 298.660156 C 107.773438 299.289062 107.324219 299.894531 106.847656 300.476562 C 106.367188 301.058594 105.863281 301.617188 105.328125 302.152344 C 104.796875 302.683594 104.238281 303.191406 103.65625 303.667969 C 103.070312 304.144531 102.46875 304.59375 101.839844 305.015625 C 101.214844 305.433594 100.566406 305.820312 99.902344 306.175781 C 99.238281 306.53125 98.554688 306.851562 97.859375 307.140625 C 97.164062 307.429688 96.453125 307.683594 95.734375 307.902344 C 95.011719 308.121094 94.28125 308.304688 93.539062 308.453125 C 92.800781 308.597656 92.054688 308.707031 91.304688 308.78125 C 90.554688 308.855469 89.804688 308.894531 89.050781 308.894531 C 88.296875 308.894531 87.542969 308.855469 86.792969 308.78125 C 86.042969 308.707031 85.296875 308.597656 84.558594 308.453125 C 83.820312 308.304688 83.089844 308.121094 82.367188 307.902344 C 81.644531 307.683594 80.9375 307.429688 80.238281 307.140625 C 79.542969 306.851562 78.863281 306.53125 78.195312 306.175781 C 77.53125 305.820312 76.886719 305.433594 76.257812 305.011719 C 75.632812 304.59375 75.027344 304.144531 74.445312 303.667969 C 73.863281 303.191406 73.304688 302.683594 72.769531 302.152344 C 72.238281 301.617188 71.730469 301.058594 71.253906 300.476562 C 70.773438 299.894531 70.324219 299.289062 69.90625 298.660156 C 69.488281 298.035156 69.101562 297.390625 68.746094 296.722656 C 68.390625 296.058594 68.066406 295.378906 67.78125 294.679688 C 67.492188 293.984375 67.238281 293.277344 67.019531 292.554688 C 66.800781 291.832031 66.617188 291.101562 66.46875 290.363281 C 66.324219 289.625 66.210938 288.878906 66.136719 288.128906 C 66.0625 287.378906 66.027344 286.625 66.027344 285.871094 C 66.027344 285.117188 66.0625 284.363281 66.136719 283.613281 C 66.210938 282.863281 66.324219 282.121094 66.46875 281.378906 C 66.617188 280.640625 66.800781 279.910156 67.019531 279.1875 C 67.238281 278.464844 67.492188 277.757812 67.78125 277.0625 C 68.066406 276.363281 68.390625 275.683594 68.746094 275.019531 C 69.101562 274.351562 69.488281 273.707031 69.90625 273.082031 C 70.324219 272.453125 70.773438 271.847656 71.253906 271.265625 C 71.730469 270.683594 72.238281 270.125 72.769531 269.59375 C 73.304688 269.058594 73.863281 268.554688 74.445312 268.074219 C 75.027344 267.597656 75.632812 267.148438 76.257812 266.730469 C 76.886719 266.308594 77.53125 265.921875 78.195312 265.566406 C 78.863281 265.210938 79.542969 264.890625 80.238281 264.601562 C 80.9375 264.3125 81.644531 264.058594 82.367188 263.839844 C 83.089844 263.621094 83.820312 263.4375 84.558594 263.292969 C 85.296875 263.144531 86.042969 263.035156 86.792969 262.960938 C 87.542969 262.886719 88.296875 262.847656 89.050781 262.847656 C 89.804688 262.847656 90.554688 262.886719 91.304688 262.960938 C 92.054688 263.035156 92.800781 263.144531 93.539062 263.292969 C 94.28125 263.4375 95.011719 263.621094 95.734375 263.839844 C 96.453125 264.058594 97.164062 264.3125 97.859375 264.601562 C 98.554688 264.890625 99.238281 265.210938 99.902344 265.566406 C 100.566406 265.921875 101.214844 266.308594 101.839844 266.730469 C 102.46875 267.148438 103.070312 267.597656 103.65625 268.074219 C 104.238281 268.554688 104.796875 269.058594 105.328125 269.59375 C 105.863281 270.125 106.367188 270.683594 106.847656 271.265625 C 107.324219 271.847656 107.773438 272.453125 108.191406 273.082031 C 108.609375 273.707031 109 274.351562 109.355469 275.019531 C 109.707031 275.683594 110.03125 276.363281 110.320312 277.0625 C 110.609375 277.757812 110.863281 278.464844 111.082031 279.1875 C 111.300781 279.910156 111.484375 280.640625 111.628906 281.378906 C 111.777344 282.121094 111.886719 282.863281 111.960938 283.613281 C 112.035156 284.363281 112.070312 285.117188 112.070312 285.871094 Z M 112.070312 285.871094 " fill-opacity="1" fill-rule="nonzero"/><path fill="#acee94" d="M 204.859375 326.640625 C 204.859375 327.207031 204.828125 327.777344 204.773438 328.34375 C 204.71875 328.910156 204.632812 329.472656 204.523438 330.03125 C 204.414062 330.589844 204.273438 331.144531 204.109375 331.6875 C 203.941406 332.234375 203.75 332.769531 203.535156 333.296875 C 203.316406 333.824219 203.070312 334.335938 202.804688 334.839844 C 202.535156 335.34375 202.242188 335.832031 201.925781 336.304688 C 201.609375 336.777344 201.269531 337.234375 200.910156 337.675781 C 200.546875 338.117188 200.164062 338.539062 199.761719 338.941406 C 199.359375 339.34375 198.9375 339.726562 198.496094 340.085938 C 198.058594 340.449219 197.597656 340.789062 197.125 341.105469 C 196.652344 341.421875 196.164062 341.714844 195.660156 341.980469 C 195.160156 342.25 194.644531 342.492188 194.117188 342.710938 C 193.589844 342.929688 193.054688 343.121094 192.511719 343.289062 C 191.964844 343.453125 191.414062 343.589844 190.855469 343.703125 C 190.296875 343.8125 189.734375 343.898438 189.164062 343.953125 C 188.597656 344.007812 188.03125 344.035156 187.460938 344.035156 C 186.890625 344.035156 186.320312 344.007812 185.753906 343.953125 C 185.1875 343.898438 184.625 343.8125 184.066406 343.703125 C 183.507812 343.589844 182.957031 343.453125 182.410156 343.289062 C 181.863281 343.121094 181.328125 342.929688 180.800781 342.710938 C 180.277344 342.492188 179.761719 342.25 179.257812 341.980469 C 178.757812 341.714844 178.269531 341.421875 177.796875 341.105469 C 177.320312 340.789062 176.863281 340.449219 176.421875 340.085938 C 175.984375 339.726562 175.5625 339.34375 175.160156 338.941406 C 174.753906 338.539062 174.375 338.117188 174.011719 337.675781 C 173.652344 337.234375 173.3125 336.777344 172.996094 336.304688 C 172.679688 335.832031 172.386719 335.34375 172.117188 334.839844 C 171.847656 334.335938 171.605469 333.824219 171.386719 333.296875 C 171.167969 332.769531 170.976562 332.234375 170.8125 331.6875 C 170.648438 331.144531 170.507812 330.59375 170.398438 330.03125 C 170.285156 329.472656 170.203125 328.910156 170.148438 328.34375 C 170.089844 327.777344 170.0625 327.207031 170.0625 326.640625 C 170.0625 326.070312 170.089844 325.5 170.148438 324.933594 C 170.203125 324.367188 170.285156 323.804688 170.398438 323.246094 C 170.507812 322.6875 170.648438 322.132812 170.8125 321.589844 C 170.976562 321.042969 171.167969 320.507812 171.386719 319.980469 C 171.605469 319.453125 171.847656 318.941406 172.117188 318.4375 C 172.386719 317.933594 172.679688 317.445312 172.996094 316.972656 C 173.3125 316.5 173.652344 316.042969 174.011719 315.601562 C 174.375 315.160156 174.753906 314.738281 175.160156 314.335938 C 175.5625 313.933594 175.984375 313.550781 176.421875 313.191406 C 176.863281 312.828125 177.320312 312.488281 177.796875 312.171875 C 178.269531 311.855469 178.757812 311.5625 179.257812 311.296875 C 179.761719 311.027344 180.277344 310.785156 180.800781 310.566406 C 181.328125 310.347656 181.863281 310.15625 182.410156 309.992188 C 182.957031 309.824219 183.507812 309.6875 184.066406 309.574219 C 184.625 309.464844 185.1875 309.382812 185.753906 309.324219 C 186.320312 309.269531 186.890625 309.242188 187.460938 309.242188 C 188.03125 309.242188 188.597656 309.269531 189.164062 309.324219 C 189.734375 309.382812 190.296875 309.464844 190.855469 309.574219 C 191.414062 309.6875 191.964844 309.824219 192.511719 309.992188 C 193.054688 310.15625 193.589844 310.347656 194.117188 310.566406 C 194.644531 310.785156 195.160156 311.027344 195.660156 311.296875 C 196.164062 311.566406 196.652344 311.855469 197.125 312.171875 C 197.597656 312.488281 198.058594 312.828125 198.496094 313.191406 C 198.9375 313.550781 199.359375 313.933594 199.761719 314.335938 C 200.164062 314.738281 200.546875 315.160156 200.910156 315.601562 C 201.269531 316.042969 201.609375 316.5 201.925781 316.972656 C 202.242188 317.445312 202.535156 317.933594 202.804688 318.4375 C 203.070312 318.941406 203.316406 319.453125 203.535156 319.980469 C 203.75 320.507812 203.941406 321.042969 204.109375 321.589844 C 204.273438 322.132812 204.414062 322.6875 204.523438 323.246094 C 204.632812 323.804688 204.71875 324.367188 204.773438 324.933594 C 204.828125 325.5 204.859375 326.070312 204.859375 326.640625 Z M 204.859375 326.640625 " fill-opacity="1" fill-rule="nonzero"/><path fill="#98d6fc" d="M 308.894531 285.871094 C 308.894531 286.625 308.855469 287.378906 308.78125 288.128906 C 308.707031 288.878906 308.597656 289.625 308.453125 290.363281 C 308.304688 291.101562 308.121094 291.832031 307.902344 292.554688 C 307.683594 293.277344 307.429688 293.984375 307.140625 294.679688 C 306.851562 295.378906 306.53125 296.058594 306.175781 296.722656 C 305.820312 297.390625 305.433594 298.035156 305.011719 298.660156 C 304.59375 299.289062 304.144531 299.894531 303.667969 300.476562 C 303.191406 301.058594 302.683594 301.617188 302.152344 302.152344 C 301.617188 302.683594 301.058594 303.191406 300.476562 303.667969 C 299.894531 304.144531 299.289062 304.59375 298.660156 305.015625 C 298.035156 305.433594 297.390625 305.820312 296.722656 306.175781 C 296.058594 306.53125 295.378906 306.851562 294.679688 307.140625 C 293.984375 307.429688 293.277344 307.683594 292.554688 307.902344 C 291.832031 308.121094 291.101562 308.304688 290.363281 308.453125 C 289.625 308.597656 288.878906 308.707031 288.128906 308.78125 C 287.378906 308.855469 286.625 308.894531 285.871094 308.894531 C 285.117188 308.894531 284.363281 308.855469 283.613281 308.78125 C 282.863281 308.707031 282.121094 308.597656 281.378906 308.453125 C 280.640625 308.304688 279.910156 308.121094 279.1875 307.902344 C 278.464844 307.683594 277.757812 307.429688 277.0625 307.140625 C 276.363281 306.851562 275.683594 306.53125 275.019531 306.175781 C 274.351562 305.820312 273.707031 305.433594 273.082031 305.011719 C 272.453125 304.59375 271.847656 304.144531 271.265625 303.667969 C 270.683594 303.191406 270.125 302.683594 269.59375 302.152344 C 269.058594 301.617188 268.554688 301.058594 268.074219 300.476562 C 267.597656 299.894531 267.148438 299.289062 266.730469 298.660156 C 266.308594 298.035156 265.921875 297.390625 265.566406 296.722656 C 265.210938 296.058594 264.890625 295.378906 264.601562 294.679688 C 264.3125 293.984375 264.058594 293.277344 263.839844 292.554688 C 263.621094 291.832031 263.4375 291.101562 263.292969 290.363281 C 263.144531 289.625 263.035156 288.878906 262.960938 288.128906 C 262.886719 287.378906 262.847656 286.625 262.847656 285.871094 C 262.847656 285.117188 262.886719 284.363281 262.960938 283.613281 C 263.035156 282.863281 263.144531 282.121094 263.292969 281.378906 C 263.4375 280.640625 263.621094 279.910156 263.839844 279.1875 C 264.058594 278.464844 264.3125 277.757812 264.601562 277.0625 C 264.890625 276.363281 265.210938 275.683594 265.566406 275.019531 C 265.921875 274.351562 266.308594 273.707031 266.730469 273.082031 C 267.148438 272.453125 267.597656 271.847656 268.074219 271.265625 C 268.554688 270.683594 269.058594 270.125 269.59375 269.59375 C 270.125 269.058594 270.683594 268.554688 271.265625 268.074219 C 271.847656 267.597656 272.453125 267.148438 273.082031 266.730469 C 273.707031 266.308594 274.351562 265.921875 275.019531 265.566406 C 275.683594 265.210938 276.363281 264.890625 277.0625 264.601562 C 277.757812 264.3125 278.464844 264.058594 279.1875 263.839844 C 279.910156 263.621094 280.640625 263.4375 281.378906 263.292969 C 282.121094 263.144531 282.863281 263.035156 283.613281 262.960938 C 284.363281 262.886719 285.117188 262.847656 285.871094 262.847656 C 286.625 262.847656 287.378906 262.886719 288.128906 262.960938 C 288.878906 263.035156 289.625 263.144531 290.363281 263.292969 C 291.101562 263.4375 291.832031 263.621094 292.554688 263.839844 C 293.277344 264.058594 293.984375 264.3125 294.679688 264.601562 C 295.378906 264.890625 296.058594 265.210938 296.722656 265.566406 C 297.390625 265.921875 298.035156 266.308594 298.660156 266.730469 C 299.289062 267.148438 299.894531 267.597656 300.476562 268.074219 C 301.058594 268.554688 301.617188 269.058594 302.152344 269.59375 C 302.683594 270.125 303.191406 270.683594 303.667969 271.265625 C 304.144531 271.847656 304.59375 272.453125 305.015625 273.082031 C 305.433594 273.707031 305.820312 274.351562 306.175781 275.019531 C 306.53125 275.683594 306.851562 276.363281 307.140625 277.0625 C 307.429688 277.757812 307.683594 278.464844 307.902344 279.1875 C 308.121094 279.910156 308.304688 280.640625 308.453125 281.378906 C 308.597656 282.121094 308.707031 282.863281 308.78125 283.613281 C 308.855469 284.363281 308.894531 285.117188 308.894531 285.871094 Z M 308.894531 285.871094 " fill-opacity="1" fill-rule="nonzero"/><path fill="#acee94" d="M 344.035156 187.460938 C 344.035156 188.03125 344.007812 188.597656 343.953125 189.164062 C 343.898438 189.734375 343.8125 190.296875 343.703125 190.855469 C 343.589844 191.414062 343.453125 191.964844 343.289062 192.511719 C 343.121094 193.054688 342.929688 193.589844 342.710938 194.117188 C 342.492188 194.644531 342.25 195.160156 341.980469 195.660156 C 341.714844 196.164062 341.421875 196.652344 341.105469 197.125 C 340.789062 197.597656 340.449219 198.058594 340.085938 198.496094 C 339.726562 198.9375 339.34375 199.359375 338.941406 199.761719 C 338.539062 200.164062 338.117188 200.546875 337.675781 200.910156 C 337.234375 201.269531 336.777344 201.609375 336.304688 201.925781 C 335.832031 202.242188 335.34375 202.535156 334.839844 202.804688 C 334.335938 203.070312 333.824219 203.316406 333.296875 203.535156 C 332.769531 203.75 332.234375 203.941406 331.6875 204.109375 C 331.144531 204.273438 330.59375 204.414062 330.03125 204.523438 C 329.472656 204.632812 328.910156 204.71875 328.34375 204.773438 C 327.777344 204.828125 327.207031 204.859375 326.640625 204.859375 C 326.070312 204.859375 325.5 204.828125 324.933594 204.773438 C 324.367188 204.71875 323.804688 204.632812 323.246094 204.523438 C 322.6875 204.414062 322.132812 204.273438 321.589844 204.109375 C 321.042969 203.941406 320.507812 203.75 319.980469 203.535156 C 319.453125 203.316406 318.941406 203.070312 318.4375 202.804688 C 317.933594 202.535156 317.445312 202.242188 316.972656 201.925781 C 316.5 201.609375 316.042969 201.269531 315.601562 200.910156 C 315.160156 200.546875 314.738281 200.164062 314.335938 199.761719 C 313.933594 199.359375 313.550781 198.9375 313.191406 198.496094 C 312.828125 198.058594 312.488281 197.597656 312.171875 197.125 C 311.855469 196.652344 311.5625 196.164062 311.296875 195.660156 C 311.027344 195.160156 310.785156 194.644531 310.566406 194.117188 C 310.347656 193.589844 310.15625 193.054688 309.992188 192.511719 C 309.824219 191.964844 309.6875 191.414062 309.574219 190.855469 C 309.464844 190.296875 309.382812 189.734375 309.324219 189.164062 C 309.269531 188.597656 309.242188 188.03125 309.242188 187.460938 C 309.242188 186.890625 309.269531 186.320312 309.324219 185.753906 C 309.382812 185.1875 309.464844 184.625 309.574219 184.066406 C 309.6875 183.507812 309.824219 182.957031 309.992188 182.410156 C 310.15625 181.863281 310.347656 181.328125 310.566406 180.800781 C 310.785156 180.277344 311.027344 179.761719 311.296875 179.257812 C 311.5625 178.757812 311.855469 178.269531 312.171875 177.792969 C 312.488281 177.320312 312.828125 176.863281 313.191406 176.421875 C 313.550781 175.984375 313.933594 175.5625 314.335938 175.160156 C 314.738281 174.753906 315.160156 174.375 315.601562 174.011719 C 316.042969 173.652344 316.5 173.3125 316.972656 172.996094 C 317.445312 172.679688 317.933594 172.386719 318.4375 172.117188 C 318.941406 171.847656 319.453125 171.605469 319.980469 171.386719 C 320.507812 171.167969 321.042969 170.976562 321.589844 170.8125 C 322.132812 170.648438 322.6875 170.507812 323.246094 170.398438 C 323.804688 170.285156 324.367188 170.203125 324.933594 170.148438 C 325.5 170.089844 326.070312 170.0625 326.640625 170.0625 C 327.207031 170.0625 327.777344 170.089844 328.34375 170.148438 C 328.910156 170.203125 329.472656 170.285156 330.03125 170.398438 C 330.589844 170.507812 331.144531 170.648438 331.6875 170.8125 C 332.234375 170.976562 332.769531 171.167969 333.296875 171.386719 C 333.824219 171.605469 334.335938 171.847656 334.839844 172.117188 C 335.34375 172.386719 335.832031 172.679688 336.304688 172.996094 C 336.777344 173.3125 337.234375 173.652344 337.675781 174.011719 C 338.117188 174.375 338.539062 174.753906 338.941406 175.160156 C 339.34375 175.5625 339.726562 175.984375 340.085938 176.421875 C 340.449219 176.863281 340.789062 177.320312 341.105469 177.792969 C 341.421875 178.269531 341.714844 178.757812 341.980469 179.257812 C 342.25 179.761719 342.492188 180.277344 342.710938 180.800781 C 342.929688 181.328125 343.121094 181.863281 343.289062 182.410156 C 343.453125 182.957031 343.589844 183.507812 343.703125 184.066406 C 343.8125 184.625 343.898438 185.1875 343.953125 185.753906 C 344.007812 186.320312 344.035156 186.890625 344.035156 187.460938 Z M 344.035156 187.460938 " fill-opacity="1" fill-rule="nonzero"/><path fill="#98d6fc" d="M 309.242188 89.050781 C 309.242188 89.816406 309.203125 90.578125 309.128906 91.339844 C 309.054688 92.101562 308.941406 92.859375 308.792969 93.609375 C 308.644531 94.359375 308.457031 95.101562 308.234375 95.832031 C 308.011719 96.566406 307.753906 97.285156 307.460938 97.992188 C 307.167969 98.699219 306.84375 99.390625 306.480469 100.066406 C 306.121094 100.742188 305.726562 101.398438 305.304688 102.035156 C 304.878906 102.667969 304.421875 103.285156 303.9375 103.875 C 303.453125 104.46875 302.9375 105.035156 302.398438 105.574219 C 301.855469 106.117188 301.289062 106.628906 300.695312 107.113281 C 300.105469 107.601562 299.492188 108.054688 298.855469 108.480469 C 298.21875 108.90625 297.5625 109.300781 296.886719 109.660156 C 296.214844 110.019531 295.523438 110.347656 294.816406 110.640625 C 294.109375 110.933594 293.386719 111.191406 292.65625 111.414062 C 291.921875 111.636719 291.179688 111.820312 290.429688 111.972656 C 289.679688 112.121094 288.921875 112.230469 288.160156 112.308594 C 287.398438 112.382812 286.636719 112.421875 285.871094 112.421875 C 285.105469 112.421875 284.34375 112.382812 283.582031 112.308594 C 282.820312 112.230469 282.0625 112.121094 281.3125 111.972656 C 280.5625 111.820312 279.820312 111.636719 279.085938 111.414062 C 278.355469 111.191406 277.636719 110.933594 276.925781 110.640625 C 276.21875 110.347656 275.53125 110.019531 274.855469 109.660156 C 274.179688 109.300781 273.523438 108.90625 272.886719 108.480469 C 272.25 108.054688 271.636719 107.601562 271.046875 107.113281 C 270.453125 106.628906 269.886719 106.117188 269.347656 105.574219 C 268.804688 105.035156 268.292969 104.46875 267.804688 103.875 C 267.320312 103.285156 266.863281 102.667969 266.441406 102.035156 C 266.015625 101.398438 265.621094 100.742188 265.261719 100.066406 C 264.898438 99.390625 264.574219 98.699219 264.28125 97.992188 C 263.988281 97.285156 263.730469 96.566406 263.507812 95.832031 C 263.285156 95.101562 263.097656 94.359375 262.949219 93.609375 C 262.800781 92.859375 262.6875 92.101562 262.613281 91.339844 C 262.539062 90.578125 262.5 89.816406 262.5 89.050781 C 262.5 88.285156 262.539062 87.519531 262.613281 86.757812 C 262.6875 85.996094 262.800781 85.242188 262.949219 84.488281 C 263.097656 83.738281 263.285156 82.996094 263.507812 82.265625 C 263.730469 81.53125 263.988281 80.8125 264.28125 80.105469 C 264.574219 79.398438 264.898438 78.707031 265.261719 78.03125 C 265.621094 77.359375 266.015625 76.703125 266.441406 76.066406 C 266.863281 75.429688 267.320312 74.816406 267.804688 74.222656 C 268.292969 73.632812 268.804688 73.066406 269.347656 72.523438 C 269.886719 71.984375 270.453125 71.46875 271.046875 70.984375 C 271.636719 70.5 272.25 70.042969 272.886719 69.617188 C 273.523438 69.191406 274.179688 68.800781 274.855469 68.4375 C 275.53125 68.078125 276.21875 67.75 276.925781 67.457031 C 277.636719 67.164062 278.355469 66.90625 279.085938 66.683594 C 279.820312 66.464844 280.5625 66.277344 281.3125 66.128906 C 282.0625 65.980469 282.820312 65.867188 283.582031 65.792969 C 284.34375 65.714844 285.105469 65.679688 285.871094 65.679688 C 286.636719 65.679688 287.398438 65.714844 288.160156 65.792969 C 288.921875 65.867188 289.679688 65.980469 290.429688 66.128906 C 291.179688 66.277344 291.921875 66.464844 292.65625 66.683594 C 293.386719 66.90625 294.109375 67.164062 294.816406 67.457031 C 295.523438 67.75 296.214844 68.078125 296.886719 68.4375 C 297.5625 68.800781 298.21875 69.191406 298.855469 69.617188 C 299.492188 70.042969 300.105469 70.5 300.699219 70.984375 C 301.289062 71.46875 301.855469 71.984375 302.398438 72.523438 C 302.9375 73.066406 303.453125 73.632812 303.9375 74.222656 C 304.421875 74.816406 304.878906 75.429688 305.304688 76.066406 C 305.726562 76.703125 306.121094 77.359375 306.480469 78.03125 C 306.84375 78.707031 307.167969 79.398438 307.460938 80.105469 C 307.753906 80.8125 308.011719 81.53125 308.234375 82.265625 C 308.457031 82.996094 308.644531 83.738281 308.792969 84.488281 C 308.941406 85.242188 309.054688 85.996094 309.128906 86.757812 C 309.203125 87.519531 309.242188 88.285156 309.242188 89.050781 Z M 309.242188 89.050781 " fill-opacity="1" fill-rule="nonzero"/><path stroke-linecap="round" transform="matrix(5.799107, 0, 0, 5.799107, 1.888968, 1.888964)" fill="none" stroke-linejoin="round" d="M 21.320244 10.509717 C 22.503751 9.902808 23.730368 9.398959 25.000094 9.000191 " stroke="#231f20" stroke-width="2" stroke-opacity="1" stroke-miterlimit="4"/><path stroke-linecap="round" transform="matrix(5.799107, 0, 0, 5.799107, 1.888968, 1.888964)" fill="none" stroke-linejoin="round" d="M 9.250094 24.36018 C 9.673111 23.092474 10.199863 21.868551 10.829674 20.68976 " stroke="#231f20" stroke-width="2" stroke-opacity="1" stroke-miterlimit="4"/><path stroke-linecap="round" transform="matrix(5.799107, 0, 0, 5.799107, 1.888968, 1.888964)" fill="none" stroke-linejoin="round" d="M 10.509717 42.679946 C 9.902807 41.495766 9.398958 40.269149 9.00019 39.000096 " stroke="#231f20" stroke-width="2" stroke-opacity="1" stroke-miterlimit="4"/><path stroke-linecap="round" transform="matrix(5.799107, 0, 0, 5.799107, 1.888968, 1.888964)" fill="none" stroke-linejoin="round" d="M 24.360179 54.750096 C 23.092473 54.326405 21.868551 53.799654 20.689759 53.169842 " stroke="#231f20" stroke-width="2" stroke-opacity="1" stroke-miterlimit="4"/><path stroke-linecap="round" transform="matrix(5.799107, 0, 0, 5.799107, 1.888968, 1.888964)" fill="none" stroke-linejoin="round" d="M 42.679945 53.4898 C 41.495765 54.097383 40.269148 54.600558 39.000095 55 " stroke="#231f20" stroke-width="2" stroke-opacity="1" stroke-miterlimit="4"/><path stroke-linecap="round" transform="matrix(5.799107, 0, 0, 5.799107, 1.888968, 1.888964)" fill="none" stroke-linejoin="round" d="M 54.750096 39.640011 C 54.326404 40.907717 53.799653 42.130966 53.169841 43.309757 " stroke="#231f20" stroke-width="2" stroke-opacity="1" stroke-miterlimit="4"/><path stroke-linecap="round" transform="matrix(5.799107, 0, 0, 5.799107, 1.888968, 1.888964)" fill="none" stroke-linejoin="round" d="M 53.489799 21.320245 C 54.097382 22.503752 54.600557 23.730368 54.999999 25.000095 " stroke="#231f20" stroke-width="2" stroke-opacity="1" stroke-miterlimit="4"/><path stroke-linecap="round" transform="matrix(5.799107, 0, 0, 5.799107, 1.888968, 1.888964)" fill="none" stroke-linejoin="round" d="M 39.64001 9.250094 C 40.907716 9.673112 42.130965 10.199864 43.309756 10.829675 " stroke="#231f20" stroke-width="2" stroke-opacity="1" stroke-miterlimit="4"/><path stroke-linecap="round" transform="matrix(5.799107, 0, 0, 5.799107, 1.888968, 1.888964)" fill="none" stroke-linejoin="round" d="M 39.99971 31.150018 C 39.98287 30.985661 39.959968 30.821978 39.933024 30.659641 C 39.905407 30.496631 39.873074 30.334968 39.835353 30.173979 C 39.797632 30.01299 39.755195 29.854021 39.708043 29.695727 C 39.660892 29.537432 39.608351 29.381158 39.551096 29.226231 C 39.494514 29.071304 39.432543 28.917724 39.365857 28.766839 C 39.299171 28.615954 39.228444 28.467089 39.152327 28.320245 C 39.076885 28.173402 38.996727 28.029252 38.911854 27.887797 C 38.826981 27.745669 38.738066 27.606908 38.64511 27.470842 C 38.551481 27.334102 38.454483 27.201404 38.35277 27.070726 C 38.251057 26.940723 38.145976 26.814087 38.03618 26.690145 C 37.927058 26.566204 37.813894 26.446304 37.696688 26.329772 C 37.580156 26.21324 37.459583 26.100076 37.335641 25.990953 C 37.212374 25.881831 37.085064 25.776077 36.954387 25.675037 C 36.824383 25.573998 36.691011 25.476327 36.554271 25.383371 C 36.418205 25.290415 36.278771 25.2015 36.137316 25.117301 C 35.995187 25.032428 35.851038 24.95227 35.704194 24.876827 C 35.55735 24.801385 35.408486 24.730657 35.256927 24.663971 C 35.106042 24.597959 34.953136 24.536662 34.797535 24.479406 C 34.642608 24.422824 34.486334 24.370957 34.328039 24.323806 C 34.169744 24.276654 34.010102 24.234217 33.849113 24.19717 C 33.688124 24.159448 33.526461 24.127789 33.363451 24.100172 C 33.201115 24.073228 33.037431 24.051 32.873074 24.033486 C 32.708717 24.016646 32.544359 24.004522 32.379329 23.997786 C 32.214298 23.99105 32.049267 23.989029 31.884236 23.992397 C 31.719205 23.995765 31.554175 24.003848 31.389817 24.01732 C 31.22546 24.030792 31.061103 24.049652 30.898093 24.073228 C 30.734409 24.096804 30.572073 24.125769 30.41041 24.159448 C 30.248747 24.193128 30.088432 24.231523 29.92879 24.275307 C 29.769821 24.31909 29.6122 24.367589 29.455926 24.420803 C 29.299652 24.474691 29.145399 24.53262 28.992492 24.595938 C 28.84026 24.658582 28.689375 24.726615 28.541184 24.79869 C 28.392319 24.870765 28.246823 24.947555 28.102673 25.02906 C 27.959198 25.110565 27.818416 25.196111 27.679656 25.286373 C 27.541569 25.376635 27.406176 25.470264 27.273478 25.569283 C 27.14078 25.667628 27.011449 25.770014 26.885487 25.876442 C 26.758851 25.98287 26.636257 26.09334 26.51703 26.207178 C 26.397804 26.321689 26.281946 26.438894 26.169455 26.560141 C 26.057639 26.681388 25.94919 26.806004 25.845456 26.933987 C 25.741049 27.06197 25.640683 27.193321 25.544359 27.327366 C 25.448035 27.461412 25.355753 27.598151 25.268185 27.738259 C 25.180618 27.878367 25.097092 28.020496 25.018281 28.165318 C 24.939471 28.310815 24.864702 28.457659 24.794648 28.607197 C 24.725268 28.756735 24.659929 28.908967 24.599305 29.062547 C 24.539355 29.216127 24.483447 29.371054 24.432927 29.528675 C 24.381734 29.685623 24.33593 29.843917 24.29484 30.004233 C 24.253751 30.163875 24.21805 30.324864 24.187065 30.487201 C 24.15608 30.649537 24.129809 30.812547 24.108928 30.976231 C 24.088047 31.139914 24.07188 31.304272 24.061103 31.468629 C 24.050325 31.63366 24.044936 31.79869 24.044263 31.963721 C 24.043589 32.128752 24.048304 32.293783 24.057735 32.458814 C 24.067839 32.623171 24.082658 32.787528 24.102192 32.951885 C 24.121726 33.115569 24.146649 33.278579 24.176961 33.440915 C 24.206599 33.603252 24.241626 33.764915 24.281368 33.92523 C 24.321784 34.084872 24.366241 34.243841 24.416087 34.401462 C 24.465933 34.559083 24.520495 34.714684 24.579771 34.868937 C 24.639047 35.022517 24.703712 35.174749 24.772419 35.324961 C 24.841126 35.475173 24.914548 35.62269 24.992685 35.768186 C 25.070148 35.913683 25.153 36.057159 25.239221 36.197266 C 25.326114 36.338048 25.417723 36.475461 25.5127 36.61018 C 25.608351 36.744899 25.707369 36.876924 25.811103 37.005581 C 25.914836 37.134237 26.021938 37.259526 26.133081 37.381447 C 26.244224 37.503367 26.359409 37.62192 26.477962 37.736431 C 26.596515 37.851616 26.718435 37.962759 26.843724 38.069861 C 26.969686 38.176962 27.098343 38.280696 27.229694 38.379715 C 27.352962 38.476039 27.462758 38.584488 27.560429 38.705735 C 27.658101 38.826982 27.740279 38.958333 27.806965 39.099114 C 27.873651 39.239222 27.923497 39.386066 27.95583 39.538298 C 27.988836 39.690531 28.002981 39.84411 28.000287 39.999711 L 28.000287 42.000288 L 35.999902 42.000288 L 35.999902 39.999711 C 36.000576 39.845458 36.019437 39.693225 36.055137 39.543013 C 36.091511 39.392802 36.144052 39.249326 36.213432 39.111239 C 36.282812 38.973152 36.367012 38.845169 36.46603 38.726616 C 36.565049 38.608063 36.676192 38.502309 36.800133 38.410026 C 37.078328 38.203906 37.342377 37.980946 37.592281 37.740473 C 37.841511 37.500673 38.074575 37.244707 38.290799 36.974595 C 38.507023 36.70381 38.70506 36.4209 38.884237 36.124518 C 39.064086 35.828136 39.223728 35.521651 39.363163 35.204387 C 39.50327 34.887798 39.621823 34.563125 39.719494 34.230369 C 39.816492 33.898286 39.892608 33.560815 39.945822 33.218629 C 39.99971 32.876443 40.031369 32.532236 40.040126 32.186008 C 40.049556 31.83978 40.036084 31.494225 39.99971 31.150018 Z M 39.99971 31.150018 " stroke="#231f20" stroke-width="2" stroke-opacity="1" stroke-miterlimit="4"/><path stroke-linecap="round" transform="matrix(5.799107, 0, 0, 5.799107, 1.888968, 1.888964)" fill="none" stroke-linejoin="round" d="M 28.000287 42.000288 L 35.999902 42.000288 L 35.999902 44.000192 C 35.999902 44.131543 35.987104 44.261547 35.961507 44.390204 C 35.935911 44.51886 35.898189 44.644149 35.84767 44.765396 C 35.797824 44.886643 35.735853 45.001828 35.663105 45.11095 C 35.589683 45.220073 35.506831 45.321112 35.413875 45.414068 C 35.321592 45.507024 35.220553 45.589877 35.11143 45.662625 C 35.001634 45.736047 34.88645 45.797344 34.765203 45.847863 C 34.643955 45.89771 34.518667 45.936104 34.39001 45.961701 C 34.261353 45.987298 34.13135 46.000096 33.999998 46.000096 L 30.000191 46.000096 C 29.86884 46.000096 29.738836 45.987298 29.609506 45.961701 C 29.480849 45.936104 29.356234 45.89771 29.234313 45.847863 C 29.113066 45.797344 28.997881 45.736047 28.888759 45.662625 C 28.779636 45.589877 28.678597 45.507024 28.585641 45.414068 C 28.492685 45.321112 28.409833 45.220073 28.337084 45.11095 C 28.264336 45.001828 28.202365 44.886643 28.152519 44.765396 C 28.102 44.644149 28.064278 44.51886 28.038682 44.390204 C 28.013085 44.261547 28.000287 44.131543 28.000287 44.000192 Z M 28.000287 42.000288 " stroke="#231f20" stroke-width="2" stroke-opacity="1" stroke-miterlimit="4"/><path stroke-linecap="round" transform="matrix(5.799107, 0, 0, 5.799107, 1.888968, 1.888964)" fill="none" stroke-linejoin="round" d="M 32.000095 18.000095 L 32.000095 19.999999 " stroke="#231f20" stroke-width="2" stroke-opacity="1" stroke-miterlimit="4"/><path stroke-linecap="round" transform="matrix(5.799107, 0, 0, 5.799107, 1.888968, 1.888964)" fill="none" stroke-linejoin="round" d="M 22.100267 22.100268 L 23.510102 23.510103 " stroke="#231f20" stroke-width="2" stroke-opacity="1" stroke-miterlimit="4"/><path stroke-linecap="round" transform="matrix(5.799107, 0, 0, 5.799107, 1.888968, 1.888964)" fill="none" stroke-linejoin="round" d="M 18.000094 32.000095 L 19.999998 32.000095 " stroke="#231f20" stroke-width="2" stroke-opacity="1" stroke-miterlimit="4"/><path stroke-linecap="round" transform="matrix(5.799107, 0, 0, 5.799107, 1.888968, 1.888964)" fill="none" stroke-linejoin="round" d="M 22.100267 41.899923 L 23.510102 40.490088 " stroke="#231f20" stroke-width="2" stroke-opacity="1" stroke-miterlimit="4"/><path stroke-linecap="round" transform="matrix(5.799107, 0, 0, 5.799107, 1.888968, 1.888964)" fill="none" stroke-linejoin="round" d="M 41.899922 41.899923 L 40.490087 40.490088 " stroke="#231f20" stroke-width="2" stroke-opacity="1" stroke-miterlimit="4"/><path stroke-linecap="round" transform="matrix(5.799107, 0, 0, 5.799107, 1.888968, 1.888964)" fill="none" stroke-linejoin="round" d="M 46.000095 32.000095 L 44.000191 32.000095 " stroke="#231f20" stroke-width="2" stroke-opacity="1" stroke-miterlimit="4"/><path stroke-linecap="round" transform="matrix(5.799107, 0, 0, 5.799107, 1.888968, 1.888964)" fill="none" stroke-linejoin="round" d="M 41.899922 22.100268 L 40.490087 23.510103 " stroke="#231f20" stroke-width="2" stroke-opacity="1" stroke-miterlimit="4"/><path stroke-linecap="round" transform="matrix(5.799107, 0, 0, 5.799107, 1.888968, 1.888964)" fill="none" stroke-linejoin="round" d="M 32.000095 28.000288 C 32.130772 28.000288 32.26145 28.00635 32.392127 28.019148 C 32.522131 28.031947 32.652135 28.051481 32.780118 28.077078 C 32.908774 28.102674 33.036084 28.134333 33.161373 28.172054 C 33.286661 28.210449 33.409929 28.254233 33.530503 28.304753 C 33.65175 28.354599 33.770303 28.410507 33.885487 28.472478 C 34.001346 28.533775 34.113162 28.601135 34.222285 28.673883 C 34.331407 28.746631 34.436488 28.824768 34.537527 28.90762 C 34.638567 28.991146 34.735564 29.078713 34.82852 29.17167 C 34.920803 29.263952 35.009044 29.36095 35.091896 29.462663 C 35.175422 29.563702 35.252885 29.668783 35.325634 29.777905 C 35.398382 29.886354 35.465741 29.998844 35.527712 30.114703 C 35.589683 30.229887 35.645591 30.34844 35.695437 30.469014 C 35.745957 30.590261 35.789741 30.713529 35.827462 30.838817 C 35.865857 30.964106 35.897516 31.091416 35.923112 31.219399 C 35.948709 31.348055 35.96757 31.477386 35.981042 31.608063 C 35.99384 31.738067 35.999902 31.868744 35.999902 32.000095 " stroke="#231f20" stroke-width="2" stroke-opacity="1" stroke-miterlimit="4"/><g clip-path="url(#baea5c0b56)"><path stroke-linecap="round" transform="matrix(5.799107, 0, 0, 5.799107, 1.888968, 1.888964)" fill="none" stroke-linejoin="miter" d="M 35.000287 7.999902 C 35.000287 8.098247 34.994898 8.196592 34.985468 8.294263 C 34.976038 8.391934 34.961219 8.488932 34.942358 8.585256 C 34.923497 8.68158 34.899248 8.776557 34.870957 8.87086 C 34.841992 8.965164 34.808986 9.057446 34.771938 9.148382 C 34.734217 9.238643 34.691781 9.327558 34.645976 9.414452 C 34.599498 9.500672 34.548978 9.584871 34.494417 9.666376 C 34.439856 9.748555 34.381253 9.827365 34.319283 9.903482 C 34.256638 9.978924 34.190626 10.051673 34.121246 10.121053 C 34.051865 10.191107 33.979117 10.256446 33.903001 10.31909 C 33.827558 10.381061 33.748074 10.439663 33.666569 10.494225 C 33.585064 10.548786 33.500865 10.599305 33.413971 10.645783 C 33.327751 10.692262 33.238836 10.734024 33.147901 10.771746 C 33.056965 10.809467 32.964683 10.842473 32.871053 10.870764 C 32.77675 10.899055 32.681773 10.923305 32.585449 10.942165 C 32.489125 10.9617 32.392127 10.975845 32.293782 10.985275 C 32.196111 10.995379 32.09844 11.000095 32.000095 11.000095 C 31.90175 11.000095 31.803405 10.995379 31.705734 10.985275 C 31.608062 10.975845 31.511065 10.9617 31.41474 10.942165 C 31.318416 10.923305 31.223439 10.899055 31.129136 10.870764 C 31.034833 10.842473 30.94255 10.809467 30.851615 10.771746 C 30.761353 10.734024 30.672439 10.692262 30.585545 10.645783 C 30.499325 10.599305 30.415125 10.548786 30.33362 10.494225 C 30.251442 10.439663 30.172631 10.381061 30.096515 10.31909 C 30.021072 10.256446 29.948324 10.191107 29.878944 10.121053 C 29.80889 10.051673 29.743551 9.978924 29.680907 9.903482 C 29.618936 9.827365 29.560333 9.748555 29.505772 9.666376 C 29.451211 9.584871 29.400691 9.500672 29.354213 9.414452 C 29.307735 9.327558 29.265972 9.238643 29.228251 9.148382 C 29.190529 9.057446 29.157523 8.965164 29.129232 8.87086 C 29.100941 8.776557 29.076692 8.68158 29.057831 8.585256 C 29.038297 8.488932 29.024151 8.391934 29.014721 8.294263 C 29.004617 8.196592 28.999902 8.098247 28.999902 7.999902 C 28.999902 7.901557 29.004617 7.803886 29.014721 7.706214 C 29.024151 7.60787 29.038297 7.510872 29.057831 7.414548 C 29.076692 7.318224 29.100941 7.223247 29.129232 7.128943 C 29.157523 7.035314 29.190529 6.943031 29.228251 6.852096 C 29.265972 6.761161 29.307735 6.672246 29.354213 6.586026 C 29.400691 6.499132 29.451211 6.414933 29.505772 6.333428 C 29.560333 6.251923 29.618936 6.172438 29.680907 6.096996 C 29.743551 6.02088 29.80889 5.948131 29.878944 5.878751 C 29.948324 5.809371 30.021072 5.743358 30.096515 5.680714 C 30.172631 5.618743 30.251442 5.56014 30.33362 5.505579 C 30.415125 5.451018 30.499325 5.400498 30.585545 5.35402 C 30.672439 5.308216 30.761353 5.265779 30.851615 5.228058 C 30.94255 5.19101 31.034833 5.158004 31.129136 5.12904 C 31.223439 5.100749 31.318416 5.076499 31.41474 5.057639 C 31.511065 5.038778 31.608062 5.023959 31.705734 5.014528 C 31.803405 5.005098 31.90175 4.999709 32.000095 4.999709 C 32.09844 4.999709 32.196111 5.005098 32.293782 5.014528 C 32.392127 5.023959 32.489125 5.038778 32.585449 5.057639 C 32.681773 5.076499 32.77675 5.100749 32.871053 5.12904 C 32.964683 5.158004 33.056965 5.19101 33.147901 5.228058 C 33.238836 5.265779 33.327751 5.308216 33.413971 5.35402 C 33.500865 5.400498 33.585064 5.451018 33.666569 5.505579 C 33.748074 5.56014 33.827558 5.618743 33.903001 5.680714 C 33.979117 5.743358 34.051865 5.809371 34.121246 5.878751 C 34.190626 5.948131 34.256638 6.02088 34.319283 6.096996 C 34.381253 6.172438 34.439856 6.251923 34.494417 6.333428 C 34.548978 6.414933 34.599498 6.499132 34.645976 6.586026 C 34.691781 6.672246 34.734217 6.761161 34.771938 6.852096 C 34.808986 6.943031 34.841992 7.035314 34.870957 7.128943 C 34.899248 7.223247 34.923497 7.318224 34.942358 7.414548 C 34.961219 7.510872 34.976038 7.60787 34.985468 7.706214 C 34.994898 7.803886 35.000287 7.901557 35.000287 7.999902 Z M 35.000287 7.999902 " stroke="#231f20" stroke-width="2" stroke-opacity="1" stroke-miterlimit="10"/></g><g clip-path="url(#931ec516a1)"><path stroke-linecap="round" transform="matrix(5.799107, 0, 0, 5.799107, 1.888968, 1.888964)" fill="none" stroke-linejoin="miter" d="M 18.999709 15.030214 C 18.999709 15.160218 18.993647 15.289548 18.980849 15.418878 C 18.96805 15.548209 18.94919 15.676865 18.923593 15.804175 C 18.89867 15.932158 18.867011 16.05812 18.82929 16.182735 C 18.791568 16.306677 18.747785 16.429271 18.697939 16.549171 C 18.648093 16.669071 18.592184 16.78695 18.530887 16.901461 C 18.470263 17.015972 18.402904 17.127789 18.330829 17.235564 C 18.258755 17.344013 18.181291 17.447747 18.099113 17.548786 C 18.01626 17.649152 17.929367 17.745476 17.837084 17.837085 C 17.745475 17.929367 17.649151 18.016261 17.548785 18.099113 C 17.447746 18.181292 17.344012 18.258755 17.235564 18.33083 C 17.127788 18.402905 17.015972 18.470264 16.90146 18.531561 C 16.786949 18.592185 16.66907 18.648093 16.54917 18.697939 C 16.42927 18.747785 16.306676 18.791569 16.182734 18.82929 C 16.058119 18.867012 15.932157 18.898671 15.804174 18.923594 C 15.676865 18.94919 15.548208 18.968051 15.418878 18.980849 C 15.289547 18.993648 15.160217 18.99971 15.030213 18.99971 C 14.900209 18.99971 14.770206 18.993648 14.640875 18.980849 C 14.511545 18.968051 14.382888 18.94919 14.255579 18.923594 C 14.128269 18.898671 14.002307 18.867012 13.877692 18.82929 C 13.753077 18.791569 13.631156 18.747785 13.510583 18.697939 C 13.390683 18.648093 13.273477 18.592185 13.158292 18.530888 C 13.043781 18.470264 12.932638 18.402905 12.824189 18.33083 C 12.716414 18.258755 12.612007 18.181292 12.511641 18.099113 C 12.411275 18.016261 12.314951 17.929367 12.222669 17.837085 C 12.13106 17.745476 12.043493 17.649152 11.961314 17.548786 C 11.878462 17.447747 11.800998 17.344013 11.728924 17.235564 C 11.656849 17.127789 11.590163 17.015972 11.528866 16.901461 C 11.467569 16.78695 11.41166 16.669071 11.362488 16.549171 C 11.312642 16.429271 11.268858 16.306677 11.231137 16.182735 C 11.193416 16.05812 11.161757 15.932158 11.13616 15.804175 C 11.111237 15.676865 11.091703 15.548209 11.078904 15.418878 C 11.066106 15.289548 11.060044 15.160218 11.060044 15.030214 C 11.060044 14.90021 11.066106 14.770206 11.078904 14.640876 C 11.091703 14.511546 11.111237 14.382889 11.13616 14.25558 C 11.161757 14.12827 11.193416 14.002308 11.231137 13.877693 C 11.268858 13.753078 11.312642 13.631157 11.362488 13.510583 C 11.41166 13.390684 11.467569 13.273478 11.528866 13.158293 C 11.590163 13.043782 11.656849 12.932639 11.728924 12.82419 C 11.800998 12.716415 11.878462 12.612008 11.961314 12.511642 C 12.043493 12.411276 12.13106 12.314952 12.222669 12.22267 C 12.314951 12.131061 12.411275 12.043493 12.511641 11.961315 C 12.612007 11.878463 12.716414 11.800999 12.824189 11.728924 C 12.932638 11.65685 13.043781 11.590164 13.158292 11.528867 C 13.273477 11.46757 13.390683 11.411661 13.510583 11.362489 C 13.631156 11.312643 13.753077 11.268859 13.877692 11.231138 C 14.002307 11.193416 14.128269 11.161757 14.255579 11.136161 C 14.382888 11.111238 14.511545 11.091703 14.640875 11.078905 C 14.770206 11.066107 14.900209 11.060044 15.030213 11.060044 C 15.160217 11.060044 15.289547 11.066107 15.418878 11.078905 C 15.548208 11.091703 15.676865 11.111238 15.804174 11.136161 C 15.932157 11.161757 16.058119 11.193416 16.182734 11.231138 C 16.306676 11.268859 16.42927 11.312643 16.54917 11.362489 C 16.66907 11.411661 16.786949 11.46757 16.90146 11.528867 C 17.015972 11.590164 17.127788 11.65685 17.235564 11.728924 C 17.344012 11.800999 17.447746 11.878463 17.548785 11.961315 C 17.649151 12.043493 17.745475 12.131061 17.837084 12.22267 C 17.929367 12.314952 18.01626 12.411276 18.099113 12.511642 C 18.181291 12.612008 18.258755 12.716415 18.330829 12.82419 C 18.402904 12.932639 18.470263 13.043782 18.531561 13.158293 C 18.592184 13.273478 18.648093 13.390684 18.697939 13.510583 C 18.747785 13.631157 18.791568 13.753078 18.82929 13.877693 C 18.867011 14.002308 18.89867 14.12827 18.923593 14.25558 C 18.94919 14.382889 18.96805 14.511546 18.980849 14.640876 C 18.993647 14.770206 18.999709 14.90021 18.999709 15.030214 Z M 18.999709 15.030214 " stroke="#231f20" stroke-width="2" stroke-opacity="1" stroke-miterlimit="10"/></g><g clip-path="url(#03179c71b7)"><path stroke-linecap="round" transform="matrix(5.799107, 0, 0, 5.799107, 1.888968, 1.888964)" fill="none" stroke-linejoin="miter" d="M 11.000094 32.000095 C 11.000094 32.09844 10.995379 32.196112 10.985275 32.293783 C 10.975844 32.392128 10.961699 32.489125 10.942165 32.58545 C 10.923304 32.681774 10.899054 32.776751 10.870763 32.871054 C 10.842472 32.964684 10.809466 33.056966 10.771745 33.147901 C 10.734024 33.238837 10.692261 33.327751 10.645783 33.413972 C 10.599305 33.500865 10.548785 33.585065 10.494224 33.66657 C 10.439663 33.748075 10.38106 33.827559 10.319089 33.903002 C 10.256445 33.979118 10.191106 34.051866 10.121052 34.121246 C 10.051672 34.190627 9.978924 34.256639 9.903481 34.319283 C 9.827365 34.381254 9.748554 34.439857 9.666375 34.494418 C 9.58487 34.548979 9.500671 34.599499 9.414451 34.645977 C 9.327557 34.691781 9.238643 34.734218 9.148381 34.771939 C 9.057445 34.808987 8.965163 34.841993 8.87086 34.870958 C 8.776556 34.899249 8.681579 34.923498 8.585255 34.942359 C 8.488931 34.961219 8.391934 34.976039 8.294262 34.985469 C 8.196591 34.994899 8.098246 35.000288 7.999901 35.000288 C 7.901556 35.000288 7.803885 34.994899 7.706214 34.985469 C 7.607869 34.976039 7.510871 34.961219 7.414547 34.942359 C 7.318223 34.923498 7.223246 34.899249 7.128943 34.870958 C 7.035313 34.841993 6.94303 34.808987 6.852095 34.771939 C 6.76116 34.734218 6.672245 34.691781 6.586025 34.645977 C 6.499131 34.599499 6.414932 34.548979 6.333427 34.494418 C 6.251922 34.439857 6.172438 34.381254 6.096995 34.319283 C 6.020879 34.256639 5.94813 34.190627 5.87875 34.121246 C 5.80937 34.051866 5.743358 33.979118 5.680713 33.903002 C 5.618742 33.827559 5.56014 33.748075 5.505578 33.66657 C 5.451017 33.585065 5.400498 33.500865 5.35402 33.413972 C 5.308215 33.327751 5.265779 33.238837 5.228057 33.147901 C 5.19101 33.056966 5.158003 32.964684 5.129039 32.871054 C 5.100748 32.776751 5.076498 32.681774 5.057638 32.58545 C 5.038777 32.489125 5.023958 32.392128 5.014528 32.293783 C 5.005097 32.196112 4.999709 32.09844 4.999709 32.000095 C 4.999709 31.901751 5.005097 31.803406 5.014528 31.705734 C 5.023958 31.608063 5.038777 31.511065 5.057638 31.414741 C 5.076498 31.318417 5.100748 31.22344 5.129039 31.129137 C 5.158003 31.034834 5.19101 30.942551 5.228057 30.851616 C 5.265779 30.761354 5.308215 30.672439 5.35402 30.585546 C 5.400498 30.499326 5.451017 30.415126 5.505578 30.332948 C 5.56014 30.251443 5.618742 30.172632 5.680713 30.096516 C 5.743358 30.021073 5.80937 29.948325 5.87875 29.878944 C 5.94813 29.808891 6.020879 29.743552 6.096995 29.680907 C 6.172438 29.618937 6.251922 29.560334 6.333427 29.505773 C 6.414932 29.451212 6.499131 29.400692 6.586025 29.354214 C 6.672245 29.307736 6.76116 29.265973 6.852095 29.228252 C 6.94303 29.19053 7.035313 29.157524 7.128943 29.129233 C 7.223246 29.100942 7.318223 29.076693 7.414547 29.057832 C 7.510871 29.038298 7.607869 29.024152 7.706214 29.014722 C 7.803885 29.004618 7.901556 28.999903 7.999901 28.999903 C 8.098246 28.999903 8.196591 29.004618 8.294262 29.014722 C 8.391934 29.024152 8.488931 29.038298 8.585255 29.057832 C 8.681579 29.076693 8.776556 29.100942 8.87086 29.129233 C 8.965163 29.157524 9.057445 29.19053 9.148381 29.228252 C 9.238643 29.265973 9.327557 29.307736 9.414451 29.354214 C 9.500671 29.400692 9.58487 29.451212 9.666375 29.505773 C 9.748554 29.560334 9.827365 29.618937 9.903481 29.680907 C 9.978924 29.743552 10.051672 29.808891 10.121052 29.878944 C 10.191106 29.948325 10.256445 30.021073 10.319089 30.096516 C 10.38106 30.172632 10.439663 30.251443 10.494224 30.332948 C 10.548785 30.415126 10.599305 30.499326 10.645783 30.585546 C 10.692261 30.672439 10.734024 30.761354 10.771745 30.851616 C 10.809466 30.942551 10.842472 31.034834 10.870763 31.129137 C 10.899054 31.22344 10.923304 31.318417 10.942165 31.414741 C 10.961699 31.511065 10.975844 31.608063 10.985275 31.705734 C 10.995379 31.803406 11.000094 31.901751 11.000094 32.000095 Z M 11.000094 32.000095 " stroke="#231f20" stroke-width="2" stroke-opacity="1" stroke-miterlimit="10"/></g><g clip-path="url(#38e3bc7bd8)"><path stroke-linecap="round" transform="matrix(5.799107, 0, 0, 5.799107, 1.888968, 1.888964)" fill="none" stroke-linejoin="miter" d="M 18.999709 48.969977 C 18.999709 49.099981 18.993647 49.229984 18.980849 49.359315 C 18.96805 49.488645 18.94919 49.617302 18.923593 49.744611 C 18.89867 49.871921 18.867011 49.997883 18.82929 50.122498 C 18.791568 50.247113 18.747785 50.369034 18.697939 50.488934 C 18.648093 50.609507 18.592184 50.726713 18.530887 50.841224 C 18.470263 50.956409 18.402904 51.067552 18.330829 51.175327 C 18.258755 51.283776 18.181291 51.388183 18.099113 51.488549 C 18.01626 51.588915 17.929367 51.685239 17.837084 51.777521 C 17.745475 51.86913 17.649151 51.956697 17.548785 52.038876 C 17.447746 52.121055 17.344012 52.198518 17.235564 52.271266 C 17.127788 52.343341 17.015972 52.410027 16.90146 52.471324 C 16.786949 52.532621 16.66907 52.587856 16.54917 52.637702 C 16.42927 52.687548 16.306676 52.731332 16.182734 52.769053 C 16.058119 52.806774 15.932157 52.838433 15.804174 52.86403 C 15.676865 52.888953 15.548208 52.907814 15.418878 52.920612 C 15.289547 52.93341 15.160217 52.940146 15.030213 52.940146 C 14.900209 52.940146 14.770206 52.93341 14.640875 52.920612 C 14.511545 52.907814 14.382888 52.888953 14.255579 52.86403 C 14.128269 52.838433 14.002307 52.806774 13.877692 52.769053 C 13.753077 52.731332 13.631156 52.687548 13.510583 52.637702 C 13.390683 52.587856 13.273477 52.532621 13.158292 52.471324 C 13.043781 52.410027 12.932638 52.343341 12.824189 52.270593 C 12.716414 52.198518 12.612007 52.121055 12.511641 52.038876 C 12.411275 51.956697 12.314951 51.86913 12.222669 51.777521 C 12.13106 51.685239 12.043493 51.588915 11.961314 51.488549 C 11.878462 51.388183 11.800998 51.283776 11.728924 51.175327 C 11.656849 51.067552 11.590163 50.956409 11.528866 50.841224 C 11.467569 50.726713 11.41166 50.609507 11.362488 50.488934 C 11.312642 50.369034 11.268858 50.247113 11.231137 50.122498 C 11.193416 49.997883 11.161757 49.871921 11.13616 49.744611 C 11.111237 49.617302 11.091703 49.488645 11.078904 49.359315 C 11.066106 49.229984 11.060044 49.099981 11.060044 48.969977 C 11.060044 48.839973 11.066106 48.709969 11.078904 48.580639 C 11.091703 48.451309 11.111237 48.323325 11.13616 48.195342 C 11.161757 48.068033 11.193416 47.942071 11.231137 47.817456 C 11.268858 47.69284 11.312642 47.57092 11.362488 47.45102 C 11.41166 47.330446 11.467569 47.213241 11.528866 47.09873 C 11.590163 46.983545 11.656849 46.872402 11.728924 46.764626 C 11.800998 46.656178 11.878462 46.55177 11.961314 46.451405 C 12.043493 46.351039 12.13106 46.254715 12.222669 46.163106 C 12.314951 46.070823 12.411275 45.98393 12.511641 45.901078 C 12.612007 45.818899 12.716414 45.741435 12.824189 45.669361 C 12.932638 45.596613 13.043781 45.529927 13.158292 45.468629 C 13.273477 45.407332 13.390683 45.352097 13.510583 45.302251 C 13.631156 45.252405 13.753077 45.208622 13.877692 45.1709 C 14.002307 45.133179 14.128269 45.10152 14.255579 45.076597 C 14.382888 45.051 14.511545 45.03214 14.640875 45.019342 C 14.770206 45.006543 14.900209 44.999807 15.030213 44.999807 C 15.160217 44.999807 15.289547 45.006543 15.418878 45.019342 C 15.548208 45.03214 15.676865 45.051 15.804174 45.076597 C 15.932157 45.10152 16.058119 45.133179 16.182734 45.1709 C 16.306676 45.208622 16.42927 45.252405 16.54917 45.302251 C 16.66907 45.352097 16.786949 45.407332 16.90146 45.468629 C 17.015972 45.529927 17.127788 45.596613 17.235564 45.669361 C 17.344012 45.741435 17.447746 45.818899 17.548785 45.901078 C 17.649151 45.98393 17.745475 46.070823 17.837084 46.163106 C 17.929367 46.254715 18.01626 46.351039 18.099113 46.451405 C 18.181291 46.55177 18.258755 46.656178 18.330829 46.764626 C 18.402904 46.872402 18.470263 46.983545 18.531561 47.09873 C 18.592184 47.213241 18.648093 47.330446 18.697939 47.45102 C 18.747785 47.57092 18.791568 47.69284 18.82929 47.817456 C 18.867011 47.942071 18.89867 48.068033 18.923593 48.195342 C 18.94919 48.323325 18.96805 48.451309 18.980849 48.580639 C 18.993647 48.709969 18.999709 48.839973 18.999709 48.969977 Z M 18.999709 48.969977 " stroke="#231f20" stroke-width="2" stroke-opacity="1" stroke-miterlimit="10"/></g><g clip-path="url(#c565b979b9)"><path stroke-linecap="round" transform="matrix(5.799107, 0, 0, 5.799107, 1.888968, 1.888964)" fill="none" stroke-linejoin="miter" d="M 35.000287 56.000289 C 35.000287 56.09796 34.994898 56.196305 34.985468 56.293976 C 34.976038 56.391648 34.961219 56.488645 34.942358 56.584969 C 34.923497 56.681294 34.899248 56.776944 34.870957 56.870574 C 34.841992 56.964877 34.808986 57.05716 34.771938 57.148095 C 34.734217 57.23903 34.691781 57.327271 34.645976 57.414165 C 34.599498 57.501059 34.548978 57.585258 34.494417 57.666763 C 34.439856 57.748268 34.381253 57.827079 34.319283 57.903195 C 34.256638 57.979311 34.190626 58.05206 34.121246 58.12144 C 34.051865 58.19082 33.979117 58.256832 33.903001 58.318803 C 33.827558 58.381448 33.748074 58.44005 33.666569 58.494612 C 33.585064 58.549173 33.500865 58.599692 33.413971 58.645497 C 33.327751 58.691975 33.238836 58.733738 33.147901 58.771459 C 33.056965 58.80918 32.964683 58.842187 32.871053 58.871151 C 32.77675 58.899442 32.681773 58.923018 32.585449 58.942552 C 32.489125 58.961413 32.392127 58.976232 32.293782 58.985662 C 32.196111 58.995093 32.09844 58.999808 32.000095 58.999808 C 31.90175 58.999808 31.803405 58.995093 31.705734 58.985662 C 31.608062 58.976232 31.511065 58.961413 31.41474 58.942552 C 31.318416 58.923018 31.223439 58.899442 31.129136 58.871151 C 31.034833 58.842187 30.94255 58.80918 30.851615 58.771459 C 30.761353 58.733738 30.672439 58.691975 30.585545 58.645497 C 30.499325 58.599692 30.415125 58.549173 30.33362 58.494612 C 30.251442 58.44005 30.172631 58.381448 30.096515 58.318803 C 30.021072 58.256832 29.948324 58.19082 29.878944 58.12144 C 29.80889 58.05206 29.743551 57.979311 29.680907 57.903195 C 29.618936 57.827079 29.560333 57.748268 29.505772 57.666763 C 29.451211 57.585258 29.400691 57.501059 29.354213 57.414165 C 29.307735 57.327271 29.265972 57.23903 29.228251 57.148095 C 29.190529 57.05716 29.157523 56.964877 29.129232 56.870574 C 29.100941 56.776944 29.076692 56.681967 29.057831 56.584969 C 29.038297 56.488645 29.024151 56.391648 29.014721 56.293976 C 29.004617 56.196305 28.999902 56.09796 28.999902 56.000289 C 28.999902 55.901944 29.004617 55.803599 29.014721 55.705928 C 29.024151 55.608257 29.038297 55.511259 29.057831 55.414935 C 29.076692 55.318611 29.100941 55.22296 29.129232 55.12933 C 29.157523 55.035027 29.190529 54.942745 29.228251 54.851809 C 29.265972 54.760874 29.307735 54.672633 29.354213 54.585739 C 29.400691 54.498845 29.451211 54.414646 29.505772 54.333141 C 29.560333 54.251636 29.618936 54.172825 29.680907 54.096709 C 29.743551 54.020593 29.80889 53.947845 29.878944 53.878464 C 29.948324 53.809084 30.021072 53.743072 30.096515 53.681101 C 30.172631 53.618457 30.251442 53.559854 30.33362 53.505293 C 30.415125 53.450731 30.499325 53.400212 30.585545 53.354407 C 30.672439 53.307929 30.761353 53.266166 30.851615 53.228445 C 30.94255 53.190724 31.034833 53.157718 31.129136 53.129427 C 31.223439 53.100462 31.318416 53.076886 31.41474 53.057352 C 31.511065 53.038491 31.608062 53.024346 31.705734 53.014242 C 31.803405 53.004811 31.90175 53.000096 32.000095 53.000096 C 32.09844 53.000096 32.196111 53.004811 32.293782 53.014242 C 32.392127 53.024346 32.489125 53.038491 32.585449 53.057352 C 32.681773 53.076886 32.77675 53.100462 32.871053 53.129427 C 32.964683 53.157718 33.056965 53.190724 33.147901 53.228445 C 33.238836 53.266166 33.327751 53.307929 33.413971 53.354407 C 33.500865 53.400885 33.585064 53.450731 33.666569 53.505293 C 33.748074 53.559854 33.827558 53.618457 33.903001 53.681101 C 33.979117 53.743072 34.051865 53.809084 34.121246 53.878464 C 34.190626 53.947845 34.256638 54.020593 34.319283 54.096709 C 34.381253 54.172825 34.439856 54.251636 34.494417 54.333141 C 34.548978 54.414646 34.599498 54.498845 34.645976 54.585739 C 34.691781 54.672633 34.734217 54.760874 34.771938 54.851809 C 34.808986 54.942745 34.841992 55.035027 34.870957 55.12933 C 34.899248 55.22296 34.923497 55.318611 34.942358 55.414935 C 34.961219 55.511259 34.976038 55.608257 34.985468 55.705928 C 34.994898 55.803599 35.000287 55.901944 35.000287 56.000289 Z M 35.000287 56.000289 " stroke="#231f20" stroke-width="2" stroke-opacity="1" stroke-miterlimit="10"/></g><g clip-path="url(#cc22c355fc)"><path stroke-linecap="round" transform="matrix(5.799107, 0, 0, 5.799107, 1.888968, 1.888964)" fill="none" stroke-linejoin="miter" d="M 52.940146 48.969977 C 52.940146 49.099981 52.93341 49.229984 52.920611 49.359315 C 52.907813 49.488645 52.888952 49.617302 52.864029 49.744611 C 52.838433 49.871921 52.806774 49.997883 52.769052 50.122498 C 52.731331 50.247113 52.687547 50.369034 52.637701 50.488934 C 52.587855 50.609507 52.532621 50.726713 52.471323 50.841224 C 52.410026 50.956409 52.34334 51.067552 52.270592 51.175327 C 52.198517 51.283776 52.121054 51.388183 52.038875 51.488549 C 51.956697 51.588915 51.869129 51.685239 51.77752 51.777521 C 51.685238 51.86913 51.588914 51.956697 51.488548 52.038876 C 51.388182 52.121055 51.283775 52.198518 51.175326 52.271266 C 51.067551 52.343341 50.956408 52.410027 50.841223 52.471324 C 50.726712 52.532621 50.609506 52.587856 50.488933 52.637702 C 50.369033 52.687548 50.247112 52.731332 50.122497 52.769053 C 49.997882 52.806774 49.87192 52.838433 49.74461 52.86403 C 49.617301 52.888953 49.488644 52.907814 49.359314 52.920612 C 49.229984 52.93341 49.09998 52.940146 48.969976 52.940146 C 48.839972 52.940146 48.709968 52.93341 48.580638 52.920612 C 48.451308 52.907814 48.323325 52.888953 48.195342 52.86403 C 48.068032 52.838433 47.94207 52.806774 47.817455 52.769053 C 47.69284 52.731332 47.570919 52.687548 47.451019 52.637702 C 47.330446 52.587856 47.21324 52.532621 47.098729 52.471324 C 46.983544 52.410027 46.872401 52.343341 46.764626 52.270593 C 46.656177 52.198518 46.55177 52.121055 46.451404 52.038876 C 46.351038 51.956697 46.254714 51.86913 46.163105 51.777521 C 46.070823 51.685239 45.983929 51.588915 45.901077 51.488549 C 45.818898 51.388183 45.741435 51.283776 45.66936 51.175327 C 45.596612 51.067552 45.529926 50.956409 45.468629 50.841224 C 45.407332 50.726713 45.352097 50.609507 45.302251 50.488934 C 45.252405 50.369034 45.208621 50.247113 45.1709 50.122498 C 45.133178 49.997883 45.101519 49.871921 45.076596 49.744611 C 45.051 49.617302 45.032139 49.488645 45.019341 49.359315 C 45.006542 49.229984 44.999806 49.099981 44.999806 48.969977 C 44.999806 48.839973 45.006542 48.709969 45.019341 48.580639 C 45.032139 48.451309 45.051 48.323325 45.076596 48.195342 C 45.101519 48.068033 45.133178 47.942071 45.1709 47.817456 C 45.208621 47.69284 45.252405 47.57092 45.302251 47.45102 C 45.352097 47.330446 45.407332 47.213241 45.468629 47.09873 C 45.529926 46.983545 45.596612 46.872402 45.66936 46.764626 C 45.741435 46.656178 45.818898 46.55177 45.901077 46.451405 C 45.983929 46.351039 46.070823 46.254715 46.163105 46.163106 C 46.254714 46.070823 46.351038 45.98393 46.451404 45.901078 C 46.55177 45.818899 46.656177 45.741435 46.764626 45.669361 C 46.872401 45.596613 46.983544 45.529927 47.098729 45.468629 C 47.21324 45.407332 47.330446 45.352097 47.451019 45.302251 C 47.570919 45.252405 47.69284 45.208622 47.817455 45.1709 C 47.94207 45.133179 48.068032 45.10152 48.195342 45.076597 C 48.323325 45.051 48.451308 45.03214 48.580638 45.019342 C 48.709968 45.006543 48.839972 44.999807 48.969976 44.999807 C 49.09998 44.999807 49.229984 45.006543 49.359314 45.019342 C 49.488644 45.03214 49.617301 45.051 49.74461 45.076597 C 49.87192 45.10152 49.997882 45.133179 50.122497 45.1709 C 50.247112 45.208622 50.369033 45.252405 50.488933 45.302251 C 50.609506 45.352097 50.726712 45.407332 50.841223 45.468629 C 50.956408 45.529927 51.067551 45.596613 51.175326 45.669361 C 51.283775 45.741435 51.388182 45.818899 51.488548 45.901078 C 51.588914 45.98393 51.685238 46.070823 51.77752 46.163106 C 51.869129 46.254715 51.956697 46.351039 52.038875 46.451405 C 52.121054 46.55177 52.198517 46.656178 52.271266 46.764626 C 52.34334 46.872402 52.410026 46.983545 52.471323 47.09873 C 52.532621 47.213241 52.587855 47.330446 52.637701 47.45102 C 52.687547 47.57092 52.731331 47.69284 52.769052 47.817456 C 52.806774 47.942071 52.838433 48.068033 52.864029 48.195342 C 52.888952 48.323325 52.907813 48.451309 52.920611 48.580639 C 52.93341 48.709969 52.940146 48.839973 52.940146 48.969977 Z M 52.940146 48.969977 " stroke="#231f20" stroke-width="2" stroke-opacity="1" stroke-miterlimit="10"/></g><g clip-path="url(#d12b0637eb)"><path stroke-linecap="round" transform="matrix(5.799107, 0, 0, 5.799107, 1.888968, 1.888964)" fill="none" stroke-linejoin="miter" d="M 58.999807 32.000095 C 58.999807 32.09844 58.995092 32.196112 58.985662 32.293783 C 58.976231 32.392128 58.961412 32.489125 58.942551 32.58545 C 58.923017 32.681774 58.899441 32.776751 58.87115 32.871054 C 58.842186 32.964684 58.80918 33.056966 58.771458 33.147901 C 58.733737 33.238837 58.691974 33.327751 58.645496 33.413972 C 58.599692 33.500865 58.549172 33.585065 58.494611 33.66657 C 58.44005 33.748075 58.381447 33.827559 58.318802 33.903002 C 58.256832 33.979118 58.190819 34.051866 58.121439 34.121246 C 58.052059 34.190627 57.97931 34.256639 57.903194 34.319283 C 57.827078 34.381254 57.748267 34.439857 57.666762 34.494418 C 57.585257 34.548979 57.501058 34.599499 57.414164 34.645977 C 57.32727 34.691781 57.239029 34.734218 57.148094 34.771939 C 57.057159 34.808987 56.964876 34.841993 56.870573 34.870958 C 56.776943 34.899249 56.681966 34.923498 56.584969 34.942359 C 56.488645 34.961219 56.391647 34.976039 56.293976 34.985469 C 56.196304 34.994899 56.097959 35.000288 56.000288 35.000288 C 55.901943 35.000288 55.803598 34.994899 55.705927 34.985469 C 55.608256 34.976039 55.511258 34.961219 55.414934 34.942359 C 55.31861 34.923498 55.222959 34.899249 55.12933 34.870958 C 55.035026 34.841993 54.942744 34.808987 54.851808 34.771939 C 54.760873 34.734218 54.672632 34.691781 54.585738 34.645977 C 54.498845 34.599499 54.414645 34.548979 54.33314 34.494418 C 54.251635 34.439857 54.172825 34.381254 54.096708 34.319283 C 54.020592 34.256639 53.947844 34.190627 53.878464 34.121246 C 53.809083 34.051866 53.743071 33.979118 53.6811 33.903002 C 53.618456 33.827559 53.559853 33.748075 53.505292 33.66657 C 53.450731 33.585065 53.400211 33.500865 53.354407 33.413972 C 53.307928 33.327751 53.266166 33.238837 53.228444 33.147901 C 53.190723 33.056966 53.157717 32.964684 53.129426 32.871054 C 53.100461 32.776751 53.076885 32.681774 53.057351 32.58545 C 53.03849 32.489125 53.024345 32.392128 53.014241 32.293783 C 53.004811 32.196112 53.000096 32.09844 53.000096 32.000095 C 53.000096 31.901751 53.004811 31.803406 53.014241 31.705734 C 53.024345 31.608063 53.03849 31.511065 53.057351 31.414741 C 53.076885 31.318417 53.100461 31.22344 53.129426 31.129137 C 53.157717 31.034834 53.190723 30.942551 53.228444 30.851616 C 53.266166 30.761354 53.307928 30.672439 53.354407 30.585546 C 53.400211 30.499326 53.450731 30.415126 53.505292 30.332948 C 53.559853 30.251443 53.618456 30.172632 53.6811 30.096516 C 53.743071 30.021073 53.809083 29.948325 53.878464 29.878944 C 53.947844 29.808891 54.020592 29.743552 54.096708 29.680907 C 54.172825 29.618937 54.251635 29.560334 54.33314 29.505773 C 54.414645 29.451212 54.498845 29.400692 54.585738 29.354214 C 54.672632 29.307736 54.760873 29.265973 54.851808 29.228252 C 54.942744 29.19053 55.035026 29.157524 55.12933 29.129233 C 55.222959 29.100942 55.31861 29.076693 55.414934 29.057832 C 55.511258 29.038298 55.608256 29.024152 55.705927 29.014722 C 55.803598 29.004618 55.901943 28.999903 56.000288 28.999903 C 56.097959 28.999903 56.196304 29.004618 56.293976 29.014722 C 56.391647 29.024152 56.488645 29.038298 56.584969 29.057832 C 56.681293 29.076693 56.776943 29.100942 56.870573 29.129233 C 56.964876 29.157524 57.057159 29.19053 57.148094 29.228252 C 57.239029 29.265973 57.32727 29.307736 57.414164 29.354214 C 57.501058 29.400692 57.585257 29.451212 57.666762 29.505773 C 57.748267 29.560334 57.827078 29.618937 57.903194 29.680907 C 57.97931 29.743552 58.052059 29.808891 58.121439 29.878944 C 58.190819 29.948325 58.256832 30.021073 58.318802 30.096516 C 58.381447 30.172632 58.44005 30.251443 58.494611 30.332948 C 58.549172 30.415126 58.599692 30.499326 58.645496 30.585546 C 58.691974 30.672439 58.733737 30.761354 58.771458 30.851616 C 58.80918 30.942551 58.842186 31.034834 58.87115 31.129137 C 58.899441 31.22344 58.923017 31.318417 58.942551 31.414741 C 58.961412 31.511065 58.976231 31.608063 58.985662 31.705734 C 58.995092 31.803406 58.999807 31.901751 58.999807 32.000095 Z M 58.999807 32.000095 " stroke="#231f20" stroke-width="2" stroke-opacity="1" stroke-miterlimit="10"/></g><g clip-path="url(#ab20e1be59)"><path stroke-linecap="round" transform="matrix(5.799107, 0, 0, 5.799107, 1.888968, 1.888964)" fill="none" stroke-linejoin="miter" d="M 53.000096 15.030214 C 53.000096 15.162239 52.99336 15.29359 52.980561 15.424941 C 52.967763 15.556292 52.948229 15.686969 52.922632 15.816299 C 52.897035 15.94563 52.864703 16.073613 52.826308 16.199575 C 52.787913 16.326211 52.743456 16.450152 52.692936 16.572073 C 52.642417 16.693994 52.586508 16.81322 52.523864 16.929752 C 52.461893 17.046284 52.39386 17.159448 52.321112 17.269244 C 52.24769 17.378367 52.168879 17.484795 52.085353 17.586507 C 52.001828 17.688894 51.912913 17.786565 51.819957 17.879521 C 51.726327 17.973151 51.628656 18.061392 51.526269 18.144918 C 51.424557 18.229117 51.318802 18.307254 51.209006 18.380676 C 51.09921 18.454098 50.986046 18.522131 50.869514 18.584102 C 50.753656 18.646073 50.63443 18.702654 50.512509 18.753174 C 50.390588 18.803694 50.265973 18.848151 50.140011 18.886546 C 50.013375 18.924941 49.885392 18.9566 49.756061 18.98287 C 49.626731 19.008467 49.496054 19.027327 49.364703 19.040799 C 49.233352 19.053598 49.102001 19.060333 48.969976 19.060333 C 48.837951 19.060333 48.7066 19.053598 48.575249 19.040799 C 48.443898 19.027327 48.313221 19.008467 48.183891 18.98287 C 48.05456 18.9566 47.926577 18.924941 47.799941 18.886546 C 47.673979 18.848151 47.550038 18.803694 47.427443 18.753174 C 47.305523 18.702654 47.18697 18.646073 47.070438 18.584102 C 46.953906 18.522131 46.840742 18.454098 46.730946 18.380676 C 46.62115 18.307254 46.515395 18.229117 46.413683 18.144918 C 46.311296 18.061392 46.213625 17.973151 46.120669 17.879521 C 46.027039 17.786565 45.938798 17.688894 45.854599 17.586507 C 45.771073 17.484795 45.692262 17.378367 45.619514 17.269244 C 45.546092 17.159448 45.478059 17.046284 45.416088 16.929752 C 45.353444 16.81322 45.297536 16.693994 45.247016 16.572073 C 45.196496 16.450152 45.152039 16.326211 45.113644 16.199575 C 45.075249 16.073613 45.042917 15.94563 45.01732 15.816299 C 44.991723 15.686969 44.972189 15.556292 44.959391 15.424941 C 44.946592 15.29359 44.939857 15.162239 44.939857 15.030214 C 44.939857 14.898189 44.946592 14.766165 44.959391 14.634814 C 44.972189 14.503463 44.991723 14.373459 45.01732 14.243455 C 45.042917 14.114125 45.075249 13.986142 45.113644 13.860179 C 45.152039 13.733543 45.196496 13.609602 45.247016 13.487681 C 45.297536 13.365761 45.353444 13.246534 45.416088 13.130002 C 45.478059 13.014144 45.546092 12.90098 45.619514 12.791184 C 45.692262 12.681388 45.771073 12.575633 45.854599 12.473247 C 45.938798 12.371534 46.027039 12.273863 46.120669 12.180233 C 46.213625 12.087277 46.311296 11.998362 46.413683 11.914837 C 46.515395 11.831311 46.62115 11.7525 46.730946 11.679078 C 46.840742 11.605657 46.953906 11.538297 47.070438 11.475653 C 47.18697 11.413682 47.305523 11.3571 47.427443 11.30658 C 47.550038 11.256061 47.673979 11.211603 47.799941 11.173208 C 47.926577 11.135487 48.05456 11.103155 48.183891 11.077558 C 48.313221 11.051961 48.443898 11.032427 48.575249 11.019629 C 48.7066 11.006157 48.837951 11.000095 48.969976 11.000095 C 49.102001 11.000095 49.233352 11.006157 49.364703 11.019629 C 49.496054 11.032427 49.626731 11.051961 49.756061 11.077558 C 49.885392 11.103155 50.013375 11.135487 50.140011 11.173208 C 50.265973 11.211603 50.390588 11.256061 50.512509 11.30658 C 50.63443 11.3571 50.753656 11.413682 50.869514 11.475653 C 50.986046 11.538297 51.09921 11.605657 51.209006 11.679078 C 51.318802 11.7525 51.424557 11.831311 51.526943 11.914837 C 51.628656 11.998362 51.726327 12.087277 51.819957 12.180233 C 51.912913 12.273863 52.001828 12.371534 52.085353 12.473247 C 52.168879 12.575633 52.24769 12.681388 52.321112 12.791184 C 52.39386 12.90098 52.461893 13.014144 52.523864 13.130002 C 52.586508 13.246534 52.642417 13.365761 52.692936 13.487681 C 52.743456 13.609602 52.787913 13.733543 52.826308 13.860179 C 52.864703 13.986142 52.897035 14.114125 52.922632 14.243455 C 52.948229 14.373459 52.967763 14.503463 52.980561 14.634814 C 52.99336 14.766165 53.000096 14.898189 53.000096 15.030214 Z M 53.000096 15.030214 " stroke="#231f20" stroke-width="2" stroke-opacity="1" stroke-miterlimit="10"/></g></svg>