<svg xmlns="http://www.w3.org/2000/svg" xmlns:xlink="http://www.w3.org/1999/xlink" width="500" zoomAndPan="magnify" viewBox="0 0 375 374.999991" height="500" preserveAspectRatio="xMidYMid meet" version="1.0"><defs><clipPath id="7ce23dcc5b"><path d="M 19.242188 51.058594 L 355.992188 51.058594 L 355.992188 324 L 19.242188 324 Z M 19.242188 51.058594 " clip-rule="nonzero"/></clipPath></defs><g clip-path="url(#7ce23dcc5b)"><path fill="#0cc0df" d="M 333.539062 51.125 L 41.457031 51.125 C 29.207031 51.125 19.242188 61.089844 19.242188 73.34375 L 19.242188 301.65625 C 19.242188 313.90625 29.207031 323.871094 41.457031 323.871094 L 333.539062 323.871094 C 345.789062 323.871094 355.757812 313.90625 355.757812 301.65625 L 355.757812 73.34375 C 355.757812 61.089844 345.789062 51.125 333.539062 51.125 Z M 147.105469 77.027344 C 151.753906 77.027344 155.535156 80.804688 155.535156 85.457031 C 155.535156 90.105469 151.753906 93.886719 147.105469 93.886719 C 142.453125 93.886719 138.671875 90.105469 138.671875 85.457031 C 138.671875 80.804688 142.453125 77.027344 147.105469 77.027344 Z M 109.195312 77.027344 C 113.847656 77.027344 117.625 80.804688 117.625 85.457031 C 117.625 90.105469 113.847656 93.886719 109.195312 93.886719 C 104.546875 93.886719 100.765625 90.105469 100.765625 85.457031 C 100.765625 80.804688 104.546875 77.027344 109.195312 77.027344 Z M 71.289062 77.027344 C 75.9375 77.027344 79.71875 80.804688 79.71875 85.457031 C 79.71875 90.105469 75.9375 93.886719 71.289062 93.886719 C 66.640625 93.886719 62.859375 90.105469 62.859375 85.457031 C 62.859375 80.804688 66.640625 77.027344 71.289062 77.027344 Z M 335.007812 301.65625 C 335.007812 302.4375 334.320312 303.125 333.539062 303.125 L 41.457031 303.125 C 40.675781 303.125 39.988281 302.4375 39.988281 301.65625 L 39.988281 118.222656 L 335.007812 118.222656 Z M 335.007812 301.65625 " fill-opacity="1" fill-rule="nonzero"/></g><path fill="#0cc0df" d="M 105.707031 270.472656 C 133.113281 270.472656 155.410156 248.171875 155.410156 220.769531 C 155.410156 219.675781 154.519531 218.785156 153.425781 218.785156 L 107.695312 218.785156 L 107.695312 173.050781 C 107.695312 171.957031 106.804688 171.066406 105.707031 171.066406 C 78.304688 171.066406 56.007812 193.367188 56.007812 220.769531 C 56.007812 248.171875 78.304688 270.472656 105.707031 270.472656 Z M 105.707031 270.472656 " fill-opacity="1" fill-rule="nonzero"/><path fill="#0cc0df" d="M 118.863281 209.59375 L 166.582031 209.59375 C 167.675781 209.59375 168.566406 208.703125 168.566406 207.609375 C 168.566406 180.203125 146.265625 157.90625 118.863281 157.90625 C 117.769531 157.90625 116.878906 158.796875 116.878906 159.890625 L 116.878906 207.609375 C 116.878906 208.703125 117.769531 209.59375 118.863281 209.59375 Z M 118.863281 209.59375 " fill-opacity="1" fill-rule="nonzero"/><path fill="#0cc0df" d="M 240.464844 158.53125 L 264.925781 158.53125 C 265.1875 158.53125 265.441406 158.582031 265.683594 158.683594 C 265.929688 158.785156 266.140625 158.925781 266.328125 159.113281 C 266.515625 159.300781 266.65625 159.511719 266.757812 159.757812 C 266.859375 160 266.910156 160.253906 266.910156 160.515625 L 266.910156 251.5 C 266.910156 251.761719 266.859375 252.015625 266.757812 252.257812 C 266.65625 252.5 266.515625 252.714844 266.328125 252.902344 C 266.140625 253.085938 265.929688 253.230469 265.683594 253.332031 C 265.441406 253.433594 265.1875 253.484375 264.925781 253.484375 L 240.464844 253.484375 C 240.203125 253.484375 239.949219 253.433594 239.703125 253.332031 C 239.460938 253.230469 239.246094 253.085938 239.0625 252.902344 C 238.875 252.714844 238.730469 252.5 238.628906 252.257812 C 238.53125 252.015625 238.480469 251.761719 238.480469 251.5 L 238.480469 160.515625 C 238.480469 160.253906 238.53125 160 238.628906 159.757812 C 238.730469 159.511719 238.875 159.300781 239.0625 159.113281 C 239.246094 158.925781 239.460938 158.785156 239.703125 158.683594 C 239.949219 158.582031 240.203125 158.53125 240.464844 158.53125 Z M 240.464844 158.53125 " fill-opacity="1" fill-rule="nonzero"/><path fill="#0cc0df" d="M 280.410156 174.726562 L 304.871094 174.726562 C 305.136719 174.726562 305.386719 174.773438 305.632812 174.875 C 305.875 174.976562 306.089844 175.121094 306.277344 175.304688 C 306.460938 175.492188 306.605469 175.707031 306.707031 175.949219 C 306.804688 176.195312 306.855469 176.445312 306.855469 176.710938 L 306.855469 251.5 C 306.855469 251.761719 306.804688 252.015625 306.707031 252.257812 C 306.605469 252.5 306.460938 252.714844 306.277344 252.902344 C 306.089844 253.085938 305.875 253.230469 305.632812 253.332031 C 305.386719 253.433594 305.136719 253.484375 304.871094 253.484375 L 280.410156 253.484375 C 280.148438 253.484375 279.894531 253.433594 279.652344 253.332031 C 279.410156 253.230469 279.195312 253.085938 279.007812 252.902344 C 278.820312 252.714844 278.679688 252.5 278.578125 252.257812 C 278.476562 252.015625 278.425781 251.761719 278.425781 251.5 L 278.425781 176.710938 C 278.425781 176.445312 278.476562 176.195312 278.578125 175.949219 C 278.679688 175.707031 278.820312 175.492188 279.007812 175.304688 C 279.195312 175.121094 279.410156 174.976562 279.652344 174.875 C 279.894531 174.773438 280.148438 174.726562 280.410156 174.726562 Z M 280.410156 174.726562 " fill-opacity="1" fill-rule="nonzero"/><path fill="#0cc0df" d="M 200.0625 203.515625 L 225.441406 203.515625 C 225.703125 203.515625 225.957031 203.566406 226.199219 203.667969 C 226.441406 203.765625 226.65625 203.910156 226.84375 204.097656 C 227.03125 204.285156 227.171875 204.496094 227.273438 204.742188 C 227.375 204.984375 227.425781 205.238281 227.425781 205.5 L 227.425781 251.5 C 227.425781 251.761719 227.375 252.015625 227.273438 252.257812 C 227.171875 252.5 227.03125 252.714844 226.84375 252.902344 C 226.65625 253.085938 226.441406 253.230469 226.199219 253.332031 C 225.957031 253.433594 225.703125 253.484375 225.441406 253.484375 L 200.0625 253.484375 C 199.800781 253.484375 199.546875 253.433594 199.304688 253.332031 C 199.058594 253.230469 198.84375 253.085938 198.660156 252.902344 C 198.472656 252.714844 198.328125 252.5 198.226562 252.257812 C 198.128906 252.015625 198.078125 251.761719 198.078125 251.5 L 198.078125 205.5 C 198.078125 205.238281 198.128906 204.984375 198.226562 204.742188 C 198.328125 204.496094 198.472656 204.285156 198.660156 204.097656 C 198.84375 203.910156 199.058594 203.765625 199.304688 203.667969 C 199.546875 203.566406 199.800781 203.515625 200.0625 203.515625 Z M 200.0625 203.515625 " fill-opacity="1" fill-rule="nonzero"/><path fill="#0cc0df" d="M 187.234375 256.738281 L 317.652344 256.738281 C 317.914062 256.738281 318.167969 256.789062 318.414062 256.890625 C 318.65625 256.992188 318.871094 257.136719 319.054688 257.320312 C 319.242188 257.507812 319.386719 257.722656 319.488281 257.964844 C 319.585938 258.207031 319.636719 258.460938 319.636719 258.726562 L 319.636719 269.828125 C 319.636719 270.089844 319.585938 270.34375 319.488281 270.585938 C 319.386719 270.828125 319.242188 271.042969 319.054688 271.230469 C 318.871094 271.417969 318.65625 271.558594 318.414062 271.660156 C 318.167969 271.761719 317.914062 271.8125 317.652344 271.8125 L 187.234375 271.8125 C 186.972656 271.8125 186.71875 271.761719 186.472656 271.660156 C 186.230469 271.558594 186.015625 271.417969 185.832031 271.230469 C 185.644531 271.042969 185.5 270.828125 185.398438 270.585938 C 185.300781 270.34375 185.25 270.089844 185.25 269.828125 L 185.25 258.726562 C 185.25 258.460938 185.300781 258.207031 185.398438 257.964844 C 185.5 257.722656 185.644531 257.507812 185.832031 257.320312 C 186.015625 257.136719 186.230469 256.992188 186.472656 256.890625 C 186.71875 256.789062 186.972656 256.738281 187.234375 256.738281 Z M 187.234375 256.738281 " fill-opacity="1" fill-rule="nonzero"/></svg>