<svg xmlns="http://www.w3.org/2000/svg" xmlns:xlink="http://www.w3.org/1999/xlink" width="500" zoomAndPan="magnify" viewBox="0 0 375 374.999991" height="500" preserveAspectRatio="xMidYMid meet" version="1.0"><defs><clipPath id="e893c32237"><path d="M 205 24.183594 L 227 24.183594 L 227 70 L 205 70 Z M 205 24.183594 " clip-rule="nonzero"/></clipPath></defs><path fill="#5170ff" d="M 231.765625 240.328125 C 230.148438 239.136719 227.875 239.484375 226.683594 241.097656 C 220.238281 249.851562 215.585938 259.625 212.859375 270.152344 C 210.132812 280.6875 209.457031 291.503906 210.855469 302.296875 L 212.8125 317.40625 C 213.007812 318.941406 212.019531 320.347656 210.511719 320.683594 L 107.882812 343.492188 C 107.003906 343.6875 106.371094 343.308594 106.070312 343.070312 C 105.765625 342.828125 105.261719 342.289062 105.261719 341.386719 L 105.261719 325.195312 C 105.261719 318.398438 99.734375 312.871094 92.9375 312.871094 L 67.738281 312.871094 C 65.089844 312.871094 62.632812 311.675781 60.996094 309.59375 C 59.363281 307.507812 58.785156 304.839844 59.414062 302.265625 L 60.671875 297.117188 C 61.855469 292.277344 61.589844 287.242188 59.902344 282.554688 C 58.953125 279.917969 57.292969 277.617188 55.074219 275.851562 L 55.5 275 C 56.914062 272.171875 56.472656 268.820312 54.371094 266.457031 L 52.5 264.351562 C 52.164062 263.972656 51.976562 263.480469 51.976562 262.96875 L 51.976562 256.546875 C 51.976562 253.175781 49.816406 250.238281 46.597656 249.234375 L 40.78125 247.417969 C 39.035156 246.871094 37.675781 245.570312 37.058594 243.84375 C 36.4375 242.117188 36.65625 240.25 37.660156 238.714844 L 57.339844 208.59375 C 59.199219 205.746094 60.230469 202.445312 60.316406 199.042969 C 60.402344 195.644531 59.539062 192.292969 57.828125 189.355469 C 56.789062 187.574219 56.214844 185.542969 56.171875 183.484375 C 56.125 181.421875 56.613281 179.367188 57.574219 177.542969 L 63.246094 166.785156 C 63.433594 166.429688 63.5625 166.042969 63.625 165.640625 C 66.351562 147.882812 76.691406 131.5 92.738281 119.507812 C 100.722656 113.539062 109.796875 108.871094 119.714844 105.632812 C 130.007812 102.273438 140.878906 100.570312 152.023438 100.570312 C 157.207031 100.570312 162.40625 100.949219 167.476562 101.691406 C 169.464844 101.984375 171.308594 100.609375 171.601562 98.625 C 171.890625 96.636719 170.515625 94.792969 168.53125 94.503906 C 163.109375 93.707031 157.558594 93.304688 152.023438 93.304688 C 140.109375 93.304688 128.484375 95.128906 117.460938 98.726562 C 106.789062 102.207031 97.007812 107.242188 88.382812 113.683594 C 70.984375 126.6875 59.695312 144.511719 56.535156 163.929688 L 51.144531 174.15625 C 49.605469 177.066406 48.832031 180.347656 48.902344 183.640625 C 48.972656 186.929688 49.886719 190.175781 51.546875 193.019531 C 52.582031 194.789062 53.101562 196.8125 53.046875 198.859375 C 52.996094 200.910156 52.375 202.902344 51.253906 204.617188 L 31.574219 234.742188 C 29.316406 238.199219 28.820312 242.414062 30.214844 246.300781 C 31.609375 250.1875 34.671875 253.121094 38.613281 254.355469 L 44.429688 256.171875 C 44.59375 256.222656 44.707031 256.375 44.707031 256.546875 L 44.707031 262.96875 C 44.707031 265.261719 45.542969 267.46875 47.066406 269.183594 L 48.9375 271.285156 C 49.050781 271.414062 49.074219 271.597656 49 271.75 L 48.167969 273.410156 C 47.507812 274.734375 47.339844 276.253906 47.703125 277.6875 C 48.066406 279.125 48.929688 280.382812 50.140625 281.234375 C 51.507812 282.199219 52.515625 283.507812 53.0625 285.019531 C 54.265625 288.359375 54.453125 291.945312 53.613281 295.390625 L 52.351562 300.542969 C 51.191406 305.296875 52.257812 310.230469 55.28125 314.082031 C 58.300781 317.929688 62.84375 320.136719 67.734375 320.136719 L 92.9375 320.136719 C 95.726562 320.136719 97.996094 322.40625 97.996094 325.195312 L 97.996094 341.390625 C 97.996094 344.261719 99.28125 346.941406 101.519531 348.738281 C 103.214844 350.097656 105.28125 350.8125 107.398438 350.8125 C 108.085938 350.8125 108.773438 350.738281 109.460938 350.585938 L 212.089844 327.78125 C 214.589844 327.222656 216.777344 325.761719 218.246094 323.667969 C 219.71875 321.570312 220.347656 319.015625 220.019531 316.476562 L 218.0625 301.367188 C 216.785156 291.496094 217.402344 281.609375 219.898438 271.972656 C 222.386719 262.351562 226.640625 253.414062 232.535156 245.410156 C 233.726562 243.792969 233.378906 241.519531 231.765625 240.328125 Z M 231.765625 240.328125 " fill-opacity="1" fill-rule="nonzero"/><path fill="#5170ff" d="M 182.777344 175.757812 C 184.519531 171.636719 185.402344 167.261719 185.402344 162.753906 C 185.402344 158.246094 184.519531 153.871094 182.777344 149.75 C 181.09375 145.773438 178.6875 142.203125 175.621094 139.136719 C 172.554688 136.070312 168.980469 133.660156 165.003906 131.976562 C 160.882812 130.234375 156.507812 129.351562 152 129.351562 C 147.492188 129.351562 143.117188 130.234375 138.996094 131.976562 C 135.019531 133.660156 131.445312 136.070312 128.378906 139.136719 C 125.3125 142.203125 122.90625 145.773438 121.222656 149.75 C 119.480469 153.871094 118.597656 158.246094 118.597656 162.753906 C 118.597656 167.261719 119.480469 171.636719 121.222656 175.757812 C 122.90625 179.734375 125.3125 183.308594 128.378906 186.375 C 131.445312 189.441406 135.019531 191.847656 138.996094 193.53125 C 143.117188 195.273438 147.492188 196.15625 152 196.15625 C 156.507812 196.15625 160.882812 195.273438 165.003906 193.53125 C 168.980469 191.847656 172.554688 189.441406 175.621094 186.375 C 178.6875 183.308594 181.09375 179.738281 182.777344 175.757812 Z M 152 188.890625 C 145.019531 188.890625 138.457031 186.171875 133.519531 181.238281 C 128.582031 176.300781 125.863281 169.738281 125.863281 162.753906 C 125.863281 155.773438 128.582031 149.210938 133.519531 144.273438 C 138.457031 139.339844 145.019531 136.621094 152 136.621094 C 158.980469 136.621094 165.542969 139.339844 170.480469 144.273438 C 175.417969 149.210938 178.136719 155.773438 178.136719 162.753906 C 178.136719 169.738281 175.417969 176.300781 170.480469 181.238281 C 165.542969 186.171875 158.980469 188.890625 152 188.890625 Z M 152 188.890625 " fill-opacity="1" fill-rule="nonzero"/><path fill="#5170ff" d="M 290.152344 175.757812 C 291.898438 171.636719 292.78125 167.261719 292.78125 162.753906 C 292.78125 158.246094 291.894531 153.871094 290.152344 149.75 C 288.472656 145.773438 286.0625 142.203125 282.996094 139.136719 C 279.929688 136.070312 276.359375 133.660156 272.378906 131.976562 C 268.261719 130.234375 263.886719 129.351562 259.378906 129.351562 C 254.871094 129.351562 250.496094 130.234375 246.375 131.976562 C 242.394531 133.660156 238.824219 136.070312 235.757812 139.136719 C 232.691406 142.203125 230.28125 145.773438 228.601562 149.75 C 226.859375 153.871094 225.972656 158.246094 225.972656 162.753906 C 225.972656 167.261719 226.859375 171.636719 228.601562 175.757812 C 230.28125 179.734375 232.691406 183.308594 235.757812 186.375 C 238.824219 189.441406 242.394531 191.847656 246.375 193.53125 C 250.496094 195.273438 254.871094 196.15625 259.378906 196.15625 C 263.886719 196.15625 268.261719 195.273438 272.378906 193.53125 C 276.359375 191.847656 279.929688 189.441406 282.996094 186.375 C 286.0625 183.308594 288.472656 179.738281 290.152344 175.757812 Z M 259.378906 188.890625 C 252.398438 188.890625 245.832031 186.171875 240.898438 181.238281 C 235.960938 176.300781 233.242188 169.738281 233.242188 162.753906 C 233.242188 155.773438 235.960938 149.210938 240.898438 144.273438 C 245.832031 139.339844 252.398438 136.621094 259.378906 136.621094 C 266.359375 136.621094 272.921875 139.339844 277.859375 144.273438 C 282.796875 149.210938 285.515625 155.773438 285.515625 162.753906 C 285.515625 169.738281 282.796875 176.300781 277.859375 181.238281 C 272.921875 186.171875 266.359375 188.890625 259.378906 188.890625 Z M 259.378906 188.890625 " fill-opacity="1" fill-rule="nonzero"/><path fill="#5170ff" d="M 229.597656 187.132812 C 226.53125 184.066406 222.960938 181.660156 218.984375 179.976562 C 214.863281 178.234375 210.488281 177.351562 205.980469 177.351562 C 201.472656 177.351562 197.097656 178.234375 192.976562 179.976562 C 189 181.660156 185.425781 184.066406 182.359375 187.132812 C 179.292969 190.199219 176.886719 193.773438 175.203125 197.75 C 173.460938 201.871094 172.578125 206.246094 172.578125 210.753906 C 172.578125 215.261719 173.460938 219.636719 175.203125 223.757812 C 176.886719 227.734375 179.292969 231.304688 182.359375 234.375 C 185.425781 237.441406 189 239.847656 192.976562 241.53125 C 197.097656 243.273438 201.472656 244.15625 205.980469 244.15625 C 210.488281 244.15625 214.863281 243.273438 218.984375 241.53125 C 222.960938 239.847656 226.53125 237.441406 229.597656 234.375 C 232.664062 231.304688 235.074219 227.734375 236.757812 223.757812 C 238.5 219.636719 239.382812 215.261719 239.382812 210.753906 C 239.382812 206.246094 238.5 201.871094 236.757812 197.75 C 235.074219 193.773438 232.664062 190.199219 229.597656 187.132812 Z M 224.460938 229.234375 C 219.523438 234.167969 212.960938 236.886719 205.980469 236.886719 C 199 236.886719 192.433594 234.167969 187.5 229.234375 C 182.5625 224.296875 179.84375 217.734375 179.84375 210.753906 C 179.84375 203.773438 182.5625 197.207031 187.5 192.273438 C 192.433594 187.335938 199 184.617188 205.980469 184.617188 C 212.960938 184.617188 219.523438 187.335938 224.460938 192.273438 C 229.398438 197.207031 232.117188 203.773438 232.117188 210.753906 C 232.117188 217.734375 229.398438 224.296875 224.460938 229.234375 Z M 224.460938 229.234375 " fill-opacity="1" fill-rule="nonzero"/><path fill="#5170ff" d="M 175.203125 103.496094 C 173.460938 107.617188 172.578125 111.992188 172.578125 116.5 C 172.578125 121.007812 173.460938 125.382812 175.203125 129.503906 C 176.886719 133.480469 179.292969 137.054688 182.359375 140.121094 C 185.425781 143.1875 189 145.59375 192.976562 147.277344 C 197.097656 149.019531 201.472656 149.902344 205.980469 149.902344 C 210.488281 149.902344 214.863281 149.019531 218.984375 147.277344 C 222.960938 145.59375 226.535156 143.1875 229.601562 140.121094 C 232.667969 137.054688 235.074219 133.480469 236.757812 129.503906 C 238.5 125.382812 239.382812 121.007812 239.382812 116.5 C 239.382812 111.992188 238.5 107.617188 236.757812 103.496094 C 235.074219 99.519531 232.667969 95.949219 229.601562 92.878906 C 226.535156 89.8125 222.960938 87.40625 218.984375 85.722656 C 214.863281 83.980469 210.488281 83.097656 205.980469 83.097656 C 201.472656 83.097656 197.097656 83.980469 192.976562 85.722656 C 189 87.40625 185.425781 89.8125 182.359375 92.878906 C 179.292969 95.949219 176.886719 99.519531 175.203125 103.496094 Z M 205.980469 90.363281 C 212.960938 90.363281 219.523438 93.082031 224.460938 98.019531 C 229.398438 102.957031 232.117188 109.519531 232.117188 116.5 C 232.117188 123.480469 229.398438 130.042969 224.460938 134.980469 C 219.523438 139.917969 212.960938 142.636719 205.980469 142.636719 C 199 142.636719 192.433594 139.917969 187.5 134.980469 C 182.5625 130.046875 179.84375 123.480469 179.84375 116.5 C 179.84375 109.519531 182.5625 102.957031 187.5 98.019531 C 192.433594 93.082031 199 90.363281 205.980469 90.363281 Z M 205.980469 90.363281 " fill-opacity="1" fill-rule="nonzero"/><path fill="#5170ff" d="M 270.75 160.257812 L 248.375 159.125 C 246.371094 159.023438 244.664062 160.566406 244.5625 162.570312 C 244.460938 164.574219 246 166.28125 248.007812 166.382812 L 270.382812 167.515625 C 270.445312 167.519531 270.507812 167.523438 270.570312 167.523438 C 272.492188 167.523438 274.097656 166.011719 274.199219 164.070312 C 274.296875 162.066406 272.753906 160.359375 270.75 160.257812 Z M 270.75 160.257812 " fill-opacity="1" fill-rule="nonzero"/><path fill="#5170ff" d="M 217.351562 207.691406 L 194.972656 206.558594 C 192.96875 206.457031 191.265625 208 191.160156 210.003906 C 191.058594 212.007812 192.601562 213.714844 194.609375 213.816406 L 216.984375 214.949219 C 217.046875 214.949219 217.109375 214.953125 217.171875 214.953125 C 219.09375 214.953125 220.699219 213.445312 220.796875 211.503906 C 220.898438 209.5 219.355469 207.792969 217.351562 207.691406 Z M 217.351562 207.691406 " fill-opacity="1" fill-rule="nonzero"/><path fill="#5170ff" d="M 194.972656 126.449219 C 195.6875 127.242188 196.675781 127.644531 197.667969 127.644531 C 198.535156 127.644531 199.40625 127.335938 200.105469 126.707031 L 205.71875 121.632812 L 210.796875 127.25 C 211.511719 128.042969 212.5 128.445312 213.492188 128.445312 C 214.359375 128.445312 215.230469 128.136719 215.929688 127.507812 C 217.417969 126.164062 217.53125 123.867188 216.1875 122.375 L 211.113281 116.761719 L 216.730469 111.683594 C 218.21875 110.339844 218.335938 108.042969 216.988281 106.550781 C 215.644531 105.0625 213.347656 104.949219 211.855469 106.292969 L 206.238281 111.367188 L 201.164062 105.75 C 199.820312 104.261719 197.523438 104.144531 196.03125 105.492188 C 194.542969 106.835938 194.425781 109.136719 195.773438 110.625 L 200.847656 116.242188 L 195.230469 121.316406 C 193.742188 122.660156 193.625 124.960938 194.972656 126.449219 Z M 194.972656 126.449219 " fill-opacity="1" fill-rule="nonzero"/><path fill="#5170ff" d="M 163.375 159.695312 L 155.8125 159.3125 L 156.195312 151.75 C 156.296875 149.746094 154.753906 148.039062 152.75 147.9375 C 150.746094 147.835938 149.039062 149.378906 148.9375 151.382812 L 148.554688 158.945312 L 140.996094 158.5625 C 138.992188 158.460938 137.285156 160.003906 137.183594 162.007812 C 137.082031 164.011719 138.625 165.71875 140.628906 165.820312 L 148.1875 166.203125 L 147.804688 173.761719 C 147.703125 175.765625 149.246094 177.472656 151.25 177.574219 C 151.3125 177.578125 151.375 177.578125 151.4375 177.578125 C 153.359375 177.578125 154.964844 176.070312 155.066406 174.128906 L 155.449219 166.570312 L 163.007812 166.953125 C 163.070312 166.957031 163.132812 166.957031 163.195312 166.957031 C 165.117188 166.957031 166.722656 165.449219 166.820312 163.507812 C 166.921875 161.5 165.378906 159.792969 163.375 159.695312 Z M 163.375 159.695312 " fill-opacity="1" fill-rule="nonzero"/><path fill="#5170ff" d="M 210.558594 199.449219 C 210.558594 199.75 210.527344 200.046875 210.46875 200.339844 C 210.410156 200.636719 210.324219 200.921875 210.210938 201.199219 C 210.09375 201.476562 209.953125 201.742188 209.785156 201.992188 C 209.621094 202.242188 209.429688 202.472656 209.21875 202.683594 C 209.003906 202.898438 208.773438 203.085938 208.523438 203.253906 C 208.273438 203.421875 208.011719 203.5625 207.730469 203.675781 C 207.453125 203.792969 207.167969 203.878906 206.875 203.9375 C 206.578125 203.996094 206.28125 204.027344 205.980469 204.027344 C 205.679688 204.027344 205.382812 203.996094 205.085938 203.9375 C 204.792969 203.878906 204.507812 203.792969 204.226562 203.675781 C 203.949219 203.5625 203.6875 203.421875 203.4375 203.253906 C 203.1875 203.085938 202.957031 202.898438 202.742188 202.683594 C 202.53125 202.472656 202.339844 202.242188 202.171875 201.992188 C 202.007812 201.742188 201.867188 201.476562 201.75 201.199219 C 201.636719 200.921875 201.546875 200.636719 201.488281 200.339844 C 201.429688 200.046875 201.402344 199.75 201.402344 199.449219 C 201.402344 199.148438 201.429688 198.847656 201.488281 198.554688 C 201.546875 198.261719 201.636719 197.972656 201.75 197.695312 C 201.867188 197.417969 202.007812 197.152344 202.171875 196.902344 C 202.339844 196.65625 202.53125 196.421875 202.742188 196.210938 C 202.957031 195.996094 203.1875 195.808594 203.4375 195.640625 C 203.6875 195.472656 203.949219 195.332031 204.226562 195.21875 C 204.507812 195.101562 204.792969 195.015625 205.085938 194.957031 C 205.382812 194.898438 205.679688 194.871094 205.980469 194.871094 C 206.28125 194.871094 206.578125 194.898438 206.875 194.957031 C 207.167969 195.015625 207.453125 195.101562 207.730469 195.21875 C 208.011719 195.332031 208.273438 195.472656 208.523438 195.640625 C 208.773438 195.808594 209.003906 195.996094 209.21875 196.210938 C 209.429688 196.421875 209.621094 196.65625 209.785156 196.902344 C 209.953125 197.152344 210.09375 197.417969 210.210938 197.695312 C 210.324219 197.972656 210.410156 198.261719 210.46875 198.554688 C 210.527344 198.847656 210.558594 199.148438 210.558594 199.449219 Z M 210.558594 199.449219 " fill-opacity="1" fill-rule="nonzero"/><path fill="#5170ff" d="M 210.558594 222.058594 C 210.558594 222.359375 210.527344 222.65625 210.46875 222.953125 C 210.410156 223.246094 210.324219 223.53125 210.210938 223.808594 C 210.09375 224.089844 209.953125 224.351562 209.785156 224.601562 C 209.621094 224.851562 209.429688 225.082031 209.21875 225.296875 C 209.003906 225.507812 208.773438 225.699219 208.523438 225.863281 C 208.273438 226.03125 208.011719 226.171875 207.730469 226.289062 C 207.453125 226.402344 207.167969 226.488281 206.875 226.546875 C 206.578125 226.605469 206.28125 226.636719 205.980469 226.636719 C 205.679688 226.636719 205.382812 226.605469 205.085938 226.546875 C 204.792969 226.488281 204.507812 226.402344 204.226562 226.289062 C 203.949219 226.171875 203.6875 226.03125 203.4375 225.863281 C 203.1875 225.699219 202.957031 225.507812 202.742188 225.296875 C 202.53125 225.082031 202.339844 224.851562 202.171875 224.601562 C 202.007812 224.351562 201.867188 224.089844 201.75 223.808594 C 201.636719 223.53125 201.546875 223.246094 201.488281 222.953125 C 201.429688 222.65625 201.402344 222.359375 201.402344 222.058594 C 201.402344 221.757812 201.429688 221.460938 201.488281 221.164062 C 201.546875 220.871094 201.636719 220.582031 201.75 220.304688 C 201.867188 220.027344 202.007812 219.765625 202.171875 219.515625 C 202.339844 219.265625 202.53125 219.035156 202.742188 218.820312 C 202.957031 218.609375 203.1875 218.417969 203.4375 218.25 C 203.6875 218.085938 203.949219 217.945312 204.226562 217.828125 C 204.507812 217.714844 204.792969 217.625 205.085938 217.566406 C 205.382812 217.507812 205.679688 217.480469 205.980469 217.480469 C 206.28125 217.480469 206.578125 217.507812 206.875 217.566406 C 207.167969 217.625 207.453125 217.714844 207.730469 217.828125 C 208.011719 217.945312 208.273438 218.085938 208.523438 218.25 C 208.773438 218.417969 209.003906 218.609375 209.21875 218.820312 C 209.429688 219.035156 209.621094 219.265625 209.785156 219.515625 C 209.953125 219.765625 210.09375 220.027344 210.210938 220.304688 C 210.324219 220.582031 210.410156 220.871094 210.46875 221.164062 C 210.527344 221.460938 210.558594 221.757812 210.558594 222.058594 Z M 210.558594 222.058594 " fill-opacity="1" fill-rule="nonzero"/><path fill="#5170ff" d="M 168.484375 52.976562 C 169.054688 53.304688 169.675781 53.460938 170.289062 53.460938 C 171.546875 53.460938 172.773438 52.804688 173.441406 51.636719 L 174.011719 50.640625 L 181.664062 78.867188 C 182.101562 80.488281 183.566406 81.550781 185.167969 81.550781 C 185.480469 81.550781 185.800781 81.511719 186.117188 81.425781 C 188.054688 80.898438 189.199219 78.90625 188.675781 76.96875 L 181.027344 48.742188 L 182.019531 49.3125 C 183.761719 50.308594 185.980469 49.707031 186.980469 47.96875 C 187.980469 46.226562 187.378906 44.007812 185.636719 43.007812 L 177.035156 38.074219 C 176.199219 37.59375 175.207031 37.464844 174.277344 37.71875 C 173.347656 37.96875 172.554688 38.582031 172.074219 39.417969 L 167.140625 48.019531 C 166.140625 49.757812 166.742188 51.980469 168.484375 52.976562 Z M 168.484375 52.976562 " fill-opacity="1" fill-rule="nonzero"/><g clip-path="url(#e893c32237)"><path fill="#5170ff" d="M 211.625 37.070312 L 212.554688 36.394531 L 207.957031 65.277344 C 207.640625 67.257812 208.992188 69.121094 210.972656 69.4375 C 211.164062 69.46875 211.359375 69.480469 211.546875 69.480469 C 213.300781 69.480469 214.847656 68.207031 215.132812 66.417969 L 219.730469 37.539062 L 220.402344 38.464844 C 221.113281 39.445312 222.222656 39.964844 223.347656 39.964844 C 224.085938 39.964844 224.832031 39.742188 225.476562 39.273438 C 227.101562 38.09375 227.464844 35.824219 226.285156 34.199219 L 220.460938 26.171875 C 219.28125 24.546875 217.011719 24.183594 215.386719 25.363281 L 207.355469 31.1875 C 205.734375 32.363281 205.371094 34.636719 206.550781 36.261719 C 207.730469 37.886719 210 38.246094 211.625 37.070312 Z M 211.625 37.070312 " fill-opacity="1" fill-rule="nonzero"/></g><path fill="#5170ff" d="M 244.542969 70.664062 C 245.164062 71.082031 245.867188 71.28125 246.5625 71.28125 C 247.734375 71.28125 248.882812 70.714844 249.582031 69.667969 L 265.871094 45.378906 L 266.09375 46.503906 C 266.433594 48.238281 267.953125 49.4375 269.652344 49.4375 C 269.886719 49.4375 270.125 49.414062 270.359375 49.367188 C 272.328125 48.980469 273.609375 47.070312 273.222656 45.101562 L 271.304688 35.371094 C 270.917969 33.402344 269.003906 32.121094 267.035156 32.507812 L 257.304688 34.425781 C 255.335938 34.8125 254.054688 36.726562 254.445312 38.691406 C 254.832031 40.660156 256.742188 41.945312 258.710938 41.554688 L 259.835938 41.332031 L 243.546875 65.621094 C 242.429688 67.289062 242.875 69.546875 244.542969 70.664062 Z M 244.542969 70.664062 " fill-opacity="1" fill-rule="nonzero"/><path fill="#5170ff" d="M 273.546875 85.808594 C 274.238281 86.902344 275.417969 87.503906 276.621094 87.503906 C 277.285156 87.503906 277.957031 87.324219 278.558594 86.941406 L 303.292969 71.339844 L 303.039062 72.457031 C 302.597656 74.417969 303.824219 76.363281 305.78125 76.804688 C 306.050781 76.867188 306.320312 76.894531 306.585938 76.894531 C 308.246094 76.894531 309.746094 75.75 310.128906 74.066406 L 312.320312 64.390625 C 312.761719 62.433594 311.535156 60.488281 309.578125 60.042969 L 299.902344 57.855469 C 297.945312 57.410156 296 58.636719 295.558594 60.597656 C 295.113281 62.554688 296.339844 64.5 298.296875 64.941406 L 299.414062 65.195312 L 274.679688 80.796875 C 272.984375 81.867188 272.476562 84.109375 273.546875 85.808594 Z M 273.546875 85.808594 " fill-opacity="1" fill-rule="nonzero"/><path fill="#5170ff" d="M 324.5625 101.472656 L 325.484375 102.15625 L 296.558594 106.457031 C 294.574219 106.753906 293.203125 108.601562 293.496094 110.585938 C 293.765625 112.390625 295.316406 113.683594 297.085938 113.683594 C 297.265625 113.683594 297.445312 113.671875 297.625 113.644531 L 326.550781 109.34375 L 325.871094 110.265625 C 324.675781 111.875 325.011719 114.152344 326.625 115.347656 C 327.277344 115.828125 328.035156 116.0625 328.785156 116.0625 C 329.898438 116.0625 330.996094 115.554688 331.707031 114.589844 L 337.613281 106.621094 C 338.808594 105.011719 338.46875 102.734375 336.855469 101.539062 L 328.890625 95.636719 C 327.277344 94.441406 325 94.777344 323.808594 96.390625 C 322.613281 98.003906 322.949219 100.277344 324.5625 101.472656 Z M 324.5625 101.472656 " fill-opacity="1" fill-rule="nonzero"/><path fill="#5170ff" d="M 345.199219 147.703125 L 340.433594 139.003906 C 339.472656 137.242188 337.261719 136.597656 335.503906 137.5625 C 333.742188 138.527344 333.097656 140.734375 334.058594 142.496094 L 334.609375 143.5 L 306.539062 135.296875 C 304.613281 134.734375 302.597656 135.839844 302.035156 137.765625 C 301.46875 139.691406 302.574219 141.710938 304.503906 142.273438 L 332.574219 150.472656 L 331.570312 151.023438 C 329.808594 151.988281 329.164062 154.195312 330.128906 155.957031 C 330.789062 157.164062 332.03125 157.847656 333.316406 157.847656 C 333.90625 157.847656 334.503906 157.703125 335.058594 157.398438 L 343.757812 152.632812 C 345.519531 151.667969 346.164062 149.460938 345.199219 147.703125 Z M 345.199219 147.703125 " fill-opacity="1" fill-rule="nonzero"/><path fill="#5170ff" d="M 331.105469 188.976562 C 330.96875 186.972656 329.234375 185.460938 327.230469 185.597656 C 325.230469 185.738281 323.71875 187.472656 323.855469 189.476562 L 323.933594 190.617188 L 301.882812 171.410156 C 300.371094 170.089844 298.074219 170.25 296.757812 171.761719 C 295.4375 173.277344 295.597656 175.570312 297.109375 176.886719 L 319.164062 196.097656 L 318.019531 196.175781 C 316.015625 196.3125 314.507812 198.050781 314.644531 200.050781 C 314.777344 201.964844 316.371094 203.433594 318.265625 203.433594 C 318.347656 203.433594 318.433594 203.429688 318.519531 203.425781 L 328.414062 202.742188 C 329.375 202.675781 330.269531 202.230469 330.902344 201.503906 C 331.535156 200.777344 331.855469 199.832031 331.789062 198.871094 Z M 331.105469 188.976562 " fill-opacity="1" fill-rule="nonzero"/><path fill="#5170ff" d="M 299.867188 223.199219 C 297.980469 222.519531 295.894531 223.492188 295.210938 225.378906 L 294.824219 226.457031 L 282.421875 199.972656 C 281.570312 198.15625 279.40625 197.371094 277.589844 198.222656 C 275.769531 199.074219 274.988281 201.238281 275.839844 203.054688 L 288.242188 229.539062 L 287.164062 229.148438 C 285.277344 228.464844 283.195312 229.441406 282.511719 231.328125 C 281.828125 233.214844 282.804688 235.300781 284.691406 235.984375 L 294.015625 239.359375 C 294.425781 239.507812 294.839844 239.578125 295.253906 239.578125 C 296.738281 239.578125 298.132812 238.65625 298.667969 237.179688 L 302.046875 227.855469 C 302.730469 225.96875 301.753906 223.882812 299.867188 223.199219 Z M 299.867188 223.199219 " fill-opacity="1" fill-rule="nonzero"/><path fill="#5170ff" d="M 257.316406 247.113281 L 256.519531 247.9375 L 256.042969 218.695312 C 256.011719 216.707031 254.390625 215.121094 252.410156 215.121094 C 252.390625 215.121094 252.371094 215.121094 252.351562 215.121094 C 250.34375 215.152344 248.746094 216.804688 248.777344 218.8125 L 249.25 248.054688 L 248.429688 247.257812 C 246.988281 245.859375 244.6875 245.898438 243.289062 247.339844 C 241.894531 248.78125 241.933594 251.082031 243.375 252.476562 L 250.5 259.375 C 251.207031 260.058594 252.117188 260.398438 253.027344 260.398438 C 253.976562 260.398438 254.925781 260.027344 255.636719 259.292969 L 262.535156 252.167969 C 263.933594 250.726562 263.894531 248.421875 262.453125 247.027344 C 261.011719 245.632812 258.710938 245.671875 257.316406 247.113281 Z M 257.316406 247.113281 " fill-opacity="1" fill-rule="nonzero"/><path fill="#5170ff" d="M 164.816406 244.21875 C 165.972656 244.199219 166.988281 243.453125 167.351562 242.359375 L 169.410156 236.234375 C 169.777344 235.140625 169.417969 233.933594 168.511719 233.222656 L 164.113281 229.773438 L 163.929688 227.109375 L 167.8125 223.089844 C 168.613281 222.261719 168.804688 221.015625 168.292969 219.984375 L 165.414062 214.199219 C 164.902344 213.164062 163.792969 212.570312 162.648438 212.707031 L 157.101562 213.375 L 155.089844 211.621094 L 154.992188 206.03125 C 154.96875 204.878906 154.226562 203.863281 153.132812 203.496094 L 147.007812 201.441406 C 145.914062 201.074219 144.707031 201.433594 143.996094 202.339844 L 140.542969 206.734375 L 137.882812 206.917969 L 133.863281 203.039062 C 133.03125 202.238281 131.789062 202.046875 130.753906 202.558594 L 124.96875 205.4375 C 123.9375 205.949219 123.339844 207.054688 123.476562 208.203125 L 124.144531 213.75 L 122.390625 215.761719 L 116.804688 215.859375 C 115.652344 215.878906 114.636719 216.625 114.269531 217.71875 L 112.210938 223.84375 C 111.84375 224.9375 112.207031 226.144531 113.113281 226.855469 L 117.507812 230.304688 L 117.691406 232.96875 L 113.808594 236.988281 C 113.011719 237.816406 112.816406 239.0625 113.332031 240.09375 L 116.207031 245.878906 C 116.71875 246.914062 117.828125 247.511719 118.972656 247.371094 L 124.519531 246.707031 L 126.53125 248.457031 L 126.632812 254.046875 C 126.652344 255.199219 127.394531 256.214844 128.488281 256.582031 L 134.617188 258.636719 C 134.902344 258.734375 135.191406 258.78125 135.480469 258.78125 C 136.304688 258.78125 137.101562 258.40625 137.625 257.738281 L 141.078125 253.339844 L 143.738281 253.160156 L 147.757812 257.039062 C 148.589844 257.839844 149.832031 258.03125 150.867188 257.519531 L 156.652344 254.640625 C 157.683594 254.128906 158.28125 253.019531 158.144531 251.875 L 157.476562 246.328125 L 159.230469 244.316406 Z M 155.917969 239.824219 L 152.574219 243.664062 C 152.066406 244.242188 151.832031 245.011719 151.921875 245.777344 L 152.503906 250.617188 L 150.164062 251.78125 L 146.652344 248.398438 C 146.097656 247.863281 145.34375 247.585938 144.574219 247.640625 L 139.496094 247.988281 C 138.726562 248.042969 138.015625 248.417969 137.539062 249.023438 L 134.527344 252.859375 L 132.046875 252.027344 L 131.960938 247.152344 C 131.949219 246.378906 131.609375 245.652344 131.027344 245.144531 L 127.1875 241.800781 C 126.605469 241.292969 125.835938 241.058594 125.074219 241.148438 L 120.230469 241.730469 L 119.066406 239.390625 L 122.453125 235.882812 C 122.988281 235.328125 123.265625 234.570312 123.210938 233.800781 L 122.863281 228.722656 C 122.808594 227.953125 122.433594 227.242188 121.828125 226.765625 L 117.992188 223.757812 L 118.824219 221.277344 L 123.699219 221.191406 C 124.472656 221.175781 125.199219 220.835938 125.707031 220.253906 L 129.050781 216.417969 C 129.558594 215.835938 129.792969 215.066406 129.699219 214.300781 L 129.117188 209.460938 L 131.460938 208.296875 L 134.96875 211.683594 C 135.523438 212.21875 136.277344 212.492188 137.046875 212.4375 L 142.125 212.089844 C 142.894531 212.035156 143.605469 211.660156 144.082031 211.054688 L 147.09375 207.21875 L 149.574219 208.050781 L 149.660156 212.925781 C 149.671875 213.699219 150.011719 214.425781 150.59375 214.933594 L 154.433594 218.277344 C 155.015625 218.785156 155.78125 219.019531 156.546875 218.929688 L 161.390625 218.347656 L 162.554688 220.6875 L 159.167969 224.195312 C 158.632812 224.75 158.355469 225.507812 158.410156 226.277344 L 158.757812 231.355469 C 158.8125 232.125 159.1875 232.835938 159.792969 233.308594 L 163.628906 236.320312 L 162.796875 238.800781 L 157.921875 238.886719 C 157.152344 238.902344 156.421875 239.242188 155.917969 239.824219 Z M 155.917969 239.824219 " fill-opacity="1" fill-rule="nonzero"/><path fill="#5170ff" d="M 140.8125 215.503906 C 132.796875 215.503906 126.273438 222.023438 126.273438 230.039062 C 126.273438 238.054688 132.796875 244.578125 140.8125 244.578125 C 148.828125 244.578125 155.347656 238.054688 155.347656 230.039062 C 155.347656 222.023438 148.828125 215.503906 140.8125 215.503906 Z M 140.8125 239.128906 C 135.800781 239.128906 131.726562 235.050781 131.726562 230.039062 C 131.726562 225.03125 135.800781 220.953125 140.8125 220.953125 C 145.820312 220.953125 149.898438 225.03125 149.898438 230.039062 C 149.898438 235.050781 145.820312 239.128906 140.8125 239.128906 Z M 140.8125 239.128906 " fill-opacity="1" fill-rule="nonzero"/></svg>