<svg xmlns="http://www.w3.org/2000/svg" xmlns:xlink="http://www.w3.org/1999/xlink" width="500" zoomAndPan="magnify" viewBox="0 0 375 374.999991" height="500" preserveAspectRatio="xMidYMid meet" version="1.0"><defs><clipPath id="18d6814a03"><path d="M 11 60.074219 L 364.21875 60.074219 L 364.21875 315.074219 L 11 315.074219 Z M 11 60.074219 " clip-rule="nonzero"/></clipPath><clipPath id="fe170ad721"><path d="M 11 60.074219 L 364.21875 60.074219 L 364.21875 315.074219 L 11 315.074219 Z M 11 60.074219 " clip-rule="nonzero"/></clipPath></defs><g clip-path="url(#18d6814a03)"><path fill="#00247d" d="M 11.066406 99.882812 L 11.066406 138.535156 L 66.257812 138.535156 Z M 56.804688 315.074219 L 138.558594 315.074219 L 138.558594 257.828125 Z M 236.628906 257.835938 L 236.628906 315.074219 L 318.367188 315.074219 Z M 11.066406 236.613281 L 11.066406 275.265625 L 66.277344 236.613281 Z M 318.386719 60.074219 L 236.628906 60.074219 L 236.628906 117.324219 Z M 364.117188 275.277344 L 364.117188 236.613281 L 308.894531 236.613281 Z M 364.117188 138.535156 L 364.117188 99.882812 L 308.914062 138.535156 Z M 138.558594 60.074219 L 56.804688 60.074219 L 138.558594 117.324219 Z M 138.558594 60.074219 " fill-opacity="1" fill-rule="nonzero"/></g><path fill="#cf1b2b" d="M 257.613281 236.613281 L 352.859375 303.316406 C 357.480469 298.617188 360.785156 292.703125 362.570312 286.160156 L 291.8125 236.613281 Z M 138.558594 236.613281 L 117.558594 236.613281 L 22.324219 303.304688 C 27.433594 308.503906 33.984375 312.222656 41.328125 313.949219 L 138.558594 245.863281 Z M 236.628906 138.535156 L 257.625 138.535156 L 352.859375 71.84375 C 347.75 66.644531 341.210938 62.929688 333.863281 61.203125 L 236.628906 129.289062 Z M 117.558594 138.535156 L 22.324219 71.84375 C 17.703125 76.550781 14.398438 82.457031 12.605469 89 L 83.363281 138.535156 Z M 117.558594 138.535156 " fill-opacity="1" fill-rule="nonzero"/><g clip-path="url(#fe170ad721)"><path fill="#eeeeee" d="M 364.117188 217 L 217.011719 217 L 217.011719 315.074219 L 236.628906 315.074219 L 236.628906 257.835938 L 318.367188 315.074219 L 324.890625 315.074219 C 335.84375 315.074219 345.742188 310.554688 352.859375 303.316406 L 257.613281 236.613281 L 291.8125 236.613281 L 362.570312 286.160156 C 363.480469 282.855469 364.117188 279.433594 364.117188 275.84375 L 364.117188 275.277344 L 308.894531 236.613281 L 364.117188 236.613281 Z M 11.066406 217 L 11.066406 236.613281 L 66.277344 236.613281 L 11.066406 275.265625 L 11.066406 275.84375 C 11.066406 286.542969 15.371094 296.226562 22.324219 303.304688 L 117.558594 236.613281 L 138.558594 236.613281 L 138.558594 245.863281 L 41.328125 313.9375 C 44.214844 314.625 47.195312 315.074219 50.292969 315.074219 L 56.804688 315.074219 L 138.558594 257.828125 L 138.558594 315.074219 L 158.171875 315.074219 L 158.171875 217 Z M 364.117188 99.304688 C 364.117188 88.605469 359.8125 78.925781 352.859375 71.84375 L 257.625 138.535156 L 236.628906 138.535156 L 236.628906 129.289062 L 333.863281 61.203125 C 330.972656 60.527344 327.988281 60.074219 324.890625 60.074219 L 318.386719 60.074219 L 236.628906 117.324219 L 236.628906 60.074219 L 217.011719 60.074219 L 217.011719 158.152344 L 364.117188 158.152344 L 364.117188 138.535156 L 308.914062 138.535156 L 364.117188 99.882812 Z M 138.558594 60.074219 L 138.558594 117.324219 L 56.804688 60.074219 L 50.292969 60.074219 C 39.328125 60.074219 29.445312 64.597656 22.324219 71.84375 L 117.558594 138.535156 L 83.363281 138.535156 L 12.605469 89 C 11.703125 92.304688 11.066406 95.714844 11.066406 99.304688 L 11.066406 99.882812 L 66.257812 138.535156 L 11.066406 138.535156 L 11.066406 158.152344 L 158.171875 158.152344 L 158.171875 60.074219 Z M 138.558594 60.074219 " fill-opacity="1" fill-rule="nonzero"/><path fill="#cf1b2b" d="M 217.011719 158.152344 L 217.011719 60.074219 L 158.171875 60.074219 L 158.171875 158.152344 L 11.066406 158.152344 L 11.066406 217 L 158.171875 217 L 158.171875 315.074219 L 217.011719 315.074219 L 217.011719 217 L 364.117188 217 L 364.117188 158.152344 Z M 217.011719 158.152344 " fill-opacity="1" fill-rule="nonzero"/></g></svg>