<svg xmlns="http://www.w3.org/2000/svg" xmlns:xlink="http://www.w3.org/1999/xlink" width="500" zoomAndPan="magnify" viewBox="0 0 375 374.999991" height="500" preserveAspectRatio="xMidYMid meet" version="1.0"><defs><clipPath id="94bb7fbbd6"><path d="M 11.828125 26.621094 L 362.828125 26.621094 L 362.828125 347 L 11.828125 347 Z M 11.828125 26.621094 " clip-rule="nonzero"/></clipPath></defs><g clip-path="url(#94bb7fbbd6)"><path fill="#8c52ff" d="M 322.070312 85.046875 C 322.070312 85.046875 322.679688 85.734375 323.867188 87.058594 C 325.046875 88.410156 326.878906 90.316406 329.039062 93.054688 C 333.4375 98.425781 339.726562 106.644531 346.023438 118.46875 C 349.144531 124.394531 352.222656 131.226562 354.929688 138.976562 C 355.617188 140.921875 356.324219 142.910156 356.890625 144.984375 C 357.488281 147.046875 358.160156 149.132812 358.648438 151.328125 C 358.917969 152.414062 359.183594 153.511719 359.460938 154.625 L 359.660156 155.460938 C 359.695312 155.609375 359.726562 155.695312 359.769531 155.90625 L 359.851562 156.332031 C 359.953125 156.886719 360.074219 157.449219 360.171875 158.023438 C 360.394531 159.160156 360.617188 160.292969 360.832031 161.453125 C 360.949219 162.023438 361.0625 162.609375 361.175781 163.183594 C 361.257812 163.78125 361.339844 164.382812 361.421875 164.984375 C 361.585938 166.183594 361.757812 167.398438 361.929688 168.617188 C 362.113281 169.84375 362.28125 171.074219 362.371094 172.320312 C 362.476562 173.5625 362.578125 174.820312 362.695312 176.082031 C 362.804688 177.351562 362.941406 178.628906 362.941406 179.90625 C 362.984375 181.203125 363.035156 182.5 363.082031 183.808594 C 363.101562 184.460938 363.125 185.113281 363.140625 185.773438 L 363.164062 186.273438 L 363.152344 186.808594 L 363.125 187.789062 C 363.101562 189.101562 363.078125 190.417969 363.042969 191.746094 C 363.011719 193.085938 363.035156 194.402344 362.894531 195.777344 C 362.273438 206.757812 360.320312 218.058594 356.902344 229.417969 C 353.488281 240.738281 348.601562 252.023438 342.320312 262.753906 C 335.976562 273.445312 328.21875 283.535156 319.347656 292.738281 C 310.492188 301.984375 300.410156 310.191406 289.496094 317.300781 C 278.589844 324.40625 266.808594 330.40625 254.402344 334.980469 C 229.628906 344.1875 202.4375 348.382812 175.191406 346.449219 C 161.460938 345.503906 147.792969 343.210938 134.351562 339.261719 C 120.9375 335.269531 107.75 329.867188 95.253906 322.765625 C 82.800781 315.589844 70.917969 306.976562 60.296875 296.625 C 49.585938 286.410156 40.183594 274.464844 32.449219 261.335938 C 28.617188 254.734375 25.285156 247.8125 22.359375 240.6875 C 21.695312 238.878906 21.03125 237.066406 20.371094 235.257812 C 20.046875 234.34375 19.691406 233.449219 19.410156 232.53125 L 18.554688 229.753906 C 18.019531 227.886719 17.386719 226.070312 16.925781 224.191406 C 16.46875 222.3125 16 220.433594 15.539062 218.5625 C 15.300781 217.628906 15.109375 216.679688 14.9375 215.734375 L 14.394531 212.875 C 14.035156 210.984375 13.65625 209.097656 13.441406 207.167969 C 13.191406 205.261719 12.9375 203.347656 12.683594 201.445312 C 12.535156 199.519531 12.378906 197.597656 12.234375 195.683594 C 12.160156 194.726562 12.078125 193.777344 12.019531 192.820312 L 11.960938 189.945312 L 11.898438 187.078125 L 11.875 185.652344 L 11.855469 184.933594 C 11.855469 184.761719 11.847656 184.792969 11.851562 184.480469 L 11.875 184.125 C 12.03125 180.386719 12.011719 176.769531 12.449219 172.90625 C 13.003906 165.25 14.371094 157.96875 16.023438 150.773438 C 16.476562 149 16.949219 147.226562 17.402344 145.457031 C 17.621094 144.570312 17.890625 143.703125 18.179688 142.839844 L 18.992188 140.253906 C 20.039062 136.773438 21.382812 133.46875 22.648438 130.140625 C 27.980469 116.96875 34.992188 105.160156 42.796875 94.730469 C 50.699219 84.398438 59.417969 75.449219 68.5 67.875 C 77.585938 60.289062 87 54.039062 96.371094 48.914062 C 105.75 43.785156 115.070312 39.753906 124.128906 36.65625 C 133.175781 33.558594 141.929688 31.304688 150.234375 29.820312 C 151.269531 29.628906 152.300781 29.429688 153.320312 29.230469 C 154.335938 29.0625 155.359375 28.933594 156.371094 28.78125 C 158.390625 28.503906 160.363281 28.21875 162.3125 27.941406 C 164.261719 27.753906 166.1875 27.566406 168.070312 27.390625 C 169.007812 27.292969 169.9375 27.207031 170.863281 27.121094 C 171.792969 27.066406 172.703125 27.027344 173.617188 26.976562 C 175.425781 26.882812 177.199219 26.796875 178.941406 26.707031 C 180.675781 26.625 182.386719 26.671875 184.039062 26.648438 C 185.714844 26.640625 187.335938 26.640625 188.929688 26.640625 C 190.507812 26.714844 192.050781 26.789062 193.546875 26.851562 C 199.542969 26.996094 204.90625 27.710938 209.550781 28.199219 C 211.875 28.503906 214.003906 28.917969 215.964844 29.21875 C 217.921875 29.558594 219.707031 29.808594 221.292969 30.132812 C 227.605469 31.539062 230.96875 32.296875 230.96875 32.296875 C 230.96875 32.296875 227.585938 31.667969 221.238281 30.511719 C 219.648438 30.25 217.863281 30.070312 215.902344 29.808594 C 213.941406 29.574219 211.800781 29.25 209.484375 29.042969 C 204.835938 28.75 199.535156 28.207031 193.511719 28.222656 C 192.011719 28.199219 190.472656 28.175781 188.898438 28.140625 C 187.328125 28.191406 185.71875 28.242188 184.0625 28.292969 C 182.414062 28.367188 180.730469 28.363281 179.011719 28.496094 C 177.285156 28.632812 175.515625 28.773438 173.714844 28.917969 C 172.828125 28.992188 171.917969 29.0625 170.996094 29.132812 C 170.082031 29.25 169.164062 29.363281 168.230469 29.484375 C 166.367188 29.71875 164.472656 29.953125 162.542969 30.199219 C 160.621094 30.53125 158.660156 30.867188 156.675781 31.203125 C 155.675781 31.382812 154.675781 31.539062 153.667969 31.738281 C 152.65625 31.953125 151.652344 32.183594 150.628906 32.414062 C 142.449219 34.109375 133.855469 36.589844 125.007812 39.898438 C 116.15625 43.203125 107.027344 47.308594 97.914062 52.542969 C 88.796875 57.765625 79.6875 64.085938 70.941406 71.667969 C 62.199219 79.230469 53.796875 88.027344 46.265625 98.15625 C 38.835938 108.367188 32.214844 119.859375 27.242188 132.550781 C 26.078125 135.761719 24.808594 138.941406 23.863281 142.28125 L 23.085938 144.761719 C 22.816406 145.59375 22.570312 146.421875 22.371094 147.277344 C 21.941406 148.96875 21.519531 150.664062 21.082031 152.367188 C 19.5625 159.195312 18.296875 166.304688 17.828125 173.378906 C 17.445312 176.847656 17.476562 180.65625 17.34375 184.351562 L 17.328125 184.707031 C 17.328125 184.625 17.335938 184.871094 17.339844 184.945312 L 17.363281 185.625 L 17.398438 186.988281 L 17.472656 189.714844 L 17.554688 192.445312 C 17.609375 193.359375 17.695312 194.269531 17.769531 195.175781 C 17.921875 196.992188 18.078125 198.816406 18.242188 200.640625 C 18.488281 202.445312 18.742188 204.265625 18.988281 206.082031 C 19.203125 207.910156 19.585938 209.699219 19.945312 211.5 L 20.46875 214.195312 C 20.636719 215.105469 20.820312 216.003906 21.0625 216.890625 C 21.519531 218.664062 21.96875 220.453125 22.421875 222.230469 C 22.859375 224.011719 23.484375 225.746094 24.007812 227.503906 L 24.832031 230.136719 C 25.105469 231.011719 25.453125 231.859375 25.769531 232.714844 C 26.410156 234.433594 27.046875 236.15625 27.703125 237.875 C 30.492188 244.648438 33.6875 251.253906 37.363281 257.550781 C 44.792969 270.070312 53.835938 281.507812 64.171875 291.324219 C 74.414062 301.257812 85.914062 309.535156 97.972656 316.453125 C 110.050781 323.363281 122.832031 328.644531 135.839844 332.5625 C 148.859375 336.433594 162.25 338.703125 175.46875 339.664062 C 178.730469 339.984375 182.144531 339.996094 185.496094 340.113281 L 186.757812 340.152344 L 187.386719 340.167969 L 187.703125 340.171875 L 187.945312 340.167969 L 190.433594 340.128906 C 192.085938 340.09375 193.734375 340.074219 195.390625 340.050781 C 198.695312 339.945312 201.980469 339.6875 205.261719 339.507812 C 208.519531 339.132812 211.789062 338.875 215.035156 338.398438 C 227.988281 336.605469 240.65625 333.464844 252.753906 329.097656 C 264.878906 324.761719 276.34375 318.972656 287.050781 312.246094 C 297.726562 305.496094 307.617188 297.671875 316.3125 288.828125 C 325.039062 280.019531 332.648438 270.328125 338.953125 260.09375 C 345.199219 249.816406 350.113281 238.984375 353.597656 228.058594 C 357.097656 217.160156 359.125 206.097656 359.953125 195.613281 C 360.117188 194.304688 360.140625 192.953125 360.195312 191.628906 C 360.257812 190.300781 360.3125 188.984375 360.363281 187.675781 L 360.40625 186.695312 L 360.433594 186.257812 L 360.421875 185.773438 C 360.410156 185.128906 360.40625 184.492188 360.394531 183.851562 C 360.382812 182.574219 360.363281 181.304688 360.355469 180.050781 C 360.363281 178.785156 360.269531 177.542969 360.183594 176.304688 C 360.109375 175.0625 360.027344 173.832031 359.953125 172.613281 C 359.894531 171.386719 359.753906 170.191406 359.605469 169.003906 C 359.464844 167.808594 359.324219 166.628906 359.1875 165.457031 C 356.710938 146.582031 350.890625 131.0625 345 119.15625 C 338.976562 107.285156 333.050781 98.820312 328.792969 93.320312 C 326.722656 90.496094 324.945312 88.523438 323.808594 87.132812 C 322.652344 85.757812 322.070312 85.046875 322.070312 85.046875 " fill-opacity="1" fill-rule="nonzero"/></g><path fill="#8c52ff" d="M 180.476562 132.886719 C 180.476562 119.652344 175.191406 104.523438 167.046875 104.523438 C 167.046875 104.523438 166.101562 102.34375 156.386719 107.277344 C 149.816406 110.617188 141.070312 128.703125 139.546875 135.660156 C 138.957031 138.339844 138.777344 135.867188 138.777344 142.367188 C 138.777344 147.878906 146.085938 170.480469 146.085938 170.480469 L 180.476562 170.480469 L 180.476562 132.886719 " fill-opacity="1" fill-rule="nonzero"/><path fill="#8c52ff" d="M 147.769531 171.183594 C 147.691406 175.84375 151.320312 178.457031 155.84375 178.488281 C 160.359375 178.515625 164.058594 175.976562 164.140625 171.304688 C 164.21875 166.640625 160.660156 160.421875 156.136719 160.371094 C 151.609375 160.34375 147.851562 166.507812 147.769531 171.183594 " fill-opacity="1" fill-rule="nonzero"/><path fill="#8c52ff" d="M 165.804688 166.128906 C 164.460938 163.960938 159.480469 161.140625 157.382812 161.789062 C 155.273438 162.421875 156.882812 166.273438 158.222656 168.433594 C 159.550781 170.601562 164.757812 173.113281 166.847656 172.46875 C 168.9375 171.835938 167.164062 168.289062 165.804688 166.128906 " fill-opacity="1" fill-rule="nonzero"/><path fill="#8c52ff" d="M 193.933594 132.886719 C 193.933594 119.652344 199.238281 104.523438 207.363281 104.523438 C 207.363281 104.523438 208.316406 102.34375 218.023438 107.277344 C 224.601562 110.617188 233.355469 128.703125 234.871094 135.660156 C 235.449219 138.339844 235.636719 135.867188 235.636719 142.367188 C 235.636719 147.878906 228.324219 170.480469 228.332031 170.480469 L 193.933594 170.480469 L 193.933594 132.886719 " fill-opacity="1" fill-rule="nonzero"/><path fill="#8c52ff" d="M 226.644531 171.183594 C 226.726562 175.84375 223.097656 178.457031 218.578125 178.488281 C 214.050781 178.515625 210.359375 175.976562 210.269531 171.304688 C 210.199219 166.640625 213.761719 160.421875 218.28125 160.371094 C 222.804688 160.34375 226.566406 166.507812 226.644531 171.183594 " fill-opacity="1" fill-rule="nonzero"/><path fill="#8c52ff" d="M 208.617188 166.128906 C 209.953125 163.960938 214.933594 161.140625 217.039062 161.789062 C 219.144531 162.421875 217.546875 166.273438 216.199219 168.433594 C 214.871094 170.601562 209.667969 173.113281 207.558594 172.46875 C 205.472656 171.835938 207.25 168.289062 208.617188 166.128906 " fill-opacity="1" fill-rule="nonzero"/><path fill="#8c52ff" d="M 220.605469 129.136719 C 220.605469 116.832031 216.0625 102.753906 203.082031 102.753906 L 171.492188 102.753906 C 158.507812 102.753906 152.6875 116.832031 152.6875 129.136719 L 152.6875 185.390625 L 220.605469 185.390625 L 220.605469 129.136719 " fill-opacity="1" fill-rule="nonzero"/><path fill="#8c52ff" d="M 207.109375 75.59375 C 207.109375 87.3125 197.609375 102.054688 185.886719 102.054688 C 174.273438 102.054688 164.671875 87.3125 164.671875 75.59375 C 164.671875 63.882812 165.640625 49.140625 185.886719 49.140625 C 204.890625 49.140625 207.109375 63.882812 207.109375 75.59375 " fill-opacity="1" fill-rule="nonzero"/><path fill="#8c52ff" d="M 175.289062 74.902344 C 175.289062 79.019531 172.359375 82.351562 168.742188 82.351562 C 165.117188 82.351562 162.191406 79.019531 162.191406 74.902344 C 162.191406 70.789062 165.117188 67.453125 168.742188 67.453125 C 172.359375 67.453125 175.289062 70.789062 175.289062 74.902344 " fill-opacity="1" fill-rule="nonzero"/><path fill="#8c52ff" d="M 209.800781 74.902344 C 209.800781 79.019531 206.867188 82.351562 203.25 82.351562 C 199.636719 82.351562 196.691406 79.019531 196.691406 74.902344 C 196.691406 70.789062 199.636719 67.453125 203.25 67.453125 C 206.867188 67.453125 209.800781 70.789062 209.800781 74.902344 " fill-opacity="1" fill-rule="nonzero"/><path fill="#8c52ff" d="M 197.414062 114.738281 L 174.566406 114.738281 L 174.566406 86.328125 L 197.414062 86.328125 L 197.414062 114.738281 " fill-opacity="1" fill-rule="nonzero"/><path fill="#5ce1e6" d="M 185.992188 121.164062 L 181.238281 114.027344 L 176.464844 106.882812 L 195.535156 106.882812 L 190.765625 114.027344 L 185.992188 121.164062 " fill-opacity="1" fill-rule="nonzero"/><path fill="#5ce1e6" d="M 185.992188 169.21875 L 180.359375 160.679688 L 174.71875 152.160156 L 185.992188 120.199219 L 197.269531 152.160156 L 191.640625 160.679688 L 185.992188 169.21875 " fill-opacity="1" fill-rule="nonzero"/><path fill="#8c52ff" d="M 88.597656 248.570312 C 88.597656 239.75 85.0625 229.664062 79.644531 229.664062 C 79.644531 229.664062 79.003906 228.210938 72.53125 231.5 C 68.148438 233.730469 62.320312 245.785156 61.308594 250.414062 C 60.917969 252.203125 60.792969 250.554688 60.792969 254.890625 C 60.792969 258.570312 65.667969 273.628906 65.667969 273.628906 L 88.597656 273.628906 L 88.597656 248.570312 " fill-opacity="1" fill-rule="nonzero"/><path fill="#8c52ff" d="M 66.789062 274.101562 C 66.734375 277.203125 69.15625 278.9375 72.171875 278.96875 C 75.183594 278.992188 77.640625 277.285156 77.699219 274.179688 C 77.75 271.0625 75.378906 266.921875 72.371094 266.890625 C 69.351562 266.878906 66.832031 270.984375 66.789062 274.101562 " fill-opacity="1" fill-rule="nonzero"/><path fill="#8c52ff" d="M 78.808594 270.722656 C 77.917969 269.28125 74.585938 267.402344 73.191406 267.835938 C 71.789062 268.257812 72.855469 270.828125 73.753906 272.265625 C 74.636719 273.714844 78.113281 275.386719 79.507812 274.957031 C 80.894531 274.53125 79.714844 272.175781 78.808594 270.722656 " fill-opacity="1" fill-rule="nonzero"/><path fill="#8c52ff" d="M 97.554688 248.570312 C 97.554688 239.75 101.097656 229.664062 106.511719 229.664062 C 106.511719 229.664062 107.144531 228.210938 113.621094 231.5 C 118 233.730469 123.832031 245.785156 124.84375 250.414062 C 125.238281 252.203125 125.359375 250.554688 125.359375 254.890625 C 125.359375 258.570312 120.484375 273.628906 120.496094 273.628906 L 97.554688 273.628906 L 97.554688 248.570312 " fill-opacity="1" fill-rule="nonzero"/><path fill="#8c52ff" d="M 119.359375 274.101562 C 119.425781 277.203125 116.992188 278.9375 113.984375 278.96875 C 110.972656 278.992188 108.507812 277.285156 108.453125 274.179688 C 108.398438 271.0625 110.777344 266.921875 113.789062 266.890625 C 116.808594 266.878906 119.3125 270.984375 119.359375 274.101562 " fill-opacity="1" fill-rule="nonzero"/><path fill="#8c52ff" d="M 107.351562 270.722656 C 108.234375 269.28125 111.5625 267.402344 112.960938 267.835938 C 114.359375 268.257812 113.296875 270.828125 112.398438 272.265625 C 111.511719 273.714844 108.046875 275.386719 106.644531 274.957031 C 105.253906 274.53125 106.4375 272.175781 107.351562 270.722656 " fill-opacity="1" fill-rule="nonzero"/><path fill="#8c52ff" d="M 115.339844 246.078125 C 115.339844 237.863281 112.3125 228.488281 103.65625 228.488281 L 82.605469 228.488281 C 73.945312 228.488281 70.074219 237.863281 70.074219 246.078125 L 70.074219 283.570312 L 115.339844 283.570312 L 115.339844 246.078125 " fill-opacity="1" fill-rule="nonzero"/><path fill="#8c52ff" d="M 106.347656 210.382812 C 106.347656 218.195312 100.011719 228.015625 92.203125 228.015625 C 84.457031 228.015625 78.058594 218.195312 78.058594 210.382812 C 78.058594 202.574219 78.699219 192.746094 92.203125 192.746094 C 104.859375 192.746094 106.347656 202.574219 106.347656 210.382812 " fill-opacity="1" fill-rule="nonzero"/><path fill="#8c52ff" d="M 85.140625 209.914062 C 85.140625 212.660156 83.179688 214.890625 80.769531 214.890625 C 78.355469 214.890625 76.402344 212.660156 76.402344 209.914062 C 76.402344 207.179688 78.355469 204.953125 80.769531 204.953125 C 83.179688 204.953125 85.140625 207.179688 85.140625 209.914062 " fill-opacity="1" fill-rule="nonzero"/><path fill="#8c52ff" d="M 108.136719 209.914062 C 108.136719 212.660156 106.183594 214.890625 103.769531 214.890625 C 101.359375 214.890625 99.398438 212.660156 99.398438 209.914062 C 99.398438 207.179688 101.359375 204.953125 103.769531 204.953125 C 106.183594 204.953125 108.136719 207.179688 108.136719 209.914062 " fill-opacity="1" fill-rule="nonzero"/><path fill="#8c52ff" d="M 99.882812 236.472656 L 84.65625 236.472656 L 84.65625 217.539062 L 99.882812 217.539062 L 99.882812 236.472656 " fill-opacity="1" fill-rule="nonzero"/><path fill="#5ce1e6" d="M 92.265625 240.757812 L 89.089844 236.003906 L 85.914062 231.230469 L 98.628906 231.230469 L 95.453125 236.003906 L 92.265625 240.757812 " fill-opacity="1" fill-rule="nonzero"/><path fill="#5ce1e6" d="M 92.265625 272.789062 L 88.511719 267.101562 L 84.746094 261.410156 L 92.265625 240.117188 L 99.785156 261.410156 L 96.027344 267.101562 L 92.265625 272.789062 " fill-opacity="1" fill-rule="nonzero"/><path fill="#8c52ff" d="M 184.332031 293.21875 C 184.332031 284.398438 180.808594 274.308594 175.386719 274.308594 C 175.386719 274.308594 174.75 272.859375 168.28125 276.144531 C 163.894531 278.375 158.066406 290.429688 157.054688 295.066406 C 156.660156 296.851562 156.539062 295.203125 156.539062 299.539062 C 156.539062 303.214844 161.417969 318.269531 161.417969 318.269531 L 184.332031 318.269531 L 184.332031 293.21875 " fill-opacity="1" fill-rule="nonzero"/><path fill="#8c52ff" d="M 162.539062 318.746094 C 162.476562 321.851562 164.890625 323.589844 167.914062 323.617188 C 170.929688 323.636719 173.394531 321.929688 173.445312 318.824219 C 173.492188 315.710938 171.117188 311.566406 168.113281 311.539062 C 165.09375 311.527344 162.582031 315.628906 162.539062 318.746094 " fill-opacity="1" fill-rule="nonzero"/><path fill="#8c52ff" d="M 174.554688 315.371094 C 173.667969 313.929688 170.335938 312.050781 168.9375 312.476562 C 167.527344 312.90625 168.605469 315.472656 169.496094 316.914062 C 170.390625 318.355469 173.855469 320.035156 175.25 319.601562 C 176.644531 319.179688 175.460938 316.820312 174.554688 315.371094 " fill-opacity="1" fill-rule="nonzero"/><path fill="#8c52ff" d="M 193.300781 293.21875 C 193.300781 284.398438 196.839844 274.308594 202.25 274.308594 C 202.25 274.308594 202.894531 272.859375 209.371094 276.144531 C 213.753906 278.375 219.578125 290.429688 220.589844 295.066406 C 220.984375 296.851562 221.105469 295.203125 221.105469 299.539062 C 221.105469 303.214844 216.234375 318.269531 216.234375 318.269531 L 193.300781 318.269531 L 193.300781 293.21875 " fill-opacity="1" fill-rule="nonzero"/><path fill="#8c52ff" d="M 215.113281 318.746094 C 215.167969 321.851562 212.742188 323.589844 209.734375 323.617188 C 206.722656 323.636719 204.246094 321.929688 204.195312 318.824219 C 204.144531 315.710938 206.515625 311.566406 209.535156 311.539062 C 212.550781 311.527344 215.058594 315.628906 215.113281 318.746094 " fill-opacity="1" fill-rule="nonzero"/><path fill="#8c52ff" d="M 203.085938 315.371094 C 203.984375 313.929688 207.304688 312.050781 208.703125 312.476562 C 210.101562 312.90625 209.042969 315.472656 208.148438 316.914062 C 207.261719 318.355469 203.785156 320.035156 202.390625 319.601562 C 200.996094 319.179688 202.1875 316.820312 203.085938 315.371094 " fill-opacity="1" fill-rule="nonzero"/><path fill="#8c52ff" d="M 211.09375 290.71875 C 211.09375 282.511719 208.054688 273.132812 199.40625 273.132812 L 178.34375 273.132812 C 169.695312 273.132812 165.808594 282.511719 165.808594 290.71875 L 165.808594 328.210938 L 211.09375 328.210938 L 211.09375 290.71875 " fill-opacity="1" fill-rule="nonzero"/><path fill="#8c52ff" d="M 202.089844 255.035156 C 202.089844 262.839844 195.753906 272.664062 187.941406 272.664062 C 180.195312 272.664062 173.800781 262.839844 173.800781 255.035156 C 173.800781 247.222656 174.453125 237.394531 187.941406 237.394531 C 200.605469 237.394531 202.089844 247.222656 202.089844 255.035156 " fill-opacity="1" fill-rule="nonzero"/><path fill="#8c52ff" d="M 180.882812 254.566406 C 180.882812 257.304688 178.933594 259.535156 176.507812 259.535156 C 174.101562 259.535156 172.152344 257.304688 172.152344 254.566406 C 172.152344 251.828125 174.101562 249.601562 176.507812 249.601562 C 178.933594 249.601562 180.882812 251.828125 180.882812 254.566406 " fill-opacity="1" fill-rule="nonzero"/><path fill="#8c52ff" d="M 203.882812 254.566406 C 203.882812 257.304688 201.925781 259.535156 199.515625 259.535156 C 197.105469 259.535156 195.148438 257.304688 195.148438 254.566406 C 195.148438 251.828125 197.105469 249.601562 199.515625 249.601562 C 201.925781 249.601562 203.882812 251.828125 203.882812 254.566406 " fill-opacity="1" fill-rule="nonzero"/><path fill="#8c52ff" d="M 195.625 281.117188 L 180.394531 281.117188 L 180.394531 262.183594 L 195.625 262.183594 L 195.625 281.117188 " fill-opacity="1" fill-rule="nonzero"/><path fill="#5ce1e6" d="M 188.011719 285.402344 L 184.839844 280.640625 L 181.660156 275.878906 L 194.378906 275.878906 L 188.011719 285.402344 " fill-opacity="1" fill-rule="nonzero"/><path fill="#5ce1e6" d="M 188.011719 317.4375 L 184.257812 311.75 L 180.496094 306.054688 L 188.011719 284.761719 L 195.53125 306.054688 L 191.78125 311.75 L 188.011719 317.4375 " fill-opacity="1" fill-rule="nonzero"/><path fill="#8c52ff" d="M 277.453125 248.570312 C 277.453125 239.75 273.925781 229.664062 268.503906 229.664062 C 268.503906 229.664062 267.867188 228.210938 261.390625 231.5 C 257.003906 233.730469 251.179688 245.785156 250.164062 250.414062 C 249.777344 252.203125 249.660156 250.554688 249.660156 254.890625 C 249.660156 258.570312 254.523438 273.628906 254.523438 273.628906 L 277.453125 273.628906 L 277.453125 248.570312 " fill-opacity="1" fill-rule="nonzero"/><path fill="#8c52ff" d="M 255.652344 274.101562 C 255.59375 277.207031 258.015625 278.9375 261.023438 278.96875 C 264.035156 278.992188 266.507812 277.285156 266.554688 274.179688 C 266.609375 271.066406 264.238281 266.921875 261.222656 266.890625 C 258.207031 266.878906 255.695312 270.984375 255.652344 274.101562 " fill-opacity="1" fill-rule="nonzero"/><path fill="#8c52ff" d="M 267.671875 270.722656 C 266.773438 269.28125 263.445312 267.402344 262.050781 267.835938 C 260.644531 268.257812 261.71875 270.828125 262.605469 272.265625 C 263.496094 273.710938 266.972656 275.386719 268.367188 274.957031 C 269.757812 274.53125 268.574219 272.171875 267.671875 270.722656 " fill-opacity="1" fill-rule="nonzero"/><path fill="#8c52ff" d="M 286.417969 248.574219 C 286.417969 239.753906 289.949219 229.664062 295.367188 229.664062 C 295.367188 229.664062 296.003906 228.210938 302.476562 231.5 C 306.859375 233.730469 312.6875 245.785156 313.703125 250.414062 C 314.097656 252.203125 314.214844 250.554688 314.214844 254.890625 C 314.214844 258.570312 309.34375 273.628906 309.34375 273.628906 L 286.417969 273.628906 L 286.417969 248.574219 " fill-opacity="1" fill-rule="nonzero"/><path fill="#8c52ff" d="M 308.222656 274.101562 C 308.285156 277.203125 305.855469 278.9375 302.851562 278.96875 C 299.832031 278.992188 297.367188 277.285156 297.316406 274.179688 C 297.253906 271.0625 299.636719 266.921875 302.640625 266.890625 C 305.660156 266.878906 308.171875 270.984375 308.222656 274.101562 " fill-opacity="1" fill-rule="nonzero"/><path fill="#8c52ff" d="M 296.203125 270.722656 C 297.101562 269.28125 300.425781 267.402344 301.820312 267.835938 C 303.222656 268.257812 302.152344 270.828125 301.261719 272.265625 C 300.371094 273.714844 296.902344 275.386719 295.503906 274.957031 C 294.109375 274.53125 295.300781 272.175781 296.203125 270.722656 " fill-opacity="1" fill-rule="nonzero"/><path fill="#8c52ff" d="M 304.199219 246.074219 C 304.199219 237.863281 301.167969 228.488281 292.519531 228.488281 L 271.464844 228.488281 C 262.808594 228.488281 258.933594 237.863281 258.933594 246.074219 L 258.933594 283.570312 L 304.199219 283.570312 L 304.199219 246.074219 " fill-opacity="1" fill-rule="nonzero"/><path fill="#8c52ff" d="M 295.207031 210.382812 C 295.207031 218.195312 288.863281 228.019531 281.058594 228.019531 C 273.3125 228.019531 266.917969 218.195312 266.917969 210.382812 C 266.917969 202.574219 267.554688 192.746094 281.058594 192.746094 C 293.71875 192.746094 295.207031 202.574219 295.207031 210.382812 " fill-opacity="1" fill-rule="nonzero"/><path fill="#8c52ff" d="M 273.992188 209.914062 C 273.992188 212.660156 272.042969 214.886719 269.625 214.886719 C 267.207031 214.886719 265.261719 212.660156 265.261719 209.914062 C 265.261719 207.179688 267.207031 204.953125 269.625 204.953125 C 272.042969 204.953125 273.992188 207.179688 273.992188 209.914062 " fill-opacity="1" fill-rule="nonzero"/><path fill="#8c52ff" d="M 297 209.914062 C 297 212.660156 295.039062 214.890625 292.625 214.890625 C 290.21875 214.890625 288.261719 212.660156 288.261719 209.914062 C 288.261719 207.179688 290.21875 204.953125 292.625 204.953125 C 295.039062 204.953125 297 207.179688 297 209.914062 " fill-opacity="1" fill-rule="nonzero"/><path fill="#8c52ff" d="M 288.734375 236.472656 L 273.507812 236.472656 L 273.507812 217.539062 L 288.734375 217.539062 L 288.734375 236.472656 " fill-opacity="1" fill-rule="nonzero"/><path fill="#5ce1e6" d="M 281.128906 240.757812 L 277.949219 236.003906 L 274.777344 231.230469 L 287.492188 231.230469 L 284.3125 236.003906 L 281.128906 240.757812 " fill-opacity="1" fill-rule="nonzero"/><path fill="#5ce1e6" d="M 281.125 272.789062 L 277.375 267.101562 L 273.613281 261.410156 L 281.125 240.117188 L 288.640625 261.410156 L 284.886719 267.101562 L 281.125 272.789062 " fill-opacity="1" fill-rule="nonzero"/><path fill="#8c52ff" d="M 115.457031 217.738281 L 113.027344 215.3125 L 144.5625 183.773438 L 146.988281 186.199219 L 115.457031 217.738281 " fill-opacity="1" fill-rule="nonzero"/><path fill="#8c52ff" d="M 257.511719 217.738281 L 259.941406 215.3125 L 228.40625 183.773438 L 225.980469 186.199219 L 257.511719 217.738281 " fill-opacity="1" fill-rule="nonzero"/><path fill="#8c52ff" d="M 188.917969 229.152344 L 185.496094 229.152344 L 185.496094 191.820312 L 188.917969 191.820312 L 188.917969 229.152344 " fill-opacity="1" fill-rule="nonzero"/></svg>