<svg xmlns="http://www.w3.org/2000/svg" xmlns:xlink="http://www.w3.org/1999/xlink" width="500" zoomAndPan="magnify" viewBox="0 0 375 374.999991" height="500" preserveAspectRatio="xMidYMid meet" version="1.0"><defs><clipPath id="0511de5f30"><path d="M 144 15.792969 L 244 15.792969 L 244 104 L 144 104 Z M 144 15.792969 " clip-rule="nonzero"/></clipPath><clipPath id="710e61dc85"><path d="M 3.03125 103 L 291 103 L 291 359.292969 L 3.03125 359.292969 Z M 3.03125 103 " clip-rule="nonzero"/></clipPath></defs><g clip-path="url(#0511de5f30)"><path fill="#5170ff" d="M 148.464844 103.605469 L 224.84375 103.605469 C 226.820312 103.605469 228.425781 102.003906 228.425781 100.023438 L 228.425781 93.453125 C 228.425781 88.492188 227.558594 83.636719 225.882812 79.066406 L 226.367188 77.640625 L 226.542969 77.644531 L 228.726562 80.167969 C 229.085938 80.585938 229.605469 80.8125 230.132812 80.8125 C 230.359375 80.8125 230.589844 80.773438 230.808594 80.6875 L 232.9375 79.859375 L 231.867188 82.546875 C 233.957031 83.378906 236.054688 84.28125 238.101562 85.222656 L 239.855469 81.421875 C 238.136719 80.628906 236.386719 79.867188 234.632812 79.148438 C 235.148438 78.796875 235.464844 78.199219 235.445312 77.554688 L 235.347656 74.21875 L 236.261719 73.34375 L 239.589844 73.585938 C 240.375 73.644531 241.109375 73.199219 241.425781 72.480469 L 242.917969 69.089844 C 243.234375 68.367188 243.0625 67.527344 242.492188 66.984375 L 240.0625 64.695312 L 240.089844 63.433594 L 242.617188 61.25 C 243.210938 60.734375 243.417969 59.902344 243.132812 59.167969 L 241.789062 55.714844 C 241.503906 54.980469 240.789062 54.507812 240 54.53125 L 236.664062 54.628906 L 235.789062 53.714844 L 236.03125 50.386719 C 236.089844 49.601562 235.648438 48.867188 234.925781 48.546875 L 231.535156 47.054688 C 230.816406 46.738281 229.972656 46.910156 229.429688 47.484375 L 227.140625 49.910156 L 225.878906 49.882812 L 223.695312 47.359375 C 223.183594 46.761719 222.347656 46.554688 221.613281 46.839844 L 218.160156 48.183594 C 217.425781 48.46875 216.953125 49.1875 216.976562 49.972656 L 217.074219 53.308594 L 216.160156 54.183594 L 212.832031 53.941406 C 212.046875 53.882812 211.308594 54.328125 210.992188 55.046875 L 209.5 58.4375 C 209.496094 58.449219 209.492188 58.457031 209.488281 58.46875 C 208.675781 57.9375 207.847656 57.433594 206.996094 56.960938 C 210.410156 52.515625 212.257812 47.105469 212.257812 41.410156 C 212.257812 34.570312 209.59375 28.136719 204.757812 23.300781 C 199.921875 18.464844 193.492188 15.800781 186.652344 15.800781 C 179.8125 15.800781 173.378906 18.464844 168.542969 23.300781 C 163.707031 28.136719 161.042969 34.570312 161.042969 41.410156 C 161.042969 47.105469 162.890625 52.515625 166.304688 56.960938 C 160.355469 60.285156 155.296875 65.015625 151.566406 70.773438 C 150.980469 71.675781 150.433594 72.601562 149.921875 73.539062 C 148.925781 73.800781 147.921875 74.074219 146.933594 74.359375 L 147.917969 77.789062 C 145.917969 82.730469 144.878906 88.035156 144.878906 93.449219 L 144.878906 100.023438 C 144.882812 102.003906 146.488281 103.605469 148.464844 103.605469 Z M 213.875 57.75 L 216.71875 57.957031 C 217.246094 57.996094 217.761719 57.808594 218.140625 57.445312 L 220.25 55.425781 C 220.628906 55.0625 220.835938 54.554688 220.820312 54.027344 L 220.738281 51.175781 L 221.742188 50.785156 L 223.605469 52.945312 C 223.949219 53.34375 224.445312 53.578125 224.972656 53.585938 L 227.890625 53.652344 C 228.414062 53.664062 228.925781 53.449219 229.285156 53.066406 L 231.242188 50.992188 L 232.226562 51.425781 L 232.019531 54.269531 C 231.984375 54.792969 232.167969 55.3125 232.535156 55.691406 L 234.550781 57.800781 C 234.917969 58.179688 235.425781 58.390625 235.949219 58.371094 L 238.800781 58.289062 L 239.191406 59.292969 L 237.03125 61.15625 C 236.636719 61.5 236.402344 62 236.390625 62.523438 L 236.328125 65.441406 C 236.316406 65.96875 236.527344 66.476562 236.910156 66.835938 L 238.984375 68.792969 L 238.550781 69.78125 L 235.707031 69.574219 C 235.183594 69.535156 234.667969 69.71875 234.285156 70.085938 L 232.179688 72.101562 C 231.796875 72.46875 231.589844 72.976562 231.605469 73.503906 L 231.6875 76.351562 L 230.683594 76.742188 L 228.820312 74.585938 C 228.476562 74.1875 227.976562 73.953125 227.453125 73.941406 L 224.535156 73.878906 C 224.519531 73.878906 224.507812 73.878906 224.492188 73.878906 C 224.203125 73.878906 223.921875 73.949219 223.667969 74.074219 C 222.976562 72.757812 222.214844 71.476562 221.378906 70.230469 C 221.753906 70.507812 222.152344 70.761719 222.578125 70.972656 C 223.722656 71.550781 224.957031 71.84375 226.203125 71.84375 C 227.054688 71.84375 227.910156 71.707031 228.738281 71.433594 C 230.789062 70.757812 232.449219 69.324219 233.421875 67.398438 C 234.390625 65.472656 234.554688 63.285156 233.878906 61.238281 C 233.203125 59.1875 231.773438 57.527344 229.847656 56.554688 C 227.921875 55.585938 225.730469 55.421875 223.683594 56.097656 C 221.636719 56.773438 219.972656 58.203125 219.003906 60.128906 C 218.03125 62.054688 217.871094 64.246094 218.542969 66.292969 C 218.578125 66.394531 218.617188 66.5 218.65625 66.601562 C 217.832031 65.621094 216.964844 64.679688 216.0625 63.78125 L 216.097656 62.085938 C 216.109375 61.558594 215.898438 61.050781 215.511719 60.691406 L 213.4375 58.734375 Z M 222.328125 61.804688 C 222.851562 60.765625 223.746094 59.996094 224.851562 59.632812 C 225.296875 59.484375 225.757812 59.410156 226.21875 59.410156 C 226.886719 59.410156 227.554688 59.566406 228.171875 59.878906 C 229.207031 60.402344 229.980469 61.296875 230.34375 62.402344 C 230.707031 63.503906 230.621094 64.683594 230.097656 65.722656 C 229.574219 66.761719 228.679688 67.53125 227.574219 67.894531 C 226.472656 68.261719 225.292969 68.171875 224.253906 67.648438 C 223.214844 67.125 222.445312 66.230469 222.082031 65.125 C 221.714844 64.023438 221.804688 62.84375 222.328125 61.804688 Z M 186.65625 22.96875 C 196.824219 22.96875 205.097656 31.238281 205.097656 41.410156 C 205.097656 51.578125 196.824219 59.851562 186.65625 59.851562 C 176.484375 59.851562 168.210938 51.578125 168.210938 41.410156 C 168.210938 31.238281 176.484375 22.96875 186.65625 22.96875 Z M 152.046875 93.453125 C 152.046875 86.753906 153.964844 80.261719 157.585938 74.667969 C 161.074219 69.28125 165.960938 64.984375 171.726562 62.222656 C 176.050781 65.335938 181.222656 67.015625 186.652344 67.015625 C 192.085938 67.015625 197.257812 65.335938 201.578125 62.222656 C 207.136719 64.878906 211.875 68.960938 215.351562 74.105469 C 219.214844 79.824219 221.257812 86.515625 221.257812 93.453125 L 221.257812 96.441406 L 152.046875 96.441406 Z M 152.046875 93.453125 " fill-opacity="1" fill-rule="nonzero"/></g><g clip-path="url(#710e61dc85)"><path fill="#5170ff" d="M 253.097656 236.117188 L 249.410156 233.6875 L 249.144531 231.957031 L 251.9375 228.535156 C 252.5625 227.769531 252.636719 226.699219 252.125 225.859375 L 249.613281 221.710938 C 249.105469 220.867188 248.121094 220.4375 247.15625 220.636719 L 242.828125 221.527344 L 241.417969 220.488281 L 240.972656 216.09375 C 240.875 215.113281 240.167969 214.304688 239.214844 214.070312 L 234.503906 212.910156 C 234.1875 212.835938 233.867188 212.824219 233.5625 212.878906 C 234.335938 210.550781 234.933594 208.175781 235.351562 205.757812 L 280.855469 205.757812 L 278.464844 208.148438 C 277.390625 209.21875 277.390625 210.957031 278.464844 212.03125 C 279 212.566406 279.703125 212.835938 280.40625 212.835938 C 281.109375 212.835938 281.8125 212.566406 282.347656 212.03125 L 289.5 204.878906 C 290.570312 203.804688 290.570312 202.066406 289.5 200.996094 L 282.347656 193.839844 C 281.273438 192.769531 279.535156 192.769531 278.464844 193.839844 C 277.390625 194.914062 277.390625 196.652344 278.464844 197.722656 L 281.007812 200.269531 L 235.992188 200.269531 C 236.367188 194.097656 235.585938 187.964844 233.664062 182.015625 C 231.792969 176.222656 228.941406 170.917969 225.175781 166.222656 L 232.671875 159.238281 L 254.167969 161.277344 C 254.28125 161.289062 254.394531 161.292969 254.503906 161.292969 C 255.40625 161.292969 256.28125 160.953125 256.945312 160.332031 L 279.484375 139.332031 C 280.515625 138.367188 280.886719 136.890625 280.433594 135.554688 C 279.980469 134.222656 278.785156 133.277344 277.382812 133.144531 L 257.449219 131.25 L 256.964844 111.234375 C 256.933594 109.824219 256.074219 108.566406 254.773438 108.019531 C 253.472656 107.472656 251.972656 107.738281 250.941406 108.699219 L 228.402344 129.703125 C 227.65625 130.402344 227.238281 131.386719 227.265625 132.410156 L 227.785156 153.996094 L 220.300781 160.96875 C 216.945312 157.835938 213.171875 155.1875 209.03125 153.070312 C 203.292969 150.132812 197.136719 148.355469 190.742188 147.792969 C 190.292969 147.753906 189.84375 147.722656 189.398438 147.695312 L 189.398438 113.089844 L 191.804688 115.496094 C 192.339844 116.03125 193.042969 116.300781 193.746094 116.300781 C 194.449219 116.300781 195.148438 116.03125 195.6875 115.496094 C 196.757812 114.425781 196.757812 112.6875 195.6875 111.613281 L 188.53125 104.460938 C 187.460938 103.390625 185.722656 103.390625 184.648438 104.460938 L 177.496094 111.613281 C 176.425781 112.6875 176.425781 114.425781 177.496094 115.496094 C 178.570312 116.570312 180.308594 116.570312 181.378906 115.496094 L 183.90625 112.96875 L 183.90625 147.664062 C 179.597656 147.882812 175.324219 148.667969 171.144531 150.019531 C 164.765625 152.078125 158.980469 155.328125 153.949219 159.675781 C 149.089844 163.871094 145.136719 168.910156 142.199219 174.652344 C 139.257812 180.390625 137.484375 186.546875 136.921875 192.941406 C 136.707031 195.394531 136.671875 197.835938 136.820312 200.269531 L 94.34375 200.269531 L 97.074219 197.539062 C 98.144531 196.464844 98.144531 194.726562 97.074219 193.65625 C 96 192.585938 94.261719 192.585938 93.191406 193.65625 L 86.035156 200.808594 C 85.238281 201.609375 85.035156 202.78125 85.429688 203.765625 C 82.699219 201.03125 79.601562 198.683594 76.214844 196.796875 C 79.628906 192.351562 81.476562 186.941406 81.476562 181.242188 C 81.476562 174.402344 78.8125 167.972656 73.976562 163.136719 C 70.824219 159.984375 67 157.757812 62.824219 156.585938 C 62.976562 156.1875 63.132812 155.789062 63.289062 155.394531 L 59.394531 153.855469 C 59.140625 154.492188 58.894531 155.136719 58.648438 155.785156 C 57.730469 155.6875 56.804688 155.636719 55.871094 155.636719 C 49.03125 155.636719 42.597656 158.296875 37.761719 163.136719 C 32.925781 167.972656 30.261719 174.402344 30.261719 181.242188 C 30.261719 183.902344 30.667969 186.5 31.445312 188.964844 L 30.230469 189.027344 L 29.355469 188.148438 L 29.53125 184.847656 C 29.574219 184.0625 29.117188 183.335938 28.386719 183.03125 L 24.996094 181.621094 C 24.269531 181.316406 23.433594 181.503906 22.902344 182.085938 L 20.683594 184.535156 L 19.445312 184.53125 L 17.238281 182.074219 C 16.710938 181.488281 15.871094 181.300781 15.144531 181.597656 L 11.746094 182.996094 C 11.019531 183.296875 10.558594 184.023438 10.597656 184.808594 L 10.757812 188.105469 L 9.882812 188.980469 L 6.582031 188.808594 C 5.796875 188.765625 5.070312 189.222656 4.765625 189.949219 L 3.351562 193.339844 C 3.050781 194.066406 3.238281 194.90625 3.820312 195.4375 L 6.269531 197.652344 L 6.265625 198.894531 L 3.808594 201.101562 C 3.222656 201.628906 3.03125 202.464844 3.332031 203.195312 L 4.730469 206.589844 C 5.03125 207.320312 5.757812 207.777344 6.542969 207.742188 L 9.839844 207.578125 L 10.714844 208.457031 L 10.542969 211.753906 C 10.5 212.542969 10.957031 213.269531 11.683594 213.570312 L 15.074219 214.984375 C 15.308594 215.082031 15.550781 215.128906 15.789062 215.128906 C 16.304688 215.128906 16.808594 214.914062 17.171875 214.515625 L 19.386719 212.070312 L 19.882812 212.070312 C 16.09375 218.484375 14.101562 225.78125 14.101562 233.28125 L 14.101562 239.855469 C 14.101562 241.832031 15.703125 243.4375 17.683594 243.4375 L 56.292969 243.4375 C 56.414062 243.820312 56.535156 244.203125 56.660156 244.582031 L 60.167969 243.4375 L 94.058594 243.4375 C 96.039062 243.4375 97.640625 241.832031 97.640625 239.855469 L 97.640625 233.28125 C 97.640625 224.914062 95.175781 216.835938 90.507812 209.925781 C 89.8125 208.894531 89.070312 207.902344 88.292969 206.945312 L 93.191406 211.84375 C 93.730469 212.378906 94.433594 212.648438 95.132812 212.648438 C 95.835938 212.648438 96.539062 212.378906 97.074219 211.84375 C 98.148438 210.769531 98.148438 209.03125 97.074219 207.960938 L 94.871094 205.753906 L 137.46875 205.753906 C 137.867188 208.035156 138.429688 210.296875 139.148438 212.535156 C 141.210938 218.914062 144.457031 224.699219 148.804688 229.730469 C 153.003906 234.589844 158.042969 238.542969 163.785156 241.484375 C 169.523438 244.421875 175.675781 246.195312 182.074219 246.757812 C 182.6875 246.8125 183.300781 246.855469 183.910156 246.886719 L 183.910156 263.351562 L 181.476562 260.914062 C 180.40625 259.84375 178.667969 259.84375 177.59375 260.914062 C 176.523438 261.988281 176.523438 263.726562 177.59375 264.796875 L 184.296875 271.5 C 178.347656 272.042969 172.824219 274.617188 168.550781 278.894531 C 163.714844 283.730469 161.050781 290.160156 161.050781 297 C 161.050781 300.273438 161.660156 303.449219 162.824219 306.402344 L 160.925781 306.796875 L 159.917969 306.058594 L 159.578125 302.753906 C 159.5 301.96875 158.933594 301.320312 158.167969 301.136719 L 154.582031 300.261719 C 153.820312 300.074219 153.019531 300.386719 152.585938 301.046875 L 150.761719 303.824219 L 149.523438 304.015625 L 146.949219 301.917969 C 146.339844 301.421875 145.480469 301.363281 144.808594 301.769531 L 141.65625 303.6875 C 140.980469 304.097656 140.640625 304.882812 140.800781 305.65625 L 141.472656 308.90625 L 140.730469 309.917969 L 137.429688 310.257812 C 136.644531 310.335938 135.996094 310.902344 135.8125 311.667969 L 134.933594 315.25 C 134.75 316.015625 135.0625 316.816406 135.722656 317.25 L 138.496094 319.074219 L 138.6875 320.308594 L 136.59375 322.886719 C 136.292969 323.253906 136.152344 323.710938 136.179688 324.164062 L 134.839844 327.554688 C 136.980469 328.398438 139.171875 329.195312 141.351562 329.925781 L 141.746094 328.742188 L 143.578125 328.363281 L 144.589844 329.101562 L 144.929688 332.40625 C 145.007812 333.1875 145.574219 333.835938 146.339844 334.023438 L 147.558594 334.320312 C 145.800781 338.996094 144.886719 343.972656 144.886719 349.046875 L 144.886719 355.617188 C 144.886719 357.597656 146.492188 359.199219 148.46875 359.199219 L 224.847656 359.199219 C 226.824219 359.199219 228.429688 357.597656 228.429688 355.617188 L 228.429688 349.046875 C 228.429688 342.613281 226.972656 336.351562 224.175781 330.664062 C 224.382812 330.597656 224.59375 330.53125 224.800781 330.464844 L 223.523438 326.476562 C 223.050781 326.628906 222.574219 326.777344 222.097656 326.921875 C 221.835938 326.507812 221.570312 326.09375 221.292969 325.6875 C 217.597656 320.214844 212.710938 315.734375 207.007812 312.554688 C 210.417969 308.109375 212.265625 302.699219 212.265625 297.003906 C 212.265625 290.164062 209.601562 283.730469 204.765625 278.894531 C 200.503906 274.632812 195.003906 272.058594 189.078125 271.507812 L 195.785156 264.800781 C 196.859375 263.726562 196.859375 261.988281 195.785156 260.917969 C 194.714844 259.84375 192.976562 259.84375 191.902344 260.917969 L 189.402344 263.417969 L 189.402344 246.863281 C 193.546875 246.609375 197.652344 245.835938 201.671875 244.535156 C 205.960938 243.152344 209.980469 241.226562 213.683594 238.796875 L 213.738281 239.144531 L 210.945312 242.566406 C 210.320312 243.332031 210.246094 244.402344 210.757812 245.242188 L 213.269531 249.390625 C 213.777344 250.234375 214.761719 250.664062 215.726562 250.464844 L 220.054688 249.574219 L 221.464844 250.613281 L 221.910156 255.007812 C 222.007812 255.988281 222.714844 256.796875 223.667969 257.03125 L 228.378906 258.191406 C 228.5625 258.234375 228.75 258.257812 228.933594 258.257812 C 229.703125 258.257812 230.441406 257.875 230.875 257.210938 L 233.304688 253.523438 L 235.039062 253.257812 L 238.460938 256.050781 C 239.222656 256.671875 240.292969 256.746094 241.136719 256.238281 L 245.285156 253.726562 C 246.125 253.214844 246.554688 252.230469 246.359375 251.265625 L 245.46875 246.941406 L 246.507812 245.527344 L 250.898438 245.085938 C 251.878906 244.984375 252.691406 244.28125 252.925781 243.324219 L 254.082031 238.613281 C 254.3125 237.660156 253.921875 236.660156 253.097656 236.117188 Z M 55.867188 162.800781 C 66.035156 162.800781 74.308594 171.074219 74.308594 181.242188 C 74.308594 191.414062 66.039062 199.683594 55.867188 199.683594 C 45.699219 199.683594 37.425781 191.414062 37.425781 181.242188 C 37.425781 171.074219 45.699219 162.800781 55.867188 162.800781 Z M 35.519531 196.796875 C 34.941406 197.121094 34.371094 197.460938 33.804688 197.808594 L 33.804688 197.710938 L 35.238281 196.421875 C 35.332031 196.546875 35.425781 196.671875 35.519531 196.796875 Z M 18.566406 208.347656 C 18.566406 208.347656 18.5625 208.347656 18.5625 208.347656 C 18.035156 208.347656 17.535156 208.570312 17.183594 208.960938 L 15.292969 211.046875 L 14.324219 210.640625 L 14.476562 207.832031 C 14.503906 207.304688 14.308594 206.792969 13.933594 206.417969 L 11.894531 204.367188 C 11.523438 203.996094 11.011719 203.796875 10.484375 203.820312 L 7.671875 203.960938 L 7.273438 202.992188 L 9.367188 201.109375 C 9.757812 200.757812 9.984375 200.257812 9.984375 199.730469 L 9.988281 196.835938 C 9.992188 196.308594 9.769531 195.804688 9.378906 195.453125 L 7.292969 193.5625 L 7.695312 192.59375 L 10.507812 192.746094 C 11.03125 192.773438 11.546875 192.578125 11.917969 192.203125 L 13.96875 190.164062 C 14.34375 189.792969 14.542969 189.277344 14.515625 188.753906 L 14.378906 185.941406 L 15.34375 185.542969 L 17.226562 187.636719 C 17.578125 188.027344 18.082031 188.253906 18.609375 188.253906 L 21.503906 188.257812 C 21.503906 188.257812 21.503906 188.257812 21.507812 188.257812 C 22.03125 188.257812 22.53125 188.039062 22.886719 187.648438 L 24.777344 185.5625 L 25.742188 185.964844 L 25.59375 188.777344 C 25.566406 189.300781 25.761719 189.816406 26.132812 190.1875 L 28.175781 192.238281 C 28.546875 192.613281 29.058594 192.808594 29.585938 192.785156 L 32.398438 192.648438 L 32.796875 193.613281 L 30.703125 195.496094 C 30.308594 195.847656 30.085938 196.351562 30.085938 196.878906 L 30.078125 199.773438 C 30.078125 199.96875 30.109375 200.164062 30.167969 200.351562 C 27.171875 202.691406 24.5 205.4375 22.226562 208.523438 C 21.992188 208.417969 21.734375 208.355469 21.457031 208.355469 Z M 90.472656 236.273438 L 21.261719 236.273438 L 21.261719 233.285156 C 21.261719 226.589844 23.175781 220.09375 26.796875 214.503906 C 30.285156 209.117188 35.171875 204.820312 40.941406 202.054688 C 45.261719 205.167969 50.4375 206.851562 55.867188 206.851562 C 61.296875 206.851562 66.472656 205.167969 70.792969 202.054688 C 76.351562 204.714844 81.089844 208.796875 84.566406 213.941406 C 88.429688 219.660156 90.472656 226.351562 90.472656 233.285156 Z M 225.882812 233.871094 C 226.640625 231.367188 228.949219 229.746094 231.441406 229.746094 C 231.996094 229.746094 232.5625 229.824219 233.117188 229.992188 C 236.183594 230.917969 237.921875 234.164062 236.996094 237.230469 C 236.546875 238.714844 235.546875 239.933594 234.179688 240.667969 C 232.816406 241.398438 231.246094 241.554688 229.757812 241.105469 C 226.695312 240.183594 224.957031 236.9375 225.882812 233.871094 Z M 253.242188 153.992188 L 239.683594 152.703125 L 254.890625 138.535156 L 255.210938 138.234375 L 268.769531 139.523438 Z M 249.996094 119.375 L 250.324219 132.992188 L 234.796875 147.460938 L 234.46875 133.847656 Z M 145.109375 324.871094 C 144.683594 324.558594 144.148438 324.441406 143.632812 324.550781 L 140.855469 325.125 L 140.304688 324.214844 L 142.09375 322.015625 C 142.425781 321.609375 142.570312 321.078125 142.492188 320.558594 L 142.046875 317.683594 C 141.964844 317.164062 141.671875 316.703125 141.230469 316.414062 L 138.859375 314.855469 L 139.113281 313.824219 L 141.933594 313.535156 C 142.457031 313.480469 142.933594 313.207031 143.242188 312.785156 L 144.960938 310.4375 C 145.273438 310.011719 145.390625 309.476562 145.28125 308.960938 L 144.707031 306.1875 L 145.617188 305.632812 L 147.816406 307.421875 C 148.222656 307.753906 148.753906 307.902344 149.273438 307.820312 L 152.148438 307.375 C 152.667969 307.296875 153.128906 307 153.417969 306.558594 L 154.972656 304.1875 L 156.007812 304.441406 L 156.296875 307.261719 C 156.351562 307.785156 156.625 308.261719 157.046875 308.574219 L 159.394531 310.289062 C 159.816406 310.601562 160.355469 310.71875 160.871094 310.613281 L 163.644531 310.035156 L 164.199219 310.945312 L 162.40625 313.144531 C 162.074219 313.550781 161.933594 314.082031 162.011719 314.605469 L 162.109375 315.242188 C 161.476562 315.703125 160.855469 316.179688 160.25 316.675781 C 159.894531 313.574219 157.742188 310.828125 154.570312 309.875 C 152.511719 309.253906 150.332031 309.472656 148.4375 310.492188 C 146.546875 311.511719 145.160156 313.207031 144.542969 315.265625 C 143.265625 319.515625 145.683594 324.011719 149.933594 325.289062 C 150.640625 325.503906 151.355469 325.613281 152.0625 325.628906 C 151.898438 325.871094 151.734375 326.117188 151.570312 326.367188 C 151.164062 326.996094 150.777344 327.632812 150.40625 328.277344 C 149.964844 328.160156 149.527344 328.039062 149.089844 327.917969 L 148.445312 330.238281 L 148.207031 327.898438 C 148.152344 327.375 147.878906 326.898438 147.453125 326.589844 Z M 152.246094 321.910156 C 151.835938 321.910156 151.417969 321.847656 151.003906 321.726562 C 148.71875 321.039062 147.417969 318.621094 148.105469 316.335938 C 148.4375 315.230469 149.183594 314.316406 150.199219 313.769531 C 150.839844 313.425781 151.539062 313.253906 152.242188 313.253906 C 152.664062 313.253906 153.082031 313.3125 153.496094 313.4375 C 155.78125 314.125 157.082031 316.542969 156.394531 318.828125 C 155.832031 320.699219 154.109375 321.910156 152.246094 321.910156 Z M 215.351562 329.699219 C 219.21875 335.421875 221.261719 342.109375 221.261719 349.046875 L 221.261719 352.035156 L 152.046875 352.035156 L 152.046875 349.046875 C 152.046875 342.351562 153.964844 335.855469 157.585938 330.261719 C 161.074219 324.878906 165.960938 320.578125 171.726562 317.816406 C 176.050781 320.929688 181.222656 322.609375 186.652344 322.609375 C 192.085938 322.609375 197.257812 320.929688 201.578125 317.816406 C 207.136719 320.476562 211.875 324.554688 215.351562 329.699219 Z M 205.097656 297.003906 C 205.097656 307.171875 196.824219 315.445312 186.65625 315.445312 C 176.484375 315.445312 168.210938 307.171875 168.210938 297.003906 C 168.210938 286.832031 176.484375 278.5625 186.65625 278.5625 C 196.824219 278.5625 205.097656 286.835938 205.097656 297.003906 Z M 199.464844 237.71875 C 194.003906 239.480469 188.363281 240.121094 182.699219 239.625 C 177.226562 239.140625 171.960938 237.621094 167.046875 235.105469 C 162.128906 232.589844 157.816406 229.207031 154.226562 225.050781 C 150.507812 220.75 147.730469 215.796875 145.964844 210.335938 C 144.203125 204.875 143.5625 199.234375 144.0625 193.570312 C 144.542969 188.097656 146.0625 182.828125 148.578125 177.914062 C 151.09375 173 154.476562 168.6875 158.632812 165.09375 C 162.9375 161.378906 167.886719 158.597656 173.347656 156.835938 C 177.613281 155.460938 181.988281 154.765625 186.398438 154.765625 C 187.632812 154.765625 188.875 154.820312 190.117188 154.929688 C 195.589844 155.414062 200.855469 156.933594 205.769531 159.449219 C 209.164062 161.183594 212.269531 163.335938 215.046875 165.867188 L 207.917969 172.511719 C 205.925781 170.785156 203.726562 169.300781 201.347656 168.085938 C 197.558594 166.144531 193.496094 164.972656 189.269531 164.601562 C 184.894531 164.214844 180.539062 164.710938 176.328125 166.070312 C 172.117188 167.429688 168.296875 169.574219 164.972656 172.445312 C 161.765625 175.21875 159.152344 178.546875 157.214844 182.335938 C 155.273438 186.125 154.101562 190.191406 153.730469 194.414062 C 153.34375 198.789062 153.839844 203.144531 155.199219 207.355469 C 156.558594 211.566406 158.707031 215.386719 161.578125 218.710938 C 164.347656 221.921875 167.675781 224.53125 171.46875 226.472656 C 175.257812 228.410156 179.320312 229.582031 183.546875 229.957031 C 184.503906 230.039062 185.464844 230.082031 186.421875 230.082031 C 189.824219 230.082031 193.199219 229.546875 196.488281 228.488281 C 200.699219 227.125 204.519531 224.980469 207.84375 222.109375 C 211.050781 219.339844 213.664062 216.011719 215.601562 212.21875 C 217.542969 208.429688 218.714844 204.367188 219.085938 200.140625 C 219.472656 195.765625 218.976562 191.410156 217.617188 187.199219 C 216.511719 183.78125 214.890625 180.621094 212.785156 177.773438 L 219.921875 171.125 C 222.976562 175.035156 225.304688 179.429688 226.851562 184.21875 C 228.613281 189.679688 229.253906 195.320312 228.753906 200.984375 C 228.273438 206.460938 226.753906 211.726562 224.238281 216.640625 C 221.722656 221.554688 218.339844 225.867188 214.183594 229.460938 C 209.878906 233.175781 204.925781 235.953125 199.464844 237.71875 Z M 210.796875 189.402344 C 212.902344 195.914062 212.339844 202.859375 209.222656 208.953125 C 206.101562 215.046875 200.796875 219.5625 194.28125 221.667969 C 187.769531 223.769531 180.824219 223.210938 174.730469 220.089844 C 168.636719 216.972656 164.121094 211.667969 162.015625 205.152344 C 159.914062 198.636719 160.472656 191.691406 163.59375 185.597656 C 166.710938 179.503906 172.015625 174.992188 178.53125 172.886719 C 181.125 172.050781 183.785156 171.632812 186.433594 171.632812 C 190.441406 171.632812 194.414062 172.585938 198.085938 174.460938 C 199.722656 175.300781 201.242188 176.296875 202.636719 177.429688 L 195.429688 184.148438 C 194.867188 183.765625 194.28125 183.414062 193.664062 183.097656 C 189.878906 181.160156 185.5625 180.8125 181.511719 182.121094 C 177.464844 183.425781 174.167969 186.234375 172.230469 190.019531 C 170.292969 193.808594 169.941406 198.121094 171.25 202.171875 C 173.425781 208.90625 179.691406 213.207031 186.417969 213.207031 C 188.035156 213.207031 189.683594 212.957031 191.300781 212.433594 C 195.351562 211.125 198.648438 208.320312 200.585938 204.535156 C 202.523438 200.746094 202.871094 196.429688 201.5625 192.382812 C 201.230469 191.34375 200.796875 190.359375 200.273438 189.429688 L 207.5 182.695312 C 208.902344 184.730469 210.015625 186.984375 210.796875 189.402344 Z M 194.746094 194.585938 C 196.230469 199.183594 193.699219 204.128906 189.097656 205.613281 C 188.207031 205.902344 187.304688 206.039062 186.414062 206.039062 C 182.714844 206.039062 179.265625 203.675781 178.070312 199.96875 C 177.351562 197.742188 177.542969 195.367188 178.605469 193.285156 C 179.671875 191.203125 181.488281 189.660156 183.714844 188.9375 C 184.601562 188.652344 185.511719 188.511719 186.417969 188.511719 C 187.621094 188.511719 188.820312 188.761719 189.941406 189.257812 L 184.296875 194.519531 C 182.851562 195.867188 182.769531 198.136719 184.121094 199.582031 C 184.824219 200.339844 185.78125 200.722656 186.742188 200.722656 C 187.617188 200.722656 188.492188 200.40625 189.183594 199.761719 L 194.746094 194.582031 C 194.742188 194.582031 194.742188 194.582031 194.746094 194.585938 Z M 248.792969 240.621094 L 245.003906 241.003906 C 244.347656 241.070312 243.753906 241.410156 243.363281 241.941406 L 241.101562 245.019531 C 240.714844 245.550781 240.566406 246.222656 240.699219 246.867188 L 241.464844 250.597656 L 240.125 251.40625 L 237.175781 249 C 236.664062 248.582031 236.003906 248.402344 235.351562 248.503906 L 231.578125 249.078125 C 230.925781 249.179688 230.347656 249.550781 229.988281 250.097656 L 227.890625 253.28125 L 226.371094 252.90625 L 225.988281 249.117188 C 225.921875 248.460938 225.582031 247.867188 225.050781 247.476562 L 221.972656 245.214844 C 221.441406 244.824219 220.769531 244.679688 220.125 244.8125 L 216.394531 245.578125 L 215.585938 244.238281 L 217.992188 241.289062 C 218.410156 240.777344 218.589844 240.117188 218.488281 239.464844 L 217.914062 235.691406 C 217.914062 235.6875 217.910156 235.6875 217.910156 235.683594 C 218.234375 235.421875 218.550781 235.152344 218.867188 234.882812 C 219.753906 234.113281 220.613281 233.320312 221.441406 232.496094 C 221.4375 232.507812 221.433594 232.515625 221.429688 232.527344 C 219.761719 238.046875 222.894531 243.894531 228.414062 245.5625 C 229.414062 245.867188 230.4375 246.015625 231.453125 246.015625 C 233.15625 246.015625 234.839844 245.597656 236.382812 244.769531 C 238.84375 243.449219 240.644531 241.25 241.453125 238.578125 C 243.121094 233.058594 239.984375 227.210938 234.464844 225.542969 C 231.820312 224.742188 229.097656 225.046875 226.796875 226.1875 C 227.683594 224.945312 228.515625 223.660156 229.289062 222.332031 L 231.304688 222.023438 C 231.953125 221.925781 232.53125 221.554688 232.894531 221.003906 L 234.988281 217.824219 L 236.511719 218.195312 L 236.894531 221.984375 C 236.960938 222.640625 237.300781 223.238281 237.832031 223.625 L 240.910156 225.886719 C 241.4375 226.277344 242.109375 226.425781 242.753906 226.292969 L 246.484375 225.523438 L 247.296875 226.863281 L 244.886719 229.8125 C 244.472656 230.324219 244.289062 230.988281 244.390625 231.636719 L 244.96875 235.414062 C 245.066406 236.0625 245.4375 236.640625 245.988281 237.003906 L 249.167969 239.097656 Z M 248.792969 240.621094 " fill-opacity="1" fill-rule="nonzero"/></g><path fill="#5170ff" d="M 371.191406 204.828125 L 368.832031 202.699219 L 368.832031 201.542969 L 371.191406 199.414062 C 371.773438 198.886719 371.964844 198.046875 371.664062 197.320312 L 370.296875 194.027344 C 369.996094 193.300781 369.273438 192.839844 368.484375 192.878906 L 365.308594 193.042969 L 364.492188 192.226562 L 364.65625 189.050781 C 364.695312 188.265625 364.238281 187.535156 363.507812 187.234375 L 360.214844 185.871094 C 359.488281 185.570312 358.652344 185.757812 358.121094 186.34375 L 355.992188 188.703125 L 354.835938 188.703125 L 352.707031 186.34375 C 352.179688 185.757812 351.339844 185.570312 350.613281 185.871094 L 347.320312 187.234375 C 346.59375 187.535156 346.132812 188.261719 346.171875 189.046875 L 346.335938 192.222656 L 345.519531 193.039062 L 343.25 192.921875 C 345.085938 189.351562 346.058594 185.371094 346.058594 181.242188 C 346.058594 174.402344 343.394531 167.972656 338.558594 163.136719 C 333.722656 158.296875 327.289062 155.636719 320.449219 155.636719 C 316.757812 155.636719 313.183594 156.414062 309.914062 157.890625 C 309.757812 157.453125 309.597656 157.019531 309.441406 156.585938 L 305.511719 158.039062 C 305.746094 158.671875 305.976562 159.3125 306.203125 159.957031 C 304.828125 160.878906 303.535156 161.941406 302.339844 163.136719 C 297.503906 167.972656 294.839844 174.402344 294.839844 181.242188 C 294.839844 186.941406 296.691406 192.351562 300.101562 196.796875 C 294.152344 200.117188 289.09375 204.847656 285.363281 210.605469 C 280.992188 217.359375 278.679688 225.203125 278.679688 233.285156 L 278.679688 239.855469 C 278.679688 241.835938 280.28125 243.441406 282.261719 243.441406 L 307.097656 243.441406 C 307.050781 243.574219 307.007812 243.710938 306.964844 243.847656 L 310.9375 245.164062 C 311.128906 244.59375 311.316406 244.019531 311.496094 243.441406 L 358.636719 243.441406 C 360.617188 243.441406 362.222656 241.835938 362.222656 239.855469 L 362.222656 233.285156 C 362.222656 228.183594 361.304688 223.195312 359.53125 218.507812 C 359.761719 218.503906 359.992188 218.460938 360.210938 218.371094 L 363.503906 217.003906 C 364.230469 216.703125 364.691406 215.976562 364.652344 215.191406 L 364.488281 212.015625 L 365.304688 211.199219 L 368.480469 211.363281 C 369.269531 211.402344 369.996094 210.945312 370.296875 210.214844 L 371.660156 206.921875 C 371.964844 206.195312 371.773438 205.355469 371.191406 204.828125 Z M 320.449219 162.800781 C 330.617188 162.800781 338.890625 171.074219 338.890625 181.242188 C 338.890625 191.414062 330.621094 199.683594 320.449219 199.683594 C 310.28125 199.683594 302.007812 191.414062 302.007812 181.242188 C 302.007812 171.074219 310.28125 162.800781 320.449219 162.800781 Z M 355.054688 236.273438 L 285.84375 236.273438 L 285.84375 233.285156 C 285.84375 226.589844 287.757812 220.09375 291.378906 214.503906 C 294.867188 209.117188 299.753906 204.820312 305.523438 202.054688 C 309.84375 205.167969 315.019531 206.851562 320.449219 206.851562 C 325.878906 206.851562 331.054688 205.167969 335.375 202.054688 C 340.933594 204.714844 345.671875 208.796875 349.148438 213.941406 C 353.011719 219.660156 355.054688 226.351562 355.054688 233.285156 Z M 351.699219 200.347656 C 352.402344 198.867188 353.882812 198.003906 355.421875 198.003906 C 356.011719 198.003906 356.617188 198.132812 357.1875 198.402344 C 359.234375 199.382812 360.105469 201.84375 359.128906 203.894531 C 358.152344 205.941406 355.6875 206.8125 353.640625 205.835938 C 351.589844 204.855469 350.71875 202.394531 351.699219 200.347656 Z M 365.722656 204.90625 L 367.71875 206.710938 L 367.359375 207.578125 L 364.671875 207.441406 C 364.144531 207.414062 363.632812 207.609375 363.257812 207.984375 L 361.273438 209.96875 C 360.902344 210.339844 360.703125 210.851562 360.730469 211.378906 L 360.867188 214.070312 L 360 214.429688 L 358.195312 212.429688 C 357.84375 212.039062 357.34375 211.816406 356.816406 211.816406 L 356.285156 211.816406 C 355.90625 211.183594 355.515625 210.566406 355.101562 209.953125 C 355.203125 209.957031 355.300781 209.960938 355.402344 209.960938 C 358.328125 209.960938 361.144531 208.3125 362.488281 205.5 C 364.347656 201.597656 362.691406 196.910156 358.789062 195.046875 C 354.886719 193.183594 350.199219 194.84375 348.335938 198.746094 C 347.90625 199.644531 347.667969 200.589844 347.597656 201.53125 C 346.917969 200.949219 346.21875 200.394531 345.503906 199.855469 C 345.402344 199.664062 345.269531 199.484375 345.105469 199.335938 L 343.105469 197.527344 L 343.460938 196.664062 L 346.152344 196.800781 C 346.679688 196.828125 347.191406 196.628906 347.5625 196.257812 L 349.550781 194.273438 C 349.921875 193.898438 350.121094 193.386719 350.09375 192.859375 L 349.957031 190.171875 L 350.820312 189.8125 L 352.625 191.8125 C 352.980469 192.203125 353.480469 192.425781 354.007812 192.425781 L 356.816406 192.425781 C 357.34375 192.425781 357.84375 192.203125 358.199219 191.8125 L 360.003906 189.8125 L 360.871094 190.171875 L 360.730469 192.863281 C 360.707031 193.386719 360.902344 193.902344 361.273438 194.273438 L 363.261719 196.257812 C 363.632812 196.632812 364.144531 196.828125 364.671875 196.800781 L 367.363281 196.664062 L 367.71875 197.53125 L 365.722656 199.335938 C 365.328125 199.6875 365.105469 200.191406 365.105469 200.71875 L 365.105469 203.527344 C 365.105469 204.050781 365.332031 204.554688 365.722656 204.90625 Z M 365.722656 204.90625 " fill-opacity="1" fill-rule="nonzero"/><path fill="#5170ff" d="M 27.265625 201.773438 C 29.179688 197.785156 27.492188 192.984375 23.503906 191.070312 C 19.515625 189.15625 14.714844 190.847656 12.800781 194.832031 C 10.886719 198.820312 12.574219 203.625 16.5625 205.535156 C 17.679688 206.070312 18.859375 206.324219 20.019531 206.324219 C 23.011719 206.324219 25.886719 204.644531 27.265625 201.773438 Z M 23.910156 200.164062 C 22.882812 202.300781 20.3125 203.207031 18.171875 202.179688 C 16.035156 201.152344 15.132812 198.582031 16.15625 196.441406 C 16.894531 194.902344 18.4375 194.003906 20.039062 194.003906 C 20.664062 194.003906 21.296875 194.140625 21.894531 194.425781 C 24.03125 195.453125 24.9375 198.027344 23.910156 200.164062 Z M 23.910156 200.164062 " fill-opacity="1" fill-rule="nonzero"/><path fill="#5170ff" d="M 76.257812 130.742188 L 72.785156 128.40625 C 71.449219 130.390625 70.152344 132.433594 68.925781 134.488281 L 72.523438 136.632812 C 73.710938 134.644531 74.964844 132.664062 76.257812 130.742188 Z M 76.257812 130.742188 " fill-opacity="1" fill-rule="nonzero"/><path fill="#5170ff" d="M 94.195312 109.421875 L 91.296875 106.398438 C 89.574219 108.054688 87.867188 109.777344 86.234375 111.519531 L 89.289062 114.382812 C 90.875 112.695312 92.523438 111.027344 94.195312 109.421875 Z M 94.195312 109.421875 " fill-opacity="1" fill-rule="nonzero"/><path fill="#5170ff" d="M 84.65625 119.601562 L 81.453125 116.90625 C 79.914062 118.734375 78.402344 120.628906 76.964844 122.539062 L 80.308594 125.058594 C 81.703125 123.210938 83.164062 121.375 84.65625 119.601562 Z M 84.65625 119.601562 " fill-opacity="1" fill-rule="nonzero"/><path fill="#5170ff" d="M 141.429688 80.492188 L 140.0625 76.539062 C 137.800781 77.320312 135.535156 78.175781 133.320312 79.078125 L 134.90625 82.957031 C 137.046875 82.078125 139.242188 81.25 141.429688 80.492188 Z M 141.429688 80.492188 " fill-opacity="1" fill-rule="nonzero"/><path fill="#5170ff" d="M 69.105469 142.71875 L 65.402344 140.769531 C 64.289062 142.882812 63.21875 145.058594 62.21875 147.230469 L 66.027344 148.976562 C 66.992188 146.871094 68.027344 144.765625 69.105469 142.71875 Z M 69.105469 142.71875 " fill-opacity="1" fill-rule="nonzero"/><path fill="#5170ff" d="M 128.519531 85.765625 L 126.730469 81.980469 C 124.570312 83.003906 122.410156 84.097656 120.304688 85.238281 L 122.296875 88.921875 C 124.335938 87.816406 126.429688 86.757812 128.519531 85.765625 Z M 128.519531 85.765625 " fill-opacity="1" fill-rule="nonzero"/><path fill="#5170ff" d="M 116.253906 92.402344 L 114.0625 88.832031 C 112.027344 90.082031 109.996094 91.402344 108.027344 92.761719 L 110.402344 96.207031 C 112.3125 94.894531 114.277344 93.613281 116.253906 92.402344 Z M 116.253906 92.402344 " fill-opacity="1" fill-rule="nonzero"/><path fill="#5170ff" d="M 104.769531 100.320312 L 102.210938 97.007812 C 100.316406 98.464844 98.441406 99.996094 96.628906 101.558594 L 99.359375 104.730469 C 101.117188 103.21875 102.933594 101.734375 104.769531 100.320312 Z M 104.769531 100.320312 " fill-opacity="1" fill-rule="nonzero"/><path fill="#5170ff" d="M 110.296875 314.796875 C 112.21875 316.0625 114.195312 317.292969 116.175781 318.457031 L 118.296875 314.847656 C 116.378906 313.71875 114.464844 312.527344 112.605469 311.300781 Z M 110.296875 314.796875 " fill-opacity="1" fill-rule="nonzero"/><path fill="#5170ff" d="M 91.878906 294.324219 L 88.90625 297.273438 C 90.527344 298.90625 92.207031 300.515625 93.910156 302.0625 L 96.726562 298.960938 C 95.078125 297.464844 93.449219 295.902344 91.878906 294.324219 Z M 91.878906 294.324219 " fill-opacity="1" fill-rule="nonzero"/><path fill="#5170ff" d="M 71.550781 275.75 C 72.796875 277.675781 74.117188 279.597656 75.464844 281.460938 L 78.855469 279 C 77.550781 277.199219 76.273438 275.335938 75.0625 273.46875 Z M 71.550781 275.75 " fill-opacity="1" fill-rule="nonzero"/><path fill="#5170ff" d="M 122.234375 321.8125 C 124.273438 322.875 126.371094 323.894531 128.460938 324.847656 L 130.199219 321.035156 C 128.171875 320.113281 126.144531 319.125 124.167969 318.097656 Z M 122.234375 321.8125 " fill-opacity="1" fill-rule="nonzero"/><path fill="#5170ff" d="M 99.148438 306.585938 C 100.929688 308.042969 102.769531 309.472656 104.617188 310.835938 L 107.101562 307.460938 C 105.308594 306.140625 103.527344 304.757812 101.804688 303.347656 Z M 99.148438 306.585938 " fill-opacity="1" fill-rule="nonzero"/><path fill="#5170ff" d="M 79.671875 286.957031 C 81.117188 288.746094 82.625 290.523438 84.15625 292.234375 L 87.277344 289.441406 C 85.792969 287.785156 84.332031 286.0625 82.933594 284.332031 Z M 79.671875 286.957031 " fill-opacity="1" fill-rule="nonzero"/><path fill="#5170ff" d="M 68.355469 261.859375 L 64.625 263.761719 C 65.671875 265.808594 66.785156 267.855469 67.933594 269.847656 L 71.558594 267.75 C 70.445312 265.824219 69.367188 263.839844 68.355469 261.859375 Z M 68.355469 261.859375 " fill-opacity="1" fill-rule="nonzero"/><path fill="#5170ff" d="M 62.890625 249.617188 L 58.984375 251.121094 C 59.808594 253.265625 60.703125 255.414062 61.640625 257.515625 L 65.464844 255.808594 C 64.554688 253.773438 63.691406 251.691406 62.890625 249.617188 Z M 62.890625 249.617188 " fill-opacity="1" fill-rule="nonzero"/><path fill="#5170ff" d="M 277.621094 292.566406 L 280.648438 295.460938 C 282.34375 293.6875 284.011719 291.839844 285.609375 289.972656 L 282.425781 287.25 C 280.882812 289.058594 279.261719 290.847656 277.621094 292.566406 Z M 277.621094 292.566406 " fill-opacity="1" fill-rule="nonzero"/><path fill="#5170ff" d="M 295 269.835938 L 298.585938 271.996094 C 299.855469 269.894531 301.078125 267.726562 302.226562 265.558594 L 298.527344 263.597656 C 297.414062 265.699219 296.226562 267.796875 295 269.835938 Z M 295 269.835938 " fill-opacity="1" fill-rule="nonzero"/><path fill="#5170ff" d="M 286.9375 281.679688 L 290.261719 284.222656 C 291.753906 282.273438 293.210938 280.253906 294.59375 278.226562 L 291.132812 275.867188 C 289.792969 277.832031 288.382812 279.789062 286.9375 281.679688 Z M 286.9375 281.679688 " fill-opacity="1" fill-rule="nonzero"/><path fill="#5170ff" d="M 301.703125 257.175781 L 305.507812 258.925781 C 306.535156 256.695312 307.511719 254.40625 308.414062 252.121094 L 304.519531 250.585938 C 303.648438 252.796875 302.699219 255.011719 301.703125 257.175781 Z M 301.703125 257.175781 " fill-opacity="1" fill-rule="nonzero"/><path fill="#5170ff" d="M 230.289062 324.097656 L 231.785156 328.007812 C 234.078125 327.128906 236.375 326.171875 238.617188 325.167969 L 236.902344 321.347656 C 234.734375 322.320312 232.507812 323.246094 230.289062 324.097656 Z M 230.289062 324.097656 " fill-opacity="1" fill-rule="nonzero"/><path fill="#5170ff" d="M 243.359375 318.230469 L 245.28125 321.953125 C 247.460938 320.824219 249.640625 319.621094 251.753906 318.371094 L 249.628906 314.765625 C 247.578125 315.972656 245.46875 317.140625 243.359375 318.230469 Z M 243.359375 318.230469 " fill-opacity="1" fill-rule="nonzero"/><path fill="#5170ff" d="M 255.699219 310.957031 L 258.023438 314.441406 C 260.0625 313.082031 262.097656 311.644531 264.0625 310.171875 L 261.550781 306.820312 C 259.644531 308.246094 257.679688 309.640625 255.699219 310.957031 Z M 255.699219 310.957031 " fill-opacity="1" fill-rule="nonzero"/><path fill="#5170ff" d="M 267.167969 302.367188 L 269.855469 305.574219 C 271.738281 303.996094 273.601562 302.34375 275.390625 300.664062 L 272.527344 297.609375 C 270.792969 299.238281 268.988281 300.835938 267.167969 302.367188 Z M 267.167969 302.367188 " fill-opacity="1" fill-rule="nonzero"/><path fill="#5170ff" d="M 293.125 125.6875 C 291.78125 123.792969 290.371094 121.90625 288.925781 120.082031 L 285.640625 122.679688 C 287.039062 124.449219 288.410156 126.277344 289.710938 128.113281 Z M 293.125 125.6875 " fill-opacity="1" fill-rule="nonzero"/><path fill="#5170ff" d="M 300.621094 137.519531 C 299.480469 135.496094 298.273438 133.472656 297.027344 131.507812 L 293.488281 133.75 C 294.695312 135.652344 295.867188 137.609375 296.96875 139.574219 Z M 300.621094 137.519531 " fill-opacity="1" fill-rule="nonzero"/><path fill="#5170ff" d="M 302.988281 151.730469 L 306.832031 150.070312 C 305.914062 147.9375 304.921875 145.796875 303.890625 143.714844 L 300.140625 145.574219 C 301.136719 147.589844 302.097656 149.664062 302.988281 151.730469 Z M 302.988281 151.730469 " fill-opacity="1" fill-rule="nonzero"/><path fill="#5170ff" d="M 284.441406 114.703125 C 282.90625 112.957031 281.304688 111.230469 279.683594 109.566406 L 276.683594 112.488281 C 278.257812 114.101562 279.808594 115.777344 281.296875 117.46875 Z M 284.441406 114.703125 " fill-opacity="1" fill-rule="nonzero"/><path fill="#5170ff" d="M 274.664062 104.679688 C 272.953125 103.105469 271.183594 101.550781 269.394531 100.0625 L 266.714844 103.285156 C 268.449219 104.722656 270.164062 106.230469 271.820312 107.757812 Z M 274.664062 104.679688 " fill-opacity="1" fill-rule="nonzero"/><path fill="#5170ff" d="M 252.25 87.945312 C 250.25 86.753906 248.195312 85.601562 246.136719 84.519531 L 244.1875 88.226562 C 246.179688 89.273438 248.171875 90.390625 250.105469 91.542969 Z M 252.25 87.945312 " fill-opacity="1" fill-rule="nonzero"/><path fill="#5170ff" d="M 263.894531 95.726562 C 262.03125 94.335938 260.105469 92.976562 258.171875 91.683594 L 255.84375 95.164062 C 257.71875 96.414062 259.582031 97.734375 261.386719 99.082031 Z M 263.894531 95.726562 " fill-opacity="1" fill-rule="nonzero"/></svg>