<svg xmlns="http://www.w3.org/2000/svg" xmlns:xlink="http://www.w3.org/1999/xlink" width="500" zoomAndPan="magnify" viewBox="0 0 375 374.999991" height="500" preserveAspectRatio="xMidYMid meet" version="1.0"><defs><clipPath id="9f9794f22a"><path d="M 9.015625 58.667969 L 366 58.667969 L 366 188 L 9.015625 188 Z M 9.015625 58.667969 " clip-rule="nonzero"/></clipPath><clipPath id="61681ac1ff"><path d="M 9.015625 187 L 366 187 L 366 316.667969 L 9.015625 316.667969 Z M 9.015625 187 " clip-rule="nonzero"/></clipPath></defs><g clip-path="url(#9f9794f22a)"><path fill="#dc1f26" d="M 326.269531 58.667969 L 48.761719 58.667969 C 26.867188 58.667969 9.117188 76.4375 9.117188 98.359375 L 9.117188 187.667969 L 365.914062 187.667969 L 365.914062 98.359375 C 365.914062 76.4375 348.160156 58.667969 326.269531 58.667969 Z M 326.269531 58.667969 " fill-opacity="1" fill-rule="nonzero"/></g><g clip-path="url(#61681ac1ff)"><path fill="#eeeeee" d="M 365.914062 276.972656 C 365.914062 298.894531 348.160156 316.667969 326.269531 316.667969 L 48.761719 316.667969 C 26.867188 316.667969 9.117188 298.894531 9.117188 276.972656 L 9.117188 187.667969 L 365.914062 187.667969 Z M 365.914062 276.972656 " fill-opacity="1" fill-rule="nonzero"/></g></svg>