<svg xmlns="http://www.w3.org/2000/svg" xmlns:xlink="http://www.w3.org/1999/xlink" width="500" zoomAndPan="magnify" viewBox="0 0 375 374.999991" height="500" preserveAspectRatio="xMidYMid meet" version="1.0"><defs><clipPath id="59475bf046"><path d="M 22.476562 22.476562 L 352.476562 22.476562 L 352.476562 352.476562 L 22.476562 352.476562 Z M 22.476562 22.476562 " clip-rule="nonzero"/></clipPath></defs><g clip-path="url(#59475bf046)"><path fill="#0cc0df" d="M 27.6875 144.070312 L 97.171875 144.070312 C 100.046875 144.070312 102.382812 141.738281 102.382812 138.859375 L 102.382812 118.015625 C 102.382812 102.707031 93.71875 89.398438 81.046875 82.695312 C 89.722656 76.742188 95.433594 66.773438 95.433594 55.480469 C 95.433594 37.28125 80.628906 22.476562 62.429688 22.476562 C 44.230469 22.476562 29.425781 37.28125 29.425781 55.480469 C 29.425781 66.773438 35.136719 76.742188 43.808594 82.695312 C 31.140625 89.398438 22.476562 102.707031 22.476562 118.015625 L 22.476562 138.859375 C 22.476562 141.738281 24.808594 144.070312 27.6875 144.070312 Z M 39.847656 55.480469 C 39.847656 43.027344 49.976562 32.898438 62.429688 32.898438 C 74.878906 32.898438 85.011719 43.027344 85.011719 55.480469 C 85.011719 67.933594 74.878906 78.0625 62.429688 78.0625 C 49.976562 78.0625 39.847656 67.933594 39.847656 55.480469 Z M 32.898438 118.015625 C 32.898438 101.730469 46.148438 88.484375 62.429688 88.484375 C 78.710938 88.484375 91.960938 101.730469 91.960938 118.015625 L 91.960938 133.648438 L 32.898438 133.648438 Z M 331.1875 291.144531 C 339.863281 285.191406 345.574219 275.222656 345.574219 263.929688 C 345.574219 245.734375 330.769531 230.925781 312.570312 230.925781 C 294.371094 230.925781 279.566406 245.734375 279.566406 263.929688 C 279.566406 275.222656 285.277344 285.191406 293.953125 291.144531 C 281.28125 297.851562 272.617188 311.15625 272.617188 326.464844 L 272.617188 347.3125 C 272.617188 350.1875 274.949219 352.523438 277.828125 352.523438 L 347.3125 352.523438 C 350.1875 352.523438 352.523438 350.1875 352.523438 347.3125 L 352.523438 326.464844 C 352.523438 311.15625 343.859375 297.851562 331.1875 291.144531 Z M 289.988281 263.929688 C 289.988281 251.480469 300.117188 241.347656 312.570312 241.347656 C 325.019531 241.347656 335.152344 251.480469 335.152344 263.929688 C 335.152344 276.382812 325.019531 286.511719 312.570312 286.511719 C 300.117188 286.511719 289.988281 276.382812 289.988281 263.929688 Z M 342.101562 342.101562 L 283.039062 342.101562 L 283.039062 326.464844 C 283.039062 310.179688 296.289062 296.9375 312.570312 296.9375 C 328.851562 296.9375 342.101562 310.179688 342.101562 326.464844 Z M 81.046875 291.144531 C 89.722656 285.191406 95.433594 275.222656 95.433594 263.929688 C 95.433594 245.734375 80.628906 230.925781 62.429688 230.925781 C 44.230469 230.925781 29.425781 245.734375 29.425781 263.929688 C 29.425781 275.222656 35.136719 285.191406 43.808594 291.144531 C 31.140625 297.851562 22.476562 311.15625 22.476562 326.464844 L 22.476562 347.3125 C 22.476562 350.1875 24.808594 352.523438 27.6875 352.523438 L 97.171875 352.523438 C 100.046875 352.523438 102.382812 350.1875 102.382812 347.3125 L 102.382812 326.464844 C 102.382812 311.15625 93.71875 297.851562 81.046875 291.144531 Z M 39.847656 263.929688 C 39.847656 251.480469 49.976562 241.347656 62.429688 241.347656 C 74.878906 241.347656 85.011719 251.480469 85.011719 263.929688 C 85.011719 276.382812 74.878906 286.511719 62.429688 286.511719 C 49.976562 286.511719 39.847656 276.382812 39.847656 263.929688 Z M 91.960938 342.101562 L 32.898438 342.101562 L 32.898438 326.464844 C 32.898438 310.179688 46.148438 296.9375 62.429688 296.9375 C 78.710938 296.9375 91.960938 310.179688 91.960938 326.464844 Z M 268.878906 192.710938 L 307.359375 192.710938 L 307.359375 208.34375 C 307.359375 211.222656 309.691406 213.554688 312.570312 213.554688 C 315.445312 213.554688 317.78125 211.222656 317.78125 208.34375 L 317.78125 187.5 C 317.78125 184.621094 315.445312 182.289062 312.570312 182.289062 L 268.878906 182.289062 C 266.28125 141.433594 233.566406 108.71875 192.710938 106.121094 L 192.710938 67.640625 L 250.035156 67.640625 C 252.910156 67.640625 255.246094 65.304688 255.246094 62.429688 C 255.246094 59.550781 252.910156 57.21875 250.035156 57.21875 L 187.5 57.21875 C 184.621094 57.21875 182.289062 59.550781 182.289062 62.429688 L 182.289062 106.121094 C 141.433594 108.71875 108.71875 141.433594 106.121094 182.289062 L 67.640625 182.289062 L 67.640625 166.65625 C 67.640625 163.777344 65.304688 161.441406 62.429688 161.441406 C 59.550781 161.441406 57.21875 163.777344 57.21875 166.65625 L 57.21875 187.5 C 57.21875 190.375 59.550781 192.710938 62.429688 192.710938 L 106.121094 192.710938 C 108.71875 233.5625 141.433594 266.28125 182.289062 268.878906 L 182.289062 307.359375 L 124.964844 307.359375 C 122.085938 307.359375 119.753906 309.691406 119.753906 312.570312 C 119.753906 315.445312 122.085938 317.78125 124.964844 317.78125 L 187.5 317.78125 C 190.375 317.78125 192.710938 315.445312 192.710938 312.570312 L 192.710938 268.878906 C 233.566406 266.28125 266.28125 233.5625 268.878906 192.710938 Z M 187.5 258.71875 C 180.109375 258.71875 170.453125 242.011719 166.617188 213.554688 L 208.382812 213.554688 C 204.542969 242.011719 194.890625 258.71875 187.5 258.71875 Z M 165.496094 203.132812 C 165.121094 198.195312 164.917969 192.980469 164.917969 187.5 C 164.917969 182.019531 165.121094 176.800781 165.496094 171.867188 L 209.503906 171.867188 C 209.878906 176.800781 210.082031 182.019531 210.082031 187.5 C 210.082031 192.980469 209.878906 198.195312 209.503906 203.132812 Z M 116.277344 187.5 C 116.277344 182.125 116.929688 176.902344 118.0625 171.867188 L 155.101562 171.867188 C 154.707031 177.054688 154.496094 182.296875 154.496094 187.5 C 154.496094 192.703125 154.707031 197.945312 155.101562 203.132812 L 118.0625 203.132812 C 116.929688 198.09375 116.277344 192.875 116.277344 187.5 Z M 187.5 116.277344 C 194.890625 116.277344 204.542969 132.988281 208.382812 161.441406 L 166.617188 161.441406 C 170.453125 132.988281 180.109375 116.277344 187.5 116.277344 Z M 219.894531 171.867188 L 256.9375 171.867188 C 258.070312 176.902344 258.71875 182.125 258.71875 187.5 C 258.71875 192.875 258.070312 198.09375 256.9375 203.132812 L 219.894531 203.132812 C 220.292969 197.945312 220.503906 192.703125 220.503906 187.5 C 220.503906 182.296875 220.292969 177.054688 219.894531 171.867188 Z M 253.714844 161.441406 L 218.800781 161.441406 C 216.59375 144.515625 212.226562 129.066406 205.839844 118.761719 C 227.738281 124.613281 245.488281 140.613281 253.714844 161.441406 Z M 169.160156 118.761719 C 162.769531 129.066406 158.40625 144.515625 156.199219 161.441406 L 121.28125 161.441406 C 129.507812 140.613281 147.257812 124.613281 169.160156 118.761719 Z M 121.28125 213.554688 L 156.199219 213.554688 C 158.40625 230.480469 162.769531 245.933594 169.160156 256.238281 C 147.257812 250.386719 129.507812 234.386719 121.28125 213.554688 Z M 205.839844 256.238281 C 212.226562 245.933594 216.59375 230.480469 218.800781 213.554688 L 253.714844 213.554688 C 245.488281 234.386719 227.738281 250.386719 205.839844 256.238281 Z M 331.1875 82.695312 C 339.863281 76.742188 345.574219 66.773438 345.574219 55.480469 C 345.574219 37.28125 330.769531 22.476562 312.570312 22.476562 C 294.371094 22.476562 279.566406 37.28125 279.566406 55.480469 C 279.566406 66.773438 285.277344 76.742188 293.953125 82.695312 C 281.28125 89.398438 272.617188 102.707031 272.617188 118.015625 L 272.617188 138.859375 C 272.617188 141.738281 274.949219 144.070312 277.828125 144.070312 L 347.3125 144.070312 C 350.1875 144.070312 352.523438 141.738281 352.523438 138.859375 L 352.523438 118.015625 C 352.523438 102.707031 343.859375 89.398438 331.1875 82.695312 Z M 289.988281 55.480469 C 289.988281 43.027344 300.117188 32.898438 312.570312 32.898438 C 325.019531 32.898438 335.152344 43.027344 335.152344 55.480469 C 335.152344 67.933594 325.019531 78.0625 312.570312 78.0625 C 300.117188 78.0625 289.988281 67.933594 289.988281 55.480469 Z M 342.101562 133.648438 L 283.039062 133.648438 L 283.039062 118.015625 C 283.039062 101.730469 296.289062 88.484375 312.570312 88.484375 C 328.851562 88.484375 342.101562 101.730469 342.101562 118.015625 Z M 342.101562 133.648438 " fill-opacity="1" fill-rule="nonzero"/></g></svg>