<svg xmlns="http://www.w3.org/2000/svg" xmlns:xlink="http://www.w3.org/1999/xlink" width="500" zoomAndPan="magnify" viewBox="0 0 375 374.999991" height="500" preserveAspectRatio="xMidYMid meet" version="1.0"><defs><clipPath id="1bcb95623b"><path d="M 6 20 L 369.265625 20 L 369.265625 355 L 6 355 Z M 6 20 " clip-rule="nonzero"/></clipPath></defs><g clip-path="url(#1bcb95623b)"><path fill="#737373" d="M 338.425781 20.371094 C 286.679688 20.109375 234.957031 20.109375 183.25 20.371094 C 182.210938 20.320312 181.175781 20.324219 180.140625 20.382812 C 179.105469 20.441406 178.074219 20.554688 177.050781 20.71875 C 176.027344 20.886719 175.015625 21.105469 174.011719 21.378906 C 173.011719 21.652344 172.027344 21.976562 171.0625 22.355469 C 170.09375 22.730469 169.152344 23.15625 168.230469 23.632812 C 167.308594 24.109375 166.414062 24.632812 165.546875 25.203125 C 164.679688 25.773438 163.84375 26.386719 163.042969 27.042969 C 162.242188 27.703125 161.476562 28.402344 160.746094 29.140625 C 160.019531 29.878906 159.332031 30.652344 158.683594 31.464844 C 158.039062 32.273438 157.433594 33.117188 156.875 33.992188 C 156.316406 34.867188 155.808594 35.769531 155.34375 36.695312 C 154.878906 37.625 154.46875 38.574219 154.101562 39.546875 C 153.738281 40.519531 153.429688 41.503906 153.167969 42.511719 C 152.910156 43.515625 152.703125 44.53125 152.550781 45.554688 C 152.398438 46.582031 152.300781 47.613281 152.257812 48.648438 C 152.210938 49.6875 152.222656 50.722656 152.289062 51.757812 C 152.128906 78.296875 152.179688 104.832031 152.289062 131.371094 L 152.289062 140.804688 C 152.289062 142.644531 152.429688 144.472656 152.714844 146.292969 C 154.84375 162.445312 166.460938 172.242188 183.835938 172.402344 C 196.785156 172.457031 209.726562 172.5625 222.679688 172.511719 C 227.742188 172.511719 232.753906 172.457031 237.808594 172.402344 C 240.640625 172.402344 243.457031 172.351562 246.289062 172.300781 C 247.800781 172.21875 249.300781 172.304688 250.792969 172.558594 C 252.285156 172.816406 253.730469 173.234375 255.128906 173.8125 C 256.523438 174.394531 257.839844 175.125 259.074219 176 C 260.308594 176.878906 261.429688 177.882812 262.433594 179.011719 C 270.054688 186.898438 278.632812 193.984375 285.617188 202.457031 C 293.574219 211.992188 302.3125 220.746094 311.832031 228.722656 C 311.726562 224.515625 311.082031 204.957031 310.820312 183.535156 C 310.65625 181.914062 310.820312 180.328125 311.3125 178.773438 C 311.800781 177.21875 312.578125 175.824219 313.640625 174.589844 C 314.773438 173.683594 316.039062 173.042969 317.4375 172.660156 C 318.839844 172.28125 320.257812 172.191406 321.691406 172.398438 C 327.175781 172.609375 332.71875 172.503906 338.210938 172.398438 C 339.246094 172.441406 340.28125 172.429688 341.316406 172.363281 C 342.351562 172.300781 343.378906 172.179688 344.398438 172.007812 C 345.421875 171.835938 346.433594 171.613281 347.429688 171.335938 C 348.429688 171.058594 349.410156 170.730469 350.375 170.351562 C 351.339844 169.972656 352.28125 169.542969 353.199219 169.066406 C 354.121094 168.589844 355.011719 168.0625 355.878906 167.492188 C 356.742188 166.925781 357.578125 166.308594 358.378906 165.652344 C 359.179688 164.996094 359.945312 164.300781 360.675781 163.5625 C 361.402344 162.828125 362.09375 162.054688 362.742188 161.246094 C 363.390625 160.4375 363.996094 159.597656 364.554688 158.726562 C 365.117188 157.855469 365.632812 156.957031 366.097656 156.035156 C 366.566406 155.109375 366.984375 154.164062 367.355469 153.195312 C 367.722656 152.226562 368.042969 151.242188 368.308594 150.242188 C 368.578125 149.238281 368.789062 148.226562 368.953125 147.203125 C 369.113281 146.179688 369.222656 145.152344 369.277344 144.117188 C 369.332031 143.082031 369.332031 142.046875 369.277344 141.011719 C 369.4375 111.382812 369.4375 81.71875 369.277344 52.019531 C 369.339844 50.984375 369.347656 49.949219 369.300781 48.914062 C 369.253906 47.875 369.152344 46.84375 369 45.820312 C 368.84375 44.792969 368.636719 43.777344 368.378906 42.773438 C 368.117188 41.769531 367.808594 40.78125 367.445312 39.8125 C 367.082031 38.839844 366.671875 37.890625 366.210938 36.960938 C 365.75 36.03125 365.242188 35.128906 364.6875 34.253906 C 364.128906 33.375 363.53125 32.53125 362.886719 31.71875 C 362.246094 30.90625 361.5625 30.125 360.839844 29.382812 C 360.113281 28.640625 359.351562 27.9375 358.554688 27.273438 C 357.757812 26.609375 356.929688 25.992188 356.066406 25.414062 C 355.207031 24.835938 354.316406 24.304688 353.398438 23.820312 C 352.484375 23.335938 351.542969 22.902344 350.582031 22.511719 C 349.621094 22.125 348.640625 21.789062 347.644531 21.503906 C 346.644531 21.21875 345.636719 20.988281 344.613281 20.808594 C 343.59375 20.628906 342.566406 20.5 341.53125 20.429688 C 340.496094 20.355469 339.460938 20.335938 338.425781 20.371094 Z M 283.472656 119.558594 L 191.023438 119.558594 C 190.496094 119.558594 189.976562 119.507812 189.464844 119.402344 C 188.949219 119.300781 188.449219 119.148438 187.964844 118.949219 C 187.480469 118.746094 187.019531 118.5 186.582031 118.210938 C 186.144531 117.917969 185.742188 117.585938 185.371094 117.214844 C 185 116.84375 184.667969 116.441406 184.375 116.003906 C 184.085938 115.566406 183.839844 115.109375 183.636719 114.621094 C 183.4375 114.136719 183.285156 113.636719 183.183594 113.125 C 183.082031 112.609375 183.03125 112.089844 183.03125 111.5625 C 183.03125 111.039062 183.082031 110.519531 183.183594 110.003906 C 183.285156 109.488281 183.4375 108.988281 183.636719 108.503906 C 183.839844 108.019531 184.085938 107.558594 184.375 107.121094 C 184.667969 106.6875 185 106.28125 185.371094 105.910156 C 185.742188 105.539062 186.144531 105.210938 186.582031 104.917969 C 187.019531 104.625 187.480469 104.378906 187.964844 104.179688 C 188.449219 103.976562 188.949219 103.828125 189.464844 103.722656 C 189.976562 103.621094 190.496094 103.570312 191.023438 103.570312 L 283.472656 103.570312 C 284 103.570312 284.519531 103.621094 285.03125 103.722656 C 285.546875 103.828125 286.046875 103.976562 286.53125 104.179688 C 287.015625 104.378906 287.476562 104.625 287.914062 104.917969 C 288.351562 105.210938 288.753906 105.539062 289.125 105.910156 C 289.496094 106.28125 289.828125 106.6875 290.121094 107.121094 C 290.410156 107.558594 290.65625 108.019531 290.859375 108.503906 C 291.058594 108.988281 291.210938 109.488281 291.3125 110.003906 C 291.414062 110.519531 291.464844 111.039062 291.464844 111.5625 C 291.464844 112.089844 291.414062 112.609375 291.3125 113.125 C 291.210938 113.636719 291.058594 114.136719 290.859375 114.621094 C 290.65625 115.109375 290.410156 115.566406 290.121094 116.003906 C 289.828125 116.441406 289.496094 116.84375 289.125 117.214844 C 288.753906 117.585938 288.351562 117.917969 287.914062 118.210938 C 287.476562 118.5 287.015625 118.746094 286.53125 118.949219 C 286.046875 119.148438 285.546875 119.300781 285.03125 119.402344 C 284.519531 119.507812 284 119.558594 283.472656 119.558594 Z M 337.402344 77.191406 L 186.398438 77.191406 C 185.871094 77.191406 185.351562 77.140625 184.839844 77.039062 C 184.324219 76.9375 183.824219 76.785156 183.339844 76.585938 C 182.855469 76.382812 182.394531 76.136719 181.957031 75.84375 C 181.519531 75.554688 181.117188 75.222656 180.746094 74.851562 C 180.375 74.480469 180.042969 74.078125 179.75 73.640625 C 179.460938 73.203125 179.214844 72.742188 179.011719 72.257812 C 178.8125 71.773438 178.660156 71.273438 178.558594 70.757812 C 178.457031 70.242188 178.402344 69.722656 178.402344 69.199219 C 178.402344 68.675781 178.457031 68.15625 178.558594 67.640625 C 178.660156 67.125 178.8125 66.625 179.011719 66.140625 C 179.214844 65.65625 179.460938 65.195312 179.75 64.757812 C 180.042969 64.320312 180.375 63.917969 180.746094 63.546875 C 181.117188 63.175781 181.519531 62.84375 181.957031 62.554688 C 182.394531 62.261719 182.855469 62.015625 183.339844 61.816406 C 183.824219 61.613281 184.324219 61.460938 184.839844 61.359375 C 185.351562 61.257812 185.871094 61.207031 186.398438 61.207031 L 337.402344 61.207031 C 337.925781 61.207031 338.445312 61.257812 338.960938 61.359375 C 339.476562 61.460938 339.976562 61.613281 340.460938 61.816406 C 340.945312 62.015625 341.40625 62.261719 341.84375 62.554688 C 342.277344 62.84375 342.683594 63.175781 343.054688 63.546875 C 343.425781 63.917969 343.753906 64.320312 344.046875 64.757812 C 344.339844 65.195312 344.585938 65.65625 344.785156 66.140625 C 344.988281 66.625 345.136719 67.125 345.242188 67.640625 C 345.34375 68.15625 345.394531 68.675781 345.394531 69.199219 C 345.394531 69.722656 345.34375 70.242188 345.242188 70.757812 C 345.136719 71.273438 344.988281 71.773438 344.785156 72.257812 C 344.585938 72.742188 344.339844 73.203125 344.046875 73.640625 C 343.753906 74.078125 343.425781 74.480469 343.054688 74.851562 C 342.683594 75.222656 342.277344 75.554688 341.84375 75.84375 C 341.40625 76.136719 340.945312 76.382812 340.460938 76.585938 C 339.976562 76.785156 339.476562 76.9375 338.960938 77.039062 C 338.445312 77.140625 337.925781 77.191406 337.402344 77.191406 Z M 183.726562 187.109375 C 179.839844 187.136719 175.996094 186.714844 172.207031 185.839844 C 168.417969 184.96875 164.777344 183.667969 161.292969 181.941406 C 159.644531 181.085938 158.054688 180.125 156.527344 179.066406 C 155.003906 178.003906 153.550781 176.851562 152.167969 175.605469 C 150.789062 174.359375 149.496094 173.03125 148.285156 171.617188 C 147.078125 170.207031 145.960938 168.722656 144.941406 167.171875 C 143.921875 165.617188 143.003906 164.003906 142.191406 162.332031 C 141.378906 160.660156 140.671875 158.945312 140.078125 157.183594 C 139.484375 155.421875 139.003906 153.628906 138.636719 151.808594 C 138.273438 149.984375 138.023438 148.144531 137.894531 146.292969 C 104.269531 146.238281 70.644531 146.292969 37.023438 146.457031 C 35.988281 146.421875 34.953125 146.441406 33.917969 146.511719 C 32.882812 146.585938 31.855469 146.710938 30.832031 146.890625 C 29.8125 147.070312 28.800781 147.304688 27.804688 147.589844 C 26.808594 147.875 25.828125 148.210938 24.863281 148.597656 C 23.902344 148.984375 22.960938 149.417969 22.046875 149.902344 C 21.128906 150.386719 20.238281 150.917969 19.378906 151.496094 C 18.515625 152.074219 17.6875 152.695312 16.890625 153.355469 C 16.089844 154.019531 15.332031 154.722656 14.605469 155.464844 C 13.882812 156.207031 13.199219 156.988281 12.554688 157.800781 C 11.914062 158.613281 11.3125 159.460938 10.757812 160.335938 C 10.203125 161.210938 9.695312 162.113281 9.234375 163.042969 C 8.773438 163.972656 8.363281 164.921875 8 165.894531 C 7.636719 166.867188 7.328125 167.855469 7.066406 168.859375 C 6.808594 169.863281 6.601562 170.878906 6.449219 171.90625 C 6.292969 172.929688 6.195312 173.960938 6.148438 174.996094 C 6.101562 176.035156 6.109375 177.070312 6.171875 178.105469 C 6.007812 207.789062 6.007812 237.453125 6.171875 267.097656 C 6.117188 268.132812 6.113281 269.164062 6.167969 270.199219 C 6.21875 271.234375 6.328125 272.261719 6.488281 273.285156 C 6.648438 274.308594 6.859375 275.320312 7.125 276.324219 C 7.390625 277.324219 7.707031 278.308594 8.074219 279.277344 C 8.445312 280.242188 8.859375 281.191406 9.328125 282.113281 C 9.792969 283.039062 10.308594 283.9375 10.867188 284.808594 C 11.425781 285.679688 12.03125 286.519531 12.679688 287.328125 C 13.324219 288.136719 14.011719 288.910156 14.742188 289.644531 C 15.46875 290.382812 16.234375 291.078125 17.035156 291.734375 C 17.835938 292.394531 18.667969 293.007812 19.53125 293.578125 C 20.394531 294.148438 21.285156 294.671875 22.207031 295.148438 C 23.125 295.628906 24.066406 296.054688 25.03125 296.4375 C 25.992188 296.816406 26.972656 297.144531 27.972656 297.421875 C 28.96875 297.699219 29.976562 297.925781 31 298.097656 C 32.019531 298.269531 33.046875 298.390625 34.082031 298.453125 C 35.113281 298.519531 36.148438 298.53125 37.183594 298.488281 C 42.671875 298.589844 48.214844 298.695312 53.703125 298.488281 C 55.144531 298.296875 56.566406 298.386719 57.972656 298.765625 C 59.375 299.144531 60.652344 299.777344 61.804688 300.667969 C 62.859375 301.90625 63.628906 303.304688 64.113281 304.859375 C 64.59375 306.414062 64.746094 308.003906 64.574219 309.621094 C 64.300781 331.042969 63.722656 350.652344 63.5625 354.816406 C 73.09375 346.847656 81.832031 338.089844 89.78125 328.539062 C 96.808594 320.070312 105.339844 312.984375 113.015625 305.09375 C 114.015625 303.964844 115.132812 302.960938 116.359375 302.085938 C 117.589844 301.207031 118.902344 300.476562 120.292969 299.898438 C 121.6875 299.316406 123.128906 298.898438 124.613281 298.640625 C 126.101562 298.382812 127.597656 298.296875 129.105469 298.378906 C 149.941406 298.75 170.726562 298.644531 191.5625 298.484375 C 192.613281 298.554688 193.667969 298.574219 194.722656 298.53125 C 195.777344 298.492188 196.824219 298.394531 197.867188 298.242188 C 198.914062 298.089844 199.945312 297.882812 200.96875 297.621094 C 201.988281 297.355469 202.992188 297.039062 203.980469 296.667969 C 204.96875 296.296875 205.933594 295.875 206.878906 295.402344 C 207.820312 294.929688 208.734375 294.40625 209.621094 293.835938 C 210.507812 293.261719 211.363281 292.644531 212.183594 291.984375 C 213.003906 291.320312 213.785156 290.617188 214.53125 289.867188 C 215.277344 289.121094 215.980469 288.339844 216.640625 287.515625 C 217.304688 286.695312 217.917969 285.839844 218.488281 284.953125 C 219.058594 284.0625 219.582031 283.148438 220.050781 282.203125 C 220.523438 281.261719 220.945312 280.296875 221.3125 279.308594 C 221.683594 278.320312 221.996094 277.3125 222.257812 276.292969 C 222.519531 275.269531 222.726562 274.234375 222.878906 273.191406 C 223.027344 272.148438 223.121094 271.097656 223.160156 270.042969 C 223.199219 268.988281 223.183594 267.9375 223.109375 266.882812 C 223.265625 240.339844 223.265625 213.78125 223.109375 187.210938 C 215.960938 187.320312 208.773438 187.320312 201.628906 187.210938 C 195.664062 187.21875 189.695312 187.164062 183.726562 187.109375 Z M 38.648438 192.355469 L 131.105469 192.355469 C 131.628906 192.355469 132.148438 192.40625 132.664062 192.507812 C 133.179688 192.609375 133.679688 192.761719 134.164062 192.964844 C 134.648438 193.164062 135.109375 193.410156 135.546875 193.703125 C 135.980469 193.992188 136.386719 194.324219 136.757812 194.695312 C 137.128906 195.066406 137.460938 195.46875 137.75 195.90625 C 138.042969 196.34375 138.289062 196.804688 138.488281 197.289062 C 138.691406 197.773438 138.84375 198.273438 138.945312 198.789062 C 139.046875 199.304688 139.097656 199.824219 139.097656 200.347656 C 139.097656 200.871094 139.046875 201.390625 138.945312 201.90625 C 138.84375 202.421875 138.691406 202.921875 138.488281 203.40625 C 138.289062 203.890625 138.042969 204.351562 137.75 204.789062 C 137.460938 205.226562 137.128906 205.628906 136.757812 206 C 136.386719 206.371094 135.980469 206.703125 135.546875 206.992188 C 135.109375 207.285156 134.648438 207.53125 134.164062 207.734375 C 133.679688 207.933594 133.179688 208.085938 132.664062 208.1875 C 132.148438 208.289062 131.628906 208.339844 131.105469 208.339844 L 38.648438 208.339844 C 38.125 208.339844 37.605469 208.289062 37.089844 208.1875 C 36.574219 208.085938 36.074219 207.933594 35.589844 207.734375 C 35.105469 207.53125 34.644531 207.285156 34.207031 206.992188 C 33.773438 206.703125 33.367188 206.371094 32.996094 206 C 32.625 205.628906 32.296875 205.226562 32.003906 204.789062 C 31.710938 204.351562 31.464844 203.890625 31.265625 203.40625 C 31.0625 202.921875 30.914062 202.421875 30.808594 201.90625 C 30.707031 201.390625 30.65625 200.871094 30.65625 200.347656 C 30.65625 199.824219 30.707031 199.304688 30.808594 198.789062 C 30.914062 198.273438 31.0625 197.773438 31.265625 197.289062 C 31.464844 196.804688 31.710938 196.34375 32.003906 195.90625 C 32.296875 195.46875 32.625 195.066406 32.996094 194.695312 C 33.367188 194.324219 33.773438 193.992188 34.207031 193.703125 C 34.644531 193.410156 35.105469 193.164062 35.589844 192.964844 C 36.074219 192.761719 36.574219 192.609375 37.089844 192.507812 C 37.605469 192.40625 38.125 192.355469 38.648438 192.355469 Z M 189.015625 251.226562 L 38.019531 251.226562 C 37.496094 251.226562 36.976562 251.175781 36.460938 251.074219 C 35.945312 250.972656 35.445312 250.820312 34.960938 250.621094 C 34.476562 250.417969 34.015625 250.171875 33.578125 249.878906 C 33.144531 249.589844 32.738281 249.257812 32.367188 248.886719 C 31.996094 248.515625 31.667969 248.113281 31.375 247.675781 C 31.082031 247.238281 30.835938 246.777344 30.636719 246.292969 C 30.433594 245.808594 30.285156 245.308594 30.179688 244.792969 C 30.078125 244.277344 30.027344 243.757812 30.027344 243.234375 C 30.027344 242.710938 30.078125 242.191406 30.179688 241.675781 C 30.285156 241.160156 30.433594 240.660156 30.636719 240.175781 C 30.835938 239.691406 31.082031 239.230469 31.375 238.792969 C 31.667969 238.355469 31.996094 237.953125 32.367188 237.582031 C 32.738281 237.210938 33.144531 236.878906 33.578125 236.589844 C 34.015625 236.296875 34.476562 236.050781 34.960938 235.851562 C 35.445312 235.648438 35.945312 235.496094 36.460938 235.394531 C 36.976562 235.292969 37.496094 235.242188 38.019531 235.242188 L 189.015625 235.242188 C 189.539062 235.242188 190.058594 235.292969 190.574219 235.394531 C 191.089844 235.496094 191.589844 235.648438 192.074219 235.851562 C 192.558594 236.050781 193.019531 236.296875 193.453125 236.589844 C 193.890625 236.878906 194.292969 237.210938 194.664062 237.582031 C 195.035156 237.953125 195.367188 238.355469 195.660156 238.792969 C 195.953125 239.230469 196.199219 239.691406 196.398438 240.175781 C 196.597656 240.660156 196.75 241.160156 196.855469 241.675781 C 196.957031 242.191406 197.007812 242.710938 197.007812 243.234375 C 197.007812 243.757812 196.957031 244.277344 196.855469 244.792969 C 196.75 245.308594 196.597656 245.808594 196.398438 246.292969 C 196.199219 246.777344 195.953125 247.238281 195.660156 247.675781 C 195.367188 248.113281 195.035156 248.515625 194.664062 248.886719 C 194.292969 249.257812 193.890625 249.589844 193.453125 249.878906 C 193.019531 250.171875 192.558594 250.417969 192.074219 250.621094 C 191.585938 250.820312 191.089844 250.972656 190.574219 251.074219 C 190.058594 251.175781 189.539062 251.226562 189.015625 251.226562 Z M 189.015625 251.226562 " fill-opacity="1" fill-rule="nonzero"/></g></svg>