<svg xmlns="http://www.w3.org/2000/svg" xmlns:xlink="http://www.w3.org/1999/xlink" width="500" zoomAndPan="magnify" viewBox="0 0 375 374.999991" height="500" preserveAspectRatio="xMidYMid meet" version="1.0"><defs><clipPath id="8dda9aec6e"><path d="M 76 114 L 364.882812 114 L 364.882812 166 L 76 166 Z M 76 114 " clip-rule="nonzero"/></clipPath><clipPath id="07c451949c"><path d="M 76 159 L 364.882812 159 L 364.882812 342.457031 L 76 342.457031 Z M 76 159 " clip-rule="nonzero"/></clipPath><clipPath id="86dc32389c"><path d="M 10.132812 32.707031 L 180 32.707031 L 180 202 L 10.132812 202 Z M 10.132812 32.707031 " clip-rule="nonzero"/></clipPath></defs><path fill="#5ce1e6" d="M 342.410156 117.195312 L 309.625 117.195312 L 309.625 130.1875 C 309.625 131.566406 308.511719 132.6875 307.132812 132.6875 L 296.3125 132.6875 C 294.933594 132.6875 293.816406 131.566406 293.816406 130.1875 L 293.816406 117.195312 L 255.535156 117.195312 L 255.535156 130.1875 C 255.535156 131.566406 254.421875 132.6875 253.042969 132.6875 L 242.21875 132.6875 C 240.847656 132.6875 239.726562 131.566406 239.726562 130.1875 L 239.726562 117.195312 L 201.445312 117.195312 L 201.445312 130.1875 C 201.445312 131.566406 200.332031 132.6875 198.953125 132.6875 L 188.136719 132.6875 C 186.75 132.6875 185.636719 131.566406 185.636719 130.1875 L 185.636719 117.195312 L 147.355469 117.195312 L 147.355469 130.1875 C 147.355469 131.566406 146.238281 132.6875 144.859375 132.6875 L 134.039062 132.6875 C 132.660156 132.6875 131.542969 131.566406 131.542969 130.1875 L 131.542969 117.195312 L 98.761719 117.195312 C 88.199219 117.195312 79.628906 125.753906 79.628906 136.320312 L 79.628906 162.847656 L 361.535156 162.847656 L 361.535156 136.320312 C 361.535156 125.753906 352.972656 117.195312 342.410156 117.195312 " fill-opacity="1" fill-rule="nonzero"/><g clip-path="url(#8dda9aec6e)"><path stroke-linecap="round" transform="matrix(0.153482, 0, 0, -0.153482, -137.271286, 515.410622)" fill="none" stroke-linejoin="round" d="M 3125.316888 2594.532374 L 2911.708452 2594.532374 L 2911.708452 2509.883064 C 2911.708452 2500.898937 2904.454979 2493.594562 2895.470852 2493.594562 L 2824.972178 2493.594562 C 2815.988051 2493.594562 2808.709127 2500.898937 2808.709127 2509.883064 L 2808.709127 2594.532374 L 2559.291437 2594.532374 L 2559.291437 2509.883064 C 2559.291437 2500.898937 2552.037964 2493.594562 2543.053837 2493.594562 L 2472.529713 2493.594562 C 2463.596487 2493.594562 2456.292112 2500.898937 2456.292112 2509.883064 L 2456.292112 2594.532374 L 2206.874423 2594.532374 L 2206.874423 2509.883064 C 2206.874423 2500.898937 2199.620949 2493.594562 2190.636822 2493.594562 L 2120.163599 2493.594562 C 2111.128571 2493.594562 2103.875097 2500.898937 2103.875097 2509.883064 L 2103.875097 2594.532374 L 1854.457408 2594.532374 L 1854.457408 2509.883064 C 1854.457408 2500.898937 1847.178483 2493.594562 1838.194356 2493.594562 L 1767.695683 2493.594562 C 1758.711556 2493.594562 1751.432632 2500.898937 1751.432632 2509.883064 L 1751.432632 2594.532374 L 1537.849647 2594.532374 C 1469.030725 2594.532374 1413.191704 2538.769705 1413.191704 2469.925332 L 1413.191704 2297.089054 L 3249.923929 2297.089054 L 3249.923929 2469.925332 C 3249.923929 2538.769705 3194.135809 2594.532374 3125.316888 2594.532374 Z M 3125.316888 2594.532374 " stroke="#ffffff" stroke-width="40" stroke-opacity="1" stroke-miterlimit="10"/></g><path fill="#5ce1e6" d="M 79.628906 209.183594 C 79.628906 209.300781 79.648438 209.414062 79.65625 209.535156 C 79.648438 209.519531 79.648438 209.503906 79.648438 209.488281 C 79.648438 209.589844 79.628906 209.691406 79.628906 209.792969 L 79.628906 320.179688 C 79.628906 330.746094 88.199219 339.304688 98.761719 339.304688 L 342.410156 339.304688 C 352.972656 339.304688 361.535156 330.746094 361.535156 320.179688 L 361.535156 209.792969 C 361.535156 209.691406 361.527344 209.589844 361.523438 209.488281 C 361.523438 209.503906 361.515625 209.519531 361.515625 209.535156 C 361.523438 209.414062 361.535156 209.300781 361.535156 209.183594 L 361.535156 162.847656 L 79.628906 162.847656 L 79.628906 209.183594 " fill-opacity="1" fill-rule="nonzero"/><g clip-path="url(#07c451949c)"><path stroke-linecap="round" transform="matrix(0.153482, 0, 0, -0.153482, -137.271286, 515.410622)" fill="none" stroke-linejoin="round" d="M 1413.191704 1995.191846 C 1413.191704 1994.428323 1413.318958 1993.69025 1413.369859 1992.901276 C 1413.318958 1993.003079 1413.318958 1993.104882 1413.318958 1993.206685 C 1413.318958 1992.544965 1413.191704 1991.883244 1413.191704 1991.221524 L 1413.191704 1272.007801 C 1413.191704 1203.163428 1469.030725 1147.400759 1537.849647 1147.400759 L 3125.316888 1147.400759 C 3194.135809 1147.400759 3249.923929 1203.163428 3249.923929 1272.007801 L 3249.923929 1991.221524 C 3249.923929 1991.883244 3249.873028 1992.544965 3249.847577 1993.206685 C 3249.847577 1993.104882 3249.796675 1993.003079 3249.796675 1992.901276 C 3249.847577 1993.69025 3249.923929 1994.428323 3249.923929 1995.191846 L 3249.923929 2297.089054 L 1413.191704 2297.089054 Z M 1413.191704 1995.191846 " stroke="#ffffff" stroke-width="40" stroke-opacity="1" stroke-miterlimit="10"/></g><path fill="#b4b4b4" d="M 132.75 207.789062 C 132.75 211.414062 129.8125 214.34375 126.191406 214.34375 L 115.265625 214.34375 C 111.644531 214.34375 108.714844 211.414062 108.714844 207.789062 L 108.714844 196.867188 C 108.714844 193.246094 111.644531 190.3125 115.265625 190.3125 L 126.191406 190.3125 C 129.8125 190.3125 132.75 193.246094 132.75 196.867188 L 132.75 207.789062 " fill-opacity="1" fill-rule="nonzero"/><path fill="#b4b4b4" d="M 182.671875 207.789062 C 182.671875 211.414062 179.742188 214.34375 176.121094 214.34375 L 165.195312 214.34375 C 161.574219 214.34375 158.636719 211.414062 158.636719 207.789062 L 158.636719 196.867188 C 158.636719 193.246094 161.574219 190.3125 165.195312 190.3125 L 176.121094 190.3125 C 179.742188 190.3125 182.671875 193.246094 182.671875 196.867188 L 182.671875 207.789062 " fill-opacity="1" fill-rule="nonzero"/><path fill="#b4b4b4" d="M 232.605469 207.789062 C 232.605469 211.414062 229.664062 214.34375 226.050781 214.34375 L 215.121094 214.34375 C 211.5 214.34375 208.566406 211.414062 208.566406 207.789062 L 208.566406 196.867188 C 208.566406 193.246094 211.5 190.3125 215.121094 190.3125 L 226.050781 190.3125 C 229.664062 190.3125 232.605469 193.246094 232.605469 196.867188 L 232.605469 207.789062 " fill-opacity="1" fill-rule="nonzero"/><path fill="#b4b4b4" d="M 282.535156 207.789062 C 282.535156 211.414062 279.59375 214.34375 275.972656 214.34375 L 265.050781 214.34375 C 261.429688 214.34375 258.496094 211.414062 258.496094 207.789062 L 258.496094 196.867188 C 258.496094 193.246094 261.429688 190.3125 265.050781 190.3125 L 275.972656 190.3125 C 279.59375 190.3125 282.535156 193.246094 282.535156 196.867188 L 282.535156 207.789062 " fill-opacity="1" fill-rule="nonzero"/><path fill="#b4b4b4" d="M 332.457031 207.789062 C 332.457031 211.414062 329.523438 214.34375 325.902344 214.34375 L 314.980469 214.34375 C 311.359375 214.34375 308.421875 211.414062 308.421875 207.789062 L 308.421875 196.867188 C 308.421875 193.246094 311.359375 190.3125 314.980469 190.3125 L 325.902344 190.3125 C 329.523438 190.3125 332.457031 193.246094 332.457031 196.867188 L 332.457031 207.789062 " fill-opacity="1" fill-rule="nonzero"/><path fill="#b4b4b4" d="M 132.75 256.019531 C 132.75 259.644531 129.8125 262.578125 126.191406 262.578125 L 115.265625 262.578125 C 111.644531 262.578125 108.714844 259.644531 108.714844 256.019531 L 108.714844 245.101562 C 108.714844 241.480469 111.644531 238.546875 115.265625 238.546875 L 126.191406 238.546875 C 129.8125 238.546875 132.75 241.480469 132.75 245.101562 L 132.75 256.019531 " fill-opacity="1" fill-rule="nonzero"/><path fill="#b4b4b4" d="M 182.671875 256.019531 C 182.671875 259.644531 179.742188 262.578125 176.121094 262.578125 L 165.195312 262.578125 C 161.574219 262.578125 158.636719 259.644531 158.636719 256.019531 L 158.636719 245.101562 C 158.636719 241.480469 161.574219 238.546875 165.195312 238.546875 L 176.121094 238.546875 C 179.742188 238.546875 182.671875 241.480469 182.671875 245.101562 L 182.671875 256.019531 " fill-opacity="1" fill-rule="nonzero"/><path fill="#b4b4b4" d="M 232.605469 256.019531 C 232.605469 259.644531 229.664062 262.578125 226.050781 262.578125 L 215.121094 262.578125 C 211.5 262.578125 208.566406 259.644531 208.566406 256.019531 L 208.566406 245.101562 C 208.566406 241.480469 211.5 238.546875 215.121094 238.546875 L 226.050781 238.546875 C 229.664062 238.546875 232.605469 241.480469 232.605469 245.101562 L 232.605469 256.019531 " fill-opacity="1" fill-rule="nonzero"/><path fill="#b4b4b4" d="M 282.535156 256.019531 C 282.535156 259.644531 279.59375 262.578125 275.972656 262.578125 L 265.050781 262.578125 C 261.429688 262.578125 258.496094 259.644531 258.496094 256.019531 L 258.496094 245.101562 C 258.496094 241.480469 261.429688 238.546875 265.050781 238.546875 L 275.972656 238.546875 C 279.59375 238.546875 282.535156 241.480469 282.535156 245.101562 L 282.535156 256.019531 " fill-opacity="1" fill-rule="nonzero"/><path fill="#b4b4b4" d="M 332.457031 256.019531 C 332.457031 259.644531 329.523438 262.578125 325.902344 262.578125 L 314.980469 262.578125 C 311.359375 262.578125 308.421875 259.644531 308.421875 256.019531 L 308.421875 245.101562 C 308.421875 241.480469 311.359375 238.546875 314.980469 238.546875 L 325.902344 238.546875 C 329.523438 238.546875 332.457031 241.480469 332.457031 245.101562 L 332.457031 256.019531 " fill-opacity="1" fill-rule="nonzero"/><path fill="#b4b4b4" d="M 132.75 304.25 C 132.75 307.878906 129.8125 310.804688 126.191406 310.804688 L 115.265625 310.804688 C 111.644531 310.804688 108.714844 307.878906 108.714844 304.25 L 108.714844 293.332031 C 108.714844 289.707031 111.644531 286.773438 115.265625 286.773438 L 126.191406 286.773438 C 129.8125 286.773438 132.75 289.707031 132.75 293.332031 L 132.75 304.25 " fill-opacity="1" fill-rule="nonzero"/><path fill="#b4b4b4" d="M 182.671875 304.25 C 182.671875 307.878906 179.742188 310.804688 176.121094 310.804688 L 165.195312 310.804688 C 161.574219 310.804688 158.636719 307.878906 158.636719 304.25 L 158.636719 293.332031 C 158.636719 289.707031 161.574219 286.773438 165.195312 286.773438 L 176.121094 286.773438 C 179.742188 286.773438 182.671875 289.707031 182.671875 293.332031 L 182.671875 304.25 " fill-opacity="1" fill-rule="nonzero"/><path fill="#b4b4b4" d="M 232.605469 304.25 C 232.605469 307.878906 229.664062 310.804688 226.050781 310.804688 L 215.121094 310.804688 C 211.5 310.804688 208.566406 307.878906 208.566406 304.25 L 208.566406 293.332031 C 208.566406 289.707031 211.5 286.773438 215.121094 286.773438 L 226.050781 286.773438 C 229.664062 286.773438 232.605469 289.707031 232.605469 293.332031 L 232.605469 304.25 " fill-opacity="1" fill-rule="nonzero"/><path fill="#b4b4b4" d="M 282.535156 304.25 C 282.535156 307.878906 279.59375 310.804688 275.972656 310.804688 L 265.050781 310.804688 C 261.429688 310.804688 258.496094 307.878906 258.496094 304.25 L 258.496094 293.332031 C 258.496094 289.707031 261.429688 286.773438 265.050781 286.773438 L 275.972656 286.773438 C 279.59375 286.773438 282.535156 289.707031 282.535156 293.332031 L 282.535156 304.25 " fill-opacity="1" fill-rule="nonzero"/><path fill="#b4b4b4" d="M 332.457031 304.25 C 332.457031 307.878906 329.523438 310.804688 325.902344 310.804688 L 314.980469 310.804688 C 311.359375 310.804688 308.421875 307.878906 308.421875 304.25 L 308.421875 293.332031 C 308.421875 289.707031 311.359375 286.773438 314.980469 286.773438 L 325.902344 286.773438 C 329.523438 286.773438 332.457031 289.707031 332.457031 293.332031 L 332.457031 304.25 " fill-opacity="1" fill-rule="nonzero"/><path fill="#5ce1e6" d="M 134.039062 135.757812 C 130.96875 135.757812 128.476562 133.257812 128.476562 130.1875 L 128.476562 102.277344 C 128.476562 99.207031 130.96875 96.707031 134.039062 96.707031 L 144.859375 96.707031 C 147.929688 96.707031 150.425781 99.207031 150.425781 102.277344 L 150.425781 130.1875 C 150.425781 133.257812 147.929688 135.757812 144.859375 135.757812 Z M 188.136719 135.757812 C 185.066406 135.757812 182.566406 133.257812 182.566406 130.1875 L 182.566406 102.277344 C 182.566406 99.207031 185.066406 96.707031 188.136719 96.707031 L 198.953125 96.707031 C 202.019531 96.707031 204.515625 99.207031 204.515625 102.277344 L 204.515625 130.1875 C 204.515625 133.257812 202.019531 135.757812 198.953125 135.757812 Z M 242.21875 135.757812 C 239.152344 135.757812 236.65625 133.257812 236.65625 130.1875 L 236.65625 102.277344 C 236.65625 99.207031 239.152344 96.707031 242.21875 96.707031 L 253.042969 96.707031 C 256.113281 96.707031 258.605469 99.207031 258.605469 102.277344 L 258.605469 130.1875 C 258.605469 133.257812 256.113281 135.757812 253.042969 135.757812 Z M 296.3125 135.757812 C 293.242188 135.757812 290.746094 133.257812 290.746094 130.1875 L 290.746094 102.277344 C 290.746094 99.207031 293.242188 96.707031 296.3125 96.707031 L 307.132812 96.707031 C 310.203125 96.707031 312.695312 99.207031 312.695312 102.277344 L 312.695312 130.1875 C 312.695312 133.257812 310.203125 135.757812 307.132812 135.757812 L 296.3125 135.757812 " fill-opacity="1" fill-rule="nonzero"/><path fill="#b4b4b4" d="M 144.859375 93.636719 L 134.039062 93.636719 C 129.277344 93.636719 125.40625 97.515625 125.40625 102.277344 L 125.40625 130.1875 C 125.40625 134.945312 129.277344 138.824219 134.039062 138.824219 L 144.859375 138.824219 C 149.621094 138.824219 153.492188 134.945312 153.492188 130.1875 L 153.492188 102.277344 C 153.492188 97.515625 149.621094 93.636719 144.859375 93.636719 Z M 198.953125 93.636719 L 188.136719 93.636719 C 183.371094 93.636719 179.496094 97.515625 179.496094 102.277344 L 179.496094 130.1875 C 179.496094 134.945312 183.371094 138.824219 188.136719 138.824219 L 198.953125 138.824219 C 203.710938 138.824219 207.585938 134.945312 207.585938 130.1875 L 207.585938 102.277344 C 207.585938 97.515625 203.710938 93.636719 198.953125 93.636719 Z M 253.042969 93.636719 L 242.21875 93.636719 C 237.460938 93.636719 233.585938 97.515625 233.585938 102.277344 L 233.585938 130.1875 C 233.585938 134.945312 237.460938 138.824219 242.21875 138.824219 L 253.042969 138.824219 C 257.800781 138.824219 261.675781 134.945312 261.675781 130.1875 L 261.675781 102.277344 C 261.675781 97.515625 257.800781 93.636719 253.042969 93.636719 Z M 307.132812 93.636719 L 296.3125 93.636719 C 291.550781 93.636719 287.675781 97.515625 287.675781 102.277344 L 287.675781 130.1875 C 287.675781 134.945312 291.550781 138.824219 296.3125 138.824219 L 307.132812 138.824219 C 311.894531 138.824219 315.765625 134.945312 315.765625 130.1875 L 315.765625 102.277344 C 315.765625 97.515625 311.894531 93.636719 307.132812 93.636719 Z M 144.859375 99.777344 C 146.238281 99.777344 147.355469 100.898438 147.355469 102.277344 L 147.355469 130.1875 C 147.355469 131.566406 146.238281 132.6875 144.859375 132.6875 L 134.039062 132.6875 C 132.660156 132.6875 131.542969 131.566406 131.542969 130.1875 L 131.542969 102.277344 C 131.542969 100.898438 132.660156 99.777344 134.039062 99.777344 L 144.859375 99.777344 M 198.953125 99.777344 C 200.332031 99.777344 201.445312 100.898438 201.445312 102.277344 L 201.445312 130.1875 C 201.445312 131.566406 200.332031 132.6875 198.953125 132.6875 L 188.136719 132.6875 C 186.75 132.6875 185.636719 131.566406 185.636719 130.1875 L 185.636719 102.277344 C 185.636719 100.898438 186.75 99.777344 188.136719 99.777344 L 198.953125 99.777344 M 253.042969 99.777344 C 254.421875 99.777344 255.535156 100.898438 255.535156 102.277344 L 255.535156 130.1875 C 255.535156 131.566406 254.421875 132.6875 253.042969 132.6875 L 242.21875 132.6875 C 240.847656 132.6875 239.726562 131.566406 239.726562 130.1875 L 239.726562 102.277344 C 239.726562 100.898438 240.847656 99.777344 242.21875 99.777344 L 253.042969 99.777344 M 307.132812 99.777344 C 308.511719 99.777344 309.625 100.898438 309.625 102.277344 L 309.625 130.1875 C 309.625 131.566406 308.511719 132.6875 307.132812 132.6875 L 296.3125 132.6875 C 294.933594 132.6875 293.816406 131.566406 293.816406 130.1875 L 293.816406 102.277344 C 293.816406 100.898438 294.933594 99.777344 296.3125 99.777344 L 307.132812 99.777344 " fill-opacity="1" fill-rule="nonzero"/><path fill="#5ce1e6" d="M 94.8125 198.546875 C 49.953125 198.546875 13.460938 162.050781 13.460938 117.195312 C 13.460938 72.335938 49.953125 35.84375 94.8125 35.84375 C 139.667969 35.84375 176.164062 72.335938 176.164062 117.195312 C 176.164062 162.050781 139.667969 198.546875 94.8125 198.546875 " fill-opacity="1" fill-rule="nonzero"/><g clip-path="url(#86dc32389c)"><path fill="#b4b4b4" d="M 94.8125 32.773438 C 48.261719 32.773438 10.390625 70.640625 10.390625 117.195312 C 10.390625 163.742188 48.261719 201.617188 94.8125 201.617188 C 141.359375 201.617188 179.230469 163.742188 179.230469 117.195312 C 179.230469 70.640625 141.359375 32.773438 94.8125 32.773438 Z M 94.8125 38.914062 C 138.042969 38.914062 173.09375 73.957031 173.09375 117.195312 C 173.09375 160.425781 138.042969 195.476562 94.8125 195.476562 C 51.578125 195.476562 16.527344 160.425781 16.527344 117.195312 C 16.527344 73.957031 51.578125 38.914062 94.8125 38.914062 " fill-opacity="1" fill-rule="nonzero"/></g><path fill="#5ce1e6" d="M 160.695312 117.195312 C 160.695312 80.800781 131.195312 51.3125 94.8125 51.3125 C 58.425781 51.3125 28.925781 80.800781 28.925781 117.195312 C 28.925781 153.582031 58.425781 183.078125 94.8125 183.078125 C 131.195312 183.078125 160.695312 153.582031 160.695312 117.195312 " fill-opacity="1" fill-rule="nonzero"/><path stroke-linecap="round" transform="matrix(0.153482, 0, 0, -0.153482, -137.271286, 515.410622)" fill="none" stroke-linejoin="round" d="M 1941.371837 2594.532374 C 1941.371837 2831.657334 1749.167512 3023.785307 1512.118904 3023.785307 C 1275.044845 3023.785307 1082.840519 2831.657334 1082.840519 2594.532374 C 1082.840519 2357.458315 1275.044845 2165.27944 1512.118904 2165.27944 C 1749.167512 2165.27944 1941.371837 2357.458315 1941.371837 2594.532374 Z M 1941.371837 2594.532374 " stroke="#ffffff" stroke-width="40" stroke-opacity="1" stroke-miterlimit="10"/><path stroke-linecap="round" transform="matrix(0.153482, 0, 0, -0.153482, -137.271286, 515.410622)" fill="none" stroke-linejoin="round" d="M 1512.118904 2971.840256 L 1512.118904 2906.889854 " stroke="#ffffff" stroke-width="40" stroke-opacity="1" stroke-miterlimit="10"/><path stroke-linecap="round" transform="matrix(0.153482, 0, 0, -0.153482, -137.271286, 515.410622)" fill="none" stroke-linejoin="round" d="M 1512.118904 2282.225795 L 1512.118904 2217.275393 " stroke="#ffffff" stroke-width="40" stroke-opacity="1" stroke-miterlimit="10"/><path stroke-linecap="round" transform="matrix(0.153482, 0, 0, -0.153482, -137.271286, 515.410622)" fill="none" stroke-linejoin="round" d="M 1134.811021 2594.532374 L 1199.761424 2594.532374 " stroke="#ffffff" stroke-width="40" stroke-opacity="1" stroke-miterlimit="10"/><path stroke-linecap="round" transform="matrix(0.153482, 0, 0, -0.153482, -137.271286, 515.410622)" fill="none" stroke-linejoin="round" d="M 1824.425482 2594.532374 L 1889.375884 2594.532374 " stroke="#ffffff" stroke-width="40" stroke-opacity="1" stroke-miterlimit="10"/><path stroke-linecap="round" transform="matrix(0.153482, 0, 0, -0.153482, -137.271286, 515.410622)" fill-opacity="1" fill="#5ce1e6" fill-rule="nonzero" stroke-linejoin="round" d="M 1484.75931 2621.917418 L 1306.476564 2800.174714 " stroke="#ffffff" stroke-width="40" stroke-opacity="1" stroke-miterlimit="10"/><path stroke-linecap="round" transform="matrix(0.153482, 0, 0, -0.153482, -137.271286, 515.410622)" fill="none" stroke-linejoin="round" d="M 1512.118904 2633.243017 L 1512.118904 2772.713317 " stroke="#ffffff" stroke-width="40" stroke-opacity="1" stroke-miterlimit="10"/><path fill="#b4b4b4" d="M 100.753906 117.195312 C 100.753906 113.914062 98.089844 111.253906 94.8125 111.253906 C 91.53125 111.253906 88.871094 113.914062 88.871094 117.195312 C 88.871094 120.472656 91.53125 123.128906 94.8125 123.128906 C 98.089844 123.128906 100.753906 120.472656 100.753906 117.195312 " fill-opacity="1" fill-rule="nonzero"/></svg>