<svg xmlns="http://www.w3.org/2000/svg" xmlns:xlink="http://www.w3.org/1999/xlink" width="500" zoomAndPan="magnify" viewBox="0 0 375 374.999991" height="500" preserveAspectRatio="xMidYMid meet" version="1.0"><defs><clipPath id="01cbadfd3b"><path d="M 21.417969 218 L 353.667969 218 L 353.667969 353.972656 L 21.417969 353.972656 Z M 21.417969 218 " clip-rule="nonzero"/></clipPath><clipPath id="94ac797d94"><path d="M 21.417969 150 L 353.667969 150 L 353.667969 283 L 21.417969 283 Z M 21.417969 150 " clip-rule="nonzero"/></clipPath><clipPath id="fdfad2dfa7"><path d="M 21.417969 151 L 353.667969 151 L 353.667969 282 L 21.417969 282 Z M 21.417969 151 " clip-rule="nonzero"/></clipPath><clipPath id="29f69931bc"><path d="M 21.417969 83 L 353.667969 83 L 353.667969 215 L 21.417969 215 Z M 21.417969 83 " clip-rule="nonzero"/></clipPath><clipPath id="3f8ebbe41b"><path d="M 21.417969 84 L 353.667969 84 L 353.667969 215 L 21.417969 215 Z M 21.417969 84 " clip-rule="nonzero"/></clipPath><clipPath id="3f02913746"><path d="M 21.417969 20.972656 L 353.667969 20.972656 L 353.667969 311 L 21.417969 311 Z M 21.417969 20.972656 " clip-rule="nonzero"/></clipPath><clipPath id="3b8ce52ccc"><path d="M 21.417969 21 L 353.667969 21 L 353.667969 311 L 21.417969 311 Z M 21.417969 21 " clip-rule="nonzero"/></clipPath></defs><g clip-path="url(#01cbadfd3b)"><path fill="#064d6d" d="M 187.539062 353.972656 C 143.253906 353.972656 101.609375 347.441406 70.28125 335.578125 C 38.789062 323.65625 21.441406 307.738281 21.441406 290.757812 L 21.4375 218.820312 C 21.4375 218.527344 21.675781 218.289062 21.96875 218.289062 C 22.261719 218.289062 22.5 218.527344 22.5 218.820312 C 22.5 231.578125 32.757812 243.851562 52.164062 254.316406 C 83.09375 271.007812 133.699219 280.976562 187.539062 280.976562 C 241.378906 280.976562 291.984375 271.007812 322.914062 254.316406 C 342.320312 243.851562 352.578125 231.578125 352.578125 218.820312 C 352.578125 218.527344 352.816406 218.289062 353.109375 218.289062 C 353.402344 218.289062 353.640625 218.527344 353.640625 218.820312 L 353.640625 290.757812 C 353.636719 307.738281 336.292969 323.65625 304.800781 335.578125 C 273.46875 347.441406 231.824219 353.972656 187.539062 353.972656 Z M 320.769531 275.929688 C 311.488281 275.929688 303.9375 283.476562 303.9375 292.757812 C 303.9375 302.035156 311.488281 309.582031 320.769531 309.582031 C 330.050781 309.582031 337.605469 302.035156 337.605469 292.757812 C 337.605469 283.476562 330.050781 275.929688 320.769531 275.929688 Z M 320.769531 275.929688 " fill-opacity="1" fill-rule="nonzero"/><path fill="#064d6d" d="M 323.164062 254.785156 C 293.222656 270.945312 243.636719 281.503906 187.539062 281.503906 C 131.441406 281.503906 81.855469 270.945312 51.914062 254.785156 C 33.039062 244.605469 21.96875 232.207031 21.96875 218.820312 L 21.96875 290.757812 L 21.972656 290.757812 C 21.976562 325.378906 96.101562 353.441406 187.539062 353.441406 C 278.976562 353.441406 353.101562 325.378906 353.109375 290.757812 L 353.109375 218.820312 C 353.109375 232.207031 342.039062 244.605469 323.164062 254.785156 Z M 320.769531 310.113281 C 311.179688 310.113281 303.40625 302.34375 303.40625 292.757812 C 303.40625 283.167969 311.179688 275.398438 320.769531 275.398438 C 330.359375 275.398438 338.136719 283.167969 338.136719 292.757812 C 338.136719 302.34375 330.359375 310.113281 320.769531 310.113281 Z M 320.769531 310.113281 " fill-opacity="1" fill-rule="nonzero"/></g><g clip-path="url(#94ac797d94)"><path fill="#0a699e" d="M 187.539062 282.035156 C 133.53125 282.035156 82.738281 272.023438 51.660156 255.25 C 31.890625 244.589844 21.4375 231.992188 21.4375 218.820312 L 21.4375 151.511719 C 21.4375 151.21875 21.675781 150.980469 21.96875 150.980469 C 22.261719 150.980469 22.5 151.21875 22.5 151.511719 C 22.5 164.265625 32.757812 176.539062 52.164062 187.003906 C 83.09375 203.699219 133.699219 213.664062 187.539062 213.664062 C 241.378906 213.664062 291.984375 203.699219 322.914062 187.003906 C 342.320312 176.539062 352.578125 164.265625 352.578125 151.511719 C 352.578125 151.21875 352.816406 150.980469 353.109375 150.980469 C 353.402344 150.980469 353.640625 151.21875 353.640625 151.511719 L 353.640625 218.820312 C 353.640625 231.992188 343.191406 244.589844 323.417969 255.25 C 292.339844 272.023438 241.546875 282.035156 187.539062 282.035156 Z M 320.769531 208.621094 C 311.488281 208.621094 303.9375 216.167969 303.9375 225.445312 C 303.9375 234.722656 311.488281 242.273438 320.769531 242.273438 C 330.050781 242.273438 337.605469 234.722656 337.605469 225.445312 C 337.605469 216.167969 330.050781 208.621094 320.769531 208.621094 Z M 320.769531 208.621094 " fill-opacity="1" fill-rule="nonzero"/></g><g clip-path="url(#fdfad2dfa7)"><path fill="#0a699e" d="M 323.164062 187.472656 C 293.222656 203.632812 243.636719 214.195312 187.539062 214.195312 C 131.441406 214.195312 81.855469 203.632812 51.914062 187.472656 C 33.039062 177.296875 21.96875 164.894531 21.96875 151.511719 L 21.96875 218.820312 C 21.96875 232.207031 33.039062 244.605469 51.914062 254.785156 C 81.855469 270.945312 131.441406 281.503906 187.539062 281.503906 C 243.636719 281.503906 293.222656 270.945312 323.164062 254.785156 C 342.039062 244.605469 353.109375 232.207031 353.109375 218.820312 L 353.109375 151.511719 C 353.109375 164.894531 342.039062 177.296875 323.164062 187.472656 Z M 320.769531 242.800781 C 311.179688 242.800781 303.40625 235.03125 303.40625 225.445312 C 303.40625 215.859375 311.179688 208.089844 320.769531 208.089844 C 330.359375 208.089844 338.136719 215.859375 338.136719 225.445312 C 338.136719 235.03125 330.359375 242.800781 320.769531 242.800781 Z M 320.769531 242.800781 " fill-opacity="1" fill-rule="nonzero"/></g><g clip-path="url(#29f69931bc)"><path fill="#1986cf" d="M 187.539062 214.726562 C 133.53125 214.726562 82.738281 204.714844 51.660156 187.941406 C 31.890625 177.277344 21.4375 164.679688 21.4375 151.511719 L 21.4375 84.199219 C 21.4375 83.90625 21.675781 83.671875 21.96875 83.671875 C 22.261719 83.671875 22.5 83.90625 22.5 84.199219 C 22.5 96.957031 32.757812 109.230469 52.164062 119.695312 C 83.09375 136.386719 133.699219 146.355469 187.539062 146.355469 C 241.378906 146.355469 291.984375 136.386719 322.914062 119.695312 C 342.320312 109.230469 352.578125 96.957031 352.578125 84.199219 C 352.578125 83.90625 352.816406 83.671875 353.109375 83.671875 C 353.402344 83.671875 353.640625 83.90625 353.640625 84.199219 L 353.640625 151.511719 C 353.640625 164.679688 343.191406 177.277344 323.417969 187.941406 C 292.339844 204.714844 241.546875 214.726562 187.539062 214.726562 Z M 320.769531 141.308594 C 311.488281 141.308594 303.9375 148.859375 303.9375 158.136719 C 303.9375 167.414062 311.488281 174.960938 320.769531 174.960938 C 330.050781 174.960938 337.605469 167.414062 337.605469 158.136719 C 337.605469 148.859375 330.050781 141.308594 320.769531 141.308594 Z M 320.769531 141.308594 " fill-opacity="1" fill-rule="nonzero"/></g><g clip-path="url(#3f8ebbe41b)"><path fill="#1986cf" d="M 323.164062 120.164062 C 293.222656 136.324219 243.636719 146.886719 187.539062 146.886719 C 131.441406 146.886719 81.855469 136.324219 51.914062 120.164062 C 33.039062 109.984375 21.96875 97.585938 21.96875 84.199219 L 21.96875 151.511719 C 21.96875 164.894531 33.039062 177.296875 51.914062 187.472656 C 81.855469 203.632812 131.441406 214.195312 187.539062 214.195312 C 243.636719 214.195312 293.222656 203.632812 323.164062 187.472656 C 342.039062 177.296875 353.109375 164.894531 353.109375 151.511719 L 353.109375 84.199219 C 353.109375 97.585938 342.039062 109.984375 323.164062 120.164062 Z M 320.769531 175.492188 C 311.179688 175.492188 303.40625 167.722656 303.40625 158.136719 C 303.40625 148.550781 311.179688 140.777344 320.769531 140.777344 C 330.359375 140.777344 338.136719 148.550781 338.136719 158.136719 C 338.136719 167.722656 330.359375 175.492188 320.769531 175.492188 Z M 320.769531 175.492188 " fill-opacity="1" fill-rule="nonzero"/></g><g clip-path="url(#3f02913746)"><path fill="#a4b9fb" d="M 320.769531 310.644531 C 310.902344 310.644531 302.875 302.621094 302.875 292.757812 C 302.875 282.890625 310.902344 274.867188 320.769531 274.867188 C 330.636719 274.867188 338.667969 282.890625 338.667969 292.757812 C 338.667969 302.621094 330.636719 310.644531 320.769531 310.644531 Z M 320.769531 243.332031 C 310.902344 243.332031 302.875 235.308594 302.875 225.445312 C 302.875 215.582031 310.902344 207.558594 320.769531 207.558594 C 330.636719 207.558594 338.667969 215.582031 338.667969 225.445312 C 338.667969 235.308594 330.636719 243.332031 320.769531 243.332031 Z M 320.769531 176.023438 C 310.902344 176.023438 302.875 168 302.875 158.136719 C 302.875 148.269531 310.902344 140.246094 320.769531 140.246094 C 330.636719 140.246094 338.667969 148.269531 338.667969 158.136719 C 338.667969 168 330.636719 176.023438 320.769531 176.023438 Z M 187.539062 147.414062 C 133.53125 147.414062 82.738281 137.402344 51.660156 120.628906 C 31.890625 109.96875 21.4375 97.371094 21.4375 84.199219 C 21.4375 83.457031 21.464844 82.773438 21.523438 82.113281 C 22.921875 65.582031 40.871094 50.164062 72.066406 38.703125 C 103.183594 27.269531 144.191406 20.972656 187.539062 20.972656 C 230.886719 20.972656 271.894531 27.269531 303.011719 38.703125 C 334.207031 50.164062 352.15625 65.582031 353.554688 82.113281 C 353.613281 82.769531 353.640625 83.453125 353.640625 84.199219 C 353.640625 97.371094 343.191406 109.96875 323.417969 120.628906 C 292.339844 137.402344 241.546875 147.414062 187.539062 147.414062 Z M 187.539062 147.414062 " fill-opacity="1" fill-rule="nonzero"/></g><g clip-path="url(#3b8ce52ccc)"><path fill="#a4b9fb" d="M 21.96875 84.199219 C 21.96875 83.515625 21.992188 82.84375 22.054688 82.15625 C 24.902344 48.480469 97.902344 21.503906 187.539062 21.503906 C 277.175781 21.503906 350.175781 48.480469 353.023438 82.15625 C 353.085938 82.84375 353.109375 83.515625 353.109375 84.199219 C 353.109375 97.585938 342.039062 109.984375 323.164062 120.164062 C 293.222656 136.324219 243.636719 146.886719 187.539062 146.886719 C 131.441406 146.886719 81.855469 136.324219 51.914062 120.164062 C 33.039062 109.984375 21.96875 97.585938 21.96875 84.199219 Z M 320.769531 140.777344 C 311.179688 140.777344 303.40625 148.550781 303.40625 158.136719 C 303.40625 167.722656 311.179688 175.492188 320.769531 175.492188 C 330.359375 175.492188 338.136719 167.722656 338.136719 158.136719 C 338.136719 148.550781 330.359375 140.777344 320.769531 140.777344 Z M 320.769531 208.089844 C 311.179688 208.089844 303.40625 215.859375 303.40625 225.445312 C 303.40625 235.03125 311.179688 242.800781 320.769531 242.800781 C 330.359375 242.800781 338.136719 235.03125 338.136719 225.445312 C 338.136719 215.859375 330.359375 208.089844 320.769531 208.089844 Z M 320.769531 275.398438 C 311.179688 275.398438 303.40625 283.167969 303.40625 292.757812 C 303.40625 302.34375 311.179688 310.113281 320.769531 310.113281 C 330.359375 310.113281 338.136719 302.34375 338.136719 292.757812 C 338.136719 283.167969 330.359375 275.398438 320.769531 275.398438 Z M 320.769531 275.398438 " fill-opacity="1" fill-rule="nonzero"/></g></svg>