<svg xmlns="http://www.w3.org/2000/svg" xmlns:xlink="http://www.w3.org/1999/xlink" width="500" zoomAndPan="magnify" viewBox="0 0 375 374.999991" height="500" preserveAspectRatio="xMidYMid meet" version="1.0"><defs><clipPath id="fc6b7d7b46"><path d="M 21 76.660156 L 353.9375 76.660156 L 353.9375 298.660156 L 21 298.660156 Z M 21 76.660156 " clip-rule="nonzero"/></clipPath><clipPath id="322a081384"><path d="M 21 76.660156 L 353.9375 76.660156 L 353.9375 298.660156 L 21 298.660156 Z M 21 76.660156 " clip-rule="nonzero"/></clipPath></defs><g clip-path="url(#fc6b7d7b46)"><path fill="#ffffff" d="M 344.679688 118.183594 L 344.578125 118.183594 C 344.261719 118.105469 343.9375 118.066406 343.605469 118.070312 L 274.863281 117.988281 L 277.617188 100.210938 C 278.003906 97.742188 271.632812 92.046875 269.136719 91.90625 C 268.554688 91.664062 267.945312 91.546875 267.316406 91.550781 L 264.308594 91.550781 C 263.589844 91.585938 262.902344 91.738281 262.234375 92.007812 C 261.570312 92.277344 260.972656 92.652344 260.433594 93.125 C 259.898438 93.601562 259.453125 94.15625 259.105469 94.78125 C 258.761719 95.410156 258.527344 96.078125 258.40625 96.785156 L 255.113281 117.972656 L 214.574219 117.921875 L 214.289062 117.921875 L 215.871094 107.71875 L 219.167969 86.292969 C 217.683594 84.167969 211.75 80.1875 207.628906 78.203125 C 206.667969 77.3125 205.535156 76.855469 204.226562 76.835938 L 60.179688 76.660156 C 59.367188 76.699219 58.582031 76.871094 57.824219 77.179688 C 57.070312 77.484375 56.386719 77.910156 55.777344 78.449219 C 55.164062 78.992188 54.664062 79.621094 54.265625 80.332031 C 53.871094 81.046875 53.605469 81.804688 53.472656 82.609375 L 21.398438 289.433594 C 21.25 290.152344 21.25 290.871094 21.402344 291.585938 C 21.554688 292.304688 21.847656 292.960938 22.28125 293.554688 C 23.527344 296.101562 32.171875 298.152344 34.75 298.152344 L 178.722656 298.324219 C 181.546875 298.324219 184.210938 295.976562 187.125 293.066406 L 187.25 292.316406 C 187.449219 292.457031 187.664062 292.574219 187.886719 292.671875 L 190.480469 293.777344 C 190.953125 293.976562 191.445312 294.09375 191.957031 294.128906 L 197.402344 296.3125 C 199.527344 297.21875 202.273438 296.066406 203.515625 293.726562 L 226.976562 249.714844 L 230.808594 242.511719 L 235.820312 242.511719 L 232.523438 263.617188 C 232.445312 263.957031 232.410156 264.304688 232.417969 264.652344 C 232.429688 265.382812 232.609375 266.066406 232.960938 266.707031 C 232.835938 269.179688 241.203125 271.648438 243.671875 271.648438 L 246.648438 271.648438 C 247.269531 271.625 247.871094 271.496094 248.449219 271.261719 C 249.023438 271.027344 249.546875 270.707031 250.011719 270.292969 C 250.480469 269.878906 250.863281 269.402344 251.164062 268.855469 C 251.464844 268.3125 251.664062 267.730469 251.765625 267.117188 L 254.296875 250.785156 L 255.574219 242.542969 L 262.421875 242.542969 L 273.132812 290.761719 C 273.363281 291.824219 273.914062 292.6875 274.78125 293.347656 C 276.109375 295.515625 283.574219 297.320312 285.847656 296.46875 L 288.789062 295.375 C 289.371094 295.160156 289.902344 294.851562 290.378906 294.453125 C 290.851562 294.054688 291.246094 293.589844 291.558594 293.050781 C 291.871094 292.515625 292.085938 291.941406 292.199219 291.332031 C 292.3125 290.722656 292.320312 290.113281 292.21875 289.5 L 284.160156 253.304688 L 281.777344 242.542969 L 331.535156 242.601562 C 332.089844 242.578125 332.625 242.460938 333.136719 242.253906 C 333.652344 242.046875 334.117188 241.761719 334.535156 241.390625 C 334.949219 241.023438 335.292969 240.597656 335.558594 240.113281 C 335.828125 239.628906 336.007812 239.113281 336.101562 238.5625 L 337.0625 232.34375 C 337.359375 230.40625 332.664062 225.246094 329.984375 223.914062 C 329.984375 223.730469 330.066406 223.566406 330.09375 223.386719 L 343.367188 137.773438 C 343.433594 137.34375 343.476562 136.949219 343.5 136.503906 L 347.984375 136.503906 C 348.539062 136.480469 349.074219 136.367188 349.585938 136.160156 C 350.101562 135.953125 350.566406 135.664062 350.984375 135.296875 C 351.398438 134.929688 351.742188 134.503906 352.007812 134.015625 C 352.277344 133.53125 352.457031 133.015625 352.546875 132.464844 L 353.511719 126.246094 C 353.859375 124.011719 346.855469 118.195312 344.679688 118.183594 Z M 189.269531 279.28125 L 194.980469 242.4375 L 208.875 242.4375 Z M 189.269531 279.28125 " fill-opacity="1" fill-rule="nonzero"/></g><path fill="#38b6ff" d="M 262.304688 117.980469 L 256.792969 117.980469 L 260.03125 97.054688 C 260.117188 96.535156 260.289062 96.042969 260.546875 95.578125 C 260.800781 95.117188 261.128906 94.710938 261.523438 94.359375 C 261.921875 94.007812 262.363281 93.734375 262.855469 93.535156 C 263.34375 93.335938 263.855469 93.222656 264.382812 93.199219 L 267.40625 93.199219 C 267.761719 93.199219 268.105469 93.261719 268.4375 93.390625 C 268.769531 93.515625 269.066406 93.695312 269.332031 93.929688 C 269.597656 94.167969 269.8125 94.441406 269.976562 94.753906 C 270.144531 95.070312 270.246094 95.402344 270.289062 95.753906 C 270.289062 95.863281 270.289062 95.96875 270.332031 96.085938 C 270.332031 96.324219 270.304688 96.558594 270.25 96.792969 L 266.953125 117.980469 Z M 238.054688 240.90625 L 237.757812 240.707031 L 237.484375 242.488281 L 236.546875 248.519531 L 234.164062 263.894531 C 234.113281 264.128906 234.089844 264.367188 234.089844 264.605469 C 234.09375 265.414062 234.390625 266.097656 234.972656 266.65625 C 235.554688 267.210938 236.246094 267.484375 237.046875 267.480469 L 240.015625 267.480469 C 240.539062 267.453125 241.046875 267.34375 241.535156 267.144531 C 242.019531 266.945312 242.460938 266.671875 242.855469 266.320312 C 243.246094 265.972656 243.570312 265.570312 243.828125 265.109375 C 244.082031 264.648438 244.253906 264.160156 244.339844 263.640625 L 246.9375 246.929688 L 240.386719 242.488281 Z M 214.609375 242.460938 L 211.765625 240.535156 L 210.734375 242.453125 L 189.625 282.117188 L 188.503906 284.226562 L 188.214844 284.769531 L 187.324219 286.417969 C 186.953125 287.101562 186.789062 287.832031 186.828125 288.609375 C 186.84375 288.914062 186.898438 289.210938 186.996094 289.5 C 187.117188 289.84375 187.296875 290.148438 187.539062 290.421875 C 187.8125 290.738281 188.144531 290.980469 188.527344 291.148438 L 191.132812 292.25 C 192.878906 292.992188 195.144531 292.003906 196.191406 290.042969 L 219.695312 245.882812 L 215.574219 243.113281 Z M 276.578125 249.335938 L 268.238281 243.671875 L 266.542969 242.527344 L 263.664062 240.566406 L 264.09375 242.519531 L 273.601562 285.371094 L 274.714844 290.390625 C 274.882812 291.242188 275.347656 291.875 276.109375 292.292969 C 276.550781 292.511719 277.015625 292.632812 277.511719 292.652344 C 278.003906 292.671875 278.476562 292.585938 278.933594 292.398438 L 281.878906 291.296875 C 282.367188 291.113281 282.8125 290.855469 283.214844 290.519531 C 283.613281 290.183594 283.945312 289.792969 284.210938 289.339844 C 284.476562 288.890625 284.65625 288.410156 284.753906 287.894531 C 284.851562 287.382812 284.859375 286.867188 284.777344 286.351562 Z M 281.933594 156.042969 L 282.289062 153.777344 C 282.332031 153.578125 282.335938 153.378906 282.300781 153.179688 C 282.261719 152.980469 282.191406 152.792969 282.082031 152.625 C 281.96875 152.453125 281.832031 152.308594 281.664062 152.195312 C 281.5 152.078125 281.316406 152 281.117188 151.957031 C 280.96875 151.933594 280.816406 151.933594 280.664062 151.957031 C 276.632812 152.234375 272.785156 153.234375 269.128906 154.953125 C 266.664062 156.097656 264.355469 157.503906 262.207031 159.164062 C 261.886719 159.414062 261.5625 159.667969 261.25 159.933594 C 260.9375 160.195312 260.609375 160.476562 260.292969 160.757812 C 256.742188 163.886719 253.875 167.554688 251.691406 171.757812 C 249.613281 175.761719 248.363281 180.007812 247.941406 184.496094 C 247.773438 186.464844 247.796875 188.433594 248.015625 190.398438 C 248.277344 192.871094 248.882812 195.257812 249.832031 197.554688 C 250.78125 199.855469 252.039062 201.96875 253.601562 203.902344 C 253.835938 204.183594 254.066406 204.457031 254.3125 204.726562 C 254.558594 205 254.78125 205.238281 255.019531 205.496094 C 257.8125 208.339844 261.109375 210.367188 264.910156 211.574219 C 266.910156 212.222656 268.960938 212.621094 271.058594 212.769531 C 287.101562 213.941406 302.675781 201.679688 306.820312 185.699219 C 306.894531 185.429688 306.96875 185.15625 307.035156 184.875 C 307.105469 184.632812 307.128906 184.382812 307.101562 184.128906 C 307.078125 183.878906 307.003906 183.640625 306.882812 183.414062 C 306.761719 183.191406 306.601562 183 306.402344 182.839844 C 306.207031 182.675781 305.984375 182.558594 305.742188 182.488281 C 305.550781 182.4375 305.359375 182.414062 305.164062 182.414062 L 279.207031 182.414062 C 279.058594 182.414062 278.914062 182.386719 278.773438 182.332031 C 278.632812 182.277344 278.511719 182.199219 278.402344 182.09375 C 278.296875 181.988281 278.214844 181.867188 278.152344 181.730469 C 278.09375 181.59375 278.0625 181.449219 278.0625 181.300781 C 278.054688 181.214844 278.054688 181.128906 278.0625 181.042969 Z M 345.386719 120.445312 C 344.894531 119.945312 344.300781 119.707031 343.597656 119.726562 L 282.75 119.652344 L 254.863281 119.652344 L 217.519531 119.601562 L 217.519531 119.898438 L 217.460938 120.722656 L 217.460938 121.546875 L 217.296875 124.019531 L 216.761719 132.261719 L 272.621094 132.261719 L 336.074219 132.335938 L 341.339844 132.335938 C 341.925781 132.308594 342.472656 132.160156 342.988281 131.890625 C 343.550781 131.609375 344.023438 131.21875 344.402344 130.71875 C 344.78125 130.21875 345.027344 129.65625 345.140625 129.039062 L 346.105469 122.808594 C 346.148438 122.605469 346.171875 122.398438 346.171875 122.191406 C 346.160156 121.503906 345.90625 120.921875 345.410156 120.445312 Z M 327.207031 225.816406 L 320.417969 225.816406 L 277.757812 225.765625 L 210.628906 225.765625 L 210.554688 226.96875 L 210.167969 232.863281 L 210.117188 233.6875 L 210.058594 234.507812 L 209.902344 236.980469 L 209.804688 238.441406 L 280.863281 238.441406 L 324.925781 238.488281 C 325.382812 238.464844 325.820312 238.363281 326.242188 238.1875 C 326.664062 238.011719 327.042969 237.769531 327.382812 237.464844 C 327.722656 237.160156 328 236.804688 328.21875 236.40625 C 328.4375 236.003906 328.585938 235.578125 328.660156 235.128906 L 329.621094 228.921875 C 329.667969 228.71875 329.6875 228.511719 329.6875 228.304688 C 329.675781 227.976562 329.605469 227.664062 329.472656 227.363281 C 329.339844 227.0625 329.160156 226.796875 328.925781 226.566406 C 328.691406 226.335938 328.421875 226.160156 328.121094 226.03125 C 327.820312 225.90625 327.503906 225.839844 327.175781 225.832031 Z M 238.457031 154.617188 C 238.597656 153.753906 238.535156 152.90625 238.277344 152.070312 C 238.125 151.582031 237.902344 151.132812 237.601562 150.71875 C 237.304688 150.304688 236.949219 149.949219 236.535156 149.652344 C 236.121094 149.355469 235.667969 149.128906 235.183594 148.980469 C 234.695312 148.832031 234.195312 148.761719 233.6875 148.773438 L 215.621094 148.773438 L 215.410156 152.070312 L 214.863281 160.453125 L 231.875 160.453125 C 232.671875 160.417969 233.445312 160.253906 234.1875 159.953125 C 234.933594 159.652344 235.601562 159.238281 236.203125 158.707031 C 236.804688 158.175781 237.296875 157.558594 237.683594 156.855469 C 238.070312 156.152344 238.328125 155.40625 238.457031 154.617188 Z M 58.96875 104.21875 L 51.773438 104.21875 L 55.070312 82.875 C 55.175781 82.257812 55.378906 81.675781 55.679688 81.125 C 55.984375 80.578125 56.371094 80.097656 56.839844 79.679688 C 57.308594 79.265625 57.832031 78.941406 58.414062 78.703125 C 58.992188 78.46875 59.597656 78.335938 60.222656 78.308594 L 151.632812 78.417969 L 204.226562 78.480469 C 204.691406 78.476562 205.144531 78.558594 205.578125 78.730469 C 206.011719 78.90625 206.398438 79.15625 206.730469 79.480469 C 207.066406 79.808594 207.324219 80.183594 207.507812 80.613281 C 207.695312 81.042969 207.789062 81.492188 207.792969 81.960938 C 207.792969 82.238281 207.761719 82.511719 207.703125 82.785156 L 204.359375 104.382812 Z M 188.347656 94.601562 C 190.050781 96.148438 192.917969 95.789062 194.742188 93.777344 C 196.5625 91.765625 196.644531 88.890625 194.9375 87.339844 C 193.234375 85.792969 190.363281 86.144531 188.542969 88.164062 C 186.722656 90.183594 186.640625 93.042969 188.355469 94.601562 Z M 174.195312 94.601562 C 175.910156 96.148438 178.769531 95.789062 180.59375 93.777344 C 182.414062 91.765625 182.503906 88.890625 180.789062 87.339844 C 179.074219 85.792969 176.214844 86.144531 174.394531 88.164062 C 172.574219 90.183594 172.5 93.027344 174.207031 94.585938 Z M 159.613281 94.601562 C 161.324219 96.148438 164.183594 95.789062 166.007812 93.777344 C 167.828125 91.765625 167.910156 88.890625 166.203125 87.339844 C 164.496094 85.792969 161.628906 86.144531 159.808594 88.164062 C 157.988281 90.183594 157.914062 93.011719 159.621094 94.566406 Z M 53.257812 272.195312 L 70.753906 272.195312 L 80 212.558594 L 62.488281 212.546875 Z M 103.675781 272.25 L 121.167969 272.25 L 131.882812 203.300781 L 114.378906 203.300781 Z M 56.214844 202.3125 C 56.953125 202.160156 57.644531 201.890625 58.292969 201.511719 C 58.941406 201.128906 59.511719 200.65625 60.003906 200.085938 C 60.496094 199.515625 60.882812 198.882812 61.167969 198.1875 C 61.453125 197.492188 61.617188 196.769531 61.664062 196.019531 C 61.703125 195.339844 61.597656 194.683594 61.347656 194.050781 C 61.097656 193.417969 60.726562 192.867188 60.230469 192.398438 C 59.363281 191.632812 58.347656 191.253906 57.1875 191.269531 C 56.957031 191.269531 56.726562 191.289062 56.496094 191.320312 C 54.898438 191.550781 53.5625 192.269531 52.492188 193.480469 C 50.265625 195.953125 50.117188 199.429688 52.164062 201.285156 C 52.832031 201.882812 53.613281 202.238281 54.503906 202.355469 C 55.074219 202.429688 55.648438 202.417969 56.214844 202.3125 Z M 158.621094 269.789062 C 157.953125 270.527344 157.460938 271.371094 157.148438 272.316406 C 156.976562 272.851562 156.878906 273.402344 156.859375 273.964844 C 156.816406 274.644531 156.921875 275.300781 157.171875 275.933594 C 157.421875 276.566406 157.796875 277.117188 158.292969 277.582031 C 160.328125 279.4375 163.796875 278.960938 166.023438 276.511719 C 167.128906 275.332031 167.71875 273.933594 167.792969 272.316406 C 167.835938 271.640625 167.730469 270.984375 167.476562 270.355469 C 167.226562 269.722656 166.855469 269.175781 166.359375 268.707031 C 164.316406 266.855469 160.847656 267.339844 158.621094 269.789062 Z M 124.175781 145.710938 L 124.175781 144.0625 L 64.730469 143.988281 L 64.730469 145.636719 Z M 63.476562 153.734375 L 138.101562 153.824219 L 138.101562 152.179688 L 63.476562 152.085938 Z M 108.636719 160.238281 L 62.265625 160.179688 L 62.265625 161.828125 L 108.644531 161.886719 Z M 60.9375 170.375 L 98.25 170.375 L 98.25 168.726562 L 60.9375 168.726562 Z M 60.9375 170.375 " fill-opacity="1" fill-rule="nonzero"/><g clip-path="url(#322a081384)"><path fill="#5170ff" d="M 344.679688 118.183594 L 344.578125 118.183594 C 344.261719 118.105469 343.9375 118.066406 343.605469 118.070312 L 274.863281 117.988281 L 277.617188 100.210938 C 278.003906 97.742188 271.632812 92.046875 269.136719 91.90625 C 268.554688 91.664062 267.945312 91.546875 267.316406 91.550781 L 264.308594 91.550781 C 263.589844 91.585938 262.902344 91.738281 262.234375 92.007812 C 261.570312 92.277344 260.972656 92.652344 260.433594 93.125 C 259.898438 93.601562 259.453125 94.15625 259.105469 94.78125 C 258.761719 95.410156 258.527344 96.078125 258.40625 96.785156 L 255.113281 117.972656 L 214.574219 117.921875 L 214.289062 117.921875 L 215.871094 107.71875 L 219.167969 86.292969 C 217.683594 84.167969 211.75 80.1875 207.628906 78.203125 C 206.667969 77.3125 205.535156 76.855469 204.226562 76.835938 L 60.179688 76.660156 C 59.367188 76.699219 58.582031 76.871094 57.824219 77.179688 C 57.070312 77.484375 56.386719 77.910156 55.777344 78.449219 C 55.164062 78.992188 54.664062 79.621094 54.265625 80.332031 C 53.871094 81.046875 53.605469 81.804688 53.472656 82.609375 L 21.398438 289.433594 C 21.25 290.152344 21.25 290.871094 21.402344 291.585938 C 21.554688 292.304688 21.847656 292.960938 22.28125 293.554688 C 23.527344 296.101562 32.171875 298.152344 34.75 298.152344 L 178.722656 298.324219 C 181.546875 298.324219 184.210938 295.976562 187.125 293.066406 L 187.25 292.316406 C 187.449219 292.457031 187.664062 292.574219 187.886719 292.671875 L 190.480469 293.777344 C 190.953125 293.976562 191.445312 294.09375 191.957031 294.128906 L 197.402344 296.3125 C 199.527344 297.21875 202.273438 296.066406 203.515625 293.726562 L 226.976562 249.714844 L 230.808594 242.511719 L 235.820312 242.511719 L 232.523438 263.617188 C 232.445312 263.957031 232.410156 264.304688 232.417969 264.652344 C 232.429688 265.382812 232.609375 266.066406 232.960938 266.707031 C 232.835938 269.179688 241.203125 271.648438 243.671875 271.648438 L 246.648438 271.648438 C 247.269531 271.625 247.871094 271.496094 248.449219 271.261719 C 249.023438 271.027344 249.546875 270.707031 250.011719 270.292969 C 250.480469 269.878906 250.863281 269.402344 251.164062 268.855469 C 251.464844 268.3125 251.664062 267.730469 251.765625 267.117188 L 254.296875 250.785156 L 255.574219 242.542969 L 262.421875 242.542969 L 273.132812 290.761719 C 273.363281 291.824219 273.914062 292.6875 274.78125 293.347656 C 276.109375 295.515625 283.574219 297.320312 285.847656 296.46875 L 288.789062 295.375 C 289.371094 295.160156 289.902344 294.851562 290.378906 294.453125 C 290.851562 294.054688 291.246094 293.589844 291.558594 293.050781 C 291.871094 292.515625 292.085938 291.941406 292.199219 291.332031 C 292.3125 290.722656 292.320312 290.113281 292.21875 289.5 L 284.160156 253.304688 L 281.777344 242.542969 L 331.535156 242.601562 C 332.089844 242.578125 332.625 242.460938 333.136719 242.253906 C 333.652344 242.046875 334.117188 241.761719 334.535156 241.390625 C 334.949219 241.023438 335.292969 240.597656 335.558594 240.113281 C 335.828125 239.628906 336.007812 239.113281 336.101562 238.5625 L 337.0625 232.34375 C 337.359375 230.40625 332.664062 225.246094 329.984375 223.914062 C 329.984375 223.730469 330.066406 223.566406 330.09375 223.386719 L 343.367188 137.773438 C 343.433594 137.34375 343.476562 136.949219 343.5 136.503906 L 347.984375 136.503906 C 348.539062 136.480469 349.074219 136.367188 349.585938 136.160156 C 350.101562 135.953125 350.566406 135.664062 350.984375 135.296875 C 351.398438 134.929688 351.742188 134.503906 352.007812 134.015625 C 352.277344 133.53125 352.457031 133.015625 352.546875 132.464844 L 353.511719 126.246094 C 353.859375 124.011719 346.855469 118.195312 344.679688 118.183594 Z M 260.03125 97.046875 C 260.121094 96.527344 260.292969 96.035156 260.546875 95.574219 C 260.804688 95.113281 261.132812 94.707031 261.527344 94.355469 C 261.921875 94.003906 262.367188 93.730469 262.855469 93.53125 C 263.34375 93.335938 263.855469 93.222656 264.382812 93.199219 L 267.40625 93.199219 C 267.761719 93.199219 268.105469 93.261719 268.4375 93.390625 C 268.769531 93.515625 269.066406 93.695312 269.332031 93.929688 C 269.597656 94.167969 269.8125 94.441406 269.976562 94.753906 C 270.144531 95.070312 270.246094 95.402344 270.289062 95.753906 C 270.289062 95.863281 270.289062 95.96875 270.332031 96.085938 C 270.332031 96.324219 270.304688 96.558594 270.25 96.792969 L 266.953125 117.980469 L 256.816406 117.980469 Z M 185.660156 224.777344 L 185.527344 225.601562 L 185.230469 227.546875 L 184.40625 232.695312 L 184.277344 233.519531 L 184.152344 234.34375 L 183.765625 236.816406 L 183.542969 238.277344 L 183.410156 239.101562 L 183.285156 239.921875 L 182.90625 242.394531 L 175.582031 289.640625 C 175.476562 290.257812 175.273438 290.839844 174.972656 291.386719 C 174.667969 291.933594 174.285156 292.417969 173.816406 292.832031 C 173.347656 293.246094 172.824219 293.574219 172.246094 293.8125 C 171.667969 294.046875 171.066406 294.183594 170.441406 294.210938 L 26.476562 294.039062 C 25.519531 294.035156 24.695312 293.703125 24.003906 293.042969 C 23.308594 292.363281 22.957031 291.539062 22.941406 290.570312 C 22.941406 290.292969 22.972656 290.019531 23.03125 289.746094 L 24.121094 282.675781 L 51.773438 104.210938 L 55.070312 82.875 C 55.175781 82.257812 55.378906 81.675781 55.679688 81.125 C 55.984375 80.578125 56.371094 80.097656 56.839844 79.679688 C 57.308594 79.265625 57.832031 78.941406 58.414062 78.703125 C 58.992188 78.46875 59.597656 78.335938 60.222656 78.308594 L 151.632812 78.417969 L 204.226562 78.480469 C 204.691406 78.476562 205.144531 78.558594 205.578125 78.730469 C 206.011719 78.90625 206.398438 79.15625 206.730469 79.480469 C 207.066406 79.808594 207.324219 80.183594 207.507812 80.613281 C 207.695312 81.042969 207.789062 81.492188 207.792969 81.960938 C 207.792969 82.238281 207.761719 82.511719 207.703125 82.785156 L 204.359375 104.382812 L 203.847656 107.679688 L 202.421875 116.851562 L 202.257812 117.90625 L 202.132812 118.730469 L 202 119.554688 L 201.960938 119.851562 L 201.828125 120.675781 L 201.703125 121.5 L 201.703125 121.574219 L 201.339844 123.953125 L 200.054688 132.195312 L 199.933594 133.019531 L 199.800781 133.84375 L 199.421875 136.316406 L 197.253906 150.003906 L 195.84375 159.117188 L 185.785156 223.976562 Z M 208.875 242.414062 L 189.269531 279.238281 L 194.980469 242.394531 Z M 196.191406 290.09375 C 195.144531 292.054688 192.894531 293.042969 191.132812 292.300781 L 188.570312 291.179688 C 188.183594 291.015625 187.855469 290.773438 187.578125 290.453125 C 187.339844 290.183594 187.15625 289.875 187.035156 289.53125 C 186.9375 289.242188 186.882812 288.945312 186.871094 288.640625 C 186.828125 287.863281 186.992188 287.132812 187.367188 286.449219 L 188.253906 284.800781 L 188.542969 284.257812 L 189.664062 282.148438 L 210.777344 242.488281 L 211.808594 240.566406 L 214.648438 242.496094 L 215.65625 243.179688 L 219.777344 245.949219 Z M 244.339844 263.664062 C 244.253906 264.183594 244.082031 264.671875 243.828125 265.132812 C 243.570312 265.59375 243.246094 265.996094 242.855469 266.347656 C 242.460938 266.695312 242.019531 266.96875 241.535156 267.167969 C 241.046875 267.367188 240.539062 267.480469 240.015625 267.503906 L 237.046875 267.503906 C 236.246094 267.511719 235.554688 267.234375 234.972656 266.679688 C 234.390625 266.121094 234.09375 265.4375 234.089844 264.628906 C 234.089844 264.390625 234.113281 264.152344 234.164062 263.921875 L 236.546875 248.542969 L 237.484375 242.511719 L 237.757812 240.730469 L 238.054688 240.929688 L 240.386719 242.519531 L 246.9375 246.960938 Z M 284.777344 286.328125 C 284.859375 286.84375 284.851562 287.355469 284.753906 287.871094 C 284.65625 288.382812 284.476562 288.867188 284.210938 289.316406 C 283.945312 289.765625 283.613281 290.160156 283.214844 290.496094 C 282.8125 290.832031 282.367188 291.089844 281.878906 291.269531 L 278.933594 292.375 C 278.476562 292.5625 278.003906 292.644531 277.511719 292.628906 C 277.015625 292.609375 276.550781 292.488281 276.109375 292.269531 C 275.347656 291.851562 274.882812 291.214844 274.714844 290.363281 L 273.601562 285.347656 L 264.09375 242.496094 L 263.664062 240.542969 L 266.542969 242.503906 L 268.238281 243.648438 L 276.578125 249.308594 Z M 329.65625 228.9375 L 328.660156 235.128906 C 328.582031 235.582031 328.4375 236.007812 328.214844 236.410156 C 327.992188 236.8125 327.710938 237.164062 327.367188 237.46875 C 327.027344 237.773438 326.640625 238.015625 326.21875 238.1875 C 325.792969 238.363281 325.351562 238.460938 324.894531 238.480469 L 280.863281 238.433594 L 209.804688 238.433594 L 209.902344 236.972656 L 210.058594 234.5 L 210.117188 233.675781 L 210.167969 232.851562 L 210.554688 226.960938 L 210.628906 225.757812 L 277.757812 225.757812 L 320.417969 225.816406 L 327.207031 225.816406 C 327.535156 225.820312 327.851562 225.886719 328.152344 226.015625 C 328.457031 226.144531 328.722656 226.320312 328.957031 226.550781 C 329.191406 226.78125 329.375 227.046875 329.507812 227.347656 C 329.636719 227.644531 329.710938 227.960938 329.722656 228.289062 C 329.722656 228.5 329.699219 228.714844 329.65625 228.921875 Z M 335.960938 134.34375 L 335.628906 136.496094 L 322.683594 219.964844 C 322.476562 221.289062 322.09375 222.558594 321.539062 223.78125 C 321.480469 223.914062 321.40625 224.035156 321.347656 224.160156 L 308.558594 224.160156 L 272.664062 224.117188 L 210.734375 224.117188 L 213.011719 189.160156 L 213.167969 186.691406 L 229.484375 186.691406 L 229.484375 185.042969 L 213.273438 185.042969 L 213.570312 180.507812 L 213.726562 178.035156 L 230.816406 178.035156 L 230.816406 176.390625 L 213.828125 176.390625 L 214.121094 171.882812 L 214.28125 169.410156 L 232.152344 169.410156 L 232.152344 167.761719 L 214.386719 167.761719 L 214.640625 163.78125 L 214.855469 160.484375 L 215.398438 152.105469 L 215.613281 148.808594 L 216.4375 136.445312 L 216.59375 133.972656 L 272.390625 133.972656 L 336 134.046875 C 335.984375 134.140625 335.976562 134.246094 335.960938 134.34375 Z M 346.105469 122.808594 L 345.140625 129.039062 C 345.035156 129.667969 344.792969 130.238281 344.414062 130.75 C 344.035156 131.265625 343.558594 131.664062 342.988281 131.949219 C 342.472656 132.21875 341.925781 132.367188 341.339844 132.390625 L 336.074219 132.390625 L 272.621094 132.316406 L 216.695312 132.316406 L 217.230469 124.078125 L 217.394531 121.605469 L 217.394531 120.78125 L 217.453125 119.957031 L 217.453125 119.660156 L 254.796875 119.710938 L 282.710938 119.710938 L 343.558594 119.785156 C 344.257812 119.765625 344.855469 120.003906 345.347656 120.5 C 345.847656 120.984375 346.097656 121.570312 346.105469 122.265625 C 346.121094 122.445312 346.121094 122.628906 346.105469 122.808594 Z M 282.511719 175.976562 L 285.707031 155.375 L 286.632812 149.417969 C 286.679688 149.152344 286.769531 148.902344 286.90625 148.667969 C 287.042969 148.433594 287.214844 148.230469 287.421875 148.054688 C 287.628906 147.882812 287.863281 147.75 288.117188 147.660156 C 288.371094 147.570312 288.636719 147.527344 288.90625 147.53125 C 291.226562 147.671875 293.484375 148.125 295.679688 148.890625 C 297.875 149.65625 299.921875 150.703125 301.828125 152.039062 C 308.949219 157.082031 313.019531 165.832031 312.101562 175.9375 C 312.070312 176.207031 311.996094 176.464844 311.871094 176.710938 C 311.746094 176.957031 311.585938 177.171875 311.382812 177.359375 C 311.183594 177.546875 310.957031 177.691406 310.703125 177.796875 C 310.449219 177.902344 310.183594 177.960938 309.910156 177.972656 L 284.078125 177.972656 C 283.960938 177.984375 283.839844 177.984375 283.722656 177.972656 C 283.507812 177.925781 283.308594 177.839844 283.128906 177.710938 C 282.949219 177.582031 282.800781 177.425781 282.683594 177.238281 C 282.570312 177.046875 282.496094 176.84375 282.46875 176.625 C 282.4375 176.40625 282.453125 176.191406 282.511719 175.976562 Z M 157.402344 268.667969 C 156.441406 269.714844 155.792969 270.929688 155.449219 272.308594 L 146.625 272.308594 L 159.371094 190.109375 L 141.871094 190.109375 L 129.128906 272.308594 L 97.691406 272.308594 L 104.5625 227.957031 L 87.070312 227.957031 L 80.1875 272.316406 L 70.726562 272.210938 L 51.445312 272.210938 C 50.695312 272.226562 49.976562 272.082031 49.289062 271.78125 C 48.601562 271.480469 48.007812 271.042969 47.515625 270.480469 C 46.992188 269.84375 46.628906 269.128906 46.425781 268.335938 C 46.222656 267.539062 46.199219 266.738281 46.351562 265.929688 L 55.953125 204.035156 C 56.441406 203.976562 56.921875 203.871094 57.394531 203.726562 C 57.863281 203.582031 58.320312 203.398438 58.757812 203.175781 C 59.199219 202.953125 59.613281 202.691406 60.007812 202.394531 C 60.402344 202.097656 60.765625 201.769531 61.101562 201.410156 C 61.4375 201.050781 61.742188 200.664062 62.011719 200.25 C 62.28125 199.835938 62.511719 199.402344 62.703125 198.949219 C 62.898438 198.496094 63.050781 198.03125 63.160156 197.550781 C 63.273438 197.070312 63.34375 196.585938 63.371094 196.09375 C 63.398438 195.636719 63.378906 195.183594 63.304688 194.734375 C 63.230469 194.285156 63.109375 193.847656 62.9375 193.425781 C 62.769531 193.003906 62.550781 192.605469 62.292969 192.230469 C 62.03125 191.855469 61.734375 191.515625 61.394531 191.210938 C 61.058594 190.902344 60.691406 190.636719 60.292969 190.414062 C 59.898438 190.191406 59.480469 190.011719 59.042969 189.882812 C 58.605469 189.753906 58.160156 189.671875 57.707031 189.640625 C 57.25 189.613281 56.796875 189.632812 56.347656 189.707031 C 55.378906 189.839844 54.464844 190.140625 53.601562 190.601562 C 52.738281 191.0625 51.980469 191.660156 51.328125 192.390625 C 48.496094 195.515625 48.394531 200.054688 51.109375 202.527344 C 52.023438 203.351562 53.09375 203.84375 54.3125 204.003906 L 44.722656 265.660156 C 44.53125 266.703125 44.570312 267.738281 44.839844 268.765625 C 45.109375 269.789062 45.582031 270.710938 46.261719 271.527344 C 46.914062 272.277344 47.691406 272.851562 48.597656 273.253906 C 49.503906 273.660156 50.453125 273.851562 51.445312 273.832031 L 155.210938 273.964844 C 155.171875 274.875 155.324219 275.753906 155.667969 276.601562 C 156.011719 277.445312 156.515625 278.179688 157.179688 278.804688 C 158.351562 279.855469 159.726562 280.375 161.300781 280.359375 C 162.433594 280.339844 163.515625 280.089844 164.542969 279.609375 C 165.574219 279.132812 166.460938 278.46875 167.210938 277.617188 C 167.875 276.902344 168.398438 276.09375 168.777344 275.191406 C 169.152344 274.289062 169.363281 273.351562 169.410156 272.375 C 169.460938 271.453125 169.3125 270.566406 168.964844 269.710938 C 168.621094 268.855469 168.109375 268.117188 167.433594 267.488281 C 164.753906 265.023438 160.238281 265.558594 157.402344 268.667969 Z M 52.195312 201.285156 C 50.152344 199.429688 50.300781 195.925781 52.523438 193.480469 C 53.59375 192.269531 54.929688 191.550781 56.53125 191.320312 C 56.757812 191.289062 56.988281 191.269531 57.222656 191.269531 C 58.382812 191.253906 59.394531 191.632812 60.261719 192.398438 C 60.75 192.871094 61.117188 193.421875 61.363281 194.054688 C 61.609375 194.6875 61.707031 195.339844 61.664062 196.019531 C 61.617188 196.769531 61.449219 197.496094 61.164062 198.195312 C 60.875 198.890625 60.484375 199.523438 59.992188 200.09375 C 59.496094 200.664062 58.921875 201.136719 58.269531 201.519531 C 57.617188 201.898438 56.921875 202.164062 56.183594 202.3125 C 55.636719 202.410156 55.085938 202.425781 54.535156 202.355469 C 53.644531 202.238281 52.863281 201.882812 52.195312 201.285156 Z M 166.023438 276.511719 C 163.796875 278.984375 160.328125 279.4375 158.292969 277.582031 C 157.796875 277.117188 157.421875 276.566406 157.171875 275.933594 C 156.921875 275.300781 156.816406 274.644531 156.859375 273.964844 C 156.878906 273.402344 156.976562 272.851562 157.148438 272.316406 C 157.460938 271.371094 157.953125 270.527344 158.621094 269.789062 C 160.847656 267.316406 164.316406 266.855469 166.359375 268.707031 C 166.855469 269.175781 167.226562 269.722656 167.476562 270.355469 C 167.730469 270.984375 167.835938 271.640625 167.792969 272.316406 C 167.71875 273.933594 167.128906 275.332031 166.023438 276.511719 Z M 184.292969 146.894531 L 186.070312 146.78125 L 183.5 151.980469 L 178.789062 161.539062 L 176.316406 157.847656 L 175.640625 156.824219 L 174.972656 155.769531 L 174.683594 155.34375 L 153.511719 169.449219 C 153.632812 169.984375 153.621094 170.519531 153.476562 171.050781 C 153.328125 171.578125 153.066406 172.042969 152.6875 172.441406 C 152.449219 172.746094 152.15625 172.992188 151.820312 173.179688 C 151.480469 173.371094 151.121094 173.492188 150.734375 173.539062 C 150.351562 173.589844 149.972656 173.566406 149.597656 173.464844 C 149.222656 173.367188 148.878906 173.203125 148.570312 172.96875 C 148.53125 172.925781 148.496094 172.882812 148.460938 172.835938 L 126.625 187.390625 C 126.671875 188.34375 126.371094 189.167969 125.71875 189.863281 C 125.492188 190.140625 125.222656 190.375 124.914062 190.558594 C 124.605469 190.742188 124.273438 190.867188 123.917969 190.933594 C 123.566406 191.003906 123.210938 191.007812 122.855469 190.949219 C 122.5 190.890625 122.167969 190.773438 121.851562 190.59375 L 100.558594 204.753906 C 100.527344 205.609375 100.222656 206.355469 99.644531 206.984375 C 99.402344 207.289062 99.113281 207.535156 98.773438 207.722656 C 98.4375 207.914062 98.074219 208.03125 97.691406 208.082031 C 97.308594 208.128906 96.925781 208.105469 96.550781 208.007812 C 96.175781 207.910156 95.835938 207.746094 95.523438 207.511719 C 95.144531 207.136719 94.898438 206.6875 94.789062 206.167969 C 94.675781 205.644531 94.714844 205.136719 94.90625 204.636719 L 74.707031 196.800781 C 74.46875 197.085938 74.195312 197.332031 73.882812 197.535156 C 73.738281 197.65625 73.585938 197.761719 73.417969 197.847656 C 73.25 197.933594 73.074219 198.003906 72.894531 198.054688 C 72.710938 198.105469 72.527344 198.132812 72.335938 198.144531 C 72.148438 198.152344 71.960938 198.144531 71.773438 198.113281 C 71.589844 198.082031 71.40625 198.03125 71.234375 197.960938 C 71.058594 197.894531 70.890625 197.804688 70.734375 197.699219 C 70.578125 197.59375 70.433594 197.472656 70.304688 197.335938 C 70.175781 197.199219 70.058594 197.050781 69.960938 196.890625 C 69.863281 196.730469 69.785156 196.558594 69.722656 196.378906 C 69.660156 196.203125 69.617188 196.019531 69.597656 195.832031 C 69.574219 195.644531 69.574219 195.457031 69.59375 195.269531 C 69.609375 195.082031 69.648438 194.898438 69.707031 194.71875 C 69.765625 194.539062 69.84375 194.367188 69.9375 194.203125 C 70.03125 194.039062 70.144531 193.890625 70.273438 193.75 C 70.402344 193.613281 70.542969 193.488281 70.695312 193.378906 C 70.851562 193.273438 71.015625 193.183594 71.191406 193.109375 C 71.496094 192.890625 71.828125 192.738281 72.191406 192.65625 C 72.558594 192.570312 72.925781 192.554688 73.292969 192.613281 C 73.664062 192.675781 74.007812 192.800781 74.328125 192.996094 C 74.644531 193.191406 74.917969 193.441406 75.136719 193.742188 C 75.429688 194.226562 75.527344 194.746094 75.433594 195.300781 L 95.820312 203.210938 C 96.066406 202.925781 96.355469 202.699219 96.6875 202.523438 C 97.019531 202.351562 97.375 202.246094 97.746094 202.207031 C 98.121094 202.171875 98.488281 202.203125 98.847656 202.308594 C 99.210938 202.410156 99.539062 202.578125 99.835938 202.808594 C 99.9375 202.90625 100.03125 203.007812 100.113281 203.121094 L 120.929688 189.242188 C 120.800781 188.699219 120.808594 188.160156 120.957031 187.617188 C 121.101562 187.078125 121.367188 186.609375 121.753906 186.203125 C 121.996094 185.898438 122.285156 185.652344 122.625 185.464844 C 122.960938 185.273438 123.324219 185.152344 123.707031 185.105469 C 124.09375 185.054688 124.472656 185.082031 124.847656 185.179688 C 125.222656 185.277344 125.5625 185.445312 125.875 185.675781 C 125.921875 185.726562 125.964844 185.792969 126.015625 185.847656 L 147.820312 171.3125 C 147.769531 170.359375 148.070312 169.535156 148.726562 168.839844 C 148.953125 168.554688 149.222656 168.320312 149.539062 168.132812 C 149.851562 167.945312 150.1875 167.820312 150.546875 167.753906 C 150.90625 167.691406 151.265625 167.691406 151.625 167.757812 C 151.984375 167.824219 152.320312 167.953125 152.632812 168.140625 L 173.828125 154.023438 L 169.707031 147.867188 L 176.296875 147.441406 L 177.121094 147.390625 L 177.945312 147.332031 Z M 69.253906 133.710938 L 142.15625 133.800781 C 142.640625 133.78125 143.121094 133.71875 143.59375 133.613281 C 144.066406 133.511719 144.527344 133.371094 144.972656 133.1875 C 145.421875 133.007812 145.851562 132.789062 146.265625 132.53125 C 146.675781 132.277344 147.0625 131.988281 147.425781 131.667969 C 147.785156 131.347656 148.117188 131 148.421875 130.621094 C 148.722656 130.242188 148.992188 129.84375 149.226562 129.417969 C 149.460938 128.996094 149.65625 128.554688 149.816406 128.097656 C 149.976562 127.640625 150.097656 127.175781 150.175781 126.699219 L 151.28125 119.570312 C 151.453125 118.628906 151.417969 117.695312 151.175781 116.765625 C 150.933594 115.839844 150.507812 115.007812 149.894531 114.269531 C 149.308594 113.597656 148.605469 113.078125 147.789062 112.714844 C 146.972656 112.351562 146.117188 112.179688 145.222656 112.195312 L 72.320312 112.097656 C 71.835938 112.117188 71.359375 112.179688 70.886719 112.285156 C 70.414062 112.386719 69.953125 112.53125 69.503906 112.710938 C 69.054688 112.894531 68.625 113.109375 68.214844 113.367188 C 67.800781 113.621094 67.417969 113.910156 67.054688 114.230469 C 66.691406 114.550781 66.359375 114.898438 66.058594 115.277344 C 65.753906 115.65625 65.484375 116.054688 65.25 116.476562 C 65.015625 116.902344 64.820312 117.339844 64.660156 117.796875 C 64.5 118.253906 64.378906 118.722656 64.300781 119.199219 L 63.195312 126.335938 C 63.023438 127.277344 63.058594 128.210938 63.300781 129.132812 C 63.542969 130.058594 63.96875 130.890625 64.582031 131.625 C 65.167969 132.300781 65.867188 132.824219 66.683594 133.1875 C 67.503906 133.550781 68.359375 133.726562 69.253906 133.710938 Z M 64.828125 126.582031 L 65.925781 119.460938 C 66.054688 118.6875 66.308594 117.960938 66.691406 117.273438 C 67.070312 116.585938 67.554688 115.984375 68.140625 115.464844 C 68.726562 114.945312 69.382812 114.535156 70.109375 114.242188 C 70.835938 113.945312 71.59375 113.78125 72.375 113.742188 L 145.273438 113.835938 C 145.929688 113.820312 146.554688 113.941406 147.15625 114.207031 C 147.753906 114.46875 148.269531 114.847656 148.699219 115.34375 C 149.15625 115.894531 149.46875 116.519531 149.648438 117.210938 C 149.824219 117.90625 149.847656 118.601562 149.714844 119.304688 L 148.609375 126.425781 C 148.484375 127.203125 148.230469 127.9375 147.855469 128.625 C 147.476562 129.316406 146.992188 129.925781 146.40625 130.449219 C 145.820312 130.972656 145.164062 131.386719 144.4375 131.6875 C 143.707031 131.984375 142.953125 132.15625 142.167969 132.195312 L 69.285156 132.105469 C 68.632812 132.117188 68.003906 131.992188 67.40625 131.730469 C 66.804688 131.464844 66.289062 131.089844 65.859375 130.597656 C 65.394531 130.039062 65.070312 129.40625 64.890625 128.707031 C 64.710938 128.003906 64.691406 127.296875 64.828125 126.582031 Z M 64.828125 126.582031 " fill-opacity="1" fill-rule="nonzero"/></g></svg>