<svg xmlns="http://www.w3.org/2000/svg" xmlns:xlink="http://www.w3.org/1999/xlink" width="500" zoomAndPan="magnify" viewBox="0 0 375 374.999991" height="500" preserveAspectRatio="xMidYMid meet" version="1.0"><defs><clipPath id="a223341251"><path d="M 13.765625 19.453125 L 361.015625 19.453125 L 361.015625 355.453125 L 13.765625 355.453125 Z M 13.765625 19.453125 " clip-rule="nonzero"/></clipPath></defs><path fill="#ffc857" d="M 19.554688 141.136719 L 19.554688 326.398438 L 141.097656 326.398438 C 159.308594 326.398438 176.457031 334.972656 187.386719 349.550781 L 187.390625 349.554688 C 198.316406 334.976562 215.472656 326.398438 233.683594 326.398438 L 355.222656 326.398438 L 355.222656 141.136719 Z M 19.554688 141.136719 " fill-opacity="1" fill-rule="nonzero"/><path fill="#a2bdcd" d="M 210.539062 117.980469 C 197.757812 117.980469 187.390625 128.347656 187.390625 141.136719 L 187.390625 314.816406 C 202.617188 307.207031 219.402344 303.238281 236.421875 303.238281 L 332.078125 303.238281 L 332.078125 117.980469 Z M 210.539062 117.980469 " fill-opacity="1" fill-rule="nonzero"/><path fill="#a2bdcd" d="M 42.703125 117.980469 L 42.703125 303.238281 L 138.359375 303.238281 C 155.378906 303.238281 172.167969 307.207031 187.390625 314.816406 L 187.390625 141.136719 C 187.390625 128.347656 177.023438 117.980469 164.242188 117.980469 Z M 42.703125 117.980469 " fill-opacity="1" fill-rule="nonzero"/><path fill="#ffdd99" d="M 268.414062 291.660156 C 268.414062 292.421875 268.339844 293.175781 268.191406 293.917969 C 268.046875 294.664062 267.824219 295.390625 267.535156 296.089844 C 267.242188 296.792969 266.886719 297.460938 266.464844 298.09375 C 266.042969 298.726562 265.5625 299.308594 265.027344 299.847656 C 264.488281 300.386719 263.902344 300.867188 263.269531 301.289062 C 262.640625 301.710938 261.972656 302.066406 261.269531 302.359375 C 260.566406 302.648438 259.84375 302.867188 259.097656 303.015625 C 258.351562 303.164062 257.601562 303.238281 256.839844 303.238281 C 256.082031 303.238281 255.328125 303.164062 254.582031 303.015625 C 253.835938 302.867188 253.113281 302.648438 252.410156 302.359375 C 251.707031 302.066406 251.042969 301.710938 250.410156 301.289062 C 249.777344 300.867188 249.191406 300.386719 248.65625 299.847656 C 248.117188 299.308594 247.636719 298.726562 247.214844 298.09375 C 246.792969 297.460938 246.4375 296.792969 246.148438 296.089844 C 245.855469 295.390625 245.636719 294.664062 245.488281 293.917969 C 245.339844 293.175781 245.265625 292.421875 245.265625 291.660156 C 245.265625 290.902344 245.339844 290.148438 245.488281 289.402344 C 245.636719 288.65625 245.855469 287.933594 246.148438 287.230469 C 246.4375 286.527344 246.792969 285.859375 247.214844 285.226562 C 247.636719 284.59375 248.117188 284.011719 248.65625 283.472656 C 249.191406 282.9375 249.777344 282.457031 250.410156 282.035156 C 251.042969 281.609375 251.707031 281.253906 252.410156 280.964844 C 253.113281 280.671875 253.835938 280.453125 254.582031 280.304688 C 255.328125 280.15625 256.082031 280.082031 256.839844 280.082031 C 257.601562 280.082031 258.351562 280.15625 259.097656 280.304688 C 259.84375 280.453125 260.566406 280.671875 261.269531 280.964844 C 261.972656 281.253906 262.640625 281.609375 263.269531 282.035156 C 263.902344 282.457031 264.488281 282.9375 265.027344 283.472656 C 265.5625 284.011719 266.042969 284.59375 266.464844 285.226562 C 266.886719 285.859375 267.242188 286.527344 267.535156 287.230469 C 267.824219 287.933594 268.046875 288.65625 268.191406 289.402344 C 268.339844 290.148438 268.414062 290.902344 268.414062 291.660156 Z M 268.414062 291.660156 " fill-opacity="1" fill-rule="nonzero"/><path fill="#ffdd99" d="M 94.789062 280.082031 C 94.789062 280.84375 94.714844 281.59375 94.566406 282.339844 C 94.421875 283.085938 94.199219 283.808594 93.910156 284.511719 C 93.617188 285.214844 93.261719 285.882812 92.839844 286.515625 C 92.417969 287.148438 91.9375 287.730469 91.402344 288.269531 C 90.863281 288.808594 90.277344 289.285156 89.644531 289.710938 C 89.015625 290.132812 88.347656 290.488281 87.644531 290.777344 C 86.941406 291.070312 86.21875 291.289062 85.472656 291.4375 C 84.726562 291.585938 83.976562 291.660156 83.214844 291.660156 C 82.457031 291.660156 81.703125 291.585938 80.957031 291.4375 C 80.210938 291.289062 79.488281 291.070312 78.785156 290.777344 C 78.082031 290.488281 77.417969 290.132812 76.785156 289.710938 C 76.152344 289.285156 75.566406 288.808594 75.03125 288.269531 C 74.492188 287.730469 74.011719 287.148438 73.589844 286.515625 C 73.167969 285.882812 72.8125 285.214844 72.523438 284.511719 C 72.230469 283.808594 72.011719 283.085938 71.863281 282.339844 C 71.714844 281.59375 71.640625 280.84375 71.640625 280.082031 C 71.640625 279.320312 71.714844 278.570312 71.863281 277.824219 C 72.011719 277.078125 72.230469 276.351562 72.523438 275.652344 C 72.8125 274.949219 73.167969 274.28125 73.589844 273.648438 C 74.011719 273.015625 74.492188 272.433594 75.03125 271.894531 C 75.566406 271.355469 76.152344 270.875 76.785156 270.453125 C 77.417969 270.03125 78.082031 269.675781 78.785156 269.382812 C 79.488281 269.09375 80.210938 268.875 80.957031 268.726562 C 81.703125 268.578125 82.457031 268.503906 83.214844 268.503906 C 83.976562 268.503906 84.726562 268.578125 85.472656 268.726562 C 86.21875 268.875 86.941406 269.09375 87.644531 269.382812 C 88.347656 269.675781 89.015625 270.03125 89.644531 270.453125 C 90.277344 270.875 90.863281 271.355469 91.402344 271.894531 C 91.9375 272.433594 92.417969 273.015625 92.839844 273.648438 C 93.261719 274.28125 93.617188 274.949219 93.910156 275.652344 C 94.199219 276.351562 94.421875 277.078125 94.566406 277.824219 C 94.714844 278.570312 94.789062 279.320312 94.789062 280.082031 Z M 94.789062 280.082031 " fill-opacity="1" fill-rule="nonzero"/><path fill="#ffdd99" d="M 158.453125 71.664062 C 158.453125 72.421875 158.378906 73.175781 158.230469 73.921875 C 158.082031 74.667969 157.863281 75.390625 157.570312 76.09375 C 157.28125 76.796875 156.925781 77.464844 156.503906 78.097656 C 156.082031 78.726562 155.601562 79.3125 155.0625 79.851562 C 154.527344 80.386719 153.941406 80.867188 153.308594 81.289062 C 152.675781 81.714844 152.011719 82.070312 151.308594 82.359375 C 150.605469 82.652344 149.882812 82.871094 149.136719 83.019531 C 148.390625 83.167969 147.636719 83.242188 146.878906 83.242188 C 146.117188 83.242188 145.367188 83.167969 144.621094 83.019531 C 143.875 82.871094 143.152344 82.652344 142.449219 82.359375 C 141.746094 82.070312 141.078125 81.714844 140.449219 81.289062 C 139.816406 80.867188 139.230469 80.386719 138.695312 79.851562 C 138.15625 79.3125 137.675781 78.726562 137.253906 78.097656 C 136.832031 77.464844 136.476562 76.796875 136.183594 76.09375 C 135.894531 75.390625 135.671875 74.667969 135.527344 73.921875 C 135.378906 73.175781 135.304688 72.421875 135.304688 71.664062 C 135.304688 70.902344 135.378906 70.148438 135.527344 69.40625 C 135.671875 68.660156 135.894531 67.933594 136.183594 67.234375 C 136.476562 66.53125 136.832031 65.863281 137.253906 65.230469 C 137.675781 64.597656 138.15625 64.011719 138.695312 63.476562 C 139.230469 62.9375 139.816406 62.457031 140.449219 62.035156 C 141.078125 61.613281 141.746094 61.257812 142.449219 60.964844 C 143.152344 60.675781 143.875 60.457031 144.621094 60.308594 C 145.367188 60.160156 146.117188 60.085938 146.878906 60.085938 C 147.636719 60.085938 148.390625 60.160156 149.136719 60.308594 C 149.882812 60.457031 150.605469 60.675781 151.308594 60.964844 C 152.011719 61.257812 152.675781 61.613281 153.308594 62.035156 C 153.941406 62.457031 154.527344 62.9375 155.0625 63.476562 C 155.601562 64.011719 156.082031 64.597656 156.503906 65.230469 C 156.925781 65.863281 157.28125 66.53125 157.570312 67.234375 C 157.863281 67.933594 158.082031 68.660156 158.230469 69.40625 C 158.378906 70.148438 158.453125 70.902344 158.453125 71.664062 Z M 158.453125 71.664062 " fill-opacity="1" fill-rule="nonzero"/><path fill="#ffdd99" d="M 77.429688 36.925781 C 77.429688 37.6875 77.355469 38.441406 77.207031 39.1875 C 77.058594 39.933594 76.839844 40.65625 76.546875 41.359375 C 76.257812 42.058594 75.898438 42.726562 75.476562 43.359375 C 75.054688 43.992188 74.574219 44.578125 74.039062 45.113281 C 73.5 45.652344 72.914062 46.132812 72.285156 46.554688 C 71.652344 46.976562 70.984375 47.332031 70.28125 47.625 C 69.582031 47.914062 68.855469 48.136719 68.109375 48.285156 C 67.367188 48.433594 66.613281 48.507812 65.851562 48.507812 C 65.09375 48.507812 64.339844 48.433594 63.59375 48.285156 C 62.847656 48.136719 62.125 47.914062 61.421875 47.625 C 60.722656 47.332031 60.054688 46.976562 59.421875 46.554688 C 58.789062 46.132812 58.207031 45.652344 57.667969 45.113281 C 57.132812 44.578125 56.652344 43.992188 56.230469 43.359375 C 55.808594 42.726562 55.449219 42.058594 55.160156 41.359375 C 54.867188 40.65625 54.648438 39.933594 54.5 39.1875 C 54.351562 38.441406 54.277344 37.6875 54.277344 36.925781 C 54.277344 36.167969 54.351562 35.414062 54.5 34.667969 C 54.648438 33.921875 54.867188 33.199219 55.160156 32.496094 C 55.449219 31.792969 55.808594 31.125 56.230469 30.496094 C 56.652344 29.863281 57.132812 29.277344 57.667969 28.738281 C 58.207031 28.203125 58.789062 27.722656 59.421875 27.300781 C 60.054688 26.878906 60.722656 26.519531 61.421875 26.230469 C 62.125 25.9375 62.847656 25.71875 63.59375 25.570312 C 64.339844 25.421875 65.09375 25.347656 65.851562 25.347656 C 66.613281 25.347656 67.367188 25.421875 68.109375 25.570312 C 68.855469 25.71875 69.582031 25.9375 70.28125 26.230469 C 70.984375 26.519531 71.652344 26.878906 72.285156 27.300781 C 72.914062 27.722656 73.5 28.203125 74.039062 28.738281 C 74.574219 29.277344 75.054688 29.863281 75.476562 30.496094 C 75.898438 31.125 76.257812 31.792969 76.546875 32.496094 C 76.839844 33.199219 77.058594 33.921875 77.207031 34.667969 C 77.355469 35.414062 77.429688 36.167969 77.429688 36.925781 Z M 77.429688 36.925781 " fill-opacity="1" fill-rule="nonzero"/><path fill="#ffdd99" d="M 89.003906 193.242188 C 89.003906 194 88.929688 194.753906 88.78125 195.5 C 88.632812 196.246094 88.414062 196.96875 88.121094 197.671875 C 87.832031 198.375 87.476562 199.042969 87.050781 199.671875 C 86.628906 200.304688 86.148438 200.890625 85.613281 201.429688 C 85.074219 201.964844 84.492188 202.445312 83.859375 202.867188 C 83.226562 203.289062 82.558594 203.648438 81.859375 203.9375 C 81.15625 204.230469 80.433594 204.449219 79.6875 204.597656 C 78.941406 204.746094 78.1875 204.820312 77.429688 204.820312 C 76.667969 204.820312 75.914062 204.746094 75.171875 204.597656 C 74.425781 204.449219 73.699219 204.230469 73 203.9375 C 72.296875 203.648438 71.628906 203.289062 70.996094 202.867188 C 70.367188 202.445312 69.78125 201.964844 69.242188 201.429688 C 68.707031 200.890625 68.226562 200.304688 67.804688 199.671875 C 67.382812 199.042969 67.023438 198.375 66.734375 197.671875 C 66.445312 196.96875 66.222656 196.246094 66.074219 195.5 C 65.925781 194.753906 65.851562 194 65.851562 193.242188 C 65.851562 192.480469 65.925781 191.726562 66.074219 190.980469 C 66.222656 190.234375 66.445312 189.511719 66.734375 188.808594 C 67.023438 188.109375 67.382812 187.441406 67.804688 186.808594 C 68.226562 186.175781 68.707031 185.589844 69.242188 185.054688 C 69.78125 184.515625 70.367188 184.035156 70.996094 183.613281 C 71.628906 183.191406 72.296875 182.835938 73 182.542969 C 73.699219 182.253906 74.425781 182.03125 75.171875 181.882812 C 75.914062 181.734375 76.667969 181.660156 77.429688 181.660156 C 78.1875 181.660156 78.941406 181.734375 79.6875 181.882812 C 80.433594 182.03125 81.15625 182.253906 81.859375 182.542969 C 82.558594 182.835938 83.226562 183.191406 83.859375 183.613281 C 84.492188 184.035156 85.074219 184.515625 85.613281 185.054688 C 86.148438 185.589844 86.628906 186.175781 87.050781 186.808594 C 87.476562 187.441406 87.832031 188.109375 88.121094 188.808594 C 88.414062 189.511719 88.632812 190.234375 88.78125 190.980469 C 88.929688 191.726562 89.003906 192.480469 89.003906 193.242188 Z M 89.003906 193.242188 " fill-opacity="1" fill-rule="nonzero"/><path fill="#ffdd99" d="M 123.726562 239.554688 C 123.726562 240.316406 123.652344 241.070312 123.503906 241.816406 C 123.359375 242.5625 123.136719 243.285156 122.847656 243.988281 C 122.554688 244.691406 122.199219 245.355469 121.777344 245.988281 C 121.355469 246.621094 120.875 247.207031 120.339844 247.742188 C 119.800781 248.28125 119.214844 248.761719 118.582031 249.183594 C 117.953125 249.605469 117.285156 249.960938 116.582031 250.253906 C 115.878906 250.542969 115.15625 250.765625 114.410156 250.914062 C 113.664062 251.0625 112.914062 251.136719 112.152344 251.136719 C 111.394531 251.136719 110.640625 251.0625 109.894531 250.914062 C 109.148438 250.765625 108.425781 250.542969 107.722656 250.253906 C 107.019531 249.960938 106.355469 249.605469 105.722656 249.183594 C 105.089844 248.761719 104.503906 248.28125 103.96875 247.742188 C 103.429688 247.207031 102.949219 246.621094 102.527344 245.988281 C 102.105469 245.355469 101.75 244.691406 101.460938 243.988281 C 101.167969 243.285156 100.949219 242.5625 100.800781 241.816406 C 100.652344 241.070312 100.578125 240.316406 100.578125 239.554688 C 100.578125 238.796875 100.652344 238.042969 100.800781 237.296875 C 100.949219 236.550781 101.167969 235.828125 101.460938 235.125 C 101.75 234.421875 102.105469 233.753906 102.527344 233.125 C 102.949219 232.492188 103.429688 231.90625 103.96875 231.367188 C 104.503906 230.832031 105.089844 230.351562 105.722656 229.929688 C 106.355469 229.507812 107.019531 229.148438 107.722656 228.859375 C 108.425781 228.566406 109.148438 228.347656 109.894531 228.199219 C 110.640625 228.050781 111.394531 227.976562 112.152344 227.976562 C 112.914062 227.976562 113.664062 228.050781 114.410156 228.199219 C 115.15625 228.347656 115.878906 228.566406 116.582031 228.859375 C 117.285156 229.148438 117.953125 229.507812 118.582031 229.929688 C 119.214844 230.351562 119.800781 230.832031 120.339844 231.367188 C 120.875 231.90625 121.355469 232.492188 121.777344 233.125 C 122.199219 233.753906 122.554688 234.421875 122.847656 235.125 C 123.136719 235.828125 123.359375 236.550781 123.503906 237.296875 C 123.652344 238.042969 123.726562 238.796875 123.726562 239.554688 Z M 123.726562 239.554688 " fill-opacity="1" fill-rule="nonzero"/><path fill="#ffdd99" d="M 314.714844 65.875 C 314.714844 66.632812 314.640625 67.386719 314.492188 68.132812 C 314.34375 68.878906 314.125 69.601562 313.835938 70.304688 C 313.542969 71.007812 313.1875 71.675781 312.765625 72.308594 C 312.34375 72.9375 311.863281 73.523438 311.324219 74.0625 C 310.789062 74.597656 310.203125 75.078125 309.570312 75.5 C 308.9375 75.925781 308.273438 76.28125 307.570312 76.570312 C 306.867188 76.863281 306.144531 77.082031 305.398438 77.230469 C 304.652344 77.378906 303.902344 77.453125 303.140625 77.453125 C 302.378906 77.453125 301.628906 77.378906 300.882812 77.230469 C 300.136719 77.082031 299.414062 76.863281 298.710938 76.570312 C 298.007812 76.28125 297.34375 75.925781 296.710938 75.5 C 296.078125 75.078125 295.492188 74.597656 294.957031 74.0625 C 294.417969 73.523438 293.9375 72.9375 293.515625 72.308594 C 293.09375 71.675781 292.738281 71.007812 292.445312 70.304688 C 292.15625 69.601562 291.9375 68.878906 291.789062 68.132812 C 291.640625 67.386719 291.566406 66.632812 291.566406 65.875 C 291.566406 65.113281 291.640625 64.359375 291.789062 63.613281 C 291.9375 62.871094 292.15625 62.144531 292.445312 61.441406 C 292.738281 60.742188 293.09375 60.074219 293.515625 59.441406 C 293.9375 58.808594 294.417969 58.222656 294.957031 57.6875 C 295.492188 57.148438 296.078125 56.667969 296.710938 56.246094 C 297.34375 55.824219 298.007812 55.46875 298.710938 55.175781 C 299.414062 54.886719 300.136719 54.667969 300.882812 54.519531 C 301.628906 54.371094 302.378906 54.296875 303.140625 54.296875 C 303.902344 54.296875 304.652344 54.371094 305.398438 54.519531 C 306.144531 54.667969 306.867188 54.886719 307.570312 55.175781 C 308.273438 55.46875 308.9375 55.824219 309.570312 56.246094 C 310.203125 56.667969 310.789062 57.148438 311.324219 57.6875 C 311.863281 58.222656 312.34375 58.808594 312.765625 59.441406 C 313.1875 60.074219 313.542969 60.742188 313.835938 61.441406 C 314.125 62.144531 314.34375 62.871094 314.492188 63.613281 C 314.640625 64.359375 314.714844 65.113281 314.714844 65.875 Z M 314.714844 65.875 " fill-opacity="1" fill-rule="nonzero"/><path fill="#ffdd99" d="M 251.054688 36.925781 C 251.054688 37.6875 250.980469 38.441406 250.832031 39.1875 C 250.683594 39.933594 250.460938 40.65625 250.171875 41.359375 C 249.882812 42.058594 249.523438 42.726562 249.101562 43.359375 C 248.679688 43.992188 248.199219 44.578125 247.664062 45.113281 C 247.125 45.652344 246.539062 46.132812 245.910156 46.554688 C 245.277344 46.976562 244.609375 47.332031 243.90625 47.625 C 243.207031 47.914062 242.480469 48.136719 241.734375 48.285156 C 240.992188 48.433594 240.238281 48.507812 239.476562 48.507812 C 238.71875 48.507812 237.964844 48.433594 237.21875 48.285156 C 236.472656 48.136719 235.75 47.914062 235.046875 47.625 C 234.347656 47.332031 233.679688 46.976562 233.046875 46.554688 C 232.414062 46.132812 231.832031 45.652344 231.292969 45.113281 C 230.757812 44.578125 230.277344 43.992188 229.855469 43.359375 C 229.429688 42.726562 229.074219 42.058594 228.785156 41.359375 C 228.492188 40.65625 228.273438 39.933594 228.125 39.1875 C 227.976562 38.441406 227.902344 37.6875 227.902344 36.925781 C 227.902344 36.167969 227.976562 35.414062 228.125 34.667969 C 228.273438 33.921875 228.492188 33.199219 228.785156 32.496094 C 229.074219 31.792969 229.429688 31.125 229.855469 30.496094 C 230.277344 29.863281 230.757812 29.277344 231.292969 28.738281 C 231.832031 28.203125 232.414062 27.722656 233.046875 27.300781 C 233.679688 26.878906 234.347656 26.519531 235.046875 26.230469 C 235.75 25.9375 236.472656 25.71875 237.21875 25.570312 C 237.964844 25.421875 238.71875 25.347656 239.476562 25.347656 C 240.238281 25.347656 240.992188 25.421875 241.734375 25.570312 C 242.480469 25.71875 243.207031 25.9375 243.90625 26.230469 C 244.609375 26.519531 245.277344 26.878906 245.910156 27.300781 C 246.539062 27.722656 247.125 28.203125 247.664062 28.738281 C 248.199219 29.277344 248.679688 29.863281 249.101562 30.496094 C 249.523438 31.125 249.882812 31.792969 250.171875 32.496094 C 250.460938 33.199219 250.683594 33.921875 250.832031 34.667969 C 250.980469 35.414062 251.054688 36.167969 251.054688 36.925781 Z M 251.054688 36.925781 " fill-opacity="1" fill-rule="nonzero"/><path fill="#ffdd99" d="M 204.753906 60.085938 C 204.753906 60.84375 204.679688 61.597656 204.53125 62.34375 C 204.382812 63.089844 204.164062 63.8125 203.871094 64.515625 C 203.582031 65.21875 203.226562 65.886719 202.800781 66.515625 C 202.378906 67.148438 201.898438 67.734375 201.363281 68.273438 C 200.824219 68.808594 200.242188 69.289062 199.609375 69.710938 C 198.976562 70.132812 198.308594 70.492188 197.609375 70.78125 C 196.90625 71.074219 196.183594 71.292969 195.4375 71.441406 C 194.691406 71.589844 193.9375 71.664062 193.179688 71.664062 C 192.417969 71.664062 191.664062 71.589844 190.921875 71.441406 C 190.175781 71.292969 189.449219 71.074219 188.75 70.78125 C 188.046875 70.492188 187.378906 70.132812 186.746094 69.710938 C 186.117188 69.289062 185.53125 68.808594 184.992188 68.273438 C 184.457031 67.734375 183.976562 67.148438 183.554688 66.515625 C 183.132812 65.886719 182.773438 65.21875 182.484375 64.515625 C 182.195312 63.8125 181.972656 63.089844 181.824219 62.34375 C 181.675781 61.597656 181.601562 60.84375 181.601562 60.085938 C 181.601562 59.324219 181.675781 58.570312 181.824219 57.824219 C 181.972656 57.082031 182.195312 56.355469 182.484375 55.652344 C 182.773438 54.953125 183.132812 54.285156 183.554688 53.652344 C 183.976562 53.019531 184.457031 52.433594 184.992188 51.898438 C 185.53125 51.359375 186.117188 50.878906 186.746094 50.457031 C 187.378906 50.035156 188.046875 49.679688 188.75 49.386719 C 189.449219 49.097656 190.175781 48.875 190.921875 48.726562 C 191.664062 48.578125 192.417969 48.507812 193.179688 48.507812 C 193.9375 48.507812 194.691406 48.578125 195.4375 48.726562 C 196.183594 48.875 196.90625 49.097656 197.609375 49.386719 C 198.308594 49.679688 198.976562 50.035156 199.609375 50.457031 C 200.242188 50.878906 200.824219 51.359375 201.363281 51.898438 C 201.898438 52.433594 202.378906 53.019531 202.800781 53.652344 C 203.226562 54.285156 203.582031 54.953125 203.871094 55.652344 C 204.164062 56.355469 204.382812 57.082031 204.53125 57.824219 C 204.679688 58.570312 204.753906 59.324219 204.753906 60.085938 Z M 204.753906 60.085938 " fill-opacity="1" fill-rule="nonzero"/><path fill="#93999a" d="M 291.566406 251.136719 L 222.117188 251.136719 C 215.71875 251.136719 210.539062 245.953125 210.539062 239.554688 L 210.539062 170.082031 C 210.539062 163.6875 215.71875 158.503906 222.117188 158.503906 L 291.566406 158.503906 C 297.960938 158.503906 303.140625 163.6875 303.140625 170.082031 L 303.140625 239.554688 C 303.140625 245.953125 297.960938 251.136719 291.566406 251.136719 Z M 291.566406 251.136719 " fill-opacity="1" fill-rule="nonzero"/><g clip-path="url(#a223341251)"><path fill="#464a51" d="M 355.226562 135.347656 L 337.867188 135.347656 L 337.867188 117.980469 C 337.867188 114.78125 335.273438 112.1875 332.078125 112.1875 L 297.351562 112.1875 L 307.769531 98.292969 C 308.523438 97.292969 308.929688 96.070312 308.929688 94.820312 L 308.929688 82.175781 C 315.648438 79.78125 320.503906 73.410156 320.503906 65.875 C 320.503906 56.296875 312.714844 48.507812 303.140625 48.507812 C 293.566406 48.507812 285.777344 56.296875 285.777344 65.875 C 285.777344 73.410156 290.632812 79.78125 297.351562 82.175781 L 297.351562 92.894531 L 282.882812 112.1875 L 262.628906 112.1875 L 262.628906 100.609375 C 262.628906 98.117188 261.035156 95.902344 258.667969 95.117188 L 245.265625 90.648438 L 245.265625 53.230469 C 251.984375 50.832031 256.839844 44.464844 256.839844 36.925781 C 256.839844 27.351562 249.050781 19.558594 239.476562 19.558594 C 229.90625 19.558594 222.117188 27.351562 222.117188 36.925781 C 222.117188 44.464844 226.972656 50.832031 233.691406 53.230469 L 233.691406 94.820312 C 233.691406 97.316406 235.28125 99.527344 237.648438 100.316406 L 251.054688 104.785156 L 251.054688 112.1875 L 229.269531 112.1875 L 198.964844 97.03125 L 198.964844 76.386719 C 205.683594 73.992188 210.539062 67.621094 210.539062 60.085938 C 210.539062 50.507812 202.75 42.714844 193.179688 42.714844 C 183.605469 42.714844 175.816406 50.507812 175.816406 60.085938 C 175.816406 67.621094 180.671875 73.992188 187.390625 76.386719 L 187.390625 100.609375 C 187.390625 102.804688 188.628906 104.808594 190.589844 105.792969 L 204.625 112.808594 C 197.589844 114.277344 191.546875 118.371094 187.394531 123.949219 C 182.113281 116.855469 173.738281 112.1875 164.242188 112.1875 L 106.367188 112.1875 L 106.367188 77.453125 L 130.582031 77.453125 C 132.976562 84.175781 139.34375 89.03125 146.878906 89.03125 C 156.449219 89.03125 164.242188 81.238281 164.242188 71.664062 C 164.242188 62.085938 156.449219 54.296875 146.878906 54.296875 C 139.34375 54.296875 132.976562 59.152344 130.582031 65.875 L 100.578125 65.875 C 97.382812 65.875 94.789062 68.46875 94.789062 71.664062 L 94.789062 89.796875 L 71.640625 74.355469 L 71.640625 53.230469 C 78.359375 50.832031 83.214844 44.464844 83.214844 36.925781 C 83.214844 27.351562 75.425781 19.558594 65.851562 19.558594 C 56.28125 19.558594 48.492188 27.351562 48.492188 36.925781 C 48.492188 44.464844 53.347656 50.832031 60.066406 53.230469 L 60.066406 77.453125 C 60.066406 79.386719 61.03125 81.191406 62.640625 82.269531 L 94.789062 103.707031 L 94.789062 112.1875 L 42.703125 112.1875 C 39.507812 112.1875 36.914062 114.78125 36.914062 117.980469 L 36.914062 135.347656 L 19.554688 135.347656 C 16.359375 135.347656 13.765625 137.941406 13.765625 141.136719 L 13.765625 326.398438 C 13.765625 329.59375 16.359375 332.1875 19.554688 332.1875 L 141.097656 332.1875 C 157.398438 332.1875 172.972656 339.980469 182.761719 353.027344 C 183.847656 354.488281 185.566406 355.34375 187.390625 355.34375 C 189.214844 355.34375 190.925781 354.488281 192.019531 353.027344 C 201.808594 339.980469 217.382812 332.1875 233.691406 332.1875 L 355.226562 332.1875 C 358.421875 332.1875 361.015625 329.59375 361.015625 326.398438 L 361.015625 141.136719 C 361.015625 137.941406 358.421875 135.347656 355.226562 135.347656 Z M 303.140625 60.085938 C 306.328125 60.085938 308.929688 62.683594 308.929688 65.875 C 308.929688 69.0625 306.328125 71.664062 303.140625 71.664062 C 299.953125 71.664062 297.351562 69.0625 297.351562 65.875 C 297.351562 62.683594 299.953125 60.085938 303.140625 60.085938 Z M 239.476562 31.136719 C 242.667969 31.136719 245.265625 33.738281 245.265625 36.925781 C 245.265625 40.117188 242.667969 42.714844 239.476562 42.714844 C 236.289062 42.714844 233.691406 40.117188 233.691406 36.925781 C 233.691406 33.738281 236.289062 31.136719 239.476562 31.136719 Z M 193.179688 54.296875 C 196.367188 54.296875 198.964844 56.894531 198.964844 60.085938 C 198.964844 63.273438 196.367188 65.875 193.179688 65.875 C 189.988281 65.875 187.390625 63.273438 187.390625 60.085938 C 187.390625 56.894531 189.988281 54.296875 193.179688 54.296875 Z M 146.878906 65.875 C 150.066406 65.875 152.664062 68.472656 152.664062 71.664062 C 152.664062 74.851562 150.066406 77.453125 146.878906 77.453125 C 143.6875 77.453125 141.089844 74.851562 141.089844 71.664062 C 141.089844 68.472656 143.6875 65.875 146.878906 65.875 Z M 65.851562 31.136719 C 69.042969 31.136719 71.640625 33.738281 71.640625 36.925781 C 71.640625 40.117188 69.042969 42.714844 65.851562 42.714844 C 62.664062 42.714844 60.066406 40.117188 60.066406 36.925781 C 60.066406 33.738281 62.664062 31.136719 65.851562 31.136719 Z M 222.117188 164.292969 L 291.566406 164.292969 C 294.753906 164.292969 297.351562 166.894531 297.351562 170.082031 L 297.351562 239.554688 C 297.351562 242.746094 294.753906 245.34375 291.566406 245.34375 L 222.117188 245.34375 C 218.925781 245.34375 216.328125 242.746094 216.328125 239.554688 L 216.328125 170.082031 C 216.328125 166.894531 218.925781 164.292969 222.117188 164.292969 Z M 204.753906 187.453125 L 193.179688 187.453125 L 193.179688 175.871094 L 204.753906 175.871094 Z M 204.753906 199.03125 L 204.753906 210.609375 L 193.179688 210.609375 L 193.179688 199.03125 Z M 204.753906 222.1875 L 204.753906 233.765625 L 193.179688 233.765625 L 193.179688 222.1875 Z M 193.179688 245.34375 L 205.816406 245.34375 C 208.214844 252.066406 214.582031 256.925781 222.117188 256.925781 L 222.117188 268.503906 C 222.117188 271.699219 224.707031 274.292969 227.902344 274.292969 C 231.097656 274.292969 233.691406 271.699219 233.691406 268.503906 L 233.691406 256.925781 L 251.054688 256.925781 L 251.054688 275.359375 C 244.332031 277.753906 239.476562 284.121094 239.476562 291.660156 C 239.476562 293.699219 239.894531 295.632812 240.542969 297.449219 L 236.421875 297.449219 C 221.660156 297.449219 206.878906 300.34375 193.179688 305.867188 Z M 251.054688 291.660156 C 251.054688 288.472656 253.652344 285.871094 256.839844 285.871094 C 260.03125 285.871094 262.628906 288.472656 262.628906 291.660156 C 262.628906 294.851562 260.03125 297.449219 256.839844 297.449219 C 253.652344 297.449219 251.054688 294.851562 251.054688 291.660156 Z M 262.628906 275.359375 L 262.628906 256.925781 L 279.992188 256.925781 L 279.992188 274.292969 C 279.992188 276.789062 281.582031 279 283.949219 279.785156 L 301.3125 285.574219 C 301.917969 285.777344 302.539062 285.871094 303.140625 285.871094 C 305.566406 285.871094 307.824219 284.335938 308.632812 281.910156 C 309.644531 278.878906 308.007812 275.601562 304.976562 274.585938 L 291.566406 270.117188 L 291.566406 256.925781 C 299.101562 256.925781 305.46875 252.066406 307.863281 245.34375 L 326.289062 245.34375 L 326.289062 297.449219 L 273.136719 297.449219 C 273.785156 295.632812 274.203125 293.699219 274.203125 291.660156 C 274.203125 284.121094 269.347656 277.753906 262.628906 275.359375 Z M 326.289062 233.765625 L 308.929688 233.765625 L 308.929688 222.1875 L 326.289062 222.1875 Z M 326.289062 210.609375 L 308.929688 210.609375 L 308.929688 199.03125 L 326.289062 199.03125 Z M 326.289062 187.453125 L 308.929688 187.453125 L 308.929688 175.871094 L 326.289062 175.871094 Z M 326.289062 164.292969 L 307.863281 164.292969 C 305.46875 157.574219 299.101562 152.714844 291.566406 152.714844 L 291.566406 123.769531 L 326.289062 123.769531 Z M 279.992188 123.769531 L 279.992188 152.714844 L 262.628906 152.714844 L 262.628906 123.769531 Z M 251.054688 152.714844 L 232.84375 152.714844 L 233.550781 123.769531 L 251.054688 123.769531 Z M 210.539062 123.769531 L 221.972656 123.769531 L 221.265625 152.800781 C 214.105469 153.15625 208.121094 157.832031 205.816406 164.292969 L 193.179688 164.292969 L 193.179688 141.136719 C 193.179688 131.5625 200.96875 123.769531 210.539062 123.769531 Z M 181.601562 141.136719 L 181.601562 164.292969 L 160.675781 164.292969 L 115.660156 123.769531 L 164.242188 123.769531 C 173.8125 123.769531 181.601562 131.5625 181.601562 141.136719 Z M 98.355469 123.769531 L 154.582031 174.386719 C 155.644531 175.347656 157.023438 175.871094 158.453125 175.871094 L 181.601562 175.871094 L 181.601562 187.453125 L 148.902344 187.453125 L 121.550781 165.5625 C 120.527344 164.738281 119.253906 164.292969 117.941406 164.292969 L 100.578125 164.292969 C 97.382812 164.292969 94.789062 166.886719 94.789062 170.082031 C 94.789062 173.277344 97.382812 175.871094 100.578125 175.871094 L 115.910156 175.871094 L 130.378906 187.453125 L 93.71875 187.453125 C 91.324219 180.730469 84.957031 175.871094 77.421875 175.871094 C 67.851562 175.871094 60.058594 183.664062 60.058594 193.242188 C 60.058594 202.816406 67.851562 210.609375 77.421875 210.609375 C 84.957031 210.609375 91.324219 205.75 93.71875 199.03125 L 181.601562 199.03125 L 181.601562 210.609375 L 175.816406 210.609375 C 174.5 210.609375 173.230469 211.054688 172.199219 211.878906 L 144.847656 233.765625 L 128.445312 233.765625 C 126.050781 227.046875 119.683594 222.1875 112.148438 222.1875 C 102.574219 222.1875 94.785156 229.980469 94.785156 239.554688 C 94.785156 249.132812 102.574219 256.925781 112.148438 256.925781 C 119.683594 256.925781 126.050781 252.066406 128.445312 245.34375 L 146.878906 245.34375 C 148.191406 245.34375 149.464844 244.898438 150.496094 244.078125 L 177.847656 222.1875 L 181.601562 222.1875 L 181.601562 236.726562 L 133.316406 274.292969 L 99.511719 274.292969 C 97.117188 267.570312 90.75 262.714844 83.214844 262.714844 C 73.644531 262.714844 65.851562 270.507812 65.851562 280.082031 C 65.851562 289.65625 73.644531 297.449219 83.214844 297.449219 C 90.75 297.449219 97.117188 292.59375 99.511719 285.871094 L 135.304688 285.871094 C 136.589844 285.871094 137.839844 285.441406 138.855469 284.65625 L 181.601562 251.394531 L 181.601562 305.867188 C 167.902344 300.34375 153.121094 297.449219 138.359375 297.449219 L 48.492188 297.449219 L 48.492188 245.34375 L 71.640625 245.34375 C 74.835938 245.34375 77.429688 242.75 77.429688 239.554688 C 77.429688 236.359375 74.835938 233.765625 71.640625 233.765625 L 48.492188 233.765625 L 48.492188 146.925781 L 62.277344 146.925781 L 66.464844 155.304688 C 67.480469 157.335938 69.523438 158.503906 71.644531 158.503906 C 72.515625 158.503906 73.398438 158.308594 74.226562 157.898438 C 77.085938 156.464844 78.246094 152.988281 76.816406 150.128906 L 71.027344 138.546875 C 70.050781 136.585938 68.046875 135.347656 65.851562 135.347656 L 48.492188 135.347656 L 48.492188 123.769531 Z M 83.214844 193.242188 C 83.214844 196.429688 80.617188 199.03125 77.429688 199.03125 C 74.238281 199.03125 71.640625 196.429688 71.640625 193.242188 C 71.640625 190.050781 74.238281 187.453125 77.429688 187.453125 C 80.617188 187.453125 83.214844 190.050781 83.214844 193.242188 Z M 117.941406 239.554688 C 117.941406 242.746094 115.34375 245.34375 112.152344 245.34375 C 108.964844 245.34375 106.367188 242.746094 106.367188 239.554688 C 106.367188 236.367188 108.964844 233.765625 112.152344 233.765625 C 115.34375 233.765625 117.941406 236.367188 117.941406 239.554688 Z M 89.003906 280.082031 C 89.003906 283.273438 86.40625 285.871094 83.214844 285.871094 C 80.027344 285.871094 77.429688 283.273438 77.429688 280.082031 C 77.429688 276.890625 80.027344 274.292969 83.214844 274.292969 C 86.40625 274.292969 89.003906 276.890625 89.003906 280.082031 Z M 349.441406 320.609375 L 233.691406 320.609375 C 216.171875 320.609375 199.335938 327.964844 187.390625 340.585938 C 175.449219 327.964844 158.621094 320.609375 141.097656 320.609375 L 25.339844 320.609375 L 25.339844 146.925781 L 36.914062 146.925781 L 36.914062 303.238281 C 36.914062 306.433594 39.507812 309.027344 42.703125 309.027344 L 138.359375 309.027344 C 154.402344 309.027344 170.460938 312.820312 184.804688 320 C 184.890625 320.039062 184.984375 320.023438 185.070312 320.0625 C 185.8125 320.386719 186.59375 320.609375 187.390625 320.609375 C 188.1875 320.609375 188.96875 320.386719 189.710938 320.058594 C 189.796875 320.015625 189.898438 320.035156 189.976562 319.992188 C 204.320312 312.820312 220.378906 309.027344 236.421875 309.027344 L 332.078125 309.027344 C 335.273438 309.027344 337.867188 306.433594 337.867188 303.238281 L 337.867188 146.925781 L 349.441406 146.925781 Z M 349.441406 320.609375 " fill-opacity="1" fill-rule="nonzero"/></g><path fill="#464a51" d="M 233.691406 227.976562 C 236.886719 227.976562 239.476562 225.382812 239.476562 222.1875 L 239.476562 216.398438 L 251.054688 216.398438 L 251.054688 222.1875 C 251.054688 225.382812 253.644531 227.976562 256.839844 227.976562 C 260.035156 227.976562 262.628906 225.382812 262.628906 222.1875 L 262.628906 199.03125 C 262.628906 189.453125 254.839844 181.660156 245.265625 181.660156 C 235.691406 181.660156 227.902344 189.453125 227.902344 199.03125 L 227.902344 222.1875 C 227.902344 225.382812 230.496094 227.976562 233.691406 227.976562 Z M 245.265625 193.242188 C 248.453125 193.242188 251.054688 195.839844 251.054688 199.03125 L 251.054688 204.820312 L 239.476562 204.820312 L 239.476562 199.03125 C 239.476562 195.839844 242.078125 193.242188 245.265625 193.242188 Z M 245.265625 193.242188 " fill-opacity="1" fill-rule="nonzero"/><path fill="#464a51" d="M 279.992188 227.976562 C 283.183594 227.976562 285.777344 225.382812 285.777344 222.1875 L 285.777344 187.453125 C 285.777344 184.253906 283.183594 181.660156 279.992188 181.660156 C 276.796875 181.660156 274.203125 184.253906 274.203125 187.453125 L 274.203125 222.1875 C 274.203125 225.382812 276.796875 227.976562 279.992188 227.976562 Z M 279.992188 227.976562 " fill-opacity="1" fill-rule="nonzero"/></svg>